<?xml version="1.0" encoding="utf-8"?>
<!-- Generator: Adobe Illustrator 25.0.1, SVG Export Plug-In . SVG Version: 6.00 Build 0)  -->
<svg version="1.1" id="Layer_1" xmlns="http://www.w3.org/2000/svg" xmlns:xlink="http://www.w3.org/1999/xlink" x="0px" y="0px"
	 viewBox="0 0 1480.4 1327.68" style="enable-background:new 0 0 1480.4 1327.68;" xml:space="preserve">
<style type="text/css">
	.st0{fill:none;stroke:#FFFFFF;stroke-miterlimit:10;}
</style>
<g>
	<path class="st0" d="M1329.96,473.88c0,0-541.18,241.56-462.21-18.82c31.54-104.01-16.94-477.6-168.03-382.63
		S475.15,626.16,332.8,521.36c-156.12-114.94-384.19,548.22-34.53,401.45s479.16-250.37,530.96-77.7s94.97,483.47,271.95,181.3
		s21.58-383.22,228.79-424.71C1537.17,560.21,1484.66,400.77,1329.96,473.88z"/>
	<path class="st0" d="M710.05,70.23c-81.86,51.45-145.42,180.04-196.09,263.47c-59.18,97.45-113.97,211.69-184.34,189.95
		c-145.19-44.85-342.1,591.8-15.04,444.95c323.77-144.33,442.05-261.23,508.89-131.3c11.02,21.42,24.51,47.96,34.8,81.95
		c44.66,147.46,124.11,330.29,252.06,111.54c112.67-192.71,31.24-324.37,95.4-380.56c22.01-19.28,53.21-34.24,108.44-45.91
		c138.17-28.88,150.57-122.04,87.82-143.38c-24.51-8.4-59.56-7.82-101.84,8.72c-32.74-9.31-527.51,171.9-447.54-34.95
		c1.16-3.01,2.22-6.22,3.95-9.22C912.06,328.97,860.87-24.57,710.05,70.23z"/>
	<path class="st0" d="M720.37,68.05c-93.39,58.71-166.69,192.12-216.88,251.41c-59.03,69.74-110.4,193.83-177.05,206.49
		c-130.41,24.75-300.38,634.6,4.46,488.44C628.42,871.74,757.24,732.36,817.71,829.5c16.34,10.64,31.03,31.09,42.38,64.35
		c44.9,131.7,149.44,329.65,259.4,141.33c97.74-167.54-21.4-328.61,65.85-384.31c26.98-17.22,60.36-32.26,113.03-43.93
		c128.05-28.36,137.59-124.35,72.01-144.95c-25.19-8-59.53-8.82-100.05,3.46c-65.49-18.62-527.82,108.25-429.89-61.8
		c1.47-2.55,2.79-5.39,4.93-7.72C929.64,303.78,870.94-26.6,720.37,68.05z"/>
	<path class="st0" d="M730.69,65.86C625.76,131.82,543.9,268.97,493.01,305.22c-57.72,41.11-106.36,173.59-169.76,223.02
		c-114.74,89.46-258.43,677.97,23.95,531.94c271.51-140.41,399.95-297.87,464.76-238.49c19.97,0.82,37.47,14.22,49.95,46.75
		c44.54,116.07,174.77,329.01,266.73,171.12c82.8-142.37-74.75-333.84,36.3-388.05c31.73-15.49,67.52-30.2,117.63-41.94
		c117.97-27.63,124.61-126.66,56.21-146.51c-25.86-7.61-59.5-9.83-98.27-1.81c-98.23-27.93-526.16,44.35-412.24-88.65
		c1.8-2.11,3.89-4.07,5.9-6.21C966.11,303.19,881-28.62,730.69,65.86z"/>
	<path class="st0" d="M741.01,63.67c-116.47,73.21-204.11,213.94-258.47,227.31c-53.35,13.11-104.09,152.39-162.47,239.56
		c-102.22,152.63-216.42,721.48,43.45,575.43c245.56-138.01,373.55-313.7,442.69-292.08c23.6-9.01,43.77-2.61,57.52,29.16
		c43.56,100.62,200.1,328.37,274.07,200.91c67.86-117.21-128.36-339.94,6.75-391.8c36.41-13.98,74.68-28.12,122.23-39.95
		c107.91-26.84,111.63-128.97,40.41-148.08c-26.53-7.22-59.47-10.83-96.49-7.08c-130.97-37.24-522.18-18.65-394.59-115.5
		c2.17-1.65,4.33-3.47,6.88-4.71C978.21,261.17,891.07-30.65,741.01,63.67z"/>
	<path class="st0" d="M751.34,61.48c-128.01,80.46-219.74,228.77-279.27,215.25c-47.15-10.71-102.76,131.66-155.18,256.09
		c-91.33,216.79-174.31,765.18,62.94,618.93c219.7-135.44,347.15-329.54,420.62-345.68c27.22-18.83,49.9-19.37,65.1,11.56
		c41.97,85.41,225.43,327.73,281.4,230.69c52.92-92.04-182.01-346.71-22.8-395.55c41.11-12.61,81.86-26.02,126.82-37.96
		c97.85-25.99,98.65-131.28,24.61-149.64c-27.21-6.83-59.81-7.22-94.71-12.34c-168.4-24.71-516.71-79.49-376.94-142.35
		c2.57-1.15,5.13-2.39,7.85-3.21C1005.28,248.89,901.13-32.68,751.34,61.48z"/>
	<path class="st0" d="M761.66,59.3c-139.55,87.72-239.17,247.6-300.06,203.2c-44.12-32.17-101.65,111.38-147.89,272.63
		c-80.83,281.82-132.05,809.1,82.44,662.42c193.99-132.67,324.78-339.96,398.56-399.28c32.81-26.38,55.76-35.99,72.67-6.04
		c39.82,70.54,250.76,327.09,288.74,260.48c37.98-66.87-235.6-353.96-52.35-399.3c45.84-11.34,89.04-23.88,131.42-35.97
		c87.82-25.07,85.67-133.58,8.81-151.2c-27.88-6.44-59.81-10.58-92.93-17.61c-199.79-42.41-511.51-137.88-359.29-169.2
		c2.96-0.61,5.89-1.25,8.83-1.7C1031.31,242.3,911.2-34.7,761.66,59.3z"/>
	<path class="st0" d="M1219.38,620.06c77.82-24.06,72.69-135.89-7-152.77C977.86,417.62,590.26,249.9,779.59,248.36
		c278.85-2.27,143.47-286.22-7.61-191.25s-261.74,265.3-320.85,191.14c-120.85-151.59-339.18,1226.37-38.67,995.08
		c239.19-184.1,392.5-573.5,456.73-476.51c37.19,56.15,276.08,326.46,296.08,290.27c23.04-41.71-289.1-361.55-81.9-403.05
		C1133.97,643.91,1179.6,632.35,1219.38,620.06z"/>
</g>
</svg>
