<?xml version="1.0" encoding="utf-8"?>
<!-- Generator: Adobe Illustrator 25.0.1, SVG Export Plug-In . SVG Version: 6.00 Build 0)  -->
<svg version="1.1" id="Layer_1" xmlns="http://www.w3.org/2000/svg" xmlns:xlink="http://www.w3.org/1999/xlink" x="0px" y="0px"
	 viewBox="0 0 1480.4 782.27" style="enable-background:new 0 0 1480.4 782.27;" xml:space="preserve">
<style type="text/css">
	.st0{fill:none;stroke:#FFFFFF;stroke-miterlimit:10;}
</style>
<g>
	<g>
		<path class="st0" d="M648.84,146.94C425.88,405.38,216.28,523.4,108.07,631.89C7.41,732.81,670.65,607.46,853.84,385.86
			c220.43-266.66,584.8-64.44,554.61-157.36C1378.26,135.59,874.83-115.02,648.84,146.94z"/>
	</g>
	<g>
		<path class="st0" d="M663.42,179.37C427.25,425.78,211.76,532.68,98.02,635.35c-105.81,95.51,563.09,5.05,757.63-206.67
			c234.09-254.76,587.37-33.75,562.08-128.11C1392.45,206.2,902.82-70.41,663.42,179.37z"/>
	</g>
	<g>
		<path class="st0" d="M676.3,212.51C427.55,446.23,206.76,541.7,87.8,638.28c-110.66,89.84,562.05,34.51,767.41-166.73
			c247.1-242.16,588.33-2.96,568.02-98.52C1402.92,277.47,928.44-24.39,676.3,212.51z"/>
	</g>
	<g>
		<path class="st0" d="M687.42,246.29C426.78,466.66,201.3,550.45,77.44,640.67c-115.21,83.93,559.48,63.88,775.08-126.34
			c259.44-228.89,587.68,27.83,572.4-68.66S951.61,22.9,687.42,246.29z"/>
	</g>
	<g>
		<path class="st0" d="M696.75,280.6C424.94,487.03,195.38,558.9,66.98,642.52c-119.45,77.78,555.37,93.07,780.63-85.6
			c271.06-215,585.42,58.55,575.21-38.61C1412.6,421.15,972.27,71.35,696.75,280.6z"/>
	</g>
	<g>
		<path class="st0" d="M704.28,315.35C422.04,507.27,189.03,567.03,56.42,643.81c-123.35,71.42,549.74,122.01,784.04-44.63
			c281.94-200.52,581.55,89.11,576.44-8.45S990.38,120.8,704.28,315.35z"/>
	</g>
	<g>
		<path class="st0" d="M709.98,350.45C418.08,527.34,182.26,574.82,45.82,644.55c-126.92,64.87,542.6,150.61,785.3-3.54
			c292.05-185.49,576.09,119.42,576.09,21.73S1005.86,171.14,709.98,350.45z"/>
	</g>
</g>
</svg>
