<?xml version="1.0" encoding="utf-8"?>
<!-- Generator: Adobe Illustrator 25.0.1, SVG Export Plug-In . SVG Version: 6.00 Build 0)  -->
<svg version="1.1" id="Layer_1" xmlns="http://www.w3.org/2000/svg" xmlns:xlink="http://www.w3.org/1999/xlink" x="0px" y="0px"
	 viewBox="0 0 684.2 25.1" style="enable-background:new 0 0 684.2 25.1;" xml:space="preserve">
<style type="text/css">
	.st0{fill:none;stroke:#1D1D1B;stroke-width:0.75;stroke-miterlimit:10;}
</style>
<line class="st0" x1="79.8" y1="10.7" x2="560.6" y2="10.7"/>
<g>
	<path d="M6.9,5.6c1.2,0,2.3,1,2.3,2.3v0.3c0,0.6-0.2,1.2-0.7,1.6c0.7,0.4,1.1,1.1,1.1,1.9v1c0,1.2-1,2.3-2.3,2.3H4.1
		c-0.2,0-0.3-0.1-0.3-0.3V5.9c0-0.2,0.1-0.3,0.3-0.3H6.9z M4.9,6.7v2.7h2c0.6,0,1.1-0.5,1.1-1.2V7.8c0-0.6-0.6-1.2-1.2-1.2H4.9z
		 M4.9,10.4v3.3h2.4c0.6,0,1.2-0.6,1.2-1.2v-1c0-0.6-0.6-1.2-1.2-1.2H4.9z"/>
	<path d="M15.7,11.2h-2.1l-0.9,3.4c0,0.1-0.1,0.2-0.3,0.2h-0.6c-0.1,0-0.2-0.1-0.2-0.2l2.3-8.7c0.1-0.2,0.2-0.3,0.4-0.3H15
		c0.2,0,0.3,0.1,0.4,0.3l2.3,8.7c0,0.1-0.1,0.2-0.2,0.2h-0.6c-0.1,0-0.3-0.1-0.3-0.2L15.7,11.2z M13.9,10.1h1.5L14.7,7L13.9,10.1z"
		/>
	<path d="M26.1,14.6c0,0.1-0.1,0.3-0.3,0.3H25l-3.5-6.7v6.5c0,0.1-0.1,0.2-0.2,0.2h-0.7c-0.1,0-0.2-0.1-0.2-0.2V5.9
		c0-0.1,0.1-0.3,0.3-0.3h0.8l3.5,6.7V5.8c0-0.1,0.1-0.2,0.2-0.2h0.7c0.1,0,0.2,0.1,0.2,0.2V14.6z"/>
	<path d="M31.8,5.6c1.7,0,3,1.2,3,2.7v3.8c0,1.5-1.4,2.7-3,2.7h-2.4c-0.2,0-0.3-0.1-0.3-0.3V5.9c0-0.2,0.1-0.3,0.3-0.3H31.8z
		 M31.8,13.7c1,0,1.9-0.7,1.9-1.6V8.3c0-0.9-0.9-1.6-1.9-1.6h-1.5v7.1H31.8z"/>
	<path d="M43.2,14.8c-0.2,0-0.3-0.1-0.4-0.3L42,5.9c0-0.2,0.1-0.3,0.3-0.3h0.6c0.1,0,0.2,0.1,0.3,0.2l0.6,7.6l1.1-3.4
		c0-0.2,0.2-0.2,0.3-0.2h0.6c0.1,0,0.3,0.1,0.3,0.2l1.1,3.4l0.6-7.6c0-0.1,0.1-0.2,0.3-0.2h0.6c0.2,0,0.3,0.1,0.3,0.3L48,14.5
		c0,0.2-0.2,0.3-0.4,0.3h-1l-1.2-3.5l-1.3,3.5H43.2z"/>
	<path d="M57.2,5.6c0.1,0,0.2,0.1,0.2,0.2v0.6c0,0.1-0.1,0.2-0.2,0.2h-4.3V9h2.4c0.1,0,0.2,0.1,0.2,0.2v0.6c0,0.1-0.1,0.2-0.2,0.2
		h-2.4v3.6h4.3c0.1,0,0.2,0.1,0.2,0.2v0.6c0,0.1-0.1,0.2-0.2,0.2H52c-0.2,0-0.3-0.1-0.3-0.3V5.9c0-0.2,0.1-0.3,0.3-0.3H57.2z"/>
	<path d="M63.1,5.6c1.2,0,2.3,1,2.3,2.3v0.3c0,0.6-0.2,1.2-0.7,1.6c0.7,0.4,1.1,1.1,1.1,1.9v1c0,1.2-1,2.3-2.3,2.3h-3.2
		c-0.2,0-0.3-0.1-0.3-0.3V5.9c0-0.2,0.1-0.3,0.3-0.3H63.1z M61.1,6.7v2.7h2c0.6,0,1.1-0.5,1.1-1.2V7.8c0-0.6-0.6-1.2-1.2-1.2H61.1z
		 M61.1,10.4v3.3h2.4c0.6,0,1.2-0.6,1.2-1.2v-1c0-0.6-0.6-1.2-1.2-1.2H61.1z"/>
</g>
<g>
	<path d="M579.3,14c0-0.1,0.1-0.2,0.2-0.2h0.4c0.1,0,0.2,0.1,0.2,0.2v1.4c0,0.1-0.1,0.2-0.2,0.2h-5.1c-0.2,0-0.3-0.1-0.3-0.3v-0.9
		l3.2-3.3c1-1,1.2-1.6,1.2-2.3c0-0.9-0.8-1.4-1.6-1.4c-1.1,0-1.6,0.6-2,1.2c-0.1,0.2-0.3,0.2-0.5,0.1l-0.3-0.2
		c-0.2-0.1-0.2-0.3-0.1-0.4c0.5-1.2,1.7-1.8,2.9-1.8c1.4,0,2.8,0.9,2.8,2.5c0,1.1-0.6,2.1-1.5,2.9l-3,2.9h3.4V14z"/>
	<path d="M582.5,11c0-2.2,0.7-4.8,3-4.8s3,2.6,3,4.8c0,2.2-0.7,4.8-3,4.8S582.5,13.2,582.5,11z M587.2,11c0-1.3-0.2-3.8-1.7-3.8
		c-1.6,0-1.7,2.4-1.7,3.8c0,1.3,0.2,3.8,1.7,3.8C587.1,14.8,587.2,12.4,587.2,11z"/>
	<path d="M590.9,7.4c0-0.1,0-0.3,0.2-0.3l2.2-0.8c0.4-0.1,0.8,0.1,0.8,0.5v7.7h1.8c0.1,0,0.2,0.1,0.2,0.2v0.6c0,0.1-0.1,0.2-0.2,0.2
		h-5.1c-0.1,0-0.2-0.1-0.2-0.2v-0.6c0-0.1,0.1-0.2,0.2-0.2h2.1V7.7l-1.5,0.5c-0.1,0-0.3,0-0.3-0.1L590.9,7.4z"/>
	<path d="M598.6,11c0-2.2,0.7-4.8,3-4.8s3,2.6,3,4.8c0,2.2-0.7,4.8-3,4.8S598.6,13.2,598.6,11z M603.3,11c0-1.3-0.2-3.8-1.7-3.8
		c-1.6,0-1.7,2.4-1.7,3.8c0,1.3,0.2,3.8,1.7,3.8C603.2,14.8,603.3,12.4,603.3,11z"/>
	<path d="M617.4,11.3c0.1,0,0.2,0.1,0.2,0.2v0.6c0,0.1-0.1,0.2-0.2,0.2h-5.2c-0.1,0-0.2-0.1-0.2-0.2v-0.6c0-0.1,0.1-0.2,0.2-0.2
		H617.4z"/>
	<path d="M625.5,6.7c0-0.2,0.1-0.3,0.3-0.3h3.2c1.2,0,2.3,1,2.3,2.3v0.7c0,1.2-1,2.3-2.3,2.3h-2.3v3.8c0,0.1-0.1,0.2-0.2,0.2h-0.7
		c-0.1,0-0.2-0.1-0.2-0.2V6.7z M630.2,8.6c0-0.6-0.6-1.2-1.2-1.2h-2.3v3h2.3c0.6,0,1.2-0.6,1.2-1.2V8.6z"/>
	<path d="M637.3,6.4c1.2,0,2.3,1,2.3,2.3v0.7c0,1.1-0.8,2.1-1.9,2.2l2,3.7c0.1,0.2,0,0.4-0.2,0.4h-0.5c-0.2,0-0.3,0-0.4-0.3
		l-1.9-3.8H635v3.8c0,0.1-0.1,0.2-0.2,0.2H634c-0.2,0-0.2-0.1-0.2-0.2V6.7c0-0.2,0.2-0.3,0.3-0.3H637.3z M638.5,8.6
		c0-0.6-0.6-1.2-1.2-1.2H635v3h2.3c0.6,0,1.2-0.6,1.2-1.2V8.6z"/>
	<path d="M647.7,6.4c0.1,0,0.2,0.1,0.2,0.2v0.6c0,0.1-0.1,0.2-0.2,0.2h-4.3v2.3h2.4c0.1,0,0.2,0.1,0.2,0.2v0.6
		c0,0.1-0.1,0.2-0.2,0.2h-2.4v3.6h4.3c0.1,0,0.2,0.1,0.2,0.2v0.6c0,0.1-0.1,0.2-0.2,0.2h-5.2c-0.2,0-0.3-0.1-0.3-0.3V6.7
		c0-0.2,0.1-0.3,0.3-0.3H647.7z"/>
	<path d="M650.7,15.2c-0.2-0.1-0.2-0.2-0.2-0.3l0.2-0.5c0.1-0.2,0.2-0.2,0.4-0.1c0.8,0.3,1.6,0.5,2.3,0.5c1,0,1.6-0.5,1.6-1.3
		c0.1-1-0.6-1.3-1.9-1.8c-2.2-0.9-2.9-1.8-2.8-3.1c0.1-1.4,1.2-2.3,2.7-2.3c0.7,0,1.5,0.2,2.5,0.6c0.2,0.1,0.2,0.2,0.2,0.3l-0.2,0.5
		c-0.1,0.2-0.2,0.2-0.4,0.1c-0.8-0.3-1.5-0.5-2-0.5c-1,0-1.6,0.5-1.7,1.3c-0.1,1,0.9,1.4,1.9,1.8c2.2,0.9,2.9,1.6,2.8,3.1
		c-0.1,1.4-1.2,2.3-2.7,2.3C652.6,15.8,651.6,15.6,650.7,15.2z"/>
	<path d="M664.3,6.4c0.1,0,0.2,0.1,0.2,0.2v0.6c0,0.1-0.1,0.2-0.2,0.2H660v2.3h2.4c0.1,0,0.2,0.1,0.2,0.2v0.6c0,0.1-0.1,0.2-0.2,0.2
		H660v3.6h4.3c0.1,0,0.2,0.1,0.2,0.2v0.6c0,0.1-0.1,0.2-0.2,0.2h-5.2c-0.2,0-0.3-0.1-0.3-0.3V6.7c0-0.2,0.2-0.3,0.3-0.3H664.3z"/>
	<path d="M672.9,15.4c0,0.1-0.1,0.3-0.3,0.3h-0.8l-3.5-6.7v6.5c0,0.1-0.1,0.2-0.2,0.2h-0.7c-0.1,0-0.2-0.1-0.2-0.2V6.7
		c0-0.1,0.1-0.3,0.3-0.3h0.8l3.5,6.7V6.6c0-0.1,0.1-0.2,0.2-0.2h0.7c0.2,0,0.2,0.1,0.2,0.2V15.4z"/>
	<path d="M678,7.5h-2c-0.1,0-0.2-0.1-0.2-0.2V6.6c0-0.1,0.1-0.2,0.2-0.2h5.3c0.1,0,0.2,0.1,0.2,0.2v0.6c0,0.1-0.1,0.2-0.2,0.2h-2.1
		v7.9c0,0.1-0.1,0.2-0.2,0.2h-0.7c-0.1,0-0.2-0.1-0.2-0.2V7.5z"/>
</g>
</svg>
