<?xml version="1.0" encoding="utf-8"?>
<!-- Generator: Adobe Illustrator 25.0.1, SVG Export Plug-In . SVG Version: 6.00 Build 0)  -->
<svg version="1.1" id="Layer_1" xmlns="http://www.w3.org/2000/svg" xmlns:xlink="http://www.w3.org/1999/xlink" x="0px" y="0px"
	 viewBox="0 0 694.5 25.1" style="enable-background:new 0 0 694.5 25.1;" xml:space="preserve">
<style type="text/css">
	.st0{fill:none;stroke:#1D1D1B;stroke-width:0.75;stroke-miterlimit:10;}
</style>
<line class="st0" x1="110.9" y1="10.9" x2="560.6" y2="10.9"/>
<g>
	<path d="M9,11.6H6.9L6,15.1c0,0.1-0.1,0.2-0.3,0.2H5c-0.1,0-0.2-0.1-0.2-0.2l2.3-8.7C7.2,6.1,7.4,6,7.6,6h0.7
		c0.2,0,0.3,0.1,0.4,0.3l2.3,8.7c0,0.1-0.1,0.2-0.2,0.2h-0.6c-0.1,0-0.3-0.1-0.3-0.2L9,11.6z M7.1,10.6h1.5L7.9,7.4L7.1,10.6z"/>
	<path d="M13.5,6.2c0-0.1,0.1-0.2,0.2-0.2h0.7c0.1,0,0.2,0.1,0.2,0.2v7.9H19c0.1,0,0.2,0.1,0.2,0.2v0.6c0,0.1-0.1,0.2-0.2,0.2h-5.2
		c-0.2,0-0.3-0.1-0.3-0.3V6.2z"/>
	<path d="M25,6c1.2,0,2.3,1,2.3,2.3v0.3c0,0.6-0.2,1.2-0.7,1.6c0.7,0.4,1.1,1.1,1.1,1.9v1c0,1.2-1,2.3-2.3,2.3h-3.2
		c-0.2,0-0.3-0.1-0.3-0.3V6.3C21.8,6.2,22,6,22.1,6H25z M23,7.1v2.7h2c0.6,0,1.1-0.5,1.1-1.2V8.3c0-0.6-0.6-1.2-1.2-1.2H23z
		 M23,10.9v3.3h2.4c0.6,0,1.2-0.6,1.2-1.2v-1c0-0.6-0.6-1.2-1.2-1.2H23z"/>
	<path d="M30.1,6.3c0-0.1,0.1-0.2,0.2-0.2h0.7c0.1,0,0.2,0.1,0.2,0.2v6.5c0,0.9,0.9,1.6,1.9,1.6c1,0,1.9-0.7,1.9-1.6V6.3
		c0-0.1,0.1-0.2,0.2-0.2H36c0.1,0,0.2,0.1,0.2,0.2v6.5c0,1.5-1.4,2.7-3.1,2.7c-1.7,0-3.1-1.2-3.1-2.7V6.3z"/>
	<path d="M45,15.1c0,0.1-0.1,0.2-0.2,0.2h-0.6c-0.1,0-0.2-0.1-0.2-0.2V8.2l-1.3,2.4c-0.1,0.2-0.2,0.3-0.4,0.3s-0.4-0.1-0.5-0.3
		l-1.3-2.4v6.9c0,0.1-0.1,0.2-0.2,0.2h-0.6c-0.1,0-0.2-0.1-0.2-0.2V6.3c0-0.1,0.1-0.3,0.3-0.3h0.8l1.8,3.4L43.9,6h0.8
		C44.9,6,45,6.2,45,6.3V15.1z"/>
	<path d="M54.9,7.1h-2c-0.1,0-0.2-0.1-0.2-0.2V6.2c0-0.1,0.1-0.2,0.2-0.2h5.3c0.1,0,0.2,0.1,0.2,0.2v0.6c0,0.1-0.1,0.2-0.2,0.2h-2.1
		v7.1h2.1c0.1,0,0.2,0.1,0.2,0.2v0.6c0,0.1-0.1,0.2-0.2,0.2h-5.3c-0.1,0-0.2-0.1-0.2-0.2v-0.6c0-0.1,0.1-0.2,0.2-0.2h2V7.1z"/>
	<path d="M63.4,7.1h-2c-0.1,0-0.2-0.1-0.2-0.2V6.2c0-0.1,0.1-0.2,0.2-0.2h5.3c0.1,0,0.2,0.1,0.2,0.2v0.6c0,0.1-0.1,0.2-0.2,0.2h-2.1
		v7.1h2.1c0.1,0,0.2,0.1,0.2,0.2v0.6c0,0.1-0.1,0.2-0.2,0.2h-5.3c-0.1,0-0.2-0.1-0.2-0.2v-0.6c0-0.1,0.1-0.2,0.2-0.2h2V7.1z"/>
	<path d="M80,11c0.1,0,0.2,0.1,0.2,0.2v0.6c0,0.1-0.1,0.2-0.2,0.2h-5.2c-0.1,0-0.2-0.1-0.2-0.2v-0.6c0-0.1,0.1-0.2,0.2-0.2H80z"/>
	<path d="M90.2,7.1h-2c-0.1,0-0.2-0.1-0.2-0.2V6.2C87.9,6.1,88,6,88.2,6h5.3c0.1,0,0.2,0.1,0.2,0.2v0.6c0,0.1-0.1,0.2-0.2,0.2h-2.1
		v7.1h2.1c0.1,0,0.2,0.1,0.2,0.2v0.6c0,0.1-0.1,0.2-0.2,0.2h-5.3c-0.1,0-0.2-0.1-0.2-0.2v-0.6c0-0.1,0.1-0.2,0.2-0.2h2V7.1z"/>
	<path d="M98.6,7.1h-2c-0.1,0-0.2-0.1-0.2-0.2V6.2c0-0.1,0.1-0.2,0.2-0.2h5.3c0.1,0,0.2,0.1,0.2,0.2v0.6c0,0.1-0.1,0.2-0.2,0.2h-2.1
		v7.1h2.1c0.1,0,0.2,0.1,0.2,0.2v0.6c0,0.1-0.1,0.2-0.2,0.2h-5.3c-0.1,0-0.2-0.1-0.2-0.2v-0.6c0-0.1,0.1-0.2,0.2-0.2h2V7.1z"/>
</g>
<g>
	<path d="M576.8,14.9c-0.2-0.1-0.2-0.2-0.2-0.3l0.2-0.5c0.1-0.2,0.2-0.2,0.4-0.1c0.8,0.3,1.6,0.5,2.3,0.5c1,0,1.6-0.5,1.6-1.3
		c0.1-1-0.6-1.3-1.9-1.8c-2.2-0.9-2.9-1.8-2.8-3.1c0.1-1.4,1.2-2.3,2.7-2.3c0.7,0,1.5,0.2,2.5,0.6c0.2,0.1,0.2,0.2,0.2,0.3l-0.2,0.5
		c-0.1,0.2-0.2,0.2-0.4,0.1c-0.8-0.3-1.5-0.5-2-0.5c-1,0-1.6,0.5-1.7,1.3c-0.1,1,0.9,1.4,1.9,1.8c2.2,0.9,2.9,1.6,2.8,3.1
		c-0.1,1.4-1.2,2.3-2.7,2.3C578.7,15.4,577.7,15.3,576.8,14.9z"/>
	<path d="M590.4,6c0.1,0,0.2,0.1,0.2,0.2v0.6c0,0.1-0.1,0.2-0.2,0.2h-4.3v2.3h2.4c0.1,0,0.2,0.1,0.2,0.2v0.6c0,0.1-0.1,0.2-0.2,0.2
		h-2.4v3.6h4.3c0.1,0,0.2,0.1,0.2,0.2V15c0,0.1-0.1,0.2-0.2,0.2h-5.2c-0.2,0-0.3-0.2-0.3-0.3V6.3c0-0.2,0.1-0.3,0.3-0.3H590.4z"/>
	<path d="M593.2,6.3c0-0.2,0.1-0.3,0.3-0.3h3.2c1.2,0,2.3,1,2.3,2.3v0.7c0,1.2-1,2.3-2.3,2.3h-2.3v3.8c0,0.1-0.1,0.2-0.2,0.2h-0.7
		c-0.1,0-0.2-0.1-0.2-0.2V6.3z M597.9,8.3c0-0.6-0.6-1.2-1.2-1.2h-2.3v3h2.3c0.6,0,1.2-0.6,1.2-1.2V8.3z"/>
	<path d="M603.6,7.1h-2c-0.1,0-0.2-0.1-0.2-0.2V6.2c0-0.1,0.1-0.2,0.2-0.2h5.3c0.1,0,0.2,0.1,0.2,0.2v0.6c0,0.1-0.1,0.2-0.2,0.2
		h-2.1v7.9c0,0.1-0.1,0.2-0.2,0.2h-0.7c-0.2,0-0.2-0.1-0.2-0.2V7.1z"/>
	<path d="M615.5,6c0.1,0,0.2,0.1,0.2,0.2v0.6c0,0.1-0.1,0.2-0.2,0.2h-4.3v2.3h2.4c0.1,0,0.2,0.1,0.2,0.2v0.6c0,0.1-0.1,0.2-0.2,0.2
		h-2.4v3.6h4.3c0.1,0,0.2,0.1,0.2,0.2V15c0,0.1-0.1,0.2-0.2,0.2h-5.2c-0.2,0-0.3-0.2-0.3-0.3V6.3c0-0.2,0.2-0.3,0.3-0.3H615.5z"/>
	<path d="M624,15.1c0,0.1-0.1,0.2-0.2,0.2h-0.6c-0.2,0-0.2-0.1-0.2-0.2V8.2l-1.3,2.4c-0.1,0.2-0.2,0.3-0.5,0.3
		c-0.2,0-0.4-0.1-0.5-0.3l-1.3-2.4v6.9c0,0.1-0.1,0.2-0.2,0.2h-0.6c-0.2,0-0.2-0.1-0.2-0.2V6.3c0-0.1,0.1-0.3,0.3-0.3h0.8l1.8,3.4
		l1.8-3.4h0.8c0.1,0,0.3,0.1,0.3,0.3V15.1z"/>
	<path d="M630.2,6c1.2,0,2.3,1,2.3,2.3v0.3c0,0.6-0.2,1.2-0.7,1.6c0.7,0.4,1.1,1.1,1.1,1.9v1c0,1.2-1,2.3-2.3,2.3h-3.2
		c-0.2,0-0.3-0.2-0.3-0.3V6.3c0-0.2,0.1-0.3,0.3-0.3H630.2z M628.2,7.1v2.7h2c0.6,0,1.1-0.5,1.1-1.2V8.3c0-0.6-0.6-1.2-1.2-1.2
		H628.2z M628.2,10.9v3.3h2.4c0.6,0,1.2-0.6,1.2-1.2v-1c0-0.6-0.6-1.2-1.2-1.2H628.2z"/>
	<path d="M640.9,6c0.1,0,0.2,0.1,0.2,0.2v0.6c0,0.1-0.1,0.2-0.2,0.2h-4.3v2.3h2.4c0.1,0,0.2,0.1,0.2,0.2v0.6c0,0.1-0.1,0.2-0.2,0.2
		h-2.4v3.6h4.3c0.1,0,0.2,0.1,0.2,0.2V15c0,0.1-0.1,0.2-0.2,0.2h-5.2c-0.2,0-0.3-0.2-0.3-0.3V6.3c0-0.2,0.1-0.3,0.3-0.3H640.9z"/>
	<path d="M647.2,6c1.2,0,2.3,1,2.3,2.3v0.7c0,1.1-0.8,2.1-1.9,2.2l2,3.7c0.1,0.2,0,0.4-0.2,0.4h-0.5c-0.2,0-0.3,0-0.4-0.3l-1.9-3.8
		h-1.5v3.8c0,0.1-0.1,0.2-0.2,0.2h-0.7c-0.2,0-0.2-0.1-0.2-0.2V6.3c0-0.2,0.2-0.3,0.3-0.3H647.2z M648.3,8.3c0-0.6-0.6-1.2-1.2-1.2
		h-2.3v3h2.3c0.6,0,1.2-0.6,1.2-1.2V8.3z"/>
	<path d="M661.1,13.7c0-0.1,0.1-0.2,0.2-0.2h0.4c0.1,0,0.2,0.1,0.2,0.2v1.4c0,0.1-0.1,0.2-0.2,0.2h-5.1c-0.2,0-0.3-0.2-0.3-0.3v-0.9
		l3.2-3.3c1-1,1.2-1.6,1.2-2.3c0-0.9-0.8-1.4-1.6-1.4c-1.1,0-1.6,0.6-2,1.2c-0.1,0.2-0.3,0.2-0.5,0.1l-0.3-0.2
		c-0.2-0.1-0.2-0.3-0.1-0.4c0.5-1.2,1.7-1.8,2.9-1.8c1.4,0,2.8,0.9,2.8,2.5c0,1.1-0.6,2.1-1.5,2.9l-3,2.9h3.4V13.7z"/>
	<path d="M664.3,10.7c0-2.2,0.7-4.8,3-4.8s3,2.6,3,4.8c0,2.2-0.7,4.8-3,4.8S664.3,12.8,664.3,10.7z M669.1,10.7
		c0-1.3-0.2-3.8-1.7-3.8c-1.6,0-1.7,2.4-1.7,3.8c0,1.3,0.2,3.8,1.7,3.8C668.9,14.4,669.1,12,669.1,10.7z"/>
	<path d="M672.8,7.1c0-0.1,0-0.3,0.2-0.3l2.2-0.8c0.4-0.1,0.8,0.1,0.8,0.5v7.7h1.8c0.1,0,0.2,0.1,0.2,0.2V15c0,0.1-0.1,0.2-0.2,0.2
		h-5.1c-0.1,0-0.2-0.1-0.2-0.2v-0.6c0-0.1,0.1-0.2,0.2-0.2h2.1V7.3l-1.5,0.5c-0.1,0-0.3,0-0.3-0.1L672.8,7.1z"/>
	<path d="M685.1,13.7c0-0.1,0.1-0.2,0.2-0.2h0.4c0.1,0,0.2,0.1,0.2,0.2v1.4c0,0.1-0.1,0.2-0.2,0.2h-5.1c-0.2,0-0.3-0.2-0.3-0.3v-0.9
		l3.2-3.3c1-1,1.2-1.6,1.2-2.3c0-0.9-0.8-1.4-1.6-1.4c-1.1,0-1.6,0.6-2,1.2c-0.1,0.2-0.3,0.2-0.5,0.1l-0.3-0.2
		c-0.1-0.1-0.2-0.3-0.1-0.4c0.5-1.2,1.7-1.8,2.9-1.8c1.4,0,2.8,0.9,2.9,2.5c0,1.1-0.6,2.1-1.5,2.9l-3,2.9h3.4V13.7z"/>
</g>
</svg>
