<?xml version="1.0" encoding="utf-8"?>
<!-- Generator: Adobe Illustrator 25.0.1, SVG Export Plug-In . SVG Version: 6.00 Build 0)  -->
<svg version="1.1" id="Layer_1" xmlns="http://www.w3.org/2000/svg" xmlns:xlink="http://www.w3.org/1999/xlink" x="0px" y="0px"
	 viewBox="0 0 684.2 25.1" style="enable-background:new 0 0 684.2 25.1;" xml:space="preserve">
<style type="text/css">
	.st0{fill:none;stroke:#1D1D1B;stroke-width:0.75;stroke-miterlimit:10;}
</style>
<line class="st0" x1="115.6" y1="10.9" x2="560.6" y2="10.9"/>
<g>
	<path d="M12.4,11.6h-2.1l-0.9,3.4c0,0.1-0.1,0.2-0.3,0.2H8.5c-0.1,0-0.2-0.1-0.2-0.2l2.3-8.7C10.7,6.1,10.8,6,11.1,6h0.7
		c0.2,0,0.3,0.1,0.4,0.3l2.3,8.7c0,0.1-0.1,0.2-0.2,0.2h-0.6c-0.1,0-0.3-0.1-0.3-0.2L12.4,11.6z M10.6,10.6h1.5l-0.8-3.1L10.6,10.6z
		"/>
	<path d="M17,6.2C17,6.1,17.1,6,17.2,6h0.7c0.1,0,0.2,0.1,0.2,0.2v7.9h4.3c0.1,0,0.2,0.1,0.2,0.2v0.6c0,0.1-0.1,0.2-0.2,0.2h-5.2
		c-0.2,0-0.3-0.1-0.3-0.3V6.2z"/>
	<path d="M28.4,6c1.2,0,2.3,1,2.3,2.3v0.3c0,0.6-0.2,1.2-0.7,1.6c0.7,0.4,1.1,1.1,1.1,1.9v1c0,1.2-1,2.3-2.3,2.3h-3.2
		c-0.2,0-0.3-0.1-0.3-0.3V6.3c0-0.2,0.1-0.3,0.3-0.3H28.4z M26.4,7.1v2.7h2c0.6,0,1.1-0.5,1.1-1.2V8.3c0-0.6-0.6-1.2-1.2-1.2H26.4z
		 M26.4,10.9v3.3h2.4c0.6,0,1.2-0.6,1.2-1.2v-1c0-0.6-0.6-1.2-1.2-1.2H26.4z"/>
	<path d="M33.6,6.3c0-0.1,0.1-0.2,0.2-0.2h0.7c0.1,0,0.2,0.1,0.2,0.2v6.5c0,0.9,0.9,1.6,1.9,1.6c1,0,1.9-0.7,1.9-1.6V6.3
		c0-0.1,0.1-0.2,0.2-0.2h0.7c0.1,0,0.2,0.1,0.2,0.2v6.5c0,1.5-1.4,2.7-3.1,2.7c-1.7,0-3.1-1.2-3.1-2.7V6.3z"/>
	<path d="M48.5,15.1c0,0.1-0.1,0.2-0.2,0.2h-0.6c-0.1,0-0.2-0.1-0.2-0.2V8.2l-1.3,2.4c-0.1,0.2-0.2,0.3-0.4,0.3s-0.4-0.1-0.5-0.3
		l-1.3-2.4v6.9c0,0.1-0.1,0.2-0.2,0.2H43c-0.1,0-0.2-0.1-0.2-0.2V6.3C42.7,6.2,42.9,6,43,6h0.8l1.8,3.4L47.4,6h0.8
		c0.1,0,0.3,0.1,0.3,0.3V15.1z"/>
	<path d="M58.4,7.1h-2c-0.1,0-0.2-0.1-0.2-0.2V6.2c0-0.1,0.1-0.2,0.2-0.2h5.3c0.1,0,0.2,0.1,0.2,0.2v0.6c0,0.1-0.1,0.2-0.2,0.2h-2.1
		v7.1h2.1c0.1,0,0.2,0.1,0.2,0.2v0.6c0,0.1-0.1,0.2-0.2,0.2h-5.3c-0.1,0-0.2-0.1-0.2-0.2v-0.6c0-0.1,0.1-0.2,0.2-0.2h2V7.1z"/>
	<path d="M75,11c0.1,0,0.2,0.1,0.2,0.2v0.6c0,0.1-0.1,0.2-0.2,0.2h-5.2c-0.1,0-0.2-0.1-0.2-0.2v-0.6c0-0.1,0.1-0.2,0.2-0.2H75z"/>
	<path d="M83.1,6.3c0-0.1,0.1-0.2,0.2-0.2H84c0.1,0,0.2,0.1,0.2,0.2v6.5c0,0.9,0.9,1.6,1.9,1.6c1,0,1.9-0.7,1.9-1.6V6.3
		C88,6.1,88.1,6,88.2,6H89c0.1,0,0.2,0.1,0.2,0.2v6.5c0,1.5-1.4,2.7-3.1,2.7c-1.7,0-3.1-1.2-3.1-2.7V6.3z"/>
	<path d="M98,15.1c0,0.1-0.1,0.2-0.2,0.2h-0.6c-0.1,0-0.2-0.1-0.2-0.2V8.2l-1.3,2.4c-0.1,0.2-0.2,0.3-0.4,0.3s-0.4-0.1-0.5-0.3
		l-1.3-2.4v6.9c0,0.1-0.1,0.2-0.2,0.2h-0.6c-0.1,0-0.2-0.1-0.2-0.2V6.3c0-0.1,0.1-0.3,0.3-0.3h0.8l1.8,3.4L96.9,6h0.8
		C97.8,6,98,6.2,98,6.3V15.1z"/>
	<path d="M101,8.6c0-1.5,1.4-2.7,3-2.7c1.7,0,3.1,1.2,3.1,2.7v4.2c0,1.5-1.4,2.7-3.1,2.7c-1.7,0-3-1.2-3-2.7V8.6z M105.9,8.6
		c0-0.9-0.9-1.6-1.9-1.6c-1,0-1.9,0.7-1.9,1.6v4.2c0,0.9,0.9,1.6,1.9,1.6c1,0,1.9-0.7,1.9-1.6V8.6z"/>
</g>
<g>
	<path d="M579.8,7.1h-3.1c-0.1,0-0.2-0.1-0.2-0.2V6.2c0-0.1,0.1-0.2,0.2-0.2h5.3c0.1,0,0.2,0.1,0.2,0.2v0.6c0,0.1-0.1,0.2-0.2,0.2
		H581v5.5c0,2.4-1.6,2.7-3.7,2.7h-0.5c-0.2,0-0.3-0.1-0.3-0.3v-0.6c0-0.2,0.1-0.3,0.3-0.3c2.4-0.1,3-0.1,3-2V7.1z"/>
	<path d="M585.1,6.3c0-0.1,0.1-0.2,0.2-0.2h0.7c0.2,0,0.2,0.1,0.2,0.2v6.5c0,0.9,0.9,1.6,1.9,1.6s1.9-0.7,1.9-1.6V6.3
		c0-0.1,0.1-0.2,0.2-0.2h0.7c0.1,0,0.2,0.1,0.2,0.2v6.5c0,1.5-1.4,2.7-3.1,2.7s-3.1-1.2-3.1-2.7V6.3z"/>
	<path d="M600,15c0,0.1-0.1,0.3-0.3,0.3h-0.8l-3.5-6.7v6.5c0,0.1-0.1,0.2-0.2,0.2h-0.7c-0.1,0-0.2-0.1-0.2-0.2V6.3
		c0-0.1,0.1-0.3,0.3-0.3h0.8l3.5,6.7V6.2c0-0.1,0.1-0.2,0.2-0.2h0.7c0.2,0,0.2,0.1,0.2,0.2V15z"/>
	<path d="M608.5,6c0.1,0,0.2,0.1,0.2,0.2v0.6c0,0.1-0.1,0.2-0.2,0.2h-4.3v2.3h2.4c0.1,0,0.2,0.1,0.2,0.2v0.6c0,0.1-0.1,0.2-0.2,0.2
		h-2.4v3.6h4.3c0.1,0,0.2,0.1,0.2,0.2V15c0,0.1-0.1,0.2-0.2,0.2h-5.2c-0.2,0-0.3-0.1-0.3-0.3V6.3c0-0.2,0.2-0.3,0.3-0.3H608.5z"/>
	<path d="M620.4,13.7c0-0.1,0.1-0.2,0.2-0.2h0.4c0.1,0,0.2,0.1,0.2,0.2v1.4c0,0.1-0.1,0.2-0.2,0.2H616c-0.2,0-0.3-0.1-0.3-0.3v-0.9
		l3.2-3.3c1-1,1.2-1.6,1.2-2.3c0-0.9-0.8-1.4-1.6-1.4c-1.1,0-1.6,0.6-2,1.2c-0.1,0.2-0.3,0.2-0.5,0.1l-0.3-0.2
		c-0.1-0.1-0.2-0.3-0.1-0.4c0.5-1.2,1.7-1.8,2.9-1.8c1.4,0,2.8,0.9,2.9,2.5c0,1.1-0.6,2.1-1.5,2.9l-3,2.9h3.4V13.7z"/>
	<path d="M623.5,10.7c0-2.2,0.7-4.8,3-4.8s3,2.6,3,4.8c0,2.2-0.7,4.8-3,4.8S623.5,12.9,623.5,10.7z M628.3,10.7
		c0-1.3-0.2-3.8-1.7-3.8c-1.6,0-1.7,2.4-1.7,3.8c0,1.3,0.2,3.8,1.7,3.8C628.1,14.4,628.3,12,628.3,10.7z"/>
	<path d="M632,7.1c0-0.1,0-0.3,0.2-0.3l2.2-0.8c0.4-0.1,0.8,0.1,0.8,0.5v7.7h1.8c0.1,0,0.2,0.1,0.2,0.2V15c0,0.1-0.1,0.2-0.2,0.2
		h-5.1c-0.1,0-0.2-0.1-0.2-0.2v-0.6c0-0.1,0.1-0.2,0.2-0.2h2.1V7.3l-1.5,0.5c-0.1,0-0.3,0-0.3-0.1L632,7.1z"/>
	<path d="M640,7.1c0-0.1,0-0.3,0.2-0.3l2.2-0.8c0.4-0.1,0.8,0.1,0.8,0.5v7.7h1.8c0.1,0,0.2,0.1,0.2,0.2V15c0,0.1-0.1,0.2-0.2,0.2
		h-5.1c-0.1,0-0.2-0.1-0.2-0.2v-0.6c0-0.1,0.1-0.2,0.2-0.2h2.1V7.3l-1.5,0.5c-0.1,0-0.3,0-0.3-0.1L640,7.1z"/>
</g>
</svg>
