<?xml version="1.0" encoding="utf-8"?>
<!-- Generator: Adobe Illustrator 25.0.1, SVG Export Plug-In . SVG Version: 6.00 Build 0)  -->
<svg version="1.1" id="Layer_1" xmlns="http://www.w3.org/2000/svg" xmlns:xlink="http://www.w3.org/1999/xlink" x="0px" y="0px"
	 viewBox="0 0 684.2 25.1" style="enable-background:new 0 0 684.2 25.1;" xml:space="preserve">
<style type="text/css">
	.st0{fill:none;stroke:#FFFFFF;stroke-width:0.75;stroke-miterlimit:10;}
	.st1{fill:#FFFFFF;}
</style>
<line class="st0" x1="194.4" y1="10.9" x2="560.6" y2="10.9"/>
<g>
	<path class="st1" d="M9,11.6H6.9L6,15.1c0,0.1-0.1,0.2-0.3,0.2H5c-0.1,0-0.2-0.1-0.2-0.2l2.3-8.7C7.2,6.1,7.4,6,7.6,6h0.7
		c0.2,0,0.3,0.1,0.4,0.3l2.3,8.7c0,0.1-0.1,0.2-0.2,0.2h-0.6c-0.1,0-0.3-0.1-0.3-0.2L9,11.6z M7.1,10.6h1.5L7.9,7.4L7.1,10.6z"/>
	<path class="st1" d="M13.5,6.2c0-0.1,0.1-0.2,0.2-0.2h0.7c0.1,0,0.2,0.1,0.2,0.2v7.9H19c0.1,0,0.2,0.1,0.2,0.2v0.6
		c0,0.1-0.1,0.2-0.2,0.2h-5.2c-0.2,0-0.3-0.2-0.3-0.3V6.2z"/>
	<path class="st1" d="M25,6c1.2,0,2.3,1,2.3,2.3v0.3c0,0.6-0.2,1.2-0.7,1.6c0.7,0.4,1.1,1.1,1.1,1.9v1c0,1.2-1,2.3-2.3,2.3h-3.2
		c-0.2,0-0.3-0.2-0.3-0.3V6.3C21.8,6.2,22,6,22.1,6H25z M23,7.1v2.7h2c0.6,0,1.1-0.5,1.1-1.2V8.3c0-0.6-0.6-1.2-1.2-1.2H23z
		 M23,10.9v3.3h2.4c0.6,0,1.2-0.6,1.2-1.2v-1c0-0.6-0.6-1.2-1.2-1.2H23z"/>
	<path class="st1" d="M30.1,6.3c0-0.1,0.1-0.2,0.2-0.2h0.7c0.1,0,0.2,0.1,0.2,0.2v6.5c0,0.9,0.9,1.6,1.9,1.6c1,0,1.9-0.7,1.9-1.6
		V6.3c0-0.1,0.1-0.2,0.2-0.2H36c0.1,0,0.2,0.1,0.2,0.2v6.5c0,1.5-1.4,2.7-3.1,2.7c-1.7,0-3.1-1.2-3.1-2.7V6.3z"/>
	<path class="st1" d="M45,15.1c0,0.1-0.1,0.2-0.2,0.2h-0.6c-0.1,0-0.2-0.1-0.2-0.2V8.2l-1.3,2.4c-0.1,0.2-0.2,0.3-0.4,0.3
		s-0.4-0.1-0.5-0.3l-1.3-2.4v6.9c0,0.1-0.1,0.2-0.2,0.2h-0.6c-0.1,0-0.2-0.1-0.2-0.2V6.3c0-0.1,0.1-0.3,0.3-0.3h0.8l1.8,3.4L43.9,6
		h0.8C44.9,6,45,6.2,45,6.3V15.1z"/>
	<path class="st1" d="M54.9,7.1h-2c-0.1,0-0.2-0.1-0.2-0.2V6.2c0-0.1,0.1-0.2,0.2-0.2h5.3c0.1,0,0.2,0.1,0.2,0.2v0.6
		c0,0.1-0.1,0.2-0.2,0.2h-2.1v7.1h2.1c0.1,0,0.2,0.1,0.2,0.2v0.6c0,0.1-0.1,0.2-0.2,0.2h-5.3c-0.1,0-0.2-0.1-0.2-0.2v-0.6
		c0-0.1,0.1-0.2,0.2-0.2h2V7.1z"/>
	<path class="st1" d="M63.4,7.1h-2c-0.1,0-0.2-0.1-0.2-0.2V6.2c0-0.1,0.1-0.2,0.2-0.2h5.3c0.1,0,0.2,0.1,0.2,0.2v0.6
		c0,0.1-0.1,0.2-0.2,0.2h-2.1v7.1h2.1c0.1,0,0.2,0.1,0.2,0.2v0.6c0,0.1-0.1,0.2-0.2,0.2h-5.3c-0.1,0-0.2-0.1-0.2-0.2v-0.6
		c0-0.1,0.1-0.2,0.2-0.2h2V7.1z"/>
	<path class="st1" d="M71.9,7.1h-2c-0.1,0-0.2-0.1-0.2-0.2V6.2c0-0.1,0.1-0.2,0.2-0.2h5.3c0.1,0,0.2,0.1,0.2,0.2v0.6
		c0,0.1-0.1,0.2-0.2,0.2h-2.1v7.1h2.1c0.1,0,0.2,0.1,0.2,0.2v0.6c0,0.1-0.1,0.2-0.2,0.2h-5.3c-0.1,0-0.2-0.1-0.2-0.2v-0.6
		c0-0.1,0.1-0.2,0.2-0.2h2V7.1z"/>
	<path class="st1" d="M88.5,11c0.1,0,0.2,0.1,0.2,0.2v0.6c0,0.1-0.1,0.2-0.2,0.2h-5.2c-0.1,0-0.2-0.1-0.2-0.2v-0.6
		c0-0.1,0.1-0.2,0.2-0.2H88.5z"/>
	<path class="st1" d="M102.3,15.1c0,0.1-0.1,0.2-0.2,0.2h-0.6c-0.1,0-0.2-0.1-0.2-0.2V8.2l-1.3,2.4c-0.1,0.2-0.2,0.3-0.4,0.3
		s-0.4-0.1-0.5-0.3l-1.3-2.4v6.9c0,0.1-0.1,0.2-0.2,0.2h-0.6c-0.1,0-0.2-0.1-0.2-0.2V6.3c0-0.1,0.1-0.3,0.3-0.3h0.8l1.8,3.4l1.8-3.4
		h0.8c0.1,0,0.3,0.1,0.3,0.3V15.1z"/>
	<path class="st1" d="M105.3,6.3c0-0.1,0.1-0.2,0.2-0.2h0.7c0.1,0,0.2,0.1,0.2,0.2v6.5c0,0.9,0.9,1.6,1.9,1.6c1,0,1.9-0.7,1.9-1.6
		V6.3c0-0.1,0.1-0.2,0.2-0.2h0.7c0.1,0,0.2,0.1,0.2,0.2v6.5c0,1.5-1.4,2.7-3.1,2.7c-1.7,0-3.1-1.2-3.1-2.7V6.3z"/>
	<path class="st1" d="M114.4,6.2c0-0.1,0.1-0.2,0.2-0.2h0.7c0.1,0,0.2,0.1,0.2,0.2v7.9h4.3c0.1,0,0.2,0.1,0.2,0.2v0.6
		c0,0.1-0.1,0.2-0.2,0.2h-5.2c-0.2,0-0.3-0.2-0.3-0.3V6.2z"/>
	<path class="st1" d="M124.8,7.1h-2c-0.1,0-0.2-0.1-0.2-0.2V6.2c0-0.1,0.1-0.2,0.2-0.2h5.3c0.1,0,0.2,0.1,0.2,0.2v0.6
		c0,0.1-0.1,0.2-0.2,0.2H126v7.9c0,0.1-0.1,0.2-0.2,0.2h-0.7c-0.1,0-0.2-0.1-0.2-0.2V7.1z"/>
	<path class="st1" d="M133.5,10.2L131,6.6c-0.1-0.1-0.1-0.2,0-0.3l0.6-0.4c0.1-0.1,0.2-0.1,0.3,0l2.2,3.2l2.2-3.2
		c0.1-0.1,0.2-0.1,0.3,0l0.6,0.4c0.1,0.1,0.1,0.2,0,0.3l-2.5,3.6v4.8c0,0.1-0.1,0.2-0.2,0.2h-0.7c-0.1,0-0.2-0.1-0.2-0.2V10.2z"/>
	<path class="st1" d="M145.3,11c0.1,0,0.2,0.1,0.2,0.2v0.6c0,0.1-0.1,0.2-0.2,0.2h-5.2c-0.1,0-0.2-0.1-0.2-0.2v-0.6
		c0-0.1,0.1-0.2,0.2-0.2H145.3z"/>
	<path class="st1" d="M148.6,6.2c0-0.1,0.1-0.2,0.2-0.2h0.7c0.1,0,0.2,0.1,0.2,0.2v7.9h4.3c0.1,0,0.2,0.1,0.2,0.2v0.6
		c0,0.1-0.1,0.2-0.2,0.2h-5.2c-0.2,0-0.3-0.2-0.3-0.3V6.2z"/>
	<path class="st1" d="M156.9,8.6c0-1.5,1.4-2.7,3-2.7c1.7,0,3.1,1.2,3.1,2.7v4.2c0,1.5-1.4,2.7-3.1,2.7c-1.7,0-3-1.2-3-2.7V8.6z
		 M161.8,8.6c0-0.9-0.9-1.6-1.9-1.6c-1,0-1.9,0.7-1.9,1.6v4.2c0,0.9,0.9,1.6,1.9,1.6c1,0,1.9-0.7,1.9-1.6V8.6z"/>
	<path class="st1" d="M170.7,6.2c0-0.1,0.2-0.2,0.3-0.2h0.7c0.2,0,0.3,0.1,0.2,0.3l-2.3,8.7c0,0.2-0.2,0.3-0.4,0.3h-0.7
		c-0.2,0-0.3-0.1-0.4-0.3l-2.3-8.7c0-0.1,0.1-0.3,0.2-0.3h0.7c0.1,0,0.3,0.1,0.3,0.2l1.8,7.6L170.7,6.2z"/>
	<path class="st1" d="M180.3,6c0.1,0,0.2,0.1,0.2,0.2v0.6c0,0.1-0.1,0.2-0.2,0.2H176v2.3h2.4c0.1,0,0.2,0.1,0.2,0.2v0.6
		c0,0.1-0.1,0.2-0.2,0.2H176v3.6h4.3c0.1,0,0.2,0.1,0.2,0.2V15c0,0.1-0.1,0.2-0.2,0.2h-5.2c-0.2,0-0.3-0.2-0.3-0.3V6.3
		c0-0.2,0.1-0.3,0.3-0.3H180.3z"/>
</g>
<g>
	<path class="st1" d="M576.6,6.3c0-0.2,0.2-0.3,0.3-0.3h5.2c0.1,0,0.2,0.1,0.2,0.2v0.6c0,0.1-0.1,0.2-0.2,0.2h-4.3v2.3h2.4
		c0.1,0,0.2,0.1,0.2,0.2v0.6c0,0.1-0.1,0.2-0.2,0.2h-2.4v4.5c0,0.1-0.1,0.2-0.2,0.2h-0.7c-0.2,0-0.2-0.1-0.2-0.2V6.3z"/>
	<path class="st1" d="M590.4,6c0.1,0,0.2,0.1,0.2,0.2v0.6c0,0.1-0.1,0.2-0.2,0.2h-4.3v2.3h2.4c0.1,0,0.2,0.1,0.2,0.2v0.6
		c0,0.1-0.1,0.2-0.2,0.2h-2.4v3.6h4.3c0.1,0,0.2,0.1,0.2,0.2V15c0,0.1-0.1,0.2-0.2,0.2h-5.2c-0.2,0-0.3-0.1-0.3-0.3V6.3
		c0-0.2,0.2-0.3,0.3-0.3H590.4z"/>
	<path class="st1" d="M596.4,6c1.2,0,2.3,1,2.3,2.3v0.3c0,0.6-0.2,1.2-0.7,1.6c0.7,0.4,1.1,1.1,1.1,1.9v1c0,1.2-1,2.3-2.3,2.3h-3.2
		c-0.2,0-0.3-0.1-0.3-0.3V6.3c0-0.2,0.1-0.3,0.3-0.3H596.4z M594.4,7.1v2.7h2c0.6,0,1.1-0.5,1.1-1.2V8.3c0-0.6-0.6-1.2-1.2-1.2
		H594.4z M594.4,10.9v3.3h2.4c0.6,0,1.2-0.6,1.2-1.2v-1c0-0.6-0.6-1.2-1.2-1.2H594.4z"/>
	<path class="st1" d="M605,6c1.2,0,2.3,1,2.3,2.3V9c0,1.1-0.8,2.1-1.9,2.2l2,3.7c0.1,0.2,0,0.4-0.2,0.4h-0.5c-0.2,0-0.3,0-0.4-0.3
		l-1.9-3.8h-1.5v3.8c0,0.1-0.1,0.2-0.2,0.2h-0.7c-0.1,0-0.2-0.1-0.2-0.2V6.3c0-0.2,0.1-0.3,0.3-0.3H605z M606.2,8.3
		c0-0.6-0.6-1.2-1.2-1.2h-2.3v3h2.3c0.6,0,1.2-0.6,1.2-1.2V8.3z"/>
	<path class="st1" d="M610,6.3c0-0.1,0.1-0.2,0.2-0.2h0.7c0.2,0,0.2,0.1,0.2,0.2v6.5c0,0.9,0.9,1.6,1.9,1.6s1.9-0.7,1.9-1.6V6.3
		c0-0.1,0.1-0.2,0.2-0.2h0.7c0.1,0,0.2,0.1,0.2,0.2v6.5c0,1.5-1.4,2.7-3.1,2.7s-3.1-1.2-3.1-2.7V6.3z"/>
	<path class="st1" d="M622.7,11.6h-2.1l-0.9,3.4c0,0.1-0.1,0.2-0.3,0.2h-0.6c-0.1,0-0.2-0.1-0.2-0.2l2.3-8.7
		c0.1-0.2,0.2-0.3,0.4-0.3h0.7c0.2,0,0.3,0.1,0.4,0.3l2.3,8.7c0,0.1-0.1,0.2-0.2,0.2h-0.6c-0.1,0-0.3-0.1-0.3-0.2L622.7,11.6z
		 M620.9,10.6h1.5l-0.8-3.1L620.9,10.6z"/>
	<path class="st1" d="M630.8,6c1.2,0,2.3,1,2.3,2.3V9c0,1.1-0.8,2.1-1.9,2.2l2,3.7c0.1,0.2,0,0.4-0.2,0.4h-0.5c-0.2,0-0.3,0-0.4-0.3
		l-1.9-3.8h-1.5v3.8c0,0.1-0.1,0.2-0.2,0.2h-0.7c-0.2,0-0.2-0.1-0.2-0.2V6.3c0-0.2,0.2-0.3,0.3-0.3H630.8z M632,8.3
		c0-0.6-0.6-1.2-1.2-1.2h-2.3v3h2.3c0.6,0,1.2-0.6,1.2-1.2V8.3z"/>
	<path class="st1" d="M638,10.2l-2.5-3.6c-0.1-0.1-0.1-0.2,0-0.3l0.6-0.4c0.1-0.1,0.2-0.1,0.3,0l2.2,3.2l2.2-3.2
		c0.1-0.1,0.2-0.1,0.3,0l0.6,0.4c0.1,0.1,0.1,0.2,0,0.3l-2.5,3.6v4.8c0,0.1-0.1,0.2-0.2,0.2h-0.7c-0.2,0-0.2-0.1-0.2-0.2V10.2z"/>
	<path class="st1" d="M653.4,13.7c0-0.1,0.1-0.2,0.2-0.2h0.4c0.1,0,0.2,0.1,0.2,0.2v1.4c0,0.1-0.1,0.2-0.2,0.2h-5.1
		c-0.2,0-0.3-0.1-0.3-0.3v-0.9l3.2-3.3c1-1,1.2-1.6,1.2-2.3c0-0.9-0.8-1.4-1.6-1.4c-1.1,0-1.6,0.6-2,1.2c-0.1,0.2-0.3,0.2-0.5,0.1
		l-0.3-0.2c-0.1-0.1-0.2-0.3-0.1-0.4c0.5-1.2,1.7-1.8,2.9-1.8c1.4,0,2.8,0.9,2.9,2.5c0,1.1-0.6,2.1-1.5,2.9l-3,2.9h3.4V13.7z"/>
	<path class="st1" d="M656.6,10.7c0-2.2,0.7-4.8,3-4.8s3,2.6,3,4.8c0,2.2-0.7,4.8-3,4.8S656.6,12.9,656.6,10.7z M661.4,10.7
		c0-1.3-0.2-3.8-1.7-3.8c-1.6,0-1.7,2.4-1.7,3.8c0,1.3,0.2,3.8,1.7,3.8C661.2,14.4,661.4,12,661.4,10.7z"/>
	<path class="st1" d="M665.1,7.1c0-0.1,0-0.3,0.2-0.3l2.2-0.8c0.4-0.1,0.8,0.1,0.8,0.5v7.7h1.8c0.1,0,0.2,0.1,0.2,0.2V15
		c0,0.1-0.1,0.2-0.2,0.2H665c-0.1,0-0.2-0.1-0.2-0.2v-0.6c0-0.1,0.1-0.2,0.2-0.2h2.1V7.3l-1.5,0.5c-0.1,0-0.3,0-0.3-0.1L665.1,7.1z"
		/>
	<path class="st1" d="M675.4,14.4c1.2,0,2-1,2-2c0-1.2-0.9-2-2-2c-0.5,0-1,0.1-1.4,0.5c-0.2,0.1-0.3,0.1-0.5,0l-0.5-0.3V6.3
		c0-0.1,0.1-0.3,0.3-0.3h4.3c0.1,0,0.3,0.1,0.3,0.3v0.6c0,0.1-0.1,0.3-0.3,0.3h-3.4v2.5c0.5-0.2,1-0.3,1.4-0.3c1.5,0,3,1.2,3,3
		c0,2-1.5,3.1-3.1,3.1c-1,0-2-0.4-2.7-1.4c-0.1-0.2-0.1-0.3,0-0.5l0.2-0.2c0.1-0.1,0.3-0.1,0.5,0C674.1,14.1,674.8,14.4,675.4,14.4z
		"/>
</g>
</svg>
