<?xml version="1.0" encoding="utf-8"?>
<!-- Generator: Adobe Illustrator 25.1.0, SVG Export Plug-In . SVG Version: 6.00 Build 0)  -->
<svg version="1.1" id="Layer_1" xmlns="http://www.w3.org/2000/svg" xmlns:xlink="http://www.w3.org/1999/xlink" x="0px" y="0px"
	 viewBox="0 0 667.6 25.1" style="enable-background:new 0 0 667.6 25.1;" xml:space="preserve">
<style type="text/css">
	.st0{fill:#1D1D1B;stroke:#FFFFFF;stroke-miterlimit:10;}
	.st1{fill:#FFFFFF;}
</style>
<line class="st0" x1="165.8" y1="10.9" x2="560.6" y2="10.9"/>
<g>
	<path class="st1" d="M9,11.6H6.9L6,15.1c0,0.1-0.1,0.2-0.3,0.2H5c-0.1,0-0.2-0.1-0.2-0.2l2.3-8.7C7.2,6.1,7.4,6,7.6,6h0.7
		c0.2,0,0.3,0.1,0.4,0.3L11,15c0,0.1-0.1,0.2-0.2,0.2h-0.6c-0.1,0-0.3-0.1-0.3-0.2L9,11.6z M7.1,10.6h1.5L7.9,7.4L7.1,10.6z"/>
	<path class="st1" d="M13.5,6.2c0-0.1,0.1-0.2,0.2-0.2h0.7c0.1,0,0.2,0.1,0.2,0.2v7.9H19c0.1,0,0.2,0.1,0.2,0.2v0.6
		c0,0.1-0.1,0.2-0.2,0.2h-5.2c-0.2,0-0.3-0.2-0.3-0.3V6.2z"/>
	<path class="st1" d="M25,6c1.2,0,2.3,1,2.3,2.3v0.3c0,0.6-0.2,1.2-0.7,1.6c0.7,0.4,1.1,1.1,1.1,1.9v1c0,1.2-1,2.3-2.3,2.3h-3.2
		c-0.2,0-0.3-0.2-0.3-0.3V6.3C21.8,6.2,22,6,22.1,6H25z M23,7.1v2.7h2c0.6,0,1.1-0.5,1.1-1.2V8.3c0-0.6-0.6-1.2-1.2-1.2
		C24.9,7.1,23,7.1,23,7.1z M23,10.9v3.3h2.4c0.6,0,1.2-0.6,1.2-1.2v-1c0-0.6-0.6-1.2-1.2-1.2L23,10.9L23,10.9z"/>
	<path class="st1" d="M30.1,6.3c0-0.1,0.1-0.2,0.2-0.2H31c0.1,0,0.2,0.1,0.2,0.2v6.5c0,0.9,0.9,1.6,1.9,1.6s1.9-0.7,1.9-1.6V6.3
		c0-0.1,0.1-0.2,0.2-0.2H36c0.1,0,0.2,0.1,0.2,0.2v6.5c0,1.5-1.4,2.7-3.1,2.7c-1.7,0-3.1-1.2-3.1-2.7L30.1,6.3L30.1,6.3z"/>
	<path class="st1" d="M45,15.1c0,0.1-0.1,0.2-0.2,0.2h-0.6c-0.1,0-0.2-0.1-0.2-0.2V8.2l-1.3,2.4c-0.1,0.2-0.2,0.3-0.4,0.3
		s-0.4-0.1-0.5-0.3l-1.3-2.4v6.9c0,0.1-0.1,0.2-0.2,0.2h-0.6c-0.1,0-0.2-0.1-0.2-0.2V6.3c0-0.1,0.1-0.3,0.3-0.3h0.8l1.8,3.4L43.9,6
		h0.8C44.9,6,45,6.2,45,6.3V15.1z"/>
	<path class="st1" d="M54.9,7.1h-2c-0.1,0-0.2-0.1-0.2-0.2V6.2c0-0.1,0.1-0.2,0.2-0.2h5.3c0.1,0,0.2,0.1,0.2,0.2v0.6
		c0,0.1-0.1,0.2-0.2,0.2h-2.1v7.1h2.1c0.1,0,0.2,0.1,0.2,0.2v0.6c0,0.1-0.1,0.2-0.2,0.2h-5.3c-0.1,0-0.2-0.1-0.2-0.2v-0.6
		c0-0.1,0.1-0.2,0.2-0.2h2V7.1z"/>
	<path class="st1" d="M66,6.2C66,6.1,66.2,6,66.3,6H67c0.2,0,0.3,0.1,0.2,0.3L64.9,15c0,0.2-0.2,0.3-0.4,0.3h-0.7
		c-0.2,0-0.3-0.1-0.4-0.3l-2.3-8.7c0-0.1,0.1-0.3,0.2-0.3H62c0.1,0,0.3,0.1,0.3,0.2l1.8,7.6L66,6.2z"/>
	<path class="st1" d="M80.4,11c0.1,0,0.2,0.1,0.2,0.2v0.6c0,0.1-0.1,0.2-0.2,0.2h-5.2c-0.1,0-0.2-0.1-0.2-0.2v-0.6
		c0-0.1,0.1-0.2,0.2-0.2H80.4z"/>
	<path class="st1" d="M88.6,14.9c-0.2-0.1-0.2-0.2-0.2-0.3l0.2-0.5c0.1-0.2,0.2-0.2,0.4-0.1c0.8,0.3,1.6,0.5,2.3,0.5
		c1,0,1.6-0.5,1.6-1.3c0.1-1-0.6-1.3-1.9-1.8c-2.2-0.9-2.9-1.8-2.8-3.1C88.3,6.9,89.4,6,90.9,6c0.7,0,1.5,0.2,2.5,0.6
		c0.2,0.1,0.2,0.2,0.2,0.3l-0.2,0.5c-0.1,0.2-0.2,0.2-0.4,0.1C92.2,7.2,91.5,7,91,7c-1,0-1.6,0.5-1.6,1.3c-0.1,1,0.9,1.4,1.9,1.8
		c2.2,0.9,2.9,1.6,2.8,3.1c-0.1,1.4-1.2,2.3-2.7,2.3C90.5,15.4,89.5,15.3,88.6,14.9z"/>
	<path class="st1" d="M102.2,6c0.1,0,0.2,0.1,0.2,0.2v0.6c0,0.1-0.1,0.2-0.2,0.2h-4.3v2.3h2.4c0.1,0,0.2,0.1,0.2,0.2v0.6
		c0,0.1-0.1,0.2-0.2,0.2h-2.4v3.6h4.3c0.1,0,0.2,0.1,0.2,0.2V15c0,0.1-0.1,0.2-0.2,0.2H97c-0.2,0-0.3-0.2-0.3-0.3V6.3
		C96.7,6.2,96.8,6,97,6H102.2z"/>
	<path class="st1" d="M104.7,6.6c-0.1-0.1,0-0.2,0.1-0.3l0.6-0.4c0.1-0.1,0.2,0,0.3,0.1l2.2,3.6l2.2-3.6c0.1-0.1,0.2-0.1,0.3-0.1
		l0.6,0.4c0.1,0.1,0.1,0.2,0.1,0.3l-2.5,4l2.5,4c0.1,0.1,0,0.2-0.1,0.3l-0.6,0.4c-0.1,0.1-0.2,0-0.3-0.1l-2.2-3.6l-2.2,3.6
		c-0.1,0.1-0.2,0.1-0.3,0.1l-0.6-0.4c-0.1-0.1-0.1-0.2-0.1-0.3l2.5-4L104.7,6.6z"/>
	<path class="st1" d="M118.9,15.3c-0.2,0-0.3,0-0.4-0.2l-0.3-0.5c-0.5,0.5-1.2,0.8-1.9,0.8c-1.2,0-2.4-0.8-2.4-2.4
		c0-1.2,0.7-1.9,1.5-2.6l-0.8-1.1c-0.3-0.4-0.4-0.8-0.4-1.3c0-1.2,1.1-2.1,2.3-2.1c0.7,0,1.4,0.3,1.9,1c0.1,0.2,0.2,0.4,0,0.5
		L118,7.6c-0.1,0.1-0.3,0.1-0.5-0.1c-0.3-0.4-0.7-0.6-1.2-0.6c-0.6,0-1.2,0.4-1.2,1.1c0,0.2,0.1,0.4,0.2,0.6l2.9,4.3l0.8-1
		c0.1-0.1,0.3-0.1,0.4-0.1l0.2,0.2c0.1,0.1,0.1,0.2,0,0.4l-0.9,1.3l0.8,1.2c0.1,0.2,0,0.4-0.2,0.4C119.3,15.3,118.9,15.3,118.9,15.3
		z M114.8,13c0,0.9,0.7,1.4,1.4,1.4c0.5,0,1-0.2,1.4-0.6l-1.8-2.6C115.1,11.7,114.8,12.4,114.8,13z"/>
	<path class="st1" d="M122.9,6.3c0-0.2,0.1-0.3,0.3-0.3h5.2c0.1,0,0.2,0.1,0.2,0.2v0.6c0,0.1-0.1,0.2-0.2,0.2H124v2.3h2.4
		c0.1,0,0.2,0.1,0.2,0.2v0.6c0,0.1-0.1,0.2-0.2,0.2H124v4.5c0,0.1-0.1,0.2-0.2,0.2h-0.7c-0.1,0-0.2-0.1-0.2-0.2
		C122.9,14.8,122.9,6.3,122.9,6.3z"/>
	<path class="st1" d="M131.2,8.6c0-1.5,1.4-2.7,3-2.7c1.7,0,3.1,1.2,3.1,2.7v4.2c0,1.5-1.4,2.7-3.1,2.7c-1.7,0-3-1.2-3-2.7V8.6z
		 M136.1,8.6c0-0.9-0.9-1.6-1.9-1.6s-1.9,0.7-1.9,1.6v4.2c0,0.9,0.9,1.6,1.9,1.6s1.9-0.7,1.9-1.6V8.6z"/>
	<path class="st1" d="M140.3,8.6c0-1.5,1.4-2.7,3-2.7c1.7,0,3.1,1.2,3.1,2.7v4.2c0,1.5-1.4,2.7-3.1,2.7c-1.7,0-3-1.2-3-2.7V8.6z
		 M145.2,8.6c0-0.9-0.9-1.6-1.9-1.6s-1.9,0.7-1.9,1.6v4.2c0,0.9,0.9,1.6,1.9,1.6s1.9-0.7,1.9-1.6V8.6z"/>
	<path class="st1" d="M152.1,6c1.7,0,3,1.2,3,2.7v3.8c0,1.5-1.4,2.7-3,2.7h-2.4c-0.2,0-0.3-0.2-0.3-0.3V6.3c0-0.2,0.1-0.3,0.3-0.3
		H152.1z M152.1,14.2c1,0,1.9-0.7,1.9-1.6V8.7c0-0.9-0.9-1.6-1.9-1.6h-1.5v7.1H152.1z"/>
</g>
<g>
	<path class="st1" d="M580.3,11.6h-2.1l-0.9,3.4c0,0.1-0.1,0.2-0.3,0.2h-0.6c-0.1,0-0.2-0.1-0.2-0.2l2.3-8.7
		c0.1-0.2,0.2-0.3,0.4-0.3h0.7c0.2,0,0.3,0.1,0.4,0.3l2.3,8.7c0,0.1-0.1,0.2-0.2,0.2h-0.6c-0.1,0-0.3-0.1-0.3-0.2L580.3,11.6z
		 M578.4,10.6h1.5l-0.8-3.1L578.4,10.6z"/>
	<path class="st1" d="M584.8,6.3c0-0.2,0.2-0.3,0.3-0.3h3.2c1.2,0,2.3,1,2.3,2.3V9c0,1.2-1,2.3-2.3,2.3H586v3.8
		c0,0.1-0.1,0.2-0.2,0.2h-0.7c-0.2,0-0.2-0.1-0.2-0.2L584.8,6.3L584.8,6.3z M589.5,8.3c0-0.6-0.6-1.2-1.2-1.2H586v3h2.3
		c0.6,0,1.2-0.6,1.2-1.2V8.3z"/>
	<path class="st1" d="M596.6,6c1.2,0,2.3,1,2.3,2.3V9c0,1.1-0.8,2.1-1.9,2.2l2,3.7c0.1,0.2,0,0.4-0.2,0.4h-0.5c-0.2,0-0.3,0-0.4-0.3
		l-1.9-3.8h-1.5V15c0,0.1-0.1,0.2-0.2,0.2h-0.7c-0.1,0-0.2-0.1-0.2-0.2V6.3c0-0.2,0.1-0.3,0.3-0.3H596.6z M597.8,8.3
		c0-0.6-0.6-1.2-1.2-1.2h-2.3v3h2.3c0.6,0,1.2-0.6,1.2-1.2V8.3z"/>
	<path class="st1" d="M603.7,7.1h-2c-0.1,0-0.2-0.1-0.2-0.2V6.2c0-0.1,0.1-0.2,0.2-0.2h5.3c0.1,0,0.2,0.1,0.2,0.2v0.6
		c0,0.1-0.1,0.2-0.2,0.2h-2.1v7.1h2.1c0.1,0,0.2,0.1,0.2,0.2v0.6c0,0.1-0.1,0.2-0.2,0.2h-5.3c-0.1,0-0.2-0.1-0.2-0.2v-0.6
		c0-0.1,0.1-0.2,0.2-0.2h2V7.1z"/>
	<path class="st1" d="M610,6.2c0-0.1,0.1-0.2,0.2-0.2h0.7c0.2,0,0.2,0.1,0.2,0.2v7.9h4.3c0.1,0,0.2,0.1,0.2,0.2v0.6
		c0,0.1-0.1,0.2-0.2,0.2h-5.2c-0.2,0-0.3-0.2-0.3-0.3L610,6.2L610,6.2z"/>
	<path class="st1" d="M627.4,13.7c0-0.1,0.1-0.2,0.2-0.2h0.4c0.1,0,0.2,0.1,0.2,0.2v1.4c0,0.1-0.1,0.2-0.2,0.2h-5
		c-0.2,0-0.3-0.2-0.3-0.3v-0.9l3.2-3.3c1-1,1.2-1.6,1.2-2.3c0-0.9-0.8-1.4-1.6-1.4c-1.1,0-1.6,0.6-2,1.2c-0.1,0.2-0.3,0.2-0.5,0.1
		l-0.3-0.2c-0.2-0.1-0.2-0.3-0.1-0.4c0.5-1.2,1.7-1.8,2.9-1.8c1.4,0,2.8,0.9,2.8,2.5c0,1.1-0.6,2.1-1.5,2.9l-3,2.9h3.4v-0.6H627.4z"
		/>
	<path class="st1" d="M630.6,10.7c0-2.2,0.7-4.8,3-4.8s3,2.6,3,4.8s-0.7,4.8-3,4.8S630.6,12.8,630.6,10.7z M635.3,10.7
		c0-1.3-0.2-3.8-1.7-3.8c-1.6,0-1.7,2.4-1.7,3.8c0,1.3,0.2,3.8,1.7,3.8C635.1,14.4,635.3,12,635.3,10.7z"/>
	<path class="st1" d="M639,7.1c0-0.1,0-0.3,0.2-0.3l2.2-0.8c0.4-0.1,0.8,0.1,0.8,0.5v7.7h1.8c0.1,0,0.2,0.1,0.2,0.2V15
		c0,0.1-0.1,0.2-0.2,0.2h-5.1c-0.1,0-0.2-0.1-0.2-0.2v-0.6c0-0.1,0.1-0.2,0.2-0.2h2.1V7.3l-1.5,0.5c-0.1,0-0.3,0-0.3-0.1L639,7.1z"
		/>
	<path class="st1" d="M648.1,10.6c-0.8-0.5-1.3-1.3-1.3-2.1c0-1.4,1.3-2.6,2.8-2.6c1.6,0,2.9,1.2,2.9,2.6c0,0.9-0.5,1.7-1.3,2.1
		c0.9,0.4,1.4,1.3,1.4,2.2c0,1.5-1.3,2.7-3,2.7c-1.6,0-3-1.2-3-2.7C646.7,11.8,647.2,11,648.1,10.6z M649.6,14.5
		c1,0,1.8-0.7,1.8-1.7c0-0.9-0.8-1.7-1.8-1.7s-1.8,0.8-1.8,1.7C647.9,13.7,648.7,14.5,649.6,14.5z M649.6,10.1
		c0.9,0,1.7-0.7,1.7-1.6s-0.8-1.6-1.7-1.6s-1.7,0.7-1.7,1.6C648,9.3,648.7,10.1,649.6,10.1z"/>
</g>
</svg>
