<?xml version="1.0" encoding="utf-8"?>
<!-- Generator: Adobe Illustrator 25.0.1, SVG Export Plug-In . SVG Version: 6.00 Build 0)  -->
<svg version="1.1" id="Layer_1" xmlns="http://www.w3.org/2000/svg" xmlns:xlink="http://www.w3.org/1999/xlink" x="0px" y="0px"
	 viewBox="0 0 1271.5 428.4" style="enable-background:new 0 0 1271.5 428.4;" xml:space="preserve">
<style type="text/css">
	.st0{fill:#2B272A;}
	.st1{font-family:'PersonifyTrialRegular';}
	.st2{font-size:70px;}
	.st3{fill:none;stroke:#2B272A;stroke-miterlimit:10;}
	.st4{fill:none;stroke:#2A272A;stroke-width:8;stroke-miterlimit:10;}
	.st5{fill:none;stroke:#2B272A;stroke-width:8;stroke-miterlimit:10;}
	.st6{fill:none;}
	.st7{font-size:71px;}
</style>
<g>
	<g>
		<text transform="matrix(1 0 0 1 9.155273e-05 402.9526)" class="st0 st1 st2">02</text>
	</g>
</g>
<g>
	<text transform="matrix(1 0 0 1 1.9717 289.9989)" class="st0 st1 st2">01</text>
</g>
<g>
	<g>
		<text transform="matrix(1 0 0 1 906.1689 290.765)" class="st0 st1 st2">09</text>
	</g>
</g>
<g>
	<g>
		<text transform="matrix(1 0 0 1 446.3503 166.1106)" class="st0 st1 st2">04</text>
	</g>
</g>
<g>
	<text transform="matrix(1 0 0 1 450.0278 53.2222)" class="st0 st1 st2">03</text>
</g>
<g>
	<text transform="matrix(1 0 0 1 444.562 290.6874)" class="st0 st1 st2">05</text>
</g>
<g>
	<g>
		<path class="st3" d="M5.5,63.7V11.5h18.9v35.4h16v16.8H5.5z"/>
		<path class="st3" d="M46.7,63.7V11.5h18.9v52.2H46.7z"/>
		<path class="st3" d="M109.5,28.2c-2.3-1.6-6.4-3.9-10.6-3.9c-1,0-2.6,0.2-3.6,0.9c-0.7,0.5-0.9,1.1-0.9,1.9c0,1.1,0.2,2.1,3.1,2.7
			l6,1.3c4.6,1,7.4,2.9,8.9,4.5c3.3,3.2,4,7.2,4,10.3c0,4.5-1.2,8.6-4.7,12.3c-3,3.1-8.6,6.6-18.4,6.6c-8,0-13.3-2.3-17.8-4.1
			L73.8,60l5.7-14.7l2,1.6c2,1.5,5.9,3.8,10.6,3.8c2.6,0,3.7-0.6,4.1-0.9c0.9-0.7,1-1.6,1-2.3c0-0.5-0.1-1.3-0.6-1.8
			C96,45.1,95,44.8,93,44.4l-4.6-0.9c-3-0.5-6.2-1.5-9.1-4.5c-2.7-2.7-3.8-5.9-3.8-9.6c0-4.9,1.6-9,5.1-12.4c4-4.1,9.9-6.7,18.1-6.7
			c4.1,0,9.5,0.7,15.9,4.5L109.5,28.2z"/>
		<path class="st3" d="M130.4,63.7V28l-10.6,0.5v-17h39.9v17L149.1,28v35.7H130.4z"/>
		<path class="st3" d="M232,56.5c-4.5,4.5-11.7,8.4-21.7,8.4s-17.2-3.8-21.7-8.4c-4.1-4.1-7.3-10.6-7.3-18.9s3.2-14.7,7.3-18.9
			c4.5-4.5,11.7-8.4,21.7-8.4s17.2,3.8,21.7,8.4c4.1,4.1,7.3,10.6,7.3,18.9S236,52.3,232,56.5z M203.5,29.8c-1.9,2-3,5-3,7.8
			c0,3,1.1,5.9,3,7.7c1.6,1.6,3.9,2.7,6.8,2.7s5.2-1.1,6.8-2.7c1.7-1.7,3-4.5,3-7.7s-1.1-6-3-7.8c-1.4-1.4-3.7-2.7-6.8-2.7
			C206.9,27.1,204.8,28.5,203.5,29.8z"/>
		<path class="st3" d="M247.4,63.7V11.5h34.8v14.9h-15.9v5.3h13.9v13.8h-13.9v18.2H247.4z"/>
		<path class="st3" d="M38.9,138.2c-2.3-1.6-6.4-3.9-10.6-3.9c-1,0-2.6,0.2-3.6,0.9c-0.7,0.5-0.9,1.1-0.9,1.9c0,1.1,0.2,2.1,3.1,2.7
			l6,1.3c4.6,1,7.4,2.9,8.9,4.5c3.3,3.2,4,7.2,4,10.3c0,4.5-1.2,8.6-4.7,12.3c-3,3.1-8.6,6.6-18.4,6.6c-8,0-13.3-2.3-17.8-4.1
			L3.2,170l5.7-14.7l2,1.6c2,1.5,5.9,3.8,10.6,3.8c2.6,0,3.7-0.6,4.1-0.9c0.9-0.7,1-1.6,1-2.3c0-0.5-0.1-1.3-0.6-1.8
			c-0.6-0.6-1.6-0.9-3.6-1.3l-4.6-0.9c-3-0.5-6.2-1.5-9.1-4.5c-2.7-2.7-3.8-5.9-3.8-9.6c0-4.9,1.6-9,5.1-12.4
			c4-4.1,9.9-6.7,18.1-6.7c4.1,0,9.5,0.7,15.9,4.5L38.9,138.2z"/>
		<path class="st3" d="M102.1,166.5c-4.5,4.5-11.7,8.4-21.7,8.4s-17.2-3.8-21.7-8.4c-4.1-4.1-7.3-10.6-7.3-18.9
			c0-8.3,3.2-14.7,7.3-18.9c4.5-4.5,11.7-8.4,21.7-8.4s17.2,3.8,21.7,8.4c4.1,4.1,7.3,10.6,7.3,18.9
			C109.4,155.9,106.2,162.3,102.1,166.5z M73.6,139.8c-1.9,2-3,5-3,7.8c0,3,1.1,5.9,3,7.7c1.6,1.6,3.9,2.7,6.8,2.7s5.2-1.1,6.8-2.7
			c1.7-1.7,3-4.5,3-7.7s-1.1-6-3-7.8c-1.4-1.4-3.7-2.7-6.8-2.7C77.1,137.1,74.9,138.5,73.6,139.8z"/>
		<path class="st3" d="M117.5,173.7v-52.2h18.1l12.1,19.7c2,3.1,3.2,5.2,4.9,9.2h0.5c-0.8-3.3-1.6-8.5-1.6-12.4v-16.6h18.1v52.2
			h-18.1l-13-20.6c-1.2-1.9-2.6-4.6-3.6-6.8h-0.5c0.5,2.8,1.2,7.3,1.2,9.6v17.8L117.5,173.7L117.5,173.7z"/>
		<path class="st3" d="M205.7,143.3H235v1.2c0,6.4-0.5,15.1-6.8,21.8c-5.2,5.6-13.5,8.5-22.1,8.5c-11,0-17.6-4.4-21.5-8.6
			c-4.9-5.3-6.7-11.7-6.7-18.5c0-9.5,3.7-15.6,7.2-19.2c4.2-4.4,11.4-8.2,21.9-8.2c5.6,0,10.5,1.1,15.3,3.7c4.5,2.4,7.6,5.4,10,9.6
			l-17.7,6.6c-1.1-1.7-3.2-4-7.2-4c-2.7,0-5,0.9-6.6,2.4c-2.1,2-3.8,5.3-3.8,9.9c0,3.5,1.2,7.1,3.4,9.3c1.5,1.4,3.5,2.3,6.2,2.3
			c2.8,0,6.5-1,7.7-4.5h-8.6L205.7,143.3L205.7,143.3z"/>
		<path class="st3" d="M276.5,138.2c-2.3-1.6-6.4-3.9-10.6-3.9c-1,0-2.6,0.2-3.6,0.9c-0.7,0.5-0.9,1.1-0.9,1.9
			c0,1.1,0.2,2.1,3.1,2.7l6,1.3c4.6,1,7.4,2.9,8.9,4.5c3.3,3.2,4,7.2,4,10.3c0,4.5-1.2,8.6-4.7,12.3c-3,3.1-8.6,6.6-18.4,6.6
			c-8,0-13.3-2.3-17.8-4.1l-1.7-0.7l5.7-14.7l2,1.6c2,1.5,5.9,3.8,10.6,3.8c2.6,0,3.7-0.6,4.1-0.9c0.9-0.7,1-1.6,1-2.3
			c0-0.5-0.1-1.3-0.6-1.8c-0.6-0.6-1.6-0.9-3.6-1.3l-4.6-0.9c-3-0.5-6.2-1.5-9.1-4.5c-2.7-2.7-3.8-5.9-3.8-9.6c0-4.9,1.6-9,5.1-12.4
			c4-4.1,9.9-6.7,18.1-6.7c4.1,0,9.5,0.7,15.9,4.5L276.5,138.2z"/>
	</g>
</g>
<g>
	<text transform="matrix(1 0 0 1 909.4681 166.2578)" class="st0 st1 st2">08</text>
</g>
<g>
	<text transform="matrix(1 0 0 1 448.5656 404.8385)" class="st0 st1 st2">06</text>
</g>
<g>
	<text transform="matrix(1 0 0 1 906.7925 53.9279)" class="st0 st1 st2">07</text>
</g>
<line class="st4" x1="0" y1="38.9" x2="316.8" y2="38.9"/>
<line class="st5" x1="0" y1="147.7" x2="316.8" y2="147.7"/>
<g>
	<path class="st0" d="M137.8,261.8c0-0.2,0.2-0.4,0.4-0.4h6.2c0.1,0,0.3,0.1,0.3,0.3v0.8c0,0.2-0.1,0.3-0.3,0.3h-5.2v2.8h2.9
		c0.1,0,0.3,0.1,0.3,0.3v0.7c0,0.2-0.1,0.3-0.3,0.3h-2.9v5.4c0,0.1-0.1,0.3-0.3,0.3h-0.8c-0.2,0-0.3-0.1-0.3-0.3L137.8,261.8
		L137.8,261.8z"/>
	<path class="st0" d="M150.3,265.9c0.7-1.5,1.9-1.9,3.2-1.9h0.4c0.2,0,0.3,0.1,0.3,0.3v0.6c0,0.2-0.1,0.3-0.3,0.3h-0.4
		c-1.9,0-2.7,1.2-3.2,2v4h2.3c0.2,0,0.3,0.1,0.3,0.3v0.6c0,0.2-0.1,0.3-0.3,0.3h-4.8c-0.2,0-0.3-0.1-0.3-0.3v-0.6
		c0-0.2,0.1-0.3,0.3-0.3h1.3v-6h-1.3c-0.2,0-0.3-0.1-0.3-0.3v-0.7c0-0.2,0.1-0.3,0.3-0.3h2.2c0.2,0,0.4,0.2,0.4,0.4L150.3,265.9
		L150.3,265.9z"/>
	<path class="st0" d="M156.9,267.1c0-1.8,1.5-3.2,3.5-3.2c1.9,0,3.4,1.4,3.4,3.2v2.3c0,1.8-1.5,3.3-3.4,3.3c-2,0-3.5-1.5-3.5-3.3
		V267.1z M162.4,269.5V267c0-1.1-0.9-1.9-2.1-1.9c-1.1,0-2,0.9-2,1.9v2.5c0,1,0.9,1.9,2,1.9C161.4,271.5,162.4,270.6,162.4,269.5z"
		/>
	<path class="st0" d="M168.4,264.6c0.6-0.4,1.3-0.6,2-0.6c0.5,0,1,0.2,1.2,0.6c0.6-0.4,1.4-0.7,2.1-0.7c0.9,0,1.6,0.5,1.6,1.9v6.4
		c0,0.2-0.1,0.3-0.3,0.3h-0.9c-0.2,0-0.3-0.1-0.3-0.3v-6.3c0-0.6-0.3-0.8-0.7-0.8s-0.8,0.1-1.3,0.4c0,0.1,0,0.2,0,0.3v6.4
		c0,0.2-0.1,0.3-0.3,0.3h-0.8c-0.1,0-0.3-0.1-0.3-0.3v-6.3c0-0.6-0.3-0.8-0.7-0.8s-1,0.2-1.4,0.4v6.7c0,0.2-0.1,0.3-0.3,0.3h-0.8
		c-0.2,0-0.3-0.1-0.3-0.3v-7.9c0-0.1,0.1-0.3,0.3-0.3h0.7c0.2,0,0.3,0.1,0.3,0.3v0.3H168.4z"/>
	<path class="st0" d="M186.7,268.8c0,2.4,0.8,2.5,3.5,2.5c0.2,0,0.3,0.1,0.3,0.3v0.6c0,0.2-0.1,0.3-0.3,0.3h-0.5
		c-2.5,0-4.4-0.4-4.4-3.3v-4h-1.2c-0.2,0-0.3-0.1-0.3-0.3v-0.7c0-0.1,0.1-0.3,0.3-0.3h1.2v-3.4c0-0.2,0.1-0.3,0.3-0.3h0.8
		c0.2,0,0.3,0.1,0.3,0.3v3.4h2.7c0.2,0,0.3,0.1,0.3,0.3v0.7c0,0.2-0.1,0.3-0.3,0.3h-2.7L186.7,268.8L186.7,268.8z"/>
	<path class="st0" d="M194.8,264.7c1-0.5,2-0.9,2.9-0.9c1.5,0,2.6,0.8,2.6,3.2v5.2c0,0.2-0.1,0.3-0.3,0.3h-0.9
		c-0.1,0-0.3-0.1-0.3-0.3v-5.5c0-1.2-0.6-1.5-1.4-1.5c-0.8,0-1.9,0.4-2.6,0.9v6.2c0,0.2-0.1,0.3-0.3,0.3h-0.8
		c-0.2,0-0.3-0.1-0.3-0.3v-11.6c0-0.1,0.1-0.3,0.3-0.3h0.8c0.2,0,0.3,0.1,0.3,0.3V264.7z"/>
	<path class="st0" d="M204.4,268.7v0.6c0,1.8,1,2.1,3.7,2.1c0.2,0,0.3,0.1,0.3,0.3v0.5c0,0.2-0.1,0.3-0.3,0.3h-0.7
		c-2.5,0-4.4-0.4-4.4-3.3v-2.1c0-1.8,1.5-3.2,3.4-3.2s3.4,1.4,3.4,3.2v0.9c0,0.4-0.3,0.7-0.7,0.7H204.4z M204.4,267.5h4V267
		c0-1.1-0.9-1.9-2-1.9s-2,0.9-2,1.9V267.5z"/>
	<path class="st0" d="M218.9,272c-0.2-0.1-0.3-0.2-0.2-0.4l0.2-0.6c0.1-0.2,0.3-0.2,0.4-0.2c1,0.4,1.9,0.6,2.7,0.6
		c1.2,0,1.9-0.6,1.9-1.6c0.1-1.2-0.7-1.6-2.3-2.2c-2.6-1.1-3.5-2.1-3.3-3.7c0.1-1.6,1.4-2.7,3.3-2.7c0.8,0,1.8,0.2,3,0.7
		c0.2,0.1,0.3,0.2,0.2,0.4l-0.2,0.6c-0.1,0.2-0.3,0.2-0.4,0.2c-1-0.4-1.7-0.6-2.4-0.6c-1.2,0-1.9,0.6-2,1.6c-0.1,1.2,1,1.7,2.3,2.2
		c2.6,1.1,3.5,1.9,3.4,3.7c-0.1,1.6-1.4,2.7-3.3,2.7C221.2,272.7,220,272.5,218.9,272z"/>
	<path class="st0" d="M233.8,271.8c-0.9,0.5-2,0.9-2.9,0.9c-1.5,0-2.6-0.8-2.6-3.2v-5.2c0-0.2,0.1-0.3,0.3-0.3h0.9
		c0.1,0,0.3,0.1,0.3,0.3v5.5c0,1.2,0.6,1.5,1.4,1.5c0.9,0,1.9-0.4,2.6-0.8v-6.2c0-0.2,0.1-0.3,0.3-0.3h0.8c0.2,0,0.3,0.1,0.3,0.3
		v7.9c0,0.1-0.1,0.3-0.3,0.3h-0.7c-0.2,0-0.3-0.1-0.3-0.3v-0.4H233.8z"/>
	<path class="st0" d="M240,264.8c1-0.5,2-0.9,3-0.9c1.5,0,2.6,0.8,2.6,3.2v5.2c0,0.2-0.1,0.3-0.3,0.3h-0.9c-0.1,0-0.3-0.1-0.3-0.3
		v-5.5c0-1.2-0.6-1.5-1.4-1.5c-0.8,0-1.9,0.4-2.6,0.9v6.2c0,0.2-0.1,0.3-0.3,0.3H239c-0.2,0-0.3-0.1-0.3-0.3v-7.9
		c0-0.1,0.1-0.3,0.3-0.3h0.7c0.2,0,0.3,0.1,0.3,0.3V264.8z"/>
</g>
<g>
	<g>
		<path class="st0" d="M140.4,375.2c-0.5,1-0.9,2.1-1.1,2.9c-0.1,0.6-0.2,1.3-0.2,2c0,1.7,0.5,3.2,1.2,4.8c0.2,0.4,0.3,0.7,0.3,0.8
			c0,0.2-0.1,0.3-0.3,0.3c-0.3,0-0.7-0.3-1.2-1c-1-1.5-1.6-3.1-1.6-4.9c0-1.7,0.4-3.1,1.3-4.5c0.6-0.9,1.1-1.4,1.4-1.4
			c0.1,0,0.3,0.1,0.3,0.3C140.7,374.6,140.6,374.8,140.4,375.2z"/>
		<path class="st0" d="M144.5,385.1c-0.2-0.1-0.3-0.2-0.2-0.4l0.2-0.6c0.1-0.2,0.3-0.2,0.4-0.2c1,0.4,1.9,0.6,2.7,0.6
			c1.2,0,1.9-0.6,1.9-1.6c0.1-1.2-0.7-1.6-2.3-2.2c-2.6-1.1-3.5-2.1-3.3-3.7c0.1-1.6,1.4-2.7,3.3-2.7c0.8,0,1.8,0.2,3,0.7
			c0.2,0.1,0.3,0.2,0.2,0.4l-0.2,0.6c-0.1,0.2-0.3,0.2-0.4,0.2c-1-0.4-1.7-0.6-2.4-0.6c-1.2,0-1.9,0.6-2,1.6c-0.1,1.2,1,1.7,2.3,2.2
			c2.6,1.1,3.5,1.9,3.4,3.7c-0.1,1.6-1.4,2.7-3.3,2.7C146.8,385.7,145.6,385.5,144.5,385.1z"/>
		<path class="st0" d="M157.7,382.5L157.7,382.5l-1.1,3H156c-0.2,0-0.3-0.1-0.4-0.3l-1.6-7.9c0-0.2,0.1-0.3,0.3-0.3h0.8
			c0.2,0,0.3,0.1,0.4,0.3l0.9,6.1l0.8-2.5c0-0.1,0.1-0.2,0.2-0.2h0.7c0.1,0,0.2,0.1,0.2,0.2l0.8,2.5l0.9-6.1c0-0.2,0.2-0.3,0.4-0.3
			h0.8c0.2,0,0.3,0.1,0.3,0.3l-1.6,7.9c0,0.2-0.2,0.3-0.4,0.3h-0.6L157.7,382.5z"/>
		<path class="st0" d="M168.4,384.3h2.4c0.2,0,0.3,0.1,0.3,0.3v0.6c0,0.2-0.1,0.3-0.3,0.3h-6.2c-0.2,0-0.3-0.1-0.3-0.3v-0.6
			c0-0.2,0.1-0.3,0.3-0.3h2.4v-6h-1.2c-0.1,0-0.3-0.1-0.3-0.3v-0.7c0-0.2,0.1-0.3,0.3-0.3h2.2c0.2,0,0.4,0.2,0.4,0.4L168.4,384.3
			L168.4,384.3z M167.3,373.1c0.6,0,1.2,0.5,1.2,1.2s-0.5,1.2-1.2,1.2s-1.2-0.5-1.2-1.2S166.7,373.1,167.3,373.1z"/>
		<path class="st0" d="M175.7,377.8c1-0.5,2-0.9,3-0.9c1.5,0,2.6,0.8,2.6,3.2v5.2c0,0.2-0.1,0.3-0.3,0.3h-0.9
			c-0.1,0-0.3-0.1-0.3-0.3v-5.5c0-1.2-0.6-1.5-1.4-1.5c-0.8,0-1.9,0.4-2.6,0.9v6.2c0,0.2-0.1,0.3-0.3,0.3h-0.8
			c-0.2,0-0.3-0.1-0.3-0.3v-7.9c0-0.1,0.1-0.3,0.3-0.3h0.7c0.2,0,0.3,0.1,0.3,0.3V377.8z"/>
		<path class="st0" d="M195.2,384.9c-0.6,0.5-1.6,0.8-2.6,0.8c-1.5,0-2.9-0.8-3-2.5c-0.1-1.8,1.6-2.8,3.5-2.8h2v-0.6
			c0-1.8-1.2-1.5-3.7-1.5c-0.2,0-0.3-0.1-0.3-0.3v-0.5c0-0.2,0.1-0.3,0.3-0.3c0.7-0.1,1.3-0.1,1.8-0.1c2.2,0,3.2,0.6,3.2,3.3v5
			c0,0.2-0.1,0.3-0.3,0.3h-0.7c-0.1,0-0.3-0.1-0.3-0.3v-0.5H195.2z M195.2,381.5h-2c-1.5,0-2.3,0.7-2.2,1.7c0.1,0.9,0.8,1.3,1.7,1.3
			s2-0.4,2.5-1V381.5z"/>
		<path class="st0" d="M201.3,377.8c1-0.5,2-0.9,3-0.9c1.5,0,2.6,0.8,2.6,3.2v5.2c0,0.2-0.1,0.3-0.3,0.3h-0.9
			c-0.1,0-0.3-0.1-0.3-0.3v-5.5c0-1.2-0.6-1.5-1.4-1.5c-0.8,0-1.9,0.4-2.6,0.9v6.2c0,0.2-0.1,0.3-0.3,0.3h-0.8
			c-0.2,0-0.3-0.1-0.3-0.3v-7.9c0-0.1,0.1-0.3,0.3-0.3h0.7c0.2,0,0.3,0.1,0.3,0.3V377.8z"/>
		<path class="st0" d="M216.2,373.4c0.2,0,0.3,0.1,0.3,0.3v11.6c0,0.1-0.1,0.3-0.3,0.3h-0.7c-0.1,0-0.3-0.1-0.3-0.2v-0.6
			c-0.5,0.7-1.3,1-2.2,1c-1.9,0-3.4-1.5-3.4-3.3v-2.3c0-1.8,1.5-3.2,3.4-3.2c0.8,0,1.5,0.3,2.1,0.8v-4.1c0-0.1,0.1-0.3,0.3-0.3
			L216.2,373.4L216.2,373.4z M210.9,382.4c0,1.2,0.9,2.1,2.1,2.1s2.1-0.9,2.1-2.1v-2.2c0-1.2-0.9-2.1-2.1-2.1s-2.1,0.9-2.1,2.1
			V382.4z"/>
		<path class="st0" d="M226,385.1c-0.2-0.1-0.3-0.2-0.2-0.4l0.2-0.6c0.1-0.2,0.3-0.2,0.4-0.2c1,0.4,1.9,0.6,2.7,0.6
			c1.2,0,1.9-0.6,1.9-1.6c0.1-1.2-0.7-1.6-2.3-2.2c-2.6-1.1-3.5-2.1-3.3-3.7c0.1-1.6,1.4-2.7,3.3-2.7c0.8,0,1.8,0.2,3,0.7
			c0.2,0.1,0.3,0.2,0.2,0.4l-0.2,0.6c-0.1,0.2-0.3,0.2-0.4,0.2c-1-0.4-1.7-0.6-2.4-0.6c-1.2,0-1.9,0.6-2,1.6c-0.1,1.2,1,1.7,2.3,2.2
			c2.6,1.1,3.5,1.9,3.4,3.7c-0.1,1.6-1.4,2.7-3.3,2.7C228.3,385.7,227.1,385.5,226,385.1z"/>
		<path class="st0" d="M239.5,384.3h2.4c0.2,0,0.3,0.1,0.3,0.3v0.6c0,0.2-0.1,0.3-0.3,0.3h-6.2c-0.2,0-0.3-0.1-0.3-0.3v-0.6
			c0-0.2,0.1-0.3,0.3-0.3h2.4v-9.7h-1.2c-0.1,0-0.3-0.1-0.3-0.3v-0.7c0-0.2,0.1-0.3,0.3-0.3h2.2c0.2,0,0.4,0.2,0.4,0.4L239.5,384.3
			L239.5,384.3z"/>
		<path class="st0" d="M246.5,381.7v0.6c0,1.8,1,2.1,3.7,2.1c0.2,0,0.3,0.1,0.3,0.3v0.5c0,0.2-0.1,0.3-0.3,0.3h-0.7
			c-2.5,0-4.4-0.4-4.4-3.3v-2.1c0-1.8,1.5-3.2,3.4-3.2s3.4,1.4,3.4,3.2v0.9c0,0.4-0.3,0.7-0.7,0.7H246.5z M246.5,380.5h4V380
			c0-1.1-0.9-1.9-2-1.9s-2,0.9-2,1.9V380.5z"/>
		<path class="st0" d="M256.1,381.7v0.6c0,1.8,1,2.1,3.7,2.1c0.2,0,0.3,0.1,0.3,0.3v0.5c0,0.2-0.1,0.3-0.3,0.3h-0.7
			c-2.5,0-4.4-0.4-4.4-3.3v-2.1c0-1.8,1.5-3.2,3.4-3.2s3.4,1.4,3.4,3.2v0.9c0,0.4-0.3,0.7-0.7,0.7H256.1z M256.1,380.5h4V380
			c0-1.1-0.9-1.9-2-1.9s-2,0.9-2,1.9V380.5z"/>
		<path class="st0" d="M264.9,389.2c-0.2,0-0.3-0.1-0.3-0.3v-11.6c0-0.1,0.1-0.3,0.3-0.3h0.7c0.1,0,0.3,0.1,0.3,0.2v0.6
			c0.4-0.7,1.3-1,2.2-1c1.9,0,3.4,1.5,3.4,3.3v2.3c0,1.8-1.5,3.2-3.4,3.2c-0.8,0-1.5-0.3-2.1-0.8v4.1c0,0.1-0.1,0.3-0.3,0.3
			L264.9,389.2L264.9,389.2z M270.1,380.2c0-1.2-0.9-2.1-2.1-2.1s-2.1,0.9-2.1,2.1v2.2c0,1.2,0.9,2.1,2.1,2.1s2.1-0.9,2.1-2.1V380.2
			z"/>
		<path class="st0" d="M283.1,375.2c-0.5,1-0.9,2.1-1.1,2.9c-0.1,0.6-0.2,1.3-0.2,2c0,1.7,0.5,3.2,1.2,4.8c0.2,0.4,0.3,0.7,0.3,0.8
			c0,0.2-0.1,0.3-0.3,0.3c-0.3,0-0.7-0.3-1.2-1c-1-1.5-1.6-3.1-1.6-4.9c0-1.7,0.4-3.1,1.3-4.5c0.6-0.9,1.1-1.4,1.4-1.4
			c0.1,0,0.3,0.1,0.3,0.3C283.3,374.6,283.2,374.8,283.1,375.2z"/>
		<path class="st0" d="M286.9,374.7c0-0.1,0.1-0.3,0.3-0.3h0.8c0.2,0,0.3,0.1,0.3,0.3v9.5h5.2c0.1,0,0.3,0.1,0.3,0.3v0.8
			c0,0.2-0.1,0.3-0.3,0.3h-6.2c-0.2,0-0.4-0.2-0.4-0.4L286.9,374.7L286.9,374.7z"/>
		<path class="st0" d="M300.6,384.3h2.4c0.2,0,0.3,0.1,0.3,0.3v0.6c0,0.2-0.1,0.3-0.3,0.3h-6.2c-0.2,0-0.3-0.1-0.3-0.3v-0.6
			c0-0.2,0.1-0.3,0.3-0.3h2.4v-6H298c-0.1,0-0.3-0.1-0.3-0.3v-0.7c0-0.2,0.1-0.3,0.3-0.3h2.2c0.2,0,0.4,0.2,0.4,0.4V384.3z
			 M299.5,373.1c0.6,0,1.2,0.5,1.2,1.2s-0.5,1.2-1.2,1.2s-1.2-0.5-1.2-1.2S298.9,373.1,299.5,373.1z"/>
		<path class="st0" d="M309.5,381.1l-1.5,1.4v2.8c0,0.2-0.1,0.3-0.3,0.3h-0.8c-0.2,0-0.3-0.1-0.3-0.3v-11.6c0-0.2,0.1-0.3,0.3-0.3
			h0.8c0.1,0,0.3,0.1,0.3,0.3v7l3.8-3.7c0.1-0.1,0.2-0.1,0.3,0l0.6,0.6c0.1,0.1,0.1,0.2,0,0.3l-2.2,2.3l2.9,5c0.1,0.2,0,0.5-0.3,0.5
			h-0.7c-0.3,0-0.4-0.1-0.5-0.3L309.5,381.1z"/>
		<path class="st0" d="M317.4,381.7v0.6c0,1.8,1,2.1,3.7,2.1c0.2,0,0.3,0.1,0.3,0.3v0.5c0,0.2-0.1,0.3-0.3,0.3h-0.7
			c-2.5,0-4.4-0.4-4.4-3.3v-2.1c0-1.8,1.5-3.2,3.4-3.2s3.4,1.4,3.4,3.2v0.9c0,0.4-0.3,0.7-0.7,0.7H317.4z M317.4,380.5h4V380
			c0-1.1-0.9-1.9-2-1.9s-2,0.9-2,1.9V380.5z"/>
		<path class="st0" d="M336.7,384.9c-0.6,0.5-1.6,0.8-2.6,0.8c-1.5,0-2.9-0.8-3-2.5c-0.1-1.8,1.6-2.8,3.5-2.8h2v-0.6
			c0-1.8-1.2-1.5-3.7-1.5c-0.2,0-0.3-0.1-0.3-0.3v-0.5c0-0.2,0.1-0.3,0.3-0.3c0.7-0.1,1.3-0.1,1.8-0.1c2.2,0,3.2,0.6,3.2,3.3v5
			c0,0.2-0.1,0.3-0.3,0.3H337c-0.1,0-0.3-0.1-0.3-0.3V384.9z M336.7,381.5h-2c-1.5,0-2.3,0.7-2.2,1.7c0.1,0.9,0.8,1.3,1.7,1.3
			c0.9,0,2-0.4,2.5-1V381.5z"/>
		<path class="st0" d="M347.4,385.1c-0.2-0.1-0.3-0.2-0.2-0.4l0.2-0.6c0.1-0.2,0.3-0.2,0.4-0.2c1,0.4,1.9,0.6,2.7,0.6
			c1.2,0,1.9-0.6,1.9-1.6c0.1-1.2-0.7-1.6-2.3-2.2c-2.6-1.1-3.5-2.1-3.3-3.7c0.1-1.6,1.4-2.7,3.3-2.7c0.8,0,1.8,0.2,3,0.7
			c0.2,0.1,0.3,0.2,0.2,0.4l-0.2,0.6c-0.1,0.2-0.3,0.2-0.4,0.2c-1-0.4-1.7-0.6-2.4-0.6c-1.2,0-1.9,0.6-2,1.6c-0.1,1.2,1,1.7,2.3,2.2
			c2.6,1.1,3.5,1.9,3.4,3.7c-0.1,1.6-1.4,2.7-3.3,2.7C349.7,385.7,348.5,385.5,347.4,385.1z"/>
		<path class="st0" d="M358.5,377.8c1-0.5,2-0.9,2.9-0.9c1.5,0,2.6,0.8,2.6,3.2v5.2c0,0.2-0.1,0.3-0.3,0.3h-0.9
			c-0.1,0-0.3-0.1-0.3-0.3v-5.5c0-1.2-0.6-1.5-1.4-1.5s-1.9,0.4-2.6,0.9v6.2c0,0.2-0.1,0.3-0.3,0.3h-0.8c-0.2,0-0.3-0.1-0.3-0.3
			v-11.6c0-0.1,0.1-0.3,0.3-0.3h0.8c0.2,0,0.3,0.1,0.3,0.3L358.5,377.8L358.5,377.8z"/>
		<path class="st0" d="M372,384.9c-0.6,0.5-1.6,0.8-2.6,0.8c-1.5,0-2.9-0.8-3-2.5c-0.1-1.8,1.6-2.8,3.5-2.8h2v-0.6
			c0-1.8-1.2-1.5-3.7-1.5c-0.2,0-0.3-0.1-0.3-0.3v-0.5c0-0.2,0.1-0.3,0.3-0.3c0.7-0.1,1.3-0.1,1.8-0.1c2.2,0,3.2,0.6,3.2,3.3v5
			c0,0.2-0.1,0.3-0.3,0.3h-0.7c-0.1,0-0.3-0.1-0.3-0.3v-0.5H372z M372,381.5h-2c-1.5,0-2.3,0.7-2.2,1.7c0.1,0.9,0.8,1.3,1.7,1.3
			c0.9,0,2-0.4,2.5-1V381.5z"/>
		<path class="st0" d="M379.2,379c0.7-1.5,1.9-1.9,3.2-1.9h0.4c0.2,0,0.3,0.1,0.3,0.3v0.6c0,0.2-0.1,0.3-0.3,0.3h-0.4
			c-1.9,0-2.7,1.2-3.2,2v4h2.3c0.2,0,0.3,0.1,0.3,0.3v0.6c0,0.2-0.1,0.3-0.3,0.3h-4.8c-0.2,0-0.3-0.1-0.3-0.3v-0.6
			c0-0.2,0.1-0.3,0.3-0.3h1.3v-6h-1.3c-0.2,0-0.3-0.1-0.3-0.3v-0.7c0-0.2,0.1-0.3,0.3-0.3h2.2c0.2,0,0.4,0.2,0.4,0.4v1.6H379.2z"/>
		<path class="st0" d="M389,381.1l-1.5,1.4v2.8c0,0.2-0.1,0.3-0.3,0.3h-0.8c-0.2,0-0.3-0.1-0.3-0.3v-11.6c0-0.2,0.1-0.3,0.3-0.3h0.8
			c0.1,0,0.3,0.1,0.3,0.3v7l3.8-3.7c0.1-0.1,0.2-0.1,0.3,0l0.6,0.6c0.1,0.1,0.1,0.2,0,0.3l-2.2,2.3l2.9,5c0.1,0.2,0,0.5-0.3,0.5
			h-0.7c-0.3,0-0.4-0.1-0.5-0.3L389,381.1z"/>
	</g>
</g>
<g>
	<g>
		<path class="st0" d="M609.8,34.8c-0.2-0.1-0.3-0.2-0.2-0.4l0.2-0.6c0.1-0.2,0.3-0.2,0.4-0.2c1,0.4,1.9,0.6,2.7,0.6
			c1.2,0,1.9-0.6,1.9-1.6c0.1-1.2-0.7-1.6-2.3-2.2c-2.6-1.1-3.5-2.1-3.3-3.7c0.1-1.6,1.4-2.7,3.3-2.7c0.8,0,1.8,0.2,3,0.7
			c0.2,0.1,0.3,0.2,0.2,0.4l-0.2,0.6c-0.1,0.2-0.3,0.2-0.4,0.2c-1-0.4-1.7-0.6-2.4-0.6c-1.2,0-1.9,0.6-2,1.6c-0.1,1.2,1,1.7,2.3,2.2
			c2.6,1.1,3.5,1.9,3.4,3.7c-0.1,1.6-1.4,2.7-3.3,2.7C612.1,35.5,610.9,35.3,609.8,34.8z"/>
		<path class="st0" d="M619.2,29.9c0-1.8,1.5-3.2,3.5-3.2c1.9,0,3.4,1.4,3.4,3.2v2.3c0,1.8-1.5,3.3-3.4,3.3c-2,0-3.5-1.5-3.5-3.3
			V29.9z M624.8,32.3v-2.5c0-1.1-0.9-1.9-2.1-1.9s-2,0.9-2,1.9v2.5c0,1,0.9,1.9,2,1.9S624.8,33.4,624.8,32.3z"/>
		<path class="st0" d="M635.1,32.3v-5c0-1.8,1.6-3.2,3.6-3.2c0.9,0,2.1,0.3,2.9,1.4c0.1,0.1,0.1,0.4-0.1,0.5l-0.4,0.3
			c-0.2,0.1-0.4,0.1-0.5,0c-0.5-0.5-1.2-0.9-1.9-0.9c-1.2,0-2.2,0.9-2.2,1.9v5.1c0,1.1,1.1,1.9,2.2,1.9c1.2,0,2.3-0.9,2.3-1.9v-1.9
			h-2.2c-0.1,0-0.3-0.1-0.3-0.3v-0.7c0-0.2,0.1-0.3,0.3-0.3h2.8c0.5,0,0.9,0.4,0.9,0.9v2.3c0,1.8-1.7,3.3-3.7,3.3
			C636.7,35.5,635.1,34.1,635.1,32.3z"/>
		<path class="st0" d="M645.6,29.9c0-1.8,1.5-3.2,3.5-3.2c1.9,0,3.4,1.4,3.4,3.2v2.3c0,1.8-1.5,3.3-3.4,3.3c-2,0-3.5-1.5-3.5-3.3
			V29.9z M651.1,32.3v-2.5c0-1.1-0.9-1.9-2.1-1.9s-2,0.9-2,1.9v2.5c0,1,0.9,1.9,2,1.9S651.1,33.4,651.1,32.3z"/>
		<path class="st0" d="M655.5,29.9c0-1.8,1.5-3.2,3.5-3.2c1.9,0,3.4,1.4,3.4,3.2v2.3c0,1.8-1.5,3.3-3.4,3.3c-2,0-3.5-1.5-3.5-3.3
			V29.9z M661,32.3v-2.5c0-1.1-0.9-1.9-2.1-1.9s-2,0.9-2,1.9v2.5c0,1,0.9,1.9,2,1.9S661,33.4,661,32.3z"/>
		<path class="st0" d="M671.9,23.1c0.2,0,0.3,0.1,0.3,0.3V35c0,0.1-0.1,0.3-0.3,0.3h-0.7c-0.1,0-0.3-0.1-0.3-0.2v-0.6
			c-0.5,0.7-1.3,1-2.2,1c-1.9,0-3.4-1.5-3.4-3.3v-2.3c0-1.8,1.5-3.2,3.4-3.2c0.8,0,1.5,0.3,2.1,0.8v-4.1c0-0.1,0.1-0.3,0.3-0.3
			H671.9z M666.6,32.2c0,1.2,0.9,2.1,2.1,2.1s2.1-0.9,2.1-2.1V30c0-1.2-0.9-2.1-2.1-2.1s-2.1,0.9-2.1,2.1V32.2z"/>
		<path class="st0" d="M685.9,30.9h-2.5l-1.1,4.1c0,0.2-0.2,0.3-0.3,0.3h-0.8c-0.1,0-0.3-0.1-0.2-0.3l2.8-10.5
			c0.1-0.3,0.2-0.4,0.5-0.4h0.8c0.3,0,0.4,0.1,0.5,0.4l2.8,10.5c0,0.1-0.1,0.3-0.2,0.3h-0.8c-0.2,0-0.3-0.1-0.3-0.3L685.9,30.9z
			 M683.7,29.6h1.9l-0.9-3.8L683.7,29.6z"/>
		<path class="st0" d="M693.7,31.6c0,2.4,0.8,2.5,3.5,2.5c0.2,0,0.3,0.1,0.3,0.3V35c0,0.2-0.1,0.3-0.3,0.3h-0.5
			c-2.5,0-4.4-0.4-4.4-3.3v-4h-1.2c-0.2,0-0.3-0.1-0.3-0.3V27c0-0.1,0.1-0.3,0.3-0.3h1.2v-3.4c0-0.2,0.1-0.3,0.3-0.3h0.8
			c0.2,0,0.3,0.1,0.3,0.3v3.4h2.7c0.2,0,0.3,0.1,0.3,0.3v0.7c0,0.2-0.1,0.3-0.3,0.3h-2.7L693.7,31.6L693.7,31.6z"/>
		<path class="st0" d="M710,24.2c1.5,0,2.7,1.2,2.7,2.7v0.4c0,0.7-0.2,1.4-0.9,1.9c0.8,0.5,1.3,1.3,1.3,2.3v1.2
			c0,1.5-1.2,2.7-2.7,2.7h-3.8c-0.2,0-0.4-0.2-0.4-0.4V24.6c0-0.2,0.2-0.4,0.4-0.4H710z M707.6,25.5v3.3h2.4c0.8,0,1.4-0.6,1.4-1.4
			v-0.5c0-0.8-0.7-1.4-1.4-1.4H707.6z M707.6,30v4h2.8c0.8,0,1.4-0.7,1.4-1.4v-1.2c0-0.8-0.7-1.4-1.4-1.4
			C710.4,30,707.6,30,707.6,30z"/>
		<path class="st0" d="M717.3,31.4V32c0,1.8,1,2.1,3.7,2.1c0.2,0,0.3,0.1,0.3,0.3V35c0,0.2-0.1,0.3-0.3,0.3h-0.7
			c-2.5,0-4.4-0.4-4.4-3.3v-2.1c0-1.8,1.5-3.2,3.4-3.2s3.4,1.4,3.4,3.2v0.9c0,0.4-0.3,0.7-0.7,0.7h-4.7V31.4z M717.3,30.3h4v-0.5
			c0-1.1-0.9-1.9-2-1.9s-2,0.9-2,1.9V30.3z"/>
		<path class="st0" d="M729.5,34.1h2.4c0.2,0,0.3,0.1,0.3,0.3V35c0,0.2-0.1,0.3-0.3,0.3h-6.2c-0.2,0-0.3-0.1-0.3-0.3v-0.6
			c0-0.2,0.1-0.3,0.3-0.3h2.4v-6h-1.2c-0.1,0-0.3-0.1-0.3-0.3v-0.7c0-0.2,0.1-0.3,0.3-0.3h2.2c0.2,0,0.4,0.2,0.4,0.4L729.5,34.1
			L729.5,34.1z M728.4,22.8c0.6,0,1.2,0.5,1.2,1.2c0,0.6-0.5,1.2-1.2,1.2c-0.6,0-1.2-0.5-1.2-1.2C727.3,23.4,727.8,22.8,728.4,22.8z
			"/>
		<path class="st0" d="M736.8,27.5c1-0.5,2-0.9,3-0.9c1.5,0,2.6,0.8,2.6,3.2V35c0,0.2-0.1,0.3-0.3,0.3h-0.9c-0.1,0-0.3-0.1-0.3-0.3
			v-5.5c0-1.2-0.6-1.5-1.4-1.5c-0.8,0-1.9,0.4-2.6,0.9V35c0,0.2-0.1,0.3-0.3,0.3h-0.8c-0.2,0-0.3-0.1-0.3-0.3v-7.9
			c0-0.1,0.1-0.3,0.3-0.3h0.7c0.2,0,0.3,0.1,0.3,0.3V27.5z"/>
		<path class="st0" d="M753.8,25.5h-2.4c-0.1,0-0.3-0.1-0.3-0.3v-0.8c0-0.2,0.1-0.3,0.3-0.3h6.4c0.1,0,0.3,0.1,0.3,0.3v0.8
			c0,0.2-0.1,0.3-0.3,0.3h-2.5V34h2.5c0.1,0,0.3,0.1,0.3,0.3V35c0,0.2-0.1,0.3-0.3,0.3h-6.4c-0.1,0-0.3-0.1-0.3-0.3v-0.8
			c0-0.2,0.1-0.3,0.3-0.3h2.4V25.5z"/>
		<path class="st0" d="M762.8,27.5c1-0.5,2-0.9,3-0.9c1.5,0,2.6,0.8,2.6,3.2V35c0,0.2-0.1,0.3-0.3,0.3h-0.9c-0.1,0-0.3-0.1-0.3-0.3
			v-5.5c0-1.2-0.6-1.5-1.4-1.5c-0.8,0-1.9,0.4-2.6,0.9V35c0,0.2-0.1,0.3-0.3,0.3h-0.8c-0.2,0-0.3-0.1-0.3-0.3v-7.9
			c0-0.1,0.1-0.3,0.3-0.3h0.7c0.2,0,0.3,0.1,0.3,0.3V27.5z"/>
		<path class="st0" d="M779.9,25.5h-2.4c-0.1,0-0.3-0.1-0.3-0.3v-0.8c0-0.2,0.1-0.3,0.3-0.3h6.4c0.1,0,0.3,0.1,0.3,0.3v0.8
			c0,0.2-0.1,0.3-0.3,0.3h-2.5V35c0,0.1-0.1,0.3-0.3,0.3h-0.8c-0.2,0-0.3-0.1-0.3-0.3v-9.5H779.9z"/>
		<path class="st0" d="M790,28.7c0.7-1.5,1.9-1.9,3.2-1.9h0.4c0.2,0,0.3,0.1,0.3,0.3v0.6c0,0.2-0.1,0.3-0.3,0.3h-0.4
			c-1.9,0-2.7,1.2-3.2,2v4h2.3c0.2,0,0.3,0.1,0.3,0.3V35c0,0.2-0.1,0.3-0.3,0.3h-4.8c-0.2,0-0.3-0.1-0.3-0.3v-0.6
			c0-0.2,0.1-0.3,0.3-0.3h1.3v-6h-1.3c-0.2,0-0.3-0.1-0.3-0.3v-0.7c0-0.2,0.1-0.3,0.3-0.3h2.2c0.2,0,0.4,0.2,0.4,0.4v1.5H790z"/>
		<path class="st0" d="M796.6,29.9c0-1.8,1.5-3.2,3.5-3.2c1.9,0,3.4,1.4,3.4,3.2v2.3c0,1.8-1.5,3.3-3.4,3.3c-2,0-3.5-1.5-3.5-3.3
			V29.9z M802.1,32.3v-2.5c0-1.1-0.9-1.9-2.1-1.9s-2,0.9-2,1.9v2.5c0,1,0.9,1.9,2,1.9S802.1,33.4,802.1,32.3z"/>
		<path class="st0" d="M812,34.6c-0.9,0.5-2,0.9-2.9,0.9c-1.5,0-2.6-0.8-2.6-3.2v-5.2c0-0.2,0.1-0.3,0.3-0.3h0.9
			c0.1,0,0.3,0.1,0.3,0.3v5.5c0,1.2,0.6,1.5,1.4,1.5c0.9,0,1.9-0.4,2.6-0.8v-6.2c0-0.2,0.1-0.3,0.3-0.3h0.8c0.2,0,0.3,0.1,0.3,0.3
			V35c0,0.1-0.1,0.3-0.3,0.3h-0.7c-0.2,0-0.3-0.1-0.3-0.3L812,34.6L812,34.6z"/>
		<path class="st0" d="M818.1,23.1c0.2,0,0.3,0.1,0.3,0.3v4.1c0.5-0.5,1.2-0.8,2.1-0.8c1.9,0,3.4,1.4,3.4,3.2v2.3
			c0,1.8-1.5,3.3-3.4,3.3c-0.9,0-1.8-0.4-2.2-1v0.6c0,0.1-0.1,0.2-0.3,0.2h-0.7c-0.2,0-0.3-0.1-0.3-0.3V23.4c0-0.1,0.1-0.3,0.3-0.3
			H818.1z M822.5,30c0-1.2-0.9-2.1-2.1-2.1s-2.1,0.9-2.1,2.1v2.2c0,1.2,0.9,2.1,2.1,2.1s2.1-0.9,2.1-2.1V30z"/>
		<path class="st0" d="M830.7,34.1h2.4c0.2,0,0.3,0.1,0.3,0.3V35c0,0.2-0.1,0.3-0.3,0.3h-6.2c-0.2,0-0.3-0.1-0.3-0.3v-0.6
			c0-0.2,0.1-0.3,0.3-0.3h2.4v-9.7h-1.2c-0.1,0-0.3-0.1-0.3-0.3v-0.7c0-0.2,0.1-0.3,0.3-0.3h2.2c0.2,0,0.4,0.2,0.4,0.4L830.7,34.1
			L830.7,34.1z"/>
		<path class="st0" d="M837.7,31.4V32c0,1.8,1,2.1,3.7,2.1c0.2,0,0.3,0.1,0.3,0.3V35c0,0.2-0.1,0.3-0.3,0.3h-0.7
			c-2.5,0-4.4-0.4-4.4-3.3v-2.1c0-1.8,1.5-3.2,3.4-3.2s3.4,1.4,3.4,3.2v0.9c0,0.4-0.3,0.7-0.7,0.7h-4.7V31.4z M837.7,30.3h4v-0.5
			c0-1.1-0.9-1.9-2-1.9s-2,0.9-2,1.9V30.3z"/>
	</g>
</g>
<g>
	<g>
		<path class="st0" d="M609.6,139.9c0-1.8,1.6-3.2,3.6-3.2c2.1,0,3.7,1.4,3.7,3.2v5c0,1.8-1.6,3.2-3.7,3.2c-2,0-3.6-1.4-3.6-3.2
			V139.9z M615.5,139.8c0-1.1-1.1-1.9-2.2-1.9s-2.3,0.9-2.3,1.9v5.1c0,1.1,1.1,1.9,2.3,1.9s2.2-0.9,2.2-1.9V139.8z"/>
		<path class="st0" d="M621.9,140.2c1-0.5,2-0.9,3-0.9c1.5,0,2.6,0.8,2.6,3.2v5.2c0,0.2-0.1,0.3-0.3,0.3h-0.9
			c-0.1,0-0.3-0.1-0.3-0.3v-5.5c0-1.2-0.6-1.5-1.4-1.5c-0.8,0-1.9,0.4-2.6,0.9v6.2c0,0.2-0.1,0.3-0.3,0.3h-0.8
			c-0.2,0-0.3-0.1-0.3-0.3v-7.9c0-0.1,0.1-0.3,0.3-0.3h0.7c0.2,0,0.3,0.1,0.3,0.3V140.2z"/>
		<path class="st0" d="M631.7,144.1v0.6c0,1.8,1,2.1,3.7,2.1c0.2,0,0.3,0.1,0.3,0.3v0.5c0,0.2-0.1,0.3-0.3,0.3h-0.7
			c-2.5,0-4.4-0.4-4.4-3.3v-2.1c0-1.8,1.5-3.2,3.4-3.2s3.4,1.4,3.4,3.2v0.9c0,0.4-0.3,0.7-0.7,0.7H631.7z M631.7,142.9h4v-0.5
			c0-1.1-0.9-1.9-2-1.9s-2,0.9-2,1.9V142.9z"/>
		<path class="st0" d="M650.4,143.5h-2.5l-1.1,4.1c0,0.2-0.2,0.3-0.3,0.3h-0.8c-0.1,0-0.3-0.1-0.2-0.3l2.8-10.5
			c0.1-0.3,0.2-0.4,0.5-0.4h0.8c0.3,0,0.4,0.1,0.5,0.4l2.8,10.5c0,0.1-0.1,0.3-0.2,0.3h-0.8c-0.2,0-0.3-0.1-0.3-0.3L650.4,143.5z
			 M648.2,142.2h1.9l-0.9-3.8L648.2,142.2z"/>
		<path class="st0" d="M658.2,144.2c0,2.4,0.8,2.5,3.5,2.5c0.2,0,0.3,0.1,0.3,0.3v0.6c0,0.2-0.1,0.3-0.3,0.3h-0.5
			c-2.5,0-4.4-0.4-4.4-3.3v-4h-1.2c-0.2,0-0.3-0.1-0.3-0.3v-0.7c0-0.1,0.1-0.3,0.3-0.3h1.2V136c0-0.2,0.1-0.3,0.3-0.3h0.8
			c0.2,0,0.3,0.1,0.3,0.3v3.4h2.7c0.2,0,0.3,0.1,0.3,0.3v0.7c0,0.2-0.1,0.3-0.3,0.3h-2.7L658.2,144.2L658.2,144.2z"/>
		<path class="st0" d="M675.7,147.3c-0.6,0.5-1.6,0.8-2.6,0.8c-1.5,0-2.9-0.8-3-2.5c-0.1-1.8,1.6-2.8,3.5-2.8h2v-0.6
			c0-1.8-1.2-1.5-3.7-1.5c-0.2,0-0.3-0.1-0.3-0.3v-0.5c0-0.2,0.1-0.3,0.3-0.3c0.7-0.1,1.3-0.1,1.8-0.1c2.2,0,3.2,0.6,3.2,3.3v5
			c0,0.2-0.1,0.3-0.3,0.3H676c-0.1,0-0.3-0.1-0.3-0.3V147.3z M675.7,143.9h-2c-1.5,0-2.3,0.7-2.2,1.7c0.1,0.9,0.8,1.3,1.7,1.3
			s2-0.4,2.5-1V143.9z"/>
		<path class="st0" d="M688.7,138.1h-2.4c-0.1,0-0.3-0.1-0.3-0.3V137c0-0.2,0.1-0.3,0.3-0.3h6.4c0.1,0,0.3,0.1,0.3,0.3v0.8
			c0,0.2-0.1,0.3-0.3,0.3h-2.5v9.5c0,0.1-0.1,0.3-0.3,0.3H689c-0.2,0-0.3-0.1-0.3-0.3V138.1z"/>
		<path class="st0" d="M700.1,146.7h2.4c0.2,0,0.3,0.1,0.3,0.3v0.6c0,0.2-0.1,0.3-0.3,0.3h-6.2c-0.2,0-0.3-0.1-0.3-0.3V147
			c0-0.2,0.1-0.3,0.3-0.3h2.4v-6h-1.2c-0.1,0-0.3-0.1-0.3-0.3v-0.7c0-0.2,0.1-0.3,0.3-0.3h2.2c0.2,0,0.4,0.2,0.4,0.4L700.1,146.7
			L700.1,146.7z M699,135.5c0.6,0,1.2,0.5,1.2,1.2c0,0.6-0.5,1.2-1.2,1.2c-0.6,0-1.2-0.5-1.2-1.2C697.9,136,698.4,135.5,699,135.5z"
			/>
		<path class="st0" d="M707.4,140c0.6-0.4,1.3-0.6,2-0.6c0.5,0,1,0.2,1.2,0.6c0.6-0.4,1.4-0.7,2.1-0.7c0.9,0,1.6,0.5,1.6,1.9v6.4
			c0,0.2-0.1,0.3-0.3,0.3h-0.9c-0.2,0-0.3-0.1-0.3-0.3v-6.3c0-0.6-0.3-0.8-0.7-0.8s-0.8,0.1-1.3,0.4c0,0.1,0,0.2,0,0.3v6.4
			c0,0.2-0.1,0.3-0.3,0.3h-0.8c-0.1,0-0.3-0.1-0.3-0.3v-6.3c0-0.6-0.3-0.8-0.7-0.8s-1,0.2-1.4,0.4v6.7c0,0.2-0.1,0.3-0.3,0.3h-0.8
			c-0.2,0-0.3-0.1-0.3-0.3v-7.9c0-0.1,0.1-0.3,0.3-0.3h0.7c0.2,0,0.3,0.1,0.3,0.3v0.3H707.4z"/>
		<path class="st0" d="M718.6,144.1v0.6c0,1.8,1,2.1,3.7,2.1c0.2,0,0.3,0.1,0.3,0.3v0.5c0,0.2-0.1,0.3-0.3,0.3h-0.7
			c-2.5,0-4.4-0.4-4.4-3.3v-2.1c0-1.8,1.5-3.2,3.4-3.2s3.4,1.4,3.4,3.2v0.9c0,0.4-0.3,0.7-0.7,0.7H718.6z M718.6,142.9h4v-0.5
			c0-1.1-0.9-1.9-2-1.9s-2,0.9-2,1.9V142.9z"/>
	</g>
</g>
<g>
	<g>
		<path class="st0" d="M612.1,263.2h-2.4c-0.1,0-0.3-0.1-0.3-0.3v-0.8c0-0.2,0.1-0.3,0.3-0.3h6.4c0.1,0,0.3,0.1,0.3,0.3v0.8
			c0,0.2-0.1,0.3-0.3,0.3h-2.5v9.5c0,0.1-0.1,0.3-0.3,0.3h-0.8c-0.2,0-0.3-0.1-0.3-0.3v-9.5H612.1z"/>
		<path class="st0" d="M621.1,265.2c1-0.5,2-0.9,2.9-0.9c1.5,0,2.6,0.8,2.6,3.2v5.2c0,0.2-0.1,0.3-0.3,0.3h-0.9
			c-0.1,0-0.3-0.1-0.3-0.3v-5.5c0-1.2-0.6-1.5-1.4-1.5c-0.8,0-1.9,0.4-2.6,0.9v6.2c0,0.2-0.1,0.3-0.3,0.3H620
			c-0.2,0-0.3-0.1-0.3-0.3v-11.6c0-0.1,0.1-0.3,0.3-0.3h0.8c0.2,0,0.3,0.1,0.3,0.3V265.2z"/>
		<path class="st0" d="M630.8,269.2v0.6c0,1.8,1,2.1,3.7,2.1c0.2,0,0.3,0.1,0.3,0.3v0.5c0,0.2-0.1,0.3-0.3,0.3h-0.7
			c-2.5,0-4.4-0.4-4.4-3.3v-2.1c0-1.8,1.5-3.2,3.4-3.2s3.4,1.4,3.4,3.2v0.9c0,0.4-0.3,0.7-0.7,0.7H630.8z M630.8,268h4v-0.5
			c0-1.1-0.9-1.9-2-1.9s-2,0.9-2,1.9V268z"/>
		<path class="st0" d="M645,265c0-1.8,1.6-3.2,3.6-3.2c2.1,0,3.7,1.4,3.7,3.2v5c0,1.8-1.6,3.2-3.7,3.2c-2,0-3.6-1.4-3.6-3.2V265z
			 M650.9,264.9c0-1.1-1.1-1.9-2.3-1.9s-2.2,0.9-2.2,1.9v5.1c0,1.1,1.1,1.9,2.2,1.9s2.3-0.9,2.3-1.9V264.9z"/>
		<path class="st0" d="M656.2,276.7c-0.2,0-0.3-0.1-0.3-0.3v-11.6c0-0.1,0.1-0.3,0.3-0.3h0.7c0.1,0,0.3,0.1,0.3,0.2v0.6
			c0.5-0.7,1.3-1,2.2-1c1.9,0,3.4,1.5,3.4,3.3v2.3c0,1.8-1.5,3.2-3.4,3.2c-0.8,0-1.5-0.3-2.1-0.8v4.1c0,0.1-0.1,0.3-0.3,0.3
			L656.2,276.7L656.2,276.7z M661.5,267.7c0-1.2-0.9-2.1-2.1-2.1s-2.1,0.9-2.1,2.1v2.2c0,1.2,0.9,2.1,2.1,2.1s2.1-0.9,2.1-2.1V267.7
			z"/>
		<path class="st0" d="M666.2,276.7c-0.2,0-0.3-0.1-0.3-0.3v-11.6c0-0.1,0.1-0.3,0.3-0.3h0.7c0.1,0,0.3,0.1,0.3,0.2v0.6
			c0.4-0.7,1.3-1,2.2-1c1.9,0,3.4,1.5,3.4,3.3v2.3c0,1.8-1.5,3.2-3.4,3.2c-0.8,0-1.5-0.3-2.1-0.8v4.1c0,0.1-0.1,0.3-0.3,0.3
			L666.2,276.7L666.2,276.7z M671.5,267.7c0-1.2-0.9-2.1-2.1-2.1s-2.1,0.9-2.1,2.1v2.2c0,1.2,0.9,2.1,2.1,2.1s2.1-0.9,2.1-2.1V267.7
			z"/>
		<path class="st0" d="M675.7,267.6c0-1.8,1.5-3.2,3.5-3.2c1.9,0,3.4,1.4,3.4,3.2v2.3c0,1.8-1.5,3.3-3.4,3.3c-2,0-3.5-1.5-3.5-3.3
			V267.6z M681.2,270v-2.5c0-1.1-0.9-1.9-2.1-1.9c-1.1,0-2,0.9-2,1.9v2.5c0,1,0.9,1.9,2,1.9C680.2,272,681.2,271.1,681.2,270z"/>
		<path class="st0" d="M686.9,266.5c-0.1,0.9,1,1.3,2.3,1.6c2.5,0.6,3.3,1.5,3.2,2.9c-0.1,1.2-1.4,2.1-3.4,2.1c-0.9,0-1.9-0.2-3-0.5
			c-0.2-0.1-0.3-0.2-0.3-0.4l0.1-0.4c0.1-0.2,0.2-0.3,0.5-0.2c1,0.2,1.9,0.4,2.6,0.4c1.1,0,2-0.3,2.1-1.1c0.1-0.9-1-1.3-2.3-1.6
			c-2.5-0.6-3.4-1.4-3.3-2.9c0.1-1.2,1.3-2.1,3.2-2.1c0.9,0,1.8,0.2,2.9,0.5c0.2,0.1,0.3,0.2,0.3,0.4l-0.1,0.4
			c-0.1,0.2-0.2,0.3-0.5,0.2c-1-0.2-1.8-0.4-2.6-0.4C687.7,265.5,687,265.8,686.9,266.5z"/>
		<path class="st0" d="M699.5,271.8h2.4c0.2,0,0.3,0.1,0.3,0.3v0.6c0,0.2-0.1,0.3-0.3,0.3h-6.2c-0.2,0-0.3-0.1-0.3-0.3v-0.6
			c0-0.2,0.1-0.3,0.3-0.3h2.4v-6h-1.2c-0.1,0-0.3-0.1-0.3-0.3v-0.7c0-0.2,0.1-0.3,0.3-0.3h2.2c0.2,0,0.4,0.2,0.4,0.4L699.5,271.8
			L699.5,271.8z M698.4,260.6c0.6,0,1.2,0.5,1.2,1.2c0,0.6-0.5,1.2-1.2,1.2c-0.6,0-1.2-0.5-1.2-1.2
			C697.3,261.1,697.8,260.6,698.4,260.6z"/>
		<path class="st0" d="M707.8,269.3c0,2.4,0.8,2.5,3.5,2.5c0.2,0,0.3,0.1,0.3,0.3v0.6c0,0.2-0.1,0.3-0.3,0.3h-0.5
			c-2.5,0-4.4-0.4-4.4-3.3v-4h-1.2c-0.2,0-0.3-0.1-0.3-0.3v-0.7c0-0.1,0.1-0.3,0.3-0.3h1.2V261c0-0.2,0.1-0.3,0.3-0.3h0.8
			c0.2,0,0.3,0.1,0.3,0.3v3.4h2.7c0.2,0,0.3,0.1,0.3,0.3v0.7c0,0.2-0.1,0.3-0.3,0.3h-2.7L707.8,269.3L707.8,269.3z"/>
		<path class="st0" d="M715.6,269.2v0.6c0,1.8,1,2.1,3.7,2.1c0.2,0,0.3,0.1,0.3,0.3v0.5c0,0.2-0.1,0.3-0.3,0.3h-0.7
			c-2.5,0-4.4-0.4-4.4-3.3v-2.1c0-1.8,1.5-3.2,3.4-3.2s3.4,1.4,3.4,3.2v0.9c0,0.4-0.3,0.7-0.7,0.7H715.6z M715.6,268h4v-0.5
			c0-1.1-0.9-1.9-2-1.9s-2,0.9-2,1.9V268z"/>
		<path class="st0" d="M729.6,267.6c0-1.8,1.5-3.2,3.5-3.2c1.9,0,3.4,1.4,3.4,3.2v2.3c0,1.8-1.5,3.3-3.4,3.3c-2,0-3.5-1.5-3.5-3.3
			V267.6z M735.1,270v-2.5c0-1.1-0.9-1.9-2.1-1.9s-2,0.9-2,1.9v2.5c0,1,0.9,1.9,2,1.9S735.1,271.1,735.1,270z"/>
		<path class="st0" d="M745.2,264.5c0.1,0,0.3,0.1,0.3,0.3v0.7c0,0.2-0.1,0.3-0.3,0.3h-2.7v6h2.7c0.1,0,0.3,0.1,0.3,0.3v0.6
			c0,0.2-0.1,0.3-0.3,0.3h-5.4c-0.2,0-0.3-0.1-0.3-0.3v-0.6c0-0.2,0.1-0.3,0.3-0.3h1.3v-6h-1.3c-0.1,0-0.3-0.1-0.3-0.3v-0.7
			c0-0.2,0.1-0.3,0.3-0.3h1.3v-0.4c0-2.9,1.9-3.3,4.4-3.3h0.5c0.2,0,0.3,0.1,0.3,0.3v0.6c0,0.2-0.1,0.3-0.3,0.3
			c-2.6,0-3.5,0-3.5,2.1v0.4H745.2z"/>
		<path class="st0" d="M759.3,268.6h-2.5l-1.1,4.1c0,0.2-0.2,0.3-0.3,0.3h-0.8c-0.1,0-0.3-0.1-0.2-0.3l2.8-10.5
			c0.1-0.3,0.2-0.4,0.5-0.4h0.8c0.3,0,0.4,0.1,0.5,0.4l2.8,10.5c0,0.1-0.1,0.3-0.2,0.3h-0.8c-0.2,0-0.3-0.1-0.3-0.3L759.3,268.6z
			 M757.1,267.3h1.9l-0.9-3.8L757.1,267.3z"/>
		<path class="st0" d="M770.1,264.5c0.1,0,0.3,0.1,0.3,0.3v0.7c0,0.2-0.1,0.3-0.3,0.3h-2.7v6h2.7c0.1,0,0.3,0.1,0.3,0.3v0.6
			c0,0.2-0.1,0.3-0.3,0.3h-5.4c-0.2,0-0.3-0.1-0.3-0.3v-0.6c0-0.2,0.1-0.3,0.3-0.3h1.3v-6h-1.3c-0.1,0-0.3-0.1-0.3-0.3v-0.7
			c0-0.2,0.1-0.3,0.3-0.3h1.3v-0.4c0-2.9,1.9-3.3,4.4-3.3h0.5c0.2,0,0.3,0.1,0.3,0.3v0.6c0,0.2-0.1,0.3-0.3,0.3
			c-2.6,0-3.5,0-3.5,2.1v0.4H770.1z"/>
		<path class="st0" d="M776.5,269.3c0,2.4,0.8,2.5,3.5,2.5c0.2,0,0.3,0.1,0.3,0.3v0.6c0,0.2-0.1,0.3-0.3,0.3h-0.5
			c-2.5,0-4.4-0.4-4.4-3.3v-4h-1.2c-0.2,0-0.3-0.1-0.3-0.3v-0.7c0-0.1,0.1-0.3,0.3-0.3h1.2V261c0-0.2,0.1-0.3,0.3-0.3h0.8
			c0.2,0,0.3,0.1,0.3,0.3v3.4h2.7c0.2,0,0.3,0.1,0.3,0.3v0.7c0,0.2-0.1,0.3-0.3,0.3h-2.7L776.5,269.3L776.5,269.3z"/>
		<path class="st0" d="M784.3,269.2v0.6c0,1.8,1,2.1,3.7,2.1c0.2,0,0.3,0.1,0.3,0.3v0.5c0,0.2-0.1,0.3-0.3,0.3h-0.7
			c-2.5,0-4.4-0.4-4.4-3.3v-2.1c0-1.8,1.5-3.2,3.4-3.2s3.4,1.4,3.4,3.2v0.9c0,0.4-0.3,0.7-0.7,0.7H784.3z M784.3,268h4v-0.5
			c0-1.1-0.9-1.9-2-1.9s-2,0.9-2,1.9V268z"/>
		<path class="st0" d="M795.3,266.4c0.7-1.5,1.9-1.9,3.2-1.9h0.4c0.2,0,0.3,0.1,0.3,0.3v0.6c0,0.2-0.1,0.3-0.3,0.3h-0.4
			c-1.9,0-2.7,1.2-3.2,2v4h2.3c0.2,0,0.3,0.1,0.3,0.3v0.6c0,0.2-0.1,0.3-0.3,0.3h-4.8c-0.2,0-0.3-0.1-0.3-0.3V272
			c0-0.2,0.1-0.3,0.3-0.3h1.3v-6h-1.3c-0.2,0-0.3-0.1-0.3-0.3v-0.7c0-0.2,0.1-0.3,0.3-0.3h2.2c0.2,0,0.4,0.2,0.4,0.4v1.6H795.3z"/>
		<path class="st0" d="M803.5,265.3c1-0.5,2-0.9,3-0.9c1.5,0,2.6,0.8,2.6,3.2v5.2c0,0.2-0.1,0.3-0.3,0.3h-0.9
			c-0.1,0-0.3-0.1-0.3-0.3v-5.5c0-1.2-0.6-1.5-1.4-1.5c-0.8,0-1.9,0.4-2.6,0.9v6.2c0,0.2-0.1,0.3-0.3,0.3h-0.8
			c-0.2,0-0.3-0.1-0.3-0.3V265c0-0.1,0.1-0.3,0.3-0.3h0.7c0.2,0,0.3,0.1,0.3,0.3V265.3z"/>
		<path class="st0" d="M812,267.6c0-1.8,1.5-3.2,3.5-3.2c1.9,0,3.4,1.4,3.4,3.2v2.3c0,1.8-1.5,3.3-3.4,3.3c-2,0-3.5-1.5-3.5-3.3
			V267.6z M817.5,270v-2.5c0-1.1-0.9-1.9-2.1-1.9c-1.1,0-2,0.9-2,1.9v2.5c0,1,0.9,1.9,2,1.9C816.6,272,817.5,271.1,817.5,270z"/>
		<path class="st0" d="M822,267.6c0-1.8,1.5-3.2,3.5-3.2c1.9,0,3.4,1.4,3.4,3.2v2.3c0,1.8-1.5,3.3-3.4,3.3c-2,0-3.5-1.5-3.5-3.3
			V267.6z M827.5,270v-2.5c0-1.1-0.9-1.9-2.1-1.9c-1.1,0-2,0.9-2,1.9v2.5c0,1,0.9,1.9,2,1.9C826.5,272,827.5,271.1,827.5,270z"/>
		<path class="st0" d="M833.5,265.3c1-0.5,2-0.9,3-0.9c1.5,0,2.6,0.8,2.6,3.2v5.2c0,0.2-0.1,0.3-0.3,0.3h-0.9
			c-0.1,0-0.3-0.1-0.3-0.3v-5.5c0-1.2-0.6-1.5-1.4-1.5c-0.8,0-1.9,0.4-2.6,0.9v6.2c0,0.2-0.1,0.3-0.3,0.3h-0.8
			c-0.2,0-0.3-0.1-0.3-0.3V265c0-0.1,0.1-0.3,0.3-0.3h0.7c0.2,0,0.3,0.1,0.3,0.3V265.3z"/>
	</g>
</g>
<g>
	<g>
		<path class="st0" d="M616.5,384.6c0,0.2-0.1,0.3-0.3,0.3h-1l-4.2-8.1v7.8c0,0.1-0.1,0.3-0.3,0.3h-0.8c-0.2,0-0.3-0.1-0.3-0.3
			v-10.5c0-0.2,0.1-0.3,0.3-0.3h1l4.2,8.1v-7.8c0-0.1,0.1-0.3,0.3-0.3h0.8c0.2,0,0.3,0.1,0.3,0.3V384.6z"/>
		<path class="st0" d="M619.9,379.6c0-1.8,1.5-3.2,3.5-3.2c1.9,0,3.4,1.4,3.4,3.2v2.3c0,1.8-1.5,3.3-3.4,3.3c-2,0-3.5-1.5-3.5-3.3
			V379.6z M625.4,382v-2.5c0-1.1-0.9-1.9-2.1-1.9c-1.1,0-2,0.9-2,1.9v2.5c0,1,0.9,1.9,2,1.9S625.4,383,625.4,382z"/>
		<path class="st0" d="M642.8,384.6c0,0.2-0.1,0.3-0.3,0.3h-1l-4.2-8.1v7.8c0,0.1-0.1,0.3-0.3,0.3h-0.8c-0.2,0-0.3-0.1-0.3-0.3
			v-10.5c0-0.2,0.1-0.3,0.3-0.3h1l4.2,8.1v-7.8c0-0.1,0.1-0.3,0.3-0.3h0.8c0.2,0,0.3,0.1,0.3,0.3V384.6z"/>
		<path class="st0" d="M647.5,381.1v0.6c0,1.8,1,2.1,3.7,2.1c0.2,0,0.3,0.1,0.3,0.3v0.5c0,0.2-0.1,0.3-0.3,0.3h-0.7
			c-2.5,0-4.4-0.4-4.4-3.3v-2.1c0-1.8,1.5-3.2,3.4-3.2s3.4,1.4,3.4,3.2v0.9c0,0.4-0.3,0.7-0.7,0.7H647.5z M647.5,379.9h4v-0.5
			c0-1.1-0.9-1.9-2-1.9s-2,0.9-2,1.9V379.9z"/>
		<path class="st0" d="M657.1,381.1v0.6c0,1.8,1,2.1,3.7,2.1c0.2,0,0.3,0.1,0.3,0.3v0.5c0,0.2-0.1,0.3-0.3,0.3H660
			c-2.5,0-4.4-0.4-4.4-3.3v-2.1c0-1.8,1.5-3.2,3.4-3.2s3.4,1.4,3.4,3.2v0.9c0,0.4-0.3,0.7-0.7,0.7H657.1z M657.1,379.9h4v-0.5
			c0-1.1-0.9-1.9-2-1.9s-2,0.9-2,1.9V379.9z"/>
		<path class="st0" d="M671.6,372.8c0.2,0,0.3,0.1,0.3,0.3v11.6c0,0.1-0.1,0.3-0.3,0.3h-0.7c-0.1,0-0.3-0.1-0.3-0.2v-0.6
			c-0.5,0.7-1.3,1-2.2,1c-1.9,0-3.4-1.5-3.4-3.3v-2.3c0-1.8,1.5-3.2,3.4-3.2c0.8,0,1.5,0.3,2.1,0.8v-4.1c0-0.1,0.1-0.3,0.3-0.3
			L671.6,372.8L671.6,372.8z M666.4,381.8c0,1.2,0.9,2.1,2.1,2.1s2.1-0.9,2.1-2.1v-2.2c0-1.2-0.9-2.1-2.1-2.1s-2.1,0.9-2.1,2.1
			V381.8z"/>
		<path class="st0" d="M681.3,374.2c0-0.2,0.2-0.4,0.4-0.4h6.2c0.1,0,0.3,0.1,0.3,0.3v0.8c0,0.2-0.1,0.3-0.3,0.3h-5.2v2.8h2.9
			c0.1,0,0.3,0.1,0.3,0.3v0.7c0,0.2-0.1,0.3-0.3,0.3h-2.9v5.4c0,0.1-0.1,0.3-0.3,0.3h-0.8c-0.2,0-0.3-0.1-0.3-0.3L681.3,374.2
			L681.3,374.2z"/>
		<path class="st0" d="M691,379.6c0-1.8,1.5-3.2,3.5-3.2c1.9,0,3.4,1.4,3.4,3.2v2.3c0,1.8-1.5,3.3-3.4,3.3c-2,0-3.5-1.5-3.5-3.3
			V379.6z M696.5,382v-2.5c0-1.1-0.9-1.9-2.1-1.9c-1.1,0-2,0.9-2,1.9v2.5c0,1,0.9,1.9,2,1.9C695.6,383.9,696.5,383,696.5,382z"/>
		<path class="st0" d="M703.7,378.4c0.7-1.5,1.9-1.9,3.2-1.9h0.4c0.2,0,0.3,0.1,0.3,0.3v0.6c0,0.2-0.1,0.3-0.3,0.3h-0.4
			c-1.9,0-2.7,1.2-3.2,2v4h2.3c0.2,0,0.3,0.1,0.3,0.3v0.6c0,0.2-0.1,0.3-0.3,0.3h-4.8c-0.2,0-0.3-0.1-0.3-0.3V384
			c0-0.2,0.1-0.3,0.3-0.3h1.3v-6h-1.3c-0.2,0-0.3-0.1-0.3-0.3v-0.7c0-0.2,0.1-0.3,0.3-0.3h2.2c0.2,0,0.4,0.2,0.4,0.4v1.6H703.7z"/>
		<path class="st0" d="M721.4,384.3c-0.6,0.5-1.6,0.8-2.6,0.8c-1.5,0-2.9-0.8-3-2.5c-0.1-1.8,1.6-2.8,3.5-2.8h2v-0.6
			c0-1.8-1.2-1.5-3.7-1.5c-0.2,0-0.3-0.1-0.3-0.3v-0.5c0-0.2,0.1-0.3,0.3-0.3c0.7-0.1,1.3-0.1,1.8-0.1c2.2,0,3.2,0.6,3.2,3.3v5
			c0,0.2-0.1,0.3-0.3,0.3h-0.7c-0.1,0-0.3-0.1-0.3-0.3L721.4,384.3L721.4,384.3z M721.3,380.9h-2c-1.5,0-2.3,0.7-2.2,1.7
			c0.1,0.9,0.8,1.3,1.7,1.3s2-0.4,2.5-1V380.9z"/>
		<path class="st0" d="M731.8,374.1c0-0.1,0.1-0.3,0.3-0.3h0.8c0.2,0,0.3,0.1,0.3,0.3v9.5h5.2c0.1,0,0.3,0.1,0.3,0.3v0.8
			c0,0.2-0.1,0.3-0.3,0.3h-6.2c-0.2,0-0.4-0.2-0.4-0.4L731.8,374.1L731.8,374.1z"/>
		<path class="st0" d="M742.9,381.1v0.6c0,1.8,1,2.1,3.7,2.1c0.2,0,0.3,0.1,0.3,0.3v0.5c0,0.2-0.1,0.3-0.3,0.3h-0.7
			c-2.5,0-4.4-0.4-4.4-3.3v-2.1c0-1.8,1.5-3.2,3.4-3.2s3.4,1.4,3.4,3.2v0.9c0,0.4-0.3,0.7-0.7,0.7H742.9z M742.9,379.9h4v-0.5
			c0-1.1-0.9-1.9-2-1.9s-2,0.9-2,1.9V379.9z"/>
		<path class="st0" d="M756.4,384.3c-0.6,0.5-1.6,0.8-2.6,0.8c-1.5,0-2.9-0.8-3-2.5c-0.1-1.8,1.6-2.8,3.5-2.8h2v-0.6
			c0-1.8-1.2-1.5-3.7-1.5c-0.2,0-0.3-0.1-0.3-0.3v-0.5c0-0.2,0.1-0.3,0.3-0.3c0.7-0.1,1.3-0.1,1.8-0.1c2.2,0,3.2,0.6,3.2,3.3v5
			c0,0.2-0.1,0.3-0.3,0.3h-0.7c-0.1,0-0.3-0.1-0.3-0.3L756.4,384.3L756.4,384.3z M756.4,380.9h-2c-1.5,0-2.3,0.7-2.2,1.7
			c0.1,0.9,0.8,1.3,1.7,1.3s2-0.4,2.5-1V380.9z"/>
		<path class="st0" d="M767.3,372.8c0.2,0,0.3,0.1,0.3,0.3v11.6c0,0.1-0.1,0.3-0.3,0.3h-0.7c-0.1,0-0.3-0.1-0.3-0.2v-0.6
			c-0.5,0.7-1.3,1-2.2,1c-1.9,0-3.4-1.5-3.4-3.3v-2.3c0-1.8,1.5-3.2,3.4-3.2c0.8,0,1.5,0.3,2.1,0.8v-4.1c0-0.1,0.1-0.3,0.3-0.3
			L767.3,372.8L767.3,372.8z M762,381.8c0,1.2,0.9,2.1,2.1,2.1s2.1-0.9,2.1-2.1v-2.2c0-1.2-0.9-2.1-2.1-2.1s-2.1,0.9-2.1,2.1V381.8z
			"/>
		<path class="st0" d="M772.2,381.1v0.6c0,1.8,1,2.1,3.7,2.1c0.2,0,0.3,0.1,0.3,0.3v0.5c0,0.2-0.1,0.3-0.3,0.3h-0.7
			c-2.5,0-4.4-0.4-4.4-3.3v-2.1c0-1.8,1.5-3.2,3.4-3.2s3.4,1.4,3.4,3.2v0.9c0,0.4-0.3,0.7-0.7,0.7H772.2z M772.2,379.9h4v-0.5
			c0-1.1-0.9-1.9-2-1.9s-2,0.9-2,1.9V379.9z"/>
		<path class="st0" d="M783.2,378.4c0.7-1.5,1.9-1.9,3.2-1.9h0.4c0.2,0,0.3,0.1,0.3,0.3v0.6c0,0.2-0.1,0.3-0.3,0.3h-0.4
			c-1.9,0-2.7,1.2-3.2,2v4h2.3c0.2,0,0.3,0.1,0.3,0.3v0.6c0,0.2-0.1,0.3-0.3,0.3h-4.8c-0.2,0-0.3-0.1-0.3-0.3V384
			c0-0.2,0.1-0.3,0.3-0.3h1.3v-6h-1.3c-0.2,0-0.3-0.1-0.3-0.3v-0.7c0-0.2,0.1-0.3,0.3-0.3h2.2c0.2,0,0.4,0.2,0.4,0.4v1.6H783.2z"/>
	</g>
</g>
<g>
	<g>
		<path class="st0" d="M1084,35.6c0,0.1-0.1,0.3-0.3,0.3h-0.8c-0.2,0-0.3-0.1-0.3-0.3v-8.2l-1.6,2.9c-0.1,0.2-0.3,0.4-0.5,0.4
			c-0.3,0-0.4-0.1-0.5-0.4l-1.6-2.9v8.2c0,0.1-0.1,0.3-0.3,0.3h-0.8c-0.2,0-0.3-0.1-0.3-0.3V25.1c0-0.2,0.1-0.3,0.3-0.3h1l2.1,4.1
			l2.1-4.1h1c0.2,0,0.3,0.2,0.3,0.3v10.5H1084z"/>
		<path class="st0" d="M1087.3,30.5c0-1.8,1.5-3.2,3.5-3.2c1.9,0,3.4,1.4,3.4,3.2v2.3c0,1.8-1.5,3.3-3.4,3.3c-2,0-3.5-1.5-3.5-3.3
			V30.5z M1092.8,32.9v-2.5c0-1.1-0.9-1.9-2.1-1.9c-1.1,0-2,0.9-2,1.9v2.5c0,1,0.9,1.9,2,1.9C1091.9,34.9,1092.8,34,1092.8,32.9z"/>
		<path class="st0" d="M1098.9,28.2c1-0.5,2-0.9,3-0.9c1.5,0,2.6,0.8,2.6,3.2v5.2c0,0.2-0.1,0.3-0.3,0.3h-0.9
			c-0.1,0-0.3-0.1-0.3-0.3v-5.5c0-1.2-0.6-1.5-1.4-1.5s-1.9,0.4-2.6,0.9v6.2c0,0.2-0.1,0.3-0.3,0.3h-0.8c-0.2,0-0.3-0.1-0.3-0.3
			v-7.9c0-0.1,0.1-0.3,0.3-0.3h0.7c0.2,0,0.3,0.1,0.3,0.3L1098.9,28.2L1098.9,28.2z"/>
		<path class="st0" d="M1110.6,31.5l-1.5,1.4v2.8c0,0.2-0.1,0.3-0.3,0.3h-0.8c-0.2,0-0.3-0.1-0.3-0.3V24c0-0.2,0.1-0.3,0.3-0.3h0.8
			c0.1,0,0.3,0.1,0.3,0.3v7l3.8-3.7c0.1-0.1,0.2-0.1,0.3,0l0.6,0.6c0.1,0.1,0.1,0.2,0,0.3l-2.2,2.3l2.9,5c0.1,0.2,0,0.5-0.3,0.5
			h-0.7c-0.3,0-0.4-0.1-0.5-0.3L1110.6,31.5z"/>
		<path class="st0" d="M1121.2,34.7h2.4c0.2,0,0.3,0.1,0.3,0.3v0.6c0,0.2-0.1,0.3-0.3,0.3h-6.2c-0.2,0-0.3-0.1-0.3-0.3V35
			c0-0.2,0.1-0.3,0.3-0.3h2.4v-6h-1.2c-0.1,0-0.3-0.1-0.3-0.3v-0.7c0-0.2,0.1-0.3,0.3-0.3h2.2c0.2,0,0.4,0.2,0.4,0.4L1121.2,34.7
			L1121.2,34.7z M1120.1,23.5c0.6,0,1.2,0.5,1.2,1.2c0,0.6-0.5,1.2-1.2,1.2c-0.6,0-1.2-0.5-1.2-1.2S1119.4,23.5,1120.1,23.5z"/>
	</g>
</g>
<g>
	<g>
		<path class="st0" d="M1080.4,137.8c2,0,3.6,1.5,3.6,3.3v4.6c0,1.8-1.6,3.3-3.6,3.3h-2.9c-0.2,0-0.4-0.2-0.4-0.4v-10.4
			c0-0.2,0.2-0.4,0.4-0.4L1080.4,137.8L1080.4,137.8z M1080.3,147.6c1.2,0,2.3-0.9,2.3-1.9V141c0-1.1-1.1-1.9-2.3-1.9h-1.8v8.5
			H1080.3z"/>
		<path class="st0" d="M1092.1,148.3c-0.6,0.5-1.6,0.8-2.6,0.8c-1.5,0-2.9-0.8-3-2.5c-0.1-1.8,1.6-2.8,3.5-2.8h2v-0.6
			c0-1.8-1.2-1.5-3.7-1.5c-0.2,0-0.3-0.1-0.3-0.3v-0.5c0-0.2,0.1-0.3,0.3-0.3c0.7-0.1,1.3-0.1,1.8-0.1c2.2,0,3.2,0.6,3.2,3.3v5
			c0,0.2-0.1,0.3-0.3,0.3h-0.7c-0.1,0-0.3-0.1-0.3-0.3L1092.1,148.3L1092.1,148.3z M1092.1,144.9h-2c-1.5,0-2.3,0.7-2.2,1.7
			c0.1,0.9,0.8,1.3,1.7,1.3c0.9,0,2-0.4,2.5-1V144.9z"/>
		<path class="st0" d="M1100.3,145.9L1100.3,145.9l-1.1,3h-0.6c-0.2,0-0.3-0.1-0.4-0.3l-1.6-7.9c0-0.2,0.1-0.3,0.3-0.3h0.8
			c0.2,0,0.3,0.1,0.4,0.3l0.9,6.1l0.8-2.5c0-0.1,0.1-0.2,0.2-0.2h0.7c0.1,0,0.2,0.1,0.2,0.2l0.8,2.5l0.9-6.1c0-0.2,0.2-0.3,0.4-0.3
			h0.8c0.2,0,0.3,0.1,0.3,0.3l-1.6,7.9c0,0.2-0.2,0.3-0.4,0.3h-0.6L1100.3,145.9z"/>
		<path class="st0" d="M1108.6,141.2c1-0.5,2-0.9,3-0.9c1.5,0,2.6,0.8,2.6,3.2v5.2c0,0.2-0.1,0.3-0.3,0.3h-0.9
			c-0.1,0-0.3-0.1-0.3-0.3v-5.5c0-1.2-0.6-1.5-1.4-1.5s-1.9,0.4-2.6,0.9v6.2c0,0.2-0.1,0.3-0.3,0.3h-0.8c-0.2,0-0.3-0.1-0.3-0.3
			v-7.9c0-0.1,0.1-0.3,0.3-0.3h0.7c0.2,0,0.3,0.1,0.3,0.3L1108.6,141.2L1108.6,141.2z"/>
	</g>
</g>
<g>
	<g>
		<path class="st0" d="M1077.1,262.3c0-0.2,0.2-0.4,0.4-0.4h6.2c0.1,0,0.3,0.1,0.3,0.3v0.8c0,0.2-0.1,0.3-0.3,0.3h-5.2v2.8h2.9
			c0.1,0,0.3,0.1,0.3,0.3v0.7c0,0.2-0.1,0.3-0.3,0.3h-2.9v5.4c0,0.1-0.1,0.3-0.3,0.3h-0.8c-0.2,0-0.3-0.1-0.3-0.3L1077.1,262.3
			L1077.1,262.3z"/>
		<path class="st0" d="M1092.1,272.4c-0.6,0.5-1.6,0.8-2.6,0.8c-1.5,0-2.9-0.8-3-2.5c-0.1-1.8,1.6-2.8,3.5-2.8h2v-0.6
			c0-1.8-1.2-1.5-3.7-1.5c-0.2,0-0.3-0.1-0.3-0.3V265c0-0.2,0.1-0.3,0.3-0.3c0.7-0.1,1.3-0.1,1.8-0.1c2.2,0,3.2,0.6,3.2,3.3v5
			c0,0.2-0.1,0.3-0.3,0.3h-0.7c-0.1,0-0.3-0.1-0.3-0.3L1092.1,272.4L1092.1,272.4z M1092.1,269h-2c-1.5,0-2.3,0.7-2.2,1.7
			c0.1,0.9,0.8,1.3,1.7,1.3c0.9,0,2-0.4,2.5-1V269z"/>
		<path class="st0" d="M1102.9,260.8c0.2,0,0.3,0.1,0.3,0.3v11.6c0,0.1-0.1,0.3-0.3,0.3h-0.7c-0.1,0-0.3-0.1-0.3-0.2v-0.6
			c-0.5,0.7-1.3,1-2.2,1c-1.9,0-3.4-1.5-3.4-3.3v-2.3c0-1.8,1.5-3.2,3.4-3.2c0.8,0,1.5,0.3,2.1,0.8v-4.1c0-0.1,0.1-0.3,0.3-0.3
			L1102.9,260.8L1102.9,260.8z M1097.7,269.9c0,1.2,0.9,2.1,2.1,2.1s2.1-0.9,2.1-2.1v-2.2c0-1.2-0.9-2.1-2.1-2.1s-2.1,0.9-2.1,2.1
			V269.9z"/>
		<path class="st0" d="M1107.9,269.2v0.6c0,1.8,1,2.1,3.7,2.1c0.2,0,0.3,0.1,0.3,0.3v0.5c0,0.2-0.1,0.3-0.3,0.3h-0.7
			c-2.5,0-4.4-0.4-4.4-3.3v-2.1c0-1.8,1.5-3.2,3.4-3.2s3.4,1.4,3.4,3.2v0.9c0,0.4-0.3,0.7-0.7,0.7H1107.9z M1107.9,268h4v-0.5
			c0-1.1-0.9-1.9-2-1.9s-2,0.9-2,1.9V268z"/>
		<path class="st0" d="M1122.5,260.8c0.2,0,0.3,0.1,0.3,0.3v11.6c0,0.1-0.1,0.3-0.3,0.3h-0.7c-0.1,0-0.3-0.1-0.3-0.2v-0.6
			c-0.5,0.7-1.3,1-2.2,1c-1.9,0-3.4-1.5-3.4-3.3v-2.3c0-1.8,1.5-3.2,3.4-3.2c0.8,0,1.5,0.3,2.1,0.8v-4.1c0-0.1,0.1-0.3,0.3-0.3
			L1122.5,260.8L1122.5,260.8z M1117.2,269.9c0,1.2,0.9,2.1,2.1,2.1s2.1-0.9,2.1-2.1v-2.2c0-1.2-0.9-2.1-2.1-2.1s-2.1,0.9-2.1,2.1
			V269.9z"/>
		<path class="st0" d="M1134.7,263.2h-2.4c-0.1,0-0.3-0.1-0.3-0.3v-0.8c0-0.2,0.1-0.3,0.3-0.3h6.4c0.1,0,0.3,0.1,0.3,0.3v0.8
			c0,0.2-0.1,0.3-0.3,0.3h-2.5v8.5h2.5c0.1,0,0.3,0.1,0.3,0.3v0.8c0,0.2-0.1,0.3-0.3,0.3h-6.4c-0.1,0-0.3-0.1-0.3-0.3V272
			c0-0.2,0.1-0.3,0.3-0.3h2.4V263.2z"/>
		<path class="st0" d="M1143.6,265.3c1-0.5,2-0.9,3-0.9c1.5,0,2.6,0.8,2.6,3.2v5.2c0,0.2-0.1,0.3-0.3,0.3h-0.9
			c-0.1,0-0.3-0.1-0.3-0.3v-5.5c0-1.2-0.6-1.5-1.4-1.5s-1.9,0.4-2.6,0.9v6.2c0,0.2-0.1,0.3-0.3,0.3h-0.8c-0.2,0-0.3-0.1-0.3-0.3V265
			c0-0.1,0.1-0.3,0.3-0.3h0.7c0.2,0,0.3,0.1,0.3,0.3L1143.6,265.3L1143.6,265.3z"/>
		<path class="st0" d="M1160.5,269.3c0,2.4,0.8,2.5,3.5,2.5c0.2,0,0.3,0.1,0.3,0.3v0.6c0,0.2-0.1,0.3-0.3,0.3h-0.5
			c-2.5,0-4.4-0.4-4.4-3.3v-4h-1.2c-0.2,0-0.3-0.1-0.3-0.3v-0.7c0-0.1,0.1-0.3,0.3-0.3h1.2V261c0-0.2,0.1-0.3,0.3-0.3h0.8
			c0.2,0,0.3,0.1,0.3,0.3v3.4h2.7c0.2,0,0.3,0.1,0.3,0.3v0.7c0,0.2-0.1,0.3-0.3,0.3h-2.7L1160.5,269.3L1160.5,269.3z"/>
		<path class="st0" d="M1168.6,265.2c1-0.5,2-0.9,2.9-0.9c1.5,0,2.6,0.8,2.6,3.2v5.2c0,0.2-0.1,0.3-0.3,0.3h-0.9
			c-0.1,0-0.3-0.1-0.3-0.3v-5.5c0-1.2-0.6-1.5-1.4-1.5s-1.9,0.4-2.6,0.9v6.2c0,0.2-0.1,0.3-0.3,0.3h-0.8c-0.2,0-0.3-0.1-0.3-0.3
			v-11.6c0-0.1,0.1-0.3,0.3-0.3h0.8c0.2,0,0.3,0.1,0.3,0.3L1168.6,265.2L1168.6,265.2z"/>
		<path class="st0" d="M1178.3,269.2v0.6c0,1.8,1,2.1,3.7,2.1c0.2,0,0.3,0.1,0.3,0.3v0.5c0,0.2-0.1,0.3-0.3,0.3h-0.7
			c-2.5,0-4.4-0.4-4.4-3.3v-2.1c0-1.8,1.5-3.2,3.4-3.2s3.4,1.4,3.4,3.2v0.9c0,0.4-0.3,0.7-0.7,0.7H1178.3z M1178.3,268h4v-0.5
			c0-1.1-0.9-1.9-2-1.9s-2,0.9-2,1.9V268z"/>
		<path class="st0" d="M1199.4,272.7c0,0.1-0.1,0.3-0.3,0.3h-0.8c-0.2,0-0.3-0.1-0.3-0.3v-8.2l-1.6,2.9c-0.1,0.2-0.3,0.4-0.5,0.4
			c-0.3,0-0.4-0.1-0.5-0.4l-1.6-2.9v8.2c0,0.1-0.1,0.3-0.3,0.3h-0.8c-0.2,0-0.3-0.1-0.3-0.3v-10.5c0-0.2,0.1-0.3,0.3-0.3h1l2.1,4.1
			l2.1-4.1h1c0.2,0,0.3,0.2,0.3,0.3v10.5H1199.4z"/>
		<path class="st0" d="M1202.7,267.6c0-1.8,1.5-3.2,3.5-3.2c1.9,0,3.4,1.4,3.4,3.2v2.3c0,1.8-1.5,3.3-3.4,3.3c-2,0-3.5-1.5-3.5-3.3
			V267.6z M1208.2,270v-2.5c0-1.1-0.9-1.9-2.1-1.9s-2,0.9-2,1.9v2.5c0,1,0.9,1.9,2,1.9S1208.2,271.1,1208.2,270z"/>
		<path class="st0" d="M1215.4,266.4c0.7-1.5,1.9-1.9,3.2-1.9h0.4c0.2,0,0.3,0.1,0.3,0.3v0.6c0,0.2-0.1,0.3-0.3,0.3h-0.4
			c-1.9,0-2.7,1.2-3.2,2v4h2.3c0.2,0,0.3,0.1,0.3,0.3v0.6c0,0.2-0.1,0.3-0.3,0.3h-4.8c-0.2,0-0.3-0.1-0.3-0.3V272
			c0-0.2,0.1-0.3,0.3-0.3h1.3v-6h-1.3c-0.2,0-0.3-0.1-0.3-0.3v-0.7c0-0.2,0.1-0.3,0.3-0.3h2.2c0.2,0,0.4,0.2,0.4,0.4L1215.4,266.4
			L1215.4,266.4z"/>
		<path class="st0" d="M1223.6,265.3c1-0.5,2-0.9,3-0.9c1.5,0,2.6,0.8,2.6,3.2v5.2c0,0.2-0.1,0.3-0.3,0.3h-0.9
			c-0.1,0-0.3-0.1-0.3-0.3v-5.5c0-1.2-0.6-1.5-1.4-1.5s-1.9,0.4-2.6,0.9v6.2c0,0.2-0.1,0.3-0.3,0.3h-0.8c-0.2,0-0.3-0.1-0.3-0.3V265
			c0-0.1,0.1-0.3,0.3-0.3h0.7c0.2,0,0.3,0.1,0.3,0.3L1223.6,265.3L1223.6,265.3z"/>
		<path class="st0" d="M1236.2,271.8h2.4c0.2,0,0.3,0.1,0.3,0.3v0.6c0,0.2-0.1,0.3-0.3,0.3h-6.2c-0.2,0-0.3-0.1-0.3-0.3v-0.6
			c0-0.2,0.1-0.3,0.3-0.3h2.4v-6h-1.2c-0.1,0-0.3-0.1-0.3-0.3v-0.7c0-0.2,0.1-0.3,0.3-0.3h2.2c0.2,0,0.4,0.2,0.4,0.4L1236.2,271.8
			L1236.2,271.8z M1235.1,260.6c0.6,0,1.2,0.5,1.2,1.2c0,0.6-0.5,1.2-1.2,1.2c-0.6,0-1.2-0.5-1.2-1.2S1234.4,260.6,1235.1,260.6z"/>
		<path class="st0" d="M1243.4,265.3c1-0.5,2-0.9,3-0.9c1.5,0,2.6,0.8,2.6,3.2v5.2c0,0.2-0.1,0.3-0.3,0.3h-0.9
			c-0.1,0-0.3-0.1-0.3-0.3v-5.5c0-1.2-0.6-1.5-1.4-1.5s-1.9,0.4-2.6,0.9v6.2c0,0.2-0.1,0.3-0.3,0.3h-0.8c-0.2,0-0.3-0.1-0.3-0.3V265
			c0-0.1,0.1-0.3,0.3-0.3h0.7c0.2,0,0.3,0.1,0.3,0.3L1243.4,265.3L1243.4,265.3z"/>
		<path class="st0" d="M1258.6,273.4c0,2.9-1.9,3.3-4.4,3.3h-0.6c-0.2,0-0.3-0.1-0.3-0.3v-0.5c0-0.2,0.1-0.3,0.3-0.3
			c2.8,0,3.6-0.2,3.6-2.3v-0.7c-0.6,0.5-1.3,0.7-2.1,0.7c-1.9,0-3.4-1.5-3.4-3.2v-2.3c0-1.8,1.5-3.2,3.4-3.2c0.9,0,1.8,0.4,2.2,1
			V265c0-0.1,0.1-0.3,0.3-0.3h0.7c0.2,0,0.3,0.1,0.3,0.3V273.4z M1257.2,267.5c0-1-1-1.9-2.1-1.9s-2,0.9-2,1.9v2.5
			c0,1.1,0.9,1.9,2,1.9s2.1-0.8,2.1-1.9V267.5z"/>
	</g>
</g>
<g>
	<g>
		<path class="st0" d="M1077.3,384.6c-0.2-0.1-0.3-0.2-0.2-0.4l0.2-0.6c0.1-0.2,0.3-0.2,0.4-0.2c1,0.4,1.9,0.6,2.7,0.6
			c1.2,0,1.9-0.6,1.9-1.6c0.1-1.2-0.7-1.6-2.3-2.2c-2.6-1.1-3.5-2.1-3.3-3.7c0.1-1.6,1.4-2.7,3.3-2.7c0.8,0,1.8,0.2,3,0.7
			c0.2,0.1,0.3,0.2,0.2,0.4l-0.2,0.6c-0.1,0.2-0.3,0.2-0.4,0.2c-1-0.4-1.7-0.6-2.4-0.6c-1.2,0-1.9,0.6-2,1.6c-0.1,1.2,1,1.7,2.3,2.2
			c2.6,1.1,3.5,1.9,3.4,3.7c-0.1,1.6-1.4,2.7-3.3,2.7C1079.6,385.3,1078.4,385.1,1077.3,384.6z"/>
		<path class="st0" d="M1088.1,381.3v0.6c0,1.8,1,2.1,3.7,2.1c0.2,0,0.3,0.1,0.3,0.3v0.5c0,0.2-0.1,0.3-0.3,0.3h-0.7
			c-2.5,0-4.4-0.4-4.4-3.3v-2.1c0-1.8,1.5-3.2,3.4-3.2s3.4,1.4,3.4,3.2v0.9c0,0.4-0.3,0.7-0.7,0.7H1088.1z M1088.1,380.1h4v-0.5
			c0-1.1-0.9-1.9-2-1.9s-2,0.9-2,1.9V380.1z"/>
		<path class="st0" d="M1101.3,383.2c0.1-0.2,0.3-0.2,0.5-0.1l0.4,0.3c0.2,0.1,0.1,0.4,0,0.5c-0.8,1.1-1.9,1.4-2.7,1.4
			c-1.9,0-3.4-1.5-3.4-3.3v-2.4c0-1.8,1.5-3.2,3.4-3.2c0.8,0,1.9,0.3,2.7,1.4c0.1,0.1,0.1,0.4,0,0.5l-0.4,0.3
			c-0.2,0.1-0.3,0.1-0.5-0.1c-0.4-0.5-1.1-0.9-1.8-0.9c-1.1,0-2.1,0.9-2.1,1.9v2.4c0,1.1,1,1.9,2.1,1.9
			C1100.2,384.1,1100.9,383.7,1101.3,383.2z"/>
		<path class="st0" d="M1107.8,378.5c0.7-1.5,1.9-1.9,3.2-1.9h0.4c0.2,0,0.3,0.1,0.3,0.3v0.6c0,0.2-0.1,0.3-0.3,0.3h-0.4
			c-1.9,0-2.7,1.2-3.2,2v4h2.3c0.2,0,0.3,0.1,0.3,0.3v0.6c0,0.2-0.1,0.3-0.3,0.3h-4.8c-0.2,0-0.3-0.1-0.3-0.3v-0.6
			c0-0.2,0.1-0.3,0.3-0.3h1.3v-6h-1.3c-0.2,0-0.3-0.1-0.3-0.3v-0.7c0-0.2,0.1-0.3,0.3-0.3h2.2c0.2,0,0.4,0.2,0.4,0.4L1107.8,378.5
			L1107.8,378.5z"/>
		<path class="st0" d="M1115.8,381.3v0.6c0,1.8,1,2.1,3.7,2.1c0.2,0,0.3,0.1,0.3,0.3v0.5c0,0.2-0.1,0.3-0.3,0.3h-0.7
			c-2.5,0-4.4-0.4-4.4-3.3v-2.1c0-1.8,1.5-3.2,3.4-3.2s3.4,1.4,3.4,3.2v0.9c0,0.4-0.3,0.7-0.7,0.7H1115.8z M1115.8,380.1h4v-0.5
			c0-1.1-0.9-1.9-2-1.9s-2,0.9-2,1.9V380.1z"/>
		<path class="st0" d="M1126.6,381.4c0,2.4,0.8,2.5,3.5,2.5c0.2,0,0.3,0.1,0.3,0.3v0.6c0,0.2-0.1,0.3-0.3,0.3h-0.5
			c-2.5,0-4.4-0.4-4.4-3.3v-4h-1.2c-0.2,0-0.3-0.1-0.3-0.3v-0.7c0-0.1,0.1-0.3,0.3-0.3h1.2v-3.4c0-0.2,0.1-0.3,0.3-0.3h0.8
			c0.2,0,0.3,0.1,0.3,0.3v3.4h2.7c0.2,0,0.3,0.1,0.3,0.3v0.7c0,0.2-0.1,0.3-0.3,0.3h-2.7L1126.6,381.4L1126.6,381.4z"/>
		<path class="st0" d="M1138.8,374.7c-0.1-0.1,0-0.3,0.1-0.4l0.7-0.4c0.1-0.1,0.3-0.1,0.3,0.1l2.7,4.4l2.7-4.4
			c0.1-0.1,0.2-0.1,0.3-0.1l0.7,0.4c0.1,0.1,0.2,0.2,0.1,0.4l-3,4.9l3,4.9c0.1,0.1,0,0.3-0.1,0.4l-0.7,0.4c-0.1,0.1-0.3,0.1-0.3-0.1
			l-2.7-4.4l-2.7,4.4c-0.1,0.1-0.2,0.1-0.3,0.1l-0.7-0.4c-0.1-0.1-0.2-0.2-0.1-0.4l3-4.9L1138.8,374.7z"/>
		<path class="st0" d="M1152,381.4c0,2.4,0.8,2.5,3.5,2.5c0.2,0,0.3,0.1,0.3,0.3v0.6c0,0.2-0.1,0.3-0.3,0.3h-0.5
			c-2.5,0-4.4-0.4-4.4-3.3v-4h-1.2c-0.2,0-0.3-0.1-0.3-0.3v-0.7c0-0.1,0.1-0.3,0.3-0.3h1.2v-3.4c0-0.2,0.1-0.3,0.3-0.3h0.8
			c0.2,0,0.3,0.1,0.3,0.3v3.4h2.7c0.2,0,0.3,0.1,0.3,0.3v0.7c0,0.2-0.1,0.3-0.3,0.3h-2.7L1152,381.4L1152,381.4z"/>
		<path class="st0" d="M1162.5,383.9h2.4c0.2,0,0.3,0.1,0.3,0.3v0.6c0,0.2-0.1,0.3-0.3,0.3h-6.2c-0.2,0-0.3-0.1-0.3-0.3v-0.6
			c0-0.2,0.1-0.3,0.3-0.3h2.4v-6h-1.2c-0.1,0-0.3-0.1-0.3-0.3v-0.7c0-0.2,0.1-0.3,0.3-0.3h2.2c0.2,0,0.4,0.2,0.4,0.4L1162.5,383.9
			L1162.5,383.9z M1161.4,372.7c0.6,0,1.2,0.5,1.2,1.2c0,0.6-0.5,1.2-1.2,1.2c-0.6,0-1.2-0.5-1.2-1.2
			C1160.2,373.2,1160.8,372.7,1161.4,372.7z"/>
		<path class="st0" d="M1173.4,384.5c-0.6,0.5-1.6,0.8-2.6,0.8c-1.5,0-2.9-0.8-3-2.5c-0.1-1.8,1.6-2.8,3.5-2.8h2v-0.6
			c0-1.8-1.2-1.5-3.7-1.5c-0.2,0-0.3-0.1-0.3-0.3V377c0-0.2,0.1-0.3,0.3-0.3c0.7-0.1,1.3-0.1,1.8-0.1c2.2,0,3.2,0.6,3.2,3.3v5
			c0,0.2-0.1,0.3-0.3,0.3h-0.7c-0.1,0-0.3-0.1-0.3-0.3L1173.4,384.5L1173.4,384.5z M1173.4,381.1h-2c-1.5,0-2.3,0.7-2.2,1.7
			c0.1,0.9,0.8,1.3,1.7,1.3c0.9,0,2-0.4,2.5-1V381.1z"/>
		<path class="st0" d="M1179.5,377.4c1-0.5,2-0.9,3-0.9c1.5,0,2.6,0.8,2.6,3.2v5.2c0,0.2-0.1,0.3-0.3,0.3h-0.9
			c-0.1,0-0.3-0.1-0.3-0.3v-5.5c0-1.2-0.6-1.5-1.4-1.5s-1.9,0.4-2.6,0.9v6.2c0,0.2-0.1,0.3-0.3,0.3h-0.8c-0.2,0-0.3-0.1-0.3-0.3
			v-7.9c0-0.1,0.1-0.3,0.3-0.3h0.7c0.2,0,0.3,0.1,0.3,0.3L1179.5,377.4L1179.5,377.4z"/>
		<path class="st0" d="M1189.3,378.7c-0.1,0.9,1,1.3,2.3,1.6c2.5,0.6,3.3,1.5,3.2,2.9c-0.1,1.2-1.4,2.1-3.4,2.1
			c-0.9,0-1.9-0.2-3-0.5c-0.2-0.1-0.3-0.2-0.3-0.4l0.1-0.4c0.1-0.2,0.2-0.3,0.5-0.2c1,0.2,1.9,0.4,2.6,0.4c1.1,0,2-0.3,2.1-1.1
			c0.1-0.9-1-1.3-2.2-1.6c-2.5-0.6-3.4-1.4-3.3-2.9c0.1-1.2,1.3-2.1,3.2-2.1c0.9,0,1.8,0.2,2.9,0.5c0.2,0.1,0.3,0.2,0.3,0.4
			l-0.1,0.4c-0.1,0.2-0.2,0.3-0.5,0.2c-1-0.2-1.8-0.4-2.6-0.4C1190.1,377.6,1189.4,377.9,1189.3,378.7z"/>
	</g>
</g>
<rect x="906.2" y="354.9" class="st6" width="107.2" height="95.7"/>
<text transform="matrix(1 0 0 1 906.1873 404.5383)" class="st1 st7">10</text>
</svg>
