<?xml version="1.0" encoding="utf-8"?>
<!-- Generator: Adobe Illustrator 25.1.0, SVG Export Plug-In . SVG Version: 6.00 Build 0)  -->
<svg version="1.1" id="Layer_1" xmlns="http://www.w3.org/2000/svg" xmlns:xlink="http://www.w3.org/1999/xlink" x="0px" y="0px"
	 viewBox="0 0 1204.7 528.4" style="enable-background:new 0 0 1204.7 528.4;" xml:space="preserve">
<style type="text/css">
	.st0{fill:#281A18;}
	.st1{font-family:'PersonifyTrialRegular';}
	.st2{font-size:70px;}
</style>
<g>
	<g>
		<text transform="matrix(1 0 0 1 1.220703e-04 402.9526)" class="st0 st1 st2">02</text>
	</g>
</g>
<g>
	<text transform="matrix(1 0 0 1 1.9717 289.9989)" class="st0 st1 st2">01</text>
</g>
<g>
	<g>
		<text transform="matrix(1 0 0 1 835.1689 290.765)" class="st0 st1 st2">09</text>
	</g>
</g>
<g>
	<g>
		<text transform="matrix(1 0 0 1 407.3503 166.1106)" class="st0 st1 st2">04</text>
	</g>
</g>
<g>
	<text transform="matrix(1 0 0 1 408.0278 53.2222)" class="st0 st1 st2">03</text>
</g>
<g>
	<text transform="matrix(1 0 0 1 407.562 290.6874)" class="st0 st1 st2">05</text>
</g>
<g>
	<g>
		<path class="st0" d="M5.5,63.7V11.5h18.9v35.4h16v16.8H5.5z"/>
		<path class="st0" d="M46.7,63.7V11.5h18.9v52.2H46.7z"/>
		<path class="st0" d="M109.5,28.2c-2.3-1.6-6.4-3.9-10.6-3.9c-1,0-2.6,0.2-3.6,0.9c-0.7,0.5-0.9,1.1-0.9,1.9c0,1.1,0.2,2.1,3.1,2.7
			l6,1.3c4.6,1,7.4,2.9,8.9,4.5c3.3,3.2,4,7.2,4,10.3c0,4.5-1.2,8.6-4.7,12.3c-3,3.1-8.6,6.6-18.4,6.6c-8,0-13.3-2.3-17.8-4.1
			L73.8,60l5.7-14.7l2,1.6c2,1.5,5.9,3.8,10.6,3.8c2.6,0,3.7-0.6,4.1-0.9c0.9-0.7,1-1.6,1-2.3c0-0.5-0.1-1.3-0.6-1.8
			C96,45.1,95,44.8,93,44.4l-4.6-0.9c-3-0.5-6.2-1.5-9.1-4.5c-2.7-2.7-3.8-5.9-3.8-9.6c0-4.9,1.6-9,5.1-12.4c4-4.1,9.9-6.7,18.1-6.7
			c4.1,0,9.5,0.7,15.9,4.5L109.5,28.2z"/>
		<path class="st0" d="M130.4,63.7V28l-10.6,0.5v-17h39.9v17L149.1,28v35.7H130.4z"/>
		<path class="st0" d="M232,56.5c-4.5,4.5-11.7,8.4-21.7,8.4s-17.2-3.8-21.7-8.4c-4.1-4.1-7.3-10.6-7.3-18.9s3.2-14.7,7.3-18.9
			c4.5-4.5,11.7-8.4,21.7-8.4s17.2,3.8,21.7,8.4c4.1,4.1,7.3,10.6,7.3,18.9S236,52.3,232,56.5z M203.5,29.8c-1.9,2-3,5-3,7.8
			c0,3,1.1,5.9,3,7.7c1.6,1.6,3.9,2.7,6.8,2.7s5.2-1.1,6.8-2.7c1.7-1.7,3-4.5,3-7.7s-1.1-6-3-7.8c-1.4-1.4-3.7-2.7-6.8-2.7
			C206.9,27.1,204.8,28.5,203.5,29.8z"/>
		<path class="st0" d="M247.4,63.7V11.5h34.8v14.9h-15.9v5.3h13.9v13.8h-13.9v18.2H247.4z"/>
		<path class="st0" d="M38.9,138.2c-2.3-1.6-6.4-3.9-10.6-3.9c-1,0-2.6,0.2-3.6,0.9c-0.7,0.5-0.9,1.1-0.9,1.9c0,1.1,0.2,2.1,3.1,2.7
			l6,1.3c4.6,1,7.4,2.9,8.9,4.5c3.3,3.2,4,7.2,4,10.3c0,4.5-1.2,8.6-4.7,12.3c-3,3.1-8.6,6.6-18.4,6.6c-8,0-13.3-2.3-17.8-4.1
			L3.2,170l5.7-14.7l2,1.6c2,1.5,5.9,3.8,10.6,3.8c2.6,0,3.7-0.6,4.1-0.9c0.9-0.7,1-1.6,1-2.3c0-0.5-0.1-1.3-0.6-1.8
			c-0.6-0.6-1.6-0.9-3.6-1.3l-4.6-0.9c-3-0.5-6.2-1.5-9.1-4.5c-2.7-2.7-3.8-5.9-3.8-9.6c0-4.9,1.6-9,5.1-12.4
			c4-4.1,9.9-6.7,18.1-6.7c4.1,0,9.5,0.7,15.9,4.5L38.9,138.2z"/>
		<path class="st0" d="M102.1,166.5c-4.5,4.5-11.7,8.4-21.7,8.4s-17.2-3.8-21.7-8.4c-4.1-4.1-7.3-10.6-7.3-18.9
			c0-8.3,3.2-14.7,7.3-18.9c4.5-4.5,11.7-8.4,21.7-8.4s17.2,3.8,21.7,8.4c4.1,4.1,7.3,10.6,7.3,18.9
			C109.4,155.9,106.2,162.3,102.1,166.5z M73.6,139.8c-1.9,2-3,5-3,7.8c0,3,1.1,5.9,3,7.7c1.6,1.6,3.9,2.7,6.8,2.7s5.2-1.1,6.8-2.7
			c1.7-1.7,3-4.5,3-7.7s-1.1-6-3-7.8c-1.4-1.4-3.7-2.7-6.8-2.7C77.1,137.1,74.9,138.5,73.6,139.8z"/>
		<path class="st0" d="M117.5,173.7v-52.2h18.1l12.1,19.7c2,3.1,3.2,5.2,4.9,9.2h0.5c-0.8-3.3-1.6-8.5-1.6-12.4v-16.6h18.1v52.2
			h-18.1l-13-20.6c-1.2-1.9-2.6-4.6-3.6-6.8h-0.5c0.5,2.8,1.2,7.3,1.2,9.6v17.8L117.5,173.7L117.5,173.7z"/>
		<path class="st0" d="M205.7,143.3H235v1.2c0,6.4-0.5,15.1-6.8,21.8c-5.2,5.6-13.5,8.5-22.1,8.5c-11,0-17.6-4.4-21.5-8.6
			c-4.9-5.3-6.7-11.7-6.7-18.5c0-9.5,3.7-15.6,7.2-19.2c4.2-4.4,11.4-8.2,21.9-8.2c5.6,0,10.5,1.1,15.3,3.7c4.5,2.4,7.6,5.4,10,9.6
			l-17.7,6.6c-1.1-1.7-3.2-4-7.2-4c-2.7,0-5,0.9-6.6,2.4c-2.1,2-3.8,5.3-3.8,9.9c0,3.5,1.2,7.1,3.4,9.3c1.5,1.4,3.5,2.3,6.2,2.3
			c2.8,0,6.5-1,7.7-4.5h-8.6L205.7,143.3L205.7,143.3z"/>
		<path class="st0" d="M276.5,138.2c-2.3-1.6-6.4-3.9-10.6-3.9c-1,0-2.6,0.2-3.6,0.9c-0.7,0.5-0.9,1.1-0.9,1.9
			c0,1.1,0.2,2.1,3.1,2.7l6,1.3c4.6,1,7.4,2.9,8.9,4.5c3.3,3.2,4,7.2,4,10.3c0,4.5-1.2,8.6-4.7,12.3c-3,3.1-8.6,6.6-18.4,6.6
			c-8,0-13.3-2.3-17.8-4.1l-1.7-0.7l5.7-14.7l2,1.6c2,1.5,5.9,3.8,10.6,3.8c2.6,0,3.7-0.6,4.1-0.9c0.9-0.7,1-1.6,1-2.3
			c0-0.5-0.1-1.3-0.6-1.8c-0.6-0.6-1.6-0.9-3.6-1.3l-4.6-0.9c-3-0.5-6.2-1.5-9.1-4.5c-2.7-2.7-3.8-5.9-3.8-9.6c0-4.9,1.6-9,5.1-12.4
			c4-4.1,9.9-6.7,18.1-6.7c4.1,0,9.5,0.7,15.9,4.5L276.5,138.2z"/>
	</g>
</g>
<g>
	<text transform="matrix(1 0 0 1 838.4681 166.2578)" class="st0 st1 st2">08</text>
</g>
<g>
	<text transform="matrix(1 0 0 1 406.5656 404.8385)" class="st0 st1 st2">06</text>
</g>
<g>
	<text transform="matrix(1 0 0 1 835.7925 53.9279)" class="st0 st1 st2">07</text>
</g>
<g>
	<path d="M137.6,261.5c0-0.2,0.2-0.4,0.4-0.4h6.2c0.1,0,0.3,0.1,0.3,0.3v0.8c0,0.2-0.1,0.3-0.3,0.3H139v2.8h2.9
		c0.1,0,0.3,0.1,0.3,0.3v0.7c0,0.2-0.1,0.3-0.3,0.3H139v5.4c0,0.1-0.1,0.3-0.3,0.3h-0.8c-0.2,0-0.3-0.1-0.3-0.3L137.6,261.5
		L137.6,261.5z"/>
	<path d="M152.9,263.8c0.1,0,0.3,0.1,0.3,0.3v0.7c0,0.2-0.1,0.3-0.3,0.3h-2.7v6h2.7c0.1,0,0.3,0.1,0.3,0.3v0.6
		c0,0.2-0.1,0.3-0.3,0.3h-5.4c-0.2,0-0.3-0.1-0.3-0.3v-0.6c0-0.2,0.1-0.3,0.3-0.3h1.3v-6h-1.3c-0.1,0-0.3-0.1-0.3-0.3V264
		c0-0.2,0.1-0.3,0.3-0.3h1.3v-0.4c0-2.9,1.9-3.3,4.4-3.3h0.5c0.2,0,0.3,0.1,0.3,0.3v0.6c0,0.2-0.1,0.3-0.3,0.3c-2.6,0-3.5,0-3.5,2.1
		v0.4L152.9,263.8L152.9,263.8z"/>
	<path d="M162.2,271.5c-0.9,0.5-2,0.9-2.9,0.9c-1.5,0-2.6-0.8-2.6-3.2V264c0-0.2,0.1-0.3,0.3-0.3h0.9c0.1,0,0.3,0.1,0.3,0.3v5.5
		c0,1.2,0.6,1.5,1.4,1.5c0.9,0,1.9-0.4,2.6-0.8V264c0-0.2,0.1-0.3,0.3-0.3h0.8c0.2,0,0.3,0.1,0.3,0.3v7.9c0,0.1-0.1,0.3-0.3,0.3
		h-0.7c-0.2,0-0.3-0.1-0.3-0.3v-0.4H162.2z"/>
	<path d="M168.4,264.5c1-0.5,2-0.9,3-0.9c1.5,0,2.6,0.8,2.6,3.2v5.2c0,0.2-0.1,0.3-0.3,0.3h-0.9c-0.1,0-0.3-0.1-0.3-0.3v-5.5
		c0-1.2-0.6-1.5-1.4-1.5c-0.8,0-1.9,0.4-2.6,0.9v6.2c0,0.2-0.1,0.3-0.3,0.3h-0.8c-0.2,0-0.3-0.1-0.3-0.3V264c0-0.1,0.1-0.3,0.3-0.3
		h0.7c0.2,0,0.3,0.1,0.3,0.3V264.5z"/>
	<path d="M178.5,264.5c1-0.5,2-0.9,3-0.9c1.5,0,2.6,0.8,2.6,3.2v5.2c0,0.2-0.1,0.3-0.3,0.3h-0.9c-0.1,0-0.3-0.1-0.3-0.3v-5.5
		c0-1.2-0.6-1.5-1.4-1.5c-0.8,0-1.9,0.4-2.6,0.9v6.2c0,0.2-0.1,0.3-0.3,0.3h-0.8c-0.2,0-0.3-0.1-0.3-0.3V264c0-0.1,0.1-0.3,0.3-0.3
		h0.7c0.2,0,0.3,0.1,0.3,0.3V264.5z"/>
	<path d="M192.4,271.6c-0.9,0.6-1.7,0.8-2.8,0.8c-1.5,0-2.6-0.8-2.6-3.2V264c0-0.2,0.1-0.3,0.3-0.3h0.9c0.1,0,0.3,0.1,0.3,0.3v5.5
		c0,1.2,0.6,1.5,1.4,1.5c1,0,2-0.4,2.6-0.8V264c0-0.2,0.1-0.3,0.3-0.3h0.9c0.2,0,0.3,0.1,0.3,0.3v8.6c0,2.9-1.9,3.3-4.4,3.3H189
		c-0.2,0-0.3-0.1-0.3-0.3V275c0-0.2,0.1-0.3,0.3-0.3c2.8,0,3.6-0.2,3.6-2.3v-0.8H192.4z"/>
	<path d="M203.2,261.5c0-0.2,0.2-0.4,0.4-0.4h6.2c0.1,0,0.3,0.1,0.3,0.3v0.8c0,0.2-0.1,0.3-0.3,0.3h-5.2v2.8h2.9
		c0.1,0,0.3,0.1,0.3,0.3v0.7c0,0.2-0.1,0.3-0.3,0.3h-2.9v5.4c0,0.1-0.1,0.3-0.3,0.3h-0.8c-0.2,0-0.3-0.1-0.3-0.3L203.2,261.5
		L203.2,261.5z"/>
	<path d="M215.7,265.7c0.7-1.5,1.9-1.9,3.2-1.9h0.4c0.2,0,0.3,0.1,0.3,0.3v0.6c0,0.2-0.1,0.3-0.3,0.3h-0.4c-1.9,0-2.7,1.2-3.2,2v4
		h2.3c0.2,0,0.3,0.1,0.3,0.3v0.6c0,0.2-0.1,0.3-0.3,0.3h-4.8c-0.2,0-0.3-0.1-0.3-0.3v-0.6c0-0.2,0.1-0.3,0.3-0.3h1.3v-6h-1.3
		c-0.2,0-0.3-0.1-0.3-0.3V264c0-0.2,0.1-0.3,0.3-0.3h2.2c0.2,0,0.4,0.2,0.4,0.4L215.7,265.7L215.7,265.7z"/>
	<path d="M226.3,271h2.4c0.2,0,0.3,0.1,0.3,0.3v0.6c0,0.2-0.1,0.3-0.3,0.3h-6.2c-0.2,0-0.3-0.1-0.3-0.3v-0.6c0-0.2,0.1-0.3,0.3-0.3
		h2.4v-6h-1.2c-0.1,0-0.3-0.1-0.3-0.3V264c0-0.2,0.1-0.3,0.3-0.3h2.2c0.2,0,0.4,0.2,0.4,0.4L226.3,271L226.3,271z M225.2,259.8
		c0.6,0,1.2,0.5,1.2,1.2c0,0.6-0.5,1.2-1.2,1.2c-0.6,0-1.2-0.5-1.2-1.2S224.6,259.8,225.2,259.8z"/>
	<path d="M233.3,268.4v0.6c0,1.8,1,2.1,3.7,2.1c0.2,0,0.3,0.1,0.3,0.3v0.5c0,0.2-0.1,0.3-0.3,0.3h-0.7c-2.5,0-4.4-0.4-4.4-3.3v-2.1
		c0-1.8,1.5-3.2,3.4-3.2s3.4,1.4,3.4,3.2v0.9c0,0.4-0.3,0.7-0.7,0.7H233.3z M233.3,267.2h4v-0.5c0-1.1-0.9-1.9-2-1.9s-2,0.9-2,1.9
		V267.2z"/>
	<path d="M243.1,264.5c1-0.5,2-0.9,3-0.9c1.5,0,2.6,0.8,2.6,3.2v5.2c0,0.2-0.1,0.3-0.3,0.3h-0.9c-0.1,0-0.3-0.1-0.3-0.3v-5.5
		c0-1.2-0.6-1.5-1.4-1.5c-0.8,0-1.9,0.4-2.6,0.9v6.2c0,0.2-0.1,0.3-0.3,0.3h-0.8c-0.2,0-0.3-0.1-0.3-0.3V264c0-0.1,0.1-0.3,0.3-0.3
		h0.7c0.2,0,0.3,0.1,0.3,0.3V264.5z"/>
	<path d="M258,260.1c0.2,0,0.3,0.1,0.3,0.3V272c0,0.1-0.1,0.3-0.3,0.3h-0.7c-0.1,0-0.3-0.1-0.3-0.2v-0.6c-0.5,0.7-1.3,1-2.2,1
		c-1.9,0-3.4-1.5-3.4-3.3v-2.3c0-1.8,1.5-3.2,3.4-3.2c0.8,0,1.5,0.3,2.1,0.8v-4.1c0-0.1,0.1-0.3,0.3-0.3L258,260.1L258,260.1z
		 M252.8,269.1c0,1.2,0.9,2.1,2.1,2.1c1.2,0,2.1-0.9,2.1-2.1v-2.2c0-1.2-0.9-2.1-2.1-2.1s-2.1,0.9-2.1,2.1L252.8,269.1L252.8,269.1z
		"/>
	<path d="M262.9,265.8c-0.1,0.9,1,1.3,2.3,1.6c2.5,0.6,3.3,1.5,3.2,2.9c-0.1,1.2-1.4,2.1-3.4,2.1c-0.9,0-1.9-0.2-3-0.5
		c-0.2-0.1-0.3-0.2-0.3-0.4l0.1-0.4c0.1-0.2,0.2-0.3,0.5-0.2c1,0.2,1.9,0.4,2.6,0.4c1.1,0,2-0.3,2.1-1.1c0.1-0.9-1-1.3-2.2-1.6
		c-2.5-0.6-3.4-1.4-3.3-2.9c0.1-1.2,1.3-2.1,3.2-2.1c0.9,0,1.8,0.2,2.9,0.5c0.2,0.1,0.3,0.2,0.3,0.4l-0.1,0.4
		c-0.1,0.2-0.2,0.3-0.5,0.2c-1-0.2-1.8-0.4-2.6-0.4C263.7,264.7,263,265,262.9,265.8z"/>
</g>
<g>
	<path d="M143.3,374.1c1.5,0,2.7,1.2,2.7,2.7v0.4c0,0.7-0.2,1.4-0.9,1.9c0.8,0.5,1.3,1.3,1.3,2.3v1.2c0,1.5-1.2,2.7-2.7,2.7h-3.8
		c-0.2,0-0.4-0.2-0.4-0.4v-10.4c0-0.2,0.2-0.4,0.4-0.4L143.3,374.1L143.3,374.1z M140.9,375.4v3.3h2.4c0.8,0,1.4-0.6,1.4-1.4v-0.5
		c0-0.8-0.7-1.4-1.4-1.4H140.9z M140.9,379.9v4h2.8c0.8,0,1.4-0.7,1.4-1.4v-1.2c0-0.8-0.7-1.4-1.4-1.4H140.9z"/>
	<path d="M153.3,384h2.4c0.2,0,0.3,0.1,0.3,0.3v0.6c0,0.2-0.1,0.3-0.3,0.3h-6.2c-0.2,0-0.3-0.1-0.3-0.3v-0.6c0-0.2,0.1-0.3,0.3-0.3
		h2.4v-6h-1.2c-0.1,0-0.3-0.1-0.3-0.3V377c0-0.2,0.1-0.3,0.3-0.3h2.2c0.2,0,0.4,0.2,0.4,0.4L153.3,384L153.3,384z M152.2,372.7
		c0.6,0,1.2,0.5,1.2,1.2c0,0.6-0.5,1.2-1.2,1.2s-1.2-0.5-1.2-1.2C151,373.3,151.6,372.7,152.2,372.7z"/>
	<path d="M164,383.2c0.1-0.2,0.3-0.2,0.5-0.1l0.4,0.3c0.2,0.1,0.1,0.4,0,0.5c-0.8,1.1-1.9,1.4-2.7,1.4c-1.9,0-3.4-1.5-3.4-3.3v-2.4
		c0-1.8,1.5-3.2,3.4-3.2c0.8,0,1.9,0.3,2.7,1.4c0.1,0.1,0.1,0.4,0,0.5l-0.4,0.3c-0.2,0.1-0.3,0.1-0.5-0.1c-0.4-0.5-1.1-0.9-1.8-0.9
		c-1.1,0-2.1,0.9-2.1,1.9v2.4c0,1.1,1,1.9,2.1,1.9C162.9,384.1,163.5,383.8,164,383.2z"/>
	<path d="M173.1,384.5c-0.9,0.6-1.7,0.8-2.8,0.8c-1.5,0-2.6-0.8-2.6-3.2V377c0-0.2,0.1-0.3,0.3-0.3h0.9c0.1,0,0.3,0.1,0.3,0.3v5.5
		c0,1.2,0.6,1.5,1.4,1.5c1,0,2-0.4,2.6-0.8V377c0-0.2,0.1-0.3,0.3-0.3h0.9c0.2,0,0.3,0.1,0.3,0.3v8.6c0,2.9-1.9,3.3-4.4,3.3h-0.6
		c-0.2,0-0.3-0.1-0.3-0.3V388c0-0.2,0.1-0.3,0.3-0.3c2.8,0,3.6-0.2,3.6-2.3v-0.9H173.1z"/>
	<path d="M182.9,383.2c0.1-0.2,0.3-0.2,0.5-0.1l0.4,0.3c0.2,0.1,0.1,0.4,0,0.5c-0.8,1.1-1.9,1.4-2.7,1.4c-1.9,0-3.4-1.5-3.4-3.3
		v-2.4c0-1.8,1.5-3.2,3.4-3.2c0.8,0,1.9,0.3,2.7,1.4c0.1,0.1,0.1,0.4,0,0.5l-0.4,0.3c-0.2,0.1-0.3,0.1-0.5-0.1
		c-0.4-0.5-1.1-0.9-1.8-0.9c-1.1,0-2.1,0.9-2.1,1.9v2.4c0,1.1,1,1.9,2.1,1.9C181.8,384.1,182.5,383.8,182.9,383.2z"/>
	<path d="M190.7,384h2.4c0.2,0,0.3,0.1,0.3,0.3v0.6c0,0.2-0.1,0.3-0.3,0.3h-6.2c-0.2,0-0.3-0.1-0.3-0.3v-0.6c0-0.2,0.1-0.3,0.3-0.3
		h2.4v-9.7h-1.2c-0.1,0-0.3-0.1-0.3-0.3v-0.7c0-0.2,0.1-0.3,0.3-0.3h2.2c0.2,0,0.4,0.2,0.4,0.4L190.7,384L190.7,384z"/>
	<path d="M197.7,381.3v0.6c0,1.8,1,2.1,3.7,2.1c0.2,0,0.3,0.1,0.3,0.3v0.5c0,0.2-0.1,0.3-0.3,0.3h-0.7c-2.5,0-4.4-0.4-4.4-3.3v-2.1
		c0-1.8,1.5-3.2,3.4-3.2s3.4,1.4,3.4,3.2v0.9c0,0.4-0.3,0.7-0.7,0.7H197.7z M197.7,380.2h4v-0.5c0-1.1-0.9-1.9-2-1.9s-2,0.9-2,1.9
		V380.2z"/>
</g>
<g>
	<g>
		<g>
			<path class="st0" d="M573.8,25.7h-2.4c-0.1,0-0.3-0.1-0.3-0.3v-0.8c0-0.2,0.1-0.3,0.3-0.3h6.4c0.1,0,0.3,0.1,0.3,0.3v0.8
				c0,0.2-0.1,0.3-0.3,0.3h-2.5v9.5c0,0.1-0.1,0.3-0.3,0.3h-1c-0.2,0-0.3-0.1-0.3-0.3L573.8,25.7L573.8,25.7z"/>
			<path class="st0" d="M582.8,27.7c1-0.5,2-0.9,2.9-0.9c1.5,0,2.6,0.8,2.6,3.2v5.2c0,0.2-0.1,0.3-0.3,0.3h-0.9
				c-0.1,0-0.3-0.1-0.3-0.3v-5.5c0-1.2-0.6-1.5-1.4-1.5c-0.8,0-1.9,0.4-2.6,0.9v6.2c0,0.2-0.1,0.3-0.3,0.3h-0.8
				c-0.2,0-0.3-0.1-0.3-0.3V23.6c0-0.1,0.1-0.3,0.3-0.3h0.8c0.2,0,0.3,0.1,0.3,0.3V27.7z"/>
			<path class="st0" d="M591.1,30.1c0-1.8,1.5-3.2,3.5-3.2c1.9,0,3.4,1.4,3.4,3.2v2.3c0,1.8-1.5,3.3-3.4,3.3c-2,0-3.5-1.5-3.5-3.3
				V30.1z M596.6,32.5V30c0-1.1-0.9-1.9-2.1-1.9c-1.1,0-2,0.9-2,1.9v2.5c0,1,0.9,1.9,2,1.9S596.6,33.5,596.6,32.5z"/>
			<path class="st0" d="M606.5,34.7c-0.9,0.5-2,0.9-2.9,0.9c-1.5,0-2.6-0.8-2.6-3.2v-5.2c0-0.2,0.1-0.3,0.3-0.3h0.9
				c0.1,0,0.3,0.1,0.3,0.3v5.5c0,1.2,0.6,1.5,1.4,1.5c0.9,0,1.9-0.4,2.6-0.8v-6.2c0-0.2,0.1-0.3,0.3-0.3h0.8c0.2,0,0.3,0.1,0.3,0.3
				v7.9c0,0.1-0.1,0.3-0.3,0.3h-0.7c-0.2,0-0.3-0.1-0.3-0.3L606.5,34.7L606.5,34.7z"/>
			<path class="st0" d="M617.8,35.9c0,2.9-1.9,3.3-4.4,3.3h-0.6c-0.2,0-0.3-0.1-0.3-0.3v-0.5c0-0.2,0.1-0.3,0.3-0.3
				c2.8,0,3.6-0.2,3.6-2.3v-0.7c-0.6,0.5-1.3,0.7-2.1,0.7c-1.9,0-3.4-1.5-3.4-3.2v-2.3c0-1.8,1.5-3.2,3.4-3.2c0.9,0,1.8,0.4,2.2,1
				v-0.6c0-0.1,0.1-0.3,0.3-0.3h0.7c0.2,0,0.3,0.1,0.3,0.3V35.9z M616.4,29.9c0-1-1-1.9-2.1-1.9s-2,0.9-2,1.9v2.5
				c0,1.1,0.9,1.9,2,1.9s2.1-0.8,2.1-1.9V29.9z"/>
			<path class="st0" d="M622.8,27.7c1-0.5,2-0.9,2.9-0.9c1.5,0,2.6,0.8,2.6,3.2v5.2c0,0.2-0.1,0.3-0.3,0.3h-0.9
				c-0.1,0-0.3-0.1-0.3-0.3v-5.5c0-1.2-0.6-1.5-1.4-1.5c-0.8,0-1.9,0.4-2.6,0.9v6.2c0,0.2-0.1,0.3-0.3,0.3h-0.8
				c-0.2,0-0.3-0.1-0.3-0.3V23.6c0-0.1,0.1-0.3,0.3-0.3h0.8c0.2,0,0.3,0.1,0.3,0.3V27.7z"/>
			<path class="st0" d="M633.6,31.8c0,2.4,0.8,2.5,3.5,2.5c0.2,0,0.3,0.1,0.3,0.3v0.6c0,0.2-0.1,0.3-0.3,0.3h-0.5
				c-2.5,0-4.4-0.4-4.4-3.3v-4H631c-0.2,0-0.3-0.1-0.3-0.3v-0.7c0-0.1,0.1-0.3,0.3-0.3h1.2v-3.4c0-0.2,0.1-0.3,0.3-0.3h0.8
				c0.2,0,0.3,0.1,0.3,0.3V27h2.7c0.2,0,0.3,0.1,0.3,0.3V28c0,0.2-0.1,0.3-0.3,0.3h-2.7V31.8z"/>
			<path class="st0" d="M649.9,24.4c1.5,0,2.7,1.2,2.7,2.7v0.4c0,0.7-0.2,1.4-0.9,1.9c0.8,0.5,1.3,1.3,1.3,2.3v1.2
				c0,1.5-1.2,2.7-2.7,2.7h-3.8c-0.2,0-0.4-0.2-0.4-0.4V24.7c0-0.2,0.2-0.4,0.4-0.4L649.9,24.4L649.9,24.4z M647.5,25.7V29h2.4
				c0.8,0,1.4-0.6,1.4-1.4v-0.5c0-0.8-0.7-1.4-1.4-1.4H647.5z M647.5,30.2v4h2.8c0.8,0,1.4-0.7,1.4-1.4v-1.2c0-0.8-0.7-1.4-1.4-1.4
				C650.3,30.2,647.5,30.2,647.5,30.2z"/>
			<path class="st0" d="M661.1,34.8c-0.6,0.5-1.6,0.8-2.6,0.8c-1.5,0-2.9-0.8-3-2.5c-0.1-1.8,1.6-2.8,3.5-2.8h2v-0.6
				c0-1.8-1.2-1.5-3.7-1.5c-0.2,0-0.3-0.1-0.3-0.3v-0.5c0-0.2,0.1-0.3,0.3-0.3c0.7-0.1,1.3-0.1,1.8-0.1c2.2,0,3.2,0.6,3.2,3.3v5
				c0,0.2-0.1,0.3-0.3,0.3h-0.7c-0.1,0-0.3-0.1-0.3-0.3L661.1,34.8L661.1,34.8z M661.1,31.4h-2c-1.5,0-2.3,0.7-2.2,1.7
				c0.1,0.9,0.8,1.3,1.7,1.3s2-0.4,2.5-1V31.4z"/>
			<path class="st0" d="M669.6,34.2h2.4c0.2,0,0.3,0.1,0.3,0.3v0.6c0,0.2-0.1,0.3-0.3,0.3h-6.2c-0.2,0-0.3-0.1-0.3-0.3v-0.6
				c0-0.2,0.1-0.3,0.3-0.3h2.4v-9.7H667c-0.1,0-0.3-0.1-0.3-0.3v-0.7c0-0.2,0.1-0.3,0.3-0.3h2.2c0.2,0,0.4,0.2,0.4,0.4L669.6,34.2
				L669.6,34.2z"/>
			<path class="st0" d="M679.3,34.2h2.4c0.2,0,0.3,0.1,0.3,0.3v0.6c0,0.2-0.1,0.3-0.3,0.3h-6.2c-0.2,0-0.3-0.1-0.3-0.3v-0.6
				c0-0.2,0.1-0.3,0.3-0.3h2.4v-9.7h-1.2c-0.1,0-0.3-0.1-0.3-0.3v-0.7c0-0.2,0.1-0.3,0.3-0.3h2.2c0.2,0,0.4,0.2,0.4,0.4L679.3,34.2
				L679.3,34.2z"/>
			<path class="st0" d="M690.4,34.7c-0.9,0.5-2,0.9-2.9,0.9c-1.5,0-2.6-0.8-2.6-3.2v-5.2c0-0.2,0.1-0.3,0.3-0.3h0.9
				c0.1,0,0.3,0.1,0.3,0.3v5.5c0,1.2,0.6,1.5,1.4,1.5c0.9,0,1.9-0.4,2.6-0.8v-6.2c0-0.2,0.1-0.3,0.3-0.3h0.8c0.2,0,0.3,0.1,0.3,0.3
				v7.9c0,0.1-0.1,0.3-0.3,0.3h-0.7c-0.2,0-0.3-0.1-0.3-0.3L690.4,34.7L690.4,34.7z"/>
			<path class="st0" d="M696.7,27.7c1-0.5,2-0.9,3-0.9c1.5,0,2.6,0.8,2.6,3.2v5.2c0,0.2-0.1,0.3-0.3,0.3h-0.9
				c-0.1,0-0.3-0.1-0.3-0.3v-5.5c0-1.2-0.6-1.5-1.4-1.5c-0.8,0-1.9,0.4-2.6,0.9v6.2c0,0.2-0.1,0.3-0.3,0.3h-0.8
				c-0.2,0-0.3-0.1-0.3-0.3v-7.9c0-0.1,0.1-0.3,0.3-0.3h0.7c0.2,0,0.3,0.1,0.3,0.3V27.7z"/>
			<path class="st0" d="M706.5,31.6v0.6c0,1.8,1,2.1,3.7,2.1c0.2,0,0.3,0.1,0.3,0.3v0.5c0,0.2-0.1,0.3-0.3,0.3h-0.7
				c-2.5,0-4.4-0.4-4.4-3.3V30c0-1.8,1.5-3.2,3.4-3.2s3.4,1.4,3.4,3.2v0.9c0,0.4-0.3,0.7-0.7,0.7H706.5z M706.5,30.4h4V30
				c0-1.1-0.9-1.9-2-1.9s-2,0.9-2,1.9V30.4z"/>
		</g>
	</g>
</g>
<g>
	<g>
		<g>
			<path class="st0" d="M572.7,137.9H569c-0.2,0-0.3-0.1-0.3-0.3v-0.7c0-0.1,0.1-0.3,0.3-0.3h6.4c0.1,0,0.3,0.1,0.3,0.3v0.7
				c0,0.2-0.1,0.3-0.3,0.3h-1.3v6.6c0,2.9-1.9,3.3-4.4,3.3h-0.6c-0.2,0-0.3-0.1-0.3-0.3v-0.7c0-0.2,0.1-0.3,0.3-0.3
				c2.9-0.1,3.6-0.1,3.6-2.4V137.9z"/>
			<path class="st0" d="M580.2,143.8v0.6c0,1.8,1,2.1,3.7,2.1c0.2,0,0.3,0.1,0.3,0.3v0.5c0,0.2-0.1,0.3-0.3,0.3h-0.7
				c-2.5,0-4.4-0.4-4.4-3.3v-2.1c0-1.8,1.5-3.2,3.4-3.2s3.4,1.4,3.4,3.2v0.9c0,0.4-0.3,0.7-0.7,0.7H580.2z M580.2,142.7h4v-0.5
				c0-1.1-0.9-1.9-2-1.9s-2,0.9-2,1.9V142.7z"/>
			<path class="st0" d="M592.5,146.5h2.4c0.2,0,0.3,0.1,0.3,0.3v0.6c0,0.2-0.1,0.3-0.3,0.3h-6.2c-0.2,0-0.3-0.1-0.3-0.3v-0.6
				c0-0.2,0.1-0.3,0.3-0.3h2.4v-9.7h-1.2c-0.1,0-0.3-0.1-0.3-0.3v-0.7c0-0.2,0.1-0.3,0.3-0.3h2.2c0.2,0,0.4,0.2,0.4,0.4L592.5,146.5
				L592.5,146.5z"/>
			<path class="st0" d="M602.2,146.5h2.4c0.2,0,0.3,0.1,0.3,0.3v0.6c0,0.2-0.1,0.3-0.3,0.3h-6.2c-0.2,0-0.3-0.1-0.3-0.3v-0.6
				c0-0.2,0.1-0.3,0.3-0.3h2.4v-9.7h-1.2c-0.1,0-0.3-0.1-0.3-0.3v-0.7c0-0.2,0.1-0.3,0.3-0.3h2.2c0.2,0,0.4,0.2,0.4,0.4L602.2,146.5
				L602.2,146.5z"/>
			<path class="st0" d="M607.8,142.3c0-1.8,1.5-3.2,3.5-3.2c1.9,0,3.4,1.4,3.4,3.2v2.3c0,1.8-1.5,3.3-3.4,3.3c-2,0-3.5-1.5-3.5-3.3
				V142.3z M613.4,144.7v-2.5c0-1.1-0.9-1.9-2.1-1.9c-1.1,0-2,0.9-2,1.9v2.5c0,1,0.9,1.9,2,1.9C612.4,146.6,613.4,145.7,613.4,144.7
				z"/>
			<path class="st0" d="M628.9,147c-0.6,0.5-1.6,0.8-2.6,0.8c-1.5,0-2.9-0.8-3-2.5c-0.1-1.8,1.6-2.8,3.5-2.8h2v-0.6
				c0-1.8-1.2-1.5-3.7-1.5c-0.2,0-0.3-0.1-0.3-0.3v-0.5c0-0.2,0.1-0.3,0.3-0.3c0.7-0.1,1.3-0.1,1.8-0.1c2.2,0,3.2,0.6,3.2,3.3v5
				c0,0.2-0.1,0.3-0.3,0.3h-0.7c-0.1,0-0.3-0.1-0.3-0.3L628.9,147L628.9,147z M628.9,143.6h-2c-1.5,0-2.3,0.7-2.2,1.7
				c0.1,0.9,0.8,1.3,1.7,1.3s2-0.4,2.5-1V143.6z"/>
			<path class="st0" d="M634.9,139.9c1-0.5,2-0.9,3-0.9c1.5,0,2.6,0.8,2.6,3.2v5.2c0,0.2-0.1,0.3-0.3,0.3h-0.9
				c-0.1,0-0.3-0.1-0.3-0.3v-5.5c0-1.2-0.6-1.5-1.4-1.5c-0.8,0-1.9,0.4-2.6,0.9v6.2c0,0.2-0.1,0.3-0.3,0.3h-0.8
				c-0.2,0-0.3-0.1-0.3-0.3v-7.9c0-0.1,0.1-0.3,0.3-0.3h0.7c0.2,0,0.3,0.1,0.3,0.3V139.9z"/>
			<path class="st0" d="M649.8,135.5c0.2,0,0.3,0.1,0.3,0.3v11.6c0,0.1-0.1,0.3-0.3,0.3h-0.7c-0.1,0-0.3-0.1-0.3-0.2v-0.6
				c-0.5,0.7-1.3,1-2.2,1c-1.9,0-3.4-1.5-3.4-3.3v-2.3c0-1.8,1.5-3.2,3.4-3.2c0.8,0,1.5,0.3,2.1,0.8v-4.1c0-0.1,0.1-0.3,0.3-0.3
				H649.8z M644.6,144.6c0,1.2,0.9,2.1,2.1,2.1s2.1-0.9,2.1-2.1v-2.2c0-1.2-0.9-2.1-2.1-2.1s-2.1,0.9-2.1,2.1V144.6z"/>
			<path class="st0" d="M663.2,137.9h-3.7c-0.2,0-0.3-0.1-0.3-0.3v-0.7c0-0.1,0.1-0.3,0.3-0.3h6.4c0.1,0,0.3,0.1,0.3,0.3v0.7
				c0,0.2-0.1,0.3-0.3,0.3h-1.3v6.6c0,2.9-1.9,3.3-4.4,3.3h-0.6c-0.2,0-0.3-0.1-0.3-0.3v-0.7c0-0.2,0.1-0.3,0.3-0.3
				c2.9-0.1,3.6-0.1,3.6-2.4V137.9z"/>
			<path class="st0" d="M674.8,147c-0.9,0.5-2,0.9-2.9,0.9c-1.5,0-2.6-0.8-2.6-3.2v-5.2c0-0.2,0.1-0.3,0.3-0.3h0.9
				c0.1,0,0.3,0.1,0.3,0.3v5.5c0,1.2,0.6,1.5,1.4,1.5c0.9,0,1.9-0.4,2.6-0.8v-6.2c0-0.2,0.1-0.3,0.3-0.3h0.8c0.2,0,0.3,0.1,0.3,0.3
				v7.9c0,0.1-0.1,0.3-0.3,0.3h-0.7c-0.2,0-0.3-0.1-0.3-0.3L674.8,147L674.8,147z"/>
			<path class="st0" d="M686.1,148.1c0,2.9-1.9,3.3-4.4,3.3h-0.6c-0.2,0-0.3-0.1-0.3-0.3v-0.5c0-0.2,0.1-0.3,0.3-0.3
				c2.8,0,3.6-0.2,3.6-2.3v-0.7c-0.6,0.5-1.3,0.7-2.1,0.7c-1.9,0-3.4-1.5-3.4-3.2v-2.3c0-1.8,1.5-3.2,3.4-3.2c0.9,0,1.8,0.4,2.2,1
				v-0.6c0-0.1,0.1-0.3,0.3-0.3h0.7c0.2,0,0.3,0.1,0.3,0.3V148.1z M684.7,142.1c0-1-1-1.9-2.1-1.9s-2,0.9-2,1.9v2.5
				c0,1.1,0.9,1.9,2,1.9s2.1-0.8,2.1-1.9V142.1z"/>
			<path class="st0" d="M696.1,148.1c0,2.9-1.9,3.3-4.4,3.3H691c-0.2,0-0.3-0.1-0.3-0.3v-0.5c0-0.2,0.1-0.3,0.3-0.3
				c2.8,0,3.6-0.2,3.6-2.3v-0.7c-0.6,0.5-1.3,0.7-2.1,0.7c-1.9,0-3.4-1.5-3.4-3.2v-2.3c0-1.8,1.5-3.2,3.4-3.2c0.9,0,1.8,0.4,2.2,1
				v-0.6c0-0.1,0.1-0.3,0.3-0.3h0.7c0.2,0,0.3,0.1,0.3,0.3L696.1,148.1L696.1,148.1z M694.7,142.1c0-1-1-1.9-2.1-1.9s-2,0.9-2,1.9
				v2.5c0,1.1,0.9,1.9,2,1.9s2.1-0.8,2.1-1.9V142.1z"/>
			<path class="st0" d="M700.8,143.8v0.6c0,1.8,1,2.1,3.7,2.1c0.2,0,0.3,0.1,0.3,0.3v0.5c0,0.2-0.1,0.3-0.3,0.3h-0.7
				c-2.5,0-4.4-0.4-4.4-3.3v-2.1c0-1.8,1.5-3.2,3.4-3.2s3.4,1.4,3.4,3.2v0.9c0,0.4-0.3,0.7-0.7,0.7H700.8z M700.8,142.7h4v-0.5
				c0-1.1-0.9-1.9-2-1.9s-2,0.9-2,1.9V142.7z"/>
			<path class="st0" d="M711.7,141.1c0.7-1.5,1.9-1.9,3.2-1.9h0.4c0.2,0,0.3,0.1,0.3,0.3v0.6c0,0.2-0.1,0.3-0.3,0.3H715
				c-1.9,0-2.7,1.2-3.2,2v4h2.3c0.2,0,0.3,0.1,0.3,0.3v0.6c0,0.2-0.1,0.3-0.3,0.3h-4.8c-0.2,0-0.3-0.1-0.3-0.3v-0.6
				c0-0.2,0.1-0.3,0.3-0.3h1.3v-6h-1.3c-0.2,0-0.3-0.1-0.3-0.3v-0.7c0-0.2,0.1-0.3,0.3-0.3h2.2c0.2,0,0.4,0.2,0.4,0.4v1.6H711.7z"/>
			<path class="st0" d="M719.9,139.9c1-0.5,2-0.9,3-0.9c1.5,0,2.6,0.8,2.6,3.2v5.2c0,0.2-0.1,0.3-0.3,0.3h-0.9
				c-0.1,0-0.3-0.1-0.3-0.3v-5.5c0-1.2-0.6-1.5-1.4-1.5c-0.8,0-1.9,0.4-2.6,0.9v6.2c0,0.2-0.1,0.3-0.3,0.3h-0.8
				c-0.2,0-0.3-0.1-0.3-0.3v-7.9c0-0.1,0.1-0.3,0.3-0.3h0.7c0.2,0,0.3,0.1,0.3,0.3V139.9z"/>
			<path class="st0" d="M733.7,147c-0.6,0.5-1.6,0.8-2.6,0.8c-1.5,0-2.9-0.8-3-2.5c-0.1-1.8,1.6-2.8,3.5-2.8h2v-0.6
				c0-1.8-1.2-1.5-3.7-1.5c-0.2,0-0.3-0.1-0.3-0.3v-0.5c0-0.2,0.1-0.3,0.3-0.3c0.7-0.1,1.3-0.1,1.8-0.1c2.2,0,3.2,0.6,3.2,3.3v5
				c0,0.2-0.1,0.3-0.3,0.3H734c-0.1,0-0.3-0.1-0.3-0.3V147z M733.7,143.6h-2c-1.5,0-2.3,0.7-2.2,1.7c0.1,0.9,0.8,1.3,1.7,1.3
				s2-0.4,2.5-1V143.6z"/>
			<path class="st0" d="M743.6,147c-0.9,0.5-2,0.9-2.9,0.9c-1.5,0-2.6-0.8-2.6-3.2v-5.2c0-0.2,0.1-0.3,0.3-0.3h0.9
				c0.1,0,0.3,0.1,0.3,0.3v5.5c0,1.2,0.6,1.5,1.4,1.5c0.9,0,1.9-0.4,2.6-0.8v-6.2c0-0.2,0.1-0.3,0.3-0.3h0.8c0.2,0,0.3,0.1,0.3,0.3
				v7.9c0,0.1-0.1,0.3-0.3,0.3H744c-0.2,0-0.3-0.1-0.3-0.3L743.6,147L743.6,147z"/>
			<path class="st0" d="M750.9,144c0,2.4,0.8,2.5,3.5,2.5c0.2,0,0.3,0.1,0.3,0.3v0.6c0,0.2-0.1,0.3-0.3,0.3h-0.5
				c-2.5,0-4.4-0.4-4.4-3.3v-4h-1.2c-0.2,0-0.3-0.1-0.3-0.3v-0.7c0-0.1,0.1-0.3,0.3-0.3h1.2v-3.4c0-0.2,0.1-0.3,0.3-0.3h0.8
				c0.2,0,0.3,0.1,0.3,0.3v3.4h2.7c0.2,0,0.3,0.1,0.3,0.3v0.7c0,0.2-0.1,0.3-0.3,0.3h-2.7L750.9,144L750.9,144z"/>
			<path class="st0" d="M758.6,141.2c-0.1,0.9,1,1.3,2.3,1.6c2.5,0.6,3.3,1.5,3.2,2.9c-0.1,1.2-1.4,2.1-3.4,2.1
				c-0.9,0-1.9-0.2-3-0.5c-0.2-0.1-0.3-0.2-0.3-0.4l0.1-0.4c0.1-0.2,0.2-0.3,0.5-0.2c1,0.2,1.9,0.4,2.6,0.4c1.1,0,2-0.3,2.1-1.1
				c0.1-0.9-1-1.3-2.3-1.6c-2.5-0.6-3.4-1.4-3.3-2.9c0.1-1.2,1.3-2.1,3.2-2.1c0.9,0,1.8,0.2,2.9,0.5c0.2,0.1,0.3,0.2,0.3,0.4
				l-0.1,0.4c-0.1,0.2-0.2,0.3-0.5,0.2c-1-0.2-1.8-0.4-2.6-0.4C759.4,140.2,758.7,140.4,758.6,141.2z"/>
		</g>
	</g>
</g>
<g>
	<g>
		<g>
			<path class="st0" d="M572.1,267.2v5.4c0,0.1-0.1,0.3-0.3,0.3H571c-0.2,0-0.3-0.1-0.3-0.3V262c0-0.1,0.1-0.3,0.3-0.3h0.8
				c0.2,0,0.3,0.1,0.3,0.3v3.8h4.1V262c0-0.1,0.1-0.3,0.3-0.3h0.8c0.2,0,0.3,0.1,0.3,0.3v10.6c0,0.1-0.1,0.3-0.3,0.3h-0.8
				c-0.2,0-0.3-0.1-0.3-0.3v-5.4H572.1z"/>
			<path class="st0" d="M580.9,267.5c0-1.8,1.5-3.2,3.5-3.2c1.9,0,3.4,1.4,3.4,3.2v2.3c0,1.8-1.5,3.3-3.4,3.3c-2,0-3.5-1.5-3.5-3.3
				V267.5z M586.4,269.9v-2.5c0-1.1-0.9-1.9-2.1-1.9c-1.1,0-2,0.9-2,1.9v2.5c0,1,0.9,1.9,2,1.9C585.5,271.9,586.4,271,586.4,269.9z"
				/>
			<path class="st0" d="M594.6,269.9L594.6,269.9l-1.1,3h-0.6c-0.2,0-0.3-0.1-0.4-0.3l-1.6-7.9c0-0.2,0.1-0.3,0.3-0.3h0.8
				c0.2,0,0.3,0.1,0.4,0.3l0.9,6.1l0.8-2.5c0-0.1,0.1-0.2,0.2-0.2h0.7c0.1,0,0.2,0.1,0.2,0.2l0.8,2.5l0.9-6.1c0-0.2,0.2-0.3,0.4-0.3
				h0.8c0.2,0,0.3,0.1,0.3,0.3l-1.6,7.9c0,0.2-0.2,0.3-0.4,0.3h-0.6L594.6,269.9z"/>
			<path class="st0" d="M608.8,264.9v5.1c0,1.1,1.1,1.9,2.3,1.9c0.7,0,1.5-0.4,1.9-0.9c0.2-0.2,0.4-0.2,0.5,0l0.4,0.3
				c0.2,0.1,0.2,0.4,0.1,0.5c-0.8,1.1-2,1.4-2.9,1.4c-2,0-3.6-1.5-3.6-3.3v-5c0-1.8,1.6-3.2,3.6-3.2c0.9,0,2.1,0.3,2.9,1.4
				c0.1,0.1,0.1,0.4-0.1,0.5l-0.4,0.3c-0.2,0.1-0.4,0.1-0.5,0c-0.5-0.5-1.2-0.9-1.9-0.9C609.9,262.9,608.8,263.8,608.8,264.9z"/>
			<path class="st0" d="M622.1,272.3c-0.6,0.5-1.6,0.8-2.6,0.8c-1.5,0-2.9-0.8-3-2.5c-0.1-1.8,1.6-2.8,3.5-2.8h2v-0.6
				c0-1.8-1.2-1.5-3.7-1.5c-0.2,0-0.3-0.1-0.3-0.3v-0.5c0-0.2,0.1-0.3,0.3-0.3c0.7-0.1,1.3-0.1,1.8-0.1c2.2,0,3.2,0.6,3.2,3.3v5
				c0,0.2-0.1,0.3-0.3,0.3h-0.7c-0.1,0-0.3-0.1-0.3-0.3L622.1,272.3L622.1,272.3z M622.1,268.9h-2c-1.5,0-2.3,0.7-2.2,1.7
				c0.1,0.9,0.8,1.3,1.7,1.3s2-0.4,2.5-1V268.9z"/>
			<path class="st0" d="M628.1,265.2c1-0.5,2-0.9,3-0.9c1.5,0,2.6,0.8,2.6,3.2v5.2c0,0.2-0.1,0.3-0.3,0.3h-0.9
				c-0.1,0-0.3-0.1-0.3-0.3v-5.5c0-1.2-0.6-1.5-1.4-1.5c-0.8,0-1.9,0.4-2.6,0.9v6.2c0,0.2-0.1,0.3-0.3,0.3h-0.8
				c-0.2,0-0.3-0.1-0.3-0.3v-7.9c0-0.1,0.1-0.3,0.3-0.3h0.7c0.2,0,0.3,0.1,0.3,0.3V265.2z"/>
			<path class="st0" d="M645.4,266.9l-3-4.4c-0.1-0.1-0.1-0.3,0-0.3l0.7-0.5c0.1-0.1,0.3-0.1,0.4,0.1l2.6,3.9l2.6-3.9
				c0.1-0.1,0.3-0.1,0.4-0.1l0.7,0.5c0.1,0.1,0.1,0.2,0,0.3l-3,4.4v5.8c0,0.1-0.1,0.3-0.3,0.3h-0.8c-0.2,0-0.3-0.1-0.3-0.3
				L645.4,266.9L645.4,266.9z"/>
			<path class="st0" d="M652.8,267.5c0-1.8,1.5-3.2,3.5-3.2c1.9,0,3.4,1.4,3.4,3.2v2.3c0,1.8-1.5,3.3-3.4,3.3c-2,0-3.5-1.5-3.5-3.3
				V267.5z M658.3,269.9v-2.5c0-1.1-0.9-1.9-2.1-1.9c-1.1,0-2,0.9-2,1.9v2.5c0,1,0.9,1.9,2,1.9C657.4,271.9,658.3,271,658.3,269.9z"
				/>
			<path class="st0" d="M668.2,272.2c-0.9,0.5-2,0.9-2.9,0.9c-1.5,0-2.6-0.8-2.6-3.2v-5.2c0-0.2,0.1-0.3,0.3-0.3h0.9
				c0.1,0,0.3,0.1,0.3,0.3v5.5c0,1.2,0.6,1.5,1.4,1.5c0.9,0,1.9-0.4,2.6-0.8v-6.2c0-0.2,0.1-0.3,0.3-0.3h0.8c0.2,0,0.3,0.1,0.3,0.3
				v7.9c0,0.1-0.1,0.3-0.3,0.3h-0.7c-0.2,0-0.3-0.1-0.3-0.3L668.2,272.2L668.2,272.2z"/>
			<path class="st0" d="M678.9,262.1c0-0.1,0.1-0.3,0.3-0.3h0.8c0.2,0,0.3,0.1,0.3,0.3v9.5h5.2c0.1,0,0.3,0.1,0.3,0.3v0.8
				c0,0.2-0.1,0.3-0.3,0.3h-6.2c-0.2,0-0.4-0.2-0.4-0.4L678.9,262.1L678.9,262.1z"/>
			<path class="st0" d="M694.1,272.2c-0.9,0.5-2,0.9-2.9,0.9c-1.5,0-2.6-0.8-2.6-3.2v-5.2c0-0.2,0.1-0.3,0.3-0.3h0.9
				c0.1,0,0.3,0.1,0.3,0.3v5.5c0,1.2,0.6,1.5,1.4,1.5c0.9,0,1.9-0.4,2.6-0.8v-6.2c0-0.2,0.1-0.3,0.3-0.3h0.8c0.2,0,0.3,0.1,0.3,0.3
				v7.9c0,0.1-0.1,0.3-0.3,0.3h-0.7c-0.2,0-0.3-0.1-0.3-0.3L694.1,272.2L694.1,272.2z"/>
			<path class="st0" d="M703.9,264.7c0.1-0.2,0.2-0.3,0.4-0.3h0.8c0.2,0,0.3,0.1,0.2,0.3l-2.8,7.7c-0.1,0.3-0.4,0.5-0.7,0.5
				c-0.4,0-0.6-0.2-0.7-0.5l-2.8-7.7c-0.1-0.2,0.1-0.3,0.2-0.3h0.8c0.2,0,0.3,0.1,0.4,0.3l1.6,5c0,0,0.4,1.3,0.5,1.7
				c0.1-0.4,0.5-1.7,0.5-1.7L703.9,264.7z"/>
			<path class="st0" d="M721,272.7c0,0.1-0.1,0.3-0.3,0.3h-0.8c-0.2,0-0.3-0.1-0.3-0.3v-8.2l-1.6,2.9c-0.1,0.2-0.3,0.4-0.5,0.4
				c-0.3,0-0.4-0.1-0.5-0.4l-1.6-2.9v8.2c0,0.1-0.1,0.3-0.3,0.3h-0.8c-0.2,0-0.3-0.1-0.3-0.3v-10.5c0-0.2,0.1-0.3,0.3-0.3h1l2.1,4.1
				l2.1-4.1h1c0.2,0,0.3,0.2,0.3,0.3v10.5H721z"/>
			<path class="st0" d="M725.7,269.1v0.6c0,1.8,1,2.1,3.7,2.1c0.2,0,0.3,0.1,0.3,0.3v0.5c0,0.2-0.1,0.3-0.3,0.3h-0.7
				c-2.5,0-4.4-0.4-4.4-3.3v-2.1c0-1.8,1.5-3.2,3.4-3.2s3.4,1.4,3.4,3.2v0.9c0,0.4-0.3,0.7-0.7,0.7H725.7z M725.7,267.9h4v-0.5
				c0-1.1-0.9-1.9-2-1.9s-2,0.9-2,1.9V267.9z"/>
		</g>
	</g>
</g>
<g>
	<g>
		<g>
			<path class="st0" d="M575.9,384.9c0,0.2-0.1,0.3-0.3,0.3h-1l-4.2-8.1v7.8c0,0.1-0.1,0.3-0.3,0.3h-0.8c-0.2,0-0.3-0.1-0.3-0.3
				v-10.5c0-0.2,0.1-0.3,0.3-0.3h1l4.2,8.1v-7.8c0-0.1,0.1-0.3,0.3-0.3h0.8c0.2,0,0.3,0.1,0.3,0.3V384.9z"/>
			<path class="st0" d="M580.6,381.3v0.6c0,1.8,1,2.1,3.7,2.1c0.2,0,0.3,0.1,0.3,0.3v0.5c0,0.2-0.1,0.3-0.3,0.3h-0.7
				c-2.5,0-4.4-0.4-4.4-3.3v-2.1c0-1.8,1.5-3.2,3.4-3.2s3.4,1.4,3.4,3.2v0.9c0,0.4-0.3,0.7-0.7,0.7H580.6z M580.6,380.2h4v-0.5
				c0-1.1-0.9-1.9-2-1.9s-2,0.9-2,1.9V380.2z"/>
			<path class="st0" d="M591.5,378.6c0.7-1.5,1.9-1.9,3.2-1.9h0.4c0.2,0,0.3,0.1,0.3,0.3v0.6c0,0.2-0.1,0.3-0.3,0.3h-0.4
				c-1.9,0-2.7,1.2-3.2,2v4h2.3c0.2,0,0.3,0.1,0.3,0.3v0.6c0,0.2-0.1,0.3-0.3,0.3H589c-0.2,0-0.3-0.1-0.3-0.3v-0.6
				c0-0.2,0.1-0.3,0.3-0.3h1.3v-6H589c-0.2,0-0.3-0.1-0.3-0.3V377c0-0.2,0.1-0.3,0.3-0.3h2.2c0.2,0,0.4,0.2,0.4,0.4v1.5H591.5z"/>
			<path class="st0" d="M603.3,377c0.1-0.2,0.2-0.3,0.4-0.3h0.8c0.2,0,0.3,0.1,0.2,0.3l-2.8,7.7c-0.1,0.3-0.4,0.5-0.7,0.5
				c-0.4,0-0.6-0.2-0.7-0.5l-2.8-7.7c-0.1-0.2,0.1-0.3,0.2-0.3h0.8c0.2,0,0.3,0.1,0.4,0.3l1.6,5c0,0,0.4,1.3,0.5,1.7
				c0.1-0.4,0.5-1.7,0.5-1.7L603.3,377z"/>
			<path class="st0" d="M608.8,381.3v0.6c0,1.8,1,2.1,3.7,2.1c0.2,0,0.3,0.1,0.3,0.3v0.5c0,0.2-0.1,0.3-0.3,0.3h-0.7
				c-2.5,0-4.4-0.4-4.4-3.3v-2.1c0-1.8,1.5-3.2,3.4-3.2s3.4,1.4,3.4,3.2v0.9c0,0.4-0.3,0.7-0.7,0.7H608.8z M608.8,380.2h4v-0.5
				c0-1.1-0.9-1.9-2-1.9s-2,0.9-2,1.9V380.2z"/>
			<path class="st0" d="M626.3,374.1c2,0,3.6,1.5,3.6,3.3v4.6c0,1.8-1.6,3.3-3.6,3.3h-2.9c-0.2,0-0.4-0.2-0.4-0.4v-10.4
				c0-0.2,0.2-0.4,0.4-0.4H626.3z M626.3,383.9c1.2,0,2.3-0.9,2.3-1.9v-4.6c0-1.1-1.1-1.9-2.3-1.9h-1.8v8.5h1.8V383.9z"/>
			<path class="st0" d="M638,384.5c-0.6,0.5-1.6,0.8-2.6,0.8c-1.5,0-2.9-0.8-3-2.5c-0.1-1.8,1.6-2.8,3.5-2.8h2v-0.6
				c0-1.8-1.2-1.5-3.7-1.5c-0.2,0-0.3-0.1-0.3-0.3v-0.5c0-0.2,0.1-0.3,0.3-0.3c0.7-0.1,1.3-0.1,1.8-0.1c2.2,0,3.2,0.6,3.2,3.3v5
				c0,0.2-0.1,0.3-0.3,0.3h-0.7c-0.1,0-0.3-0.1-0.3-0.3L638,384.5L638,384.5z M638,381.1h-2c-1.5,0-2.3,0.7-2.2,1.7
				c0.1,0.9,0.8,1.3,1.7,1.3s2-0.4,2.5-1V381.1z"/>
			<path class="st0" d="M644.1,377.3c0.6-0.4,1.3-0.6,2-0.6c0.5,0,1,0.2,1.2,0.6c0.6-0.4,1.4-0.7,2.1-0.7c0.9,0,1.6,0.5,1.6,1.9v6.4
				c0,0.2-0.1,0.3-0.3,0.3h-0.9c-0.2,0-0.3-0.1-0.3-0.3v-6.3c0-0.6-0.3-0.8-0.7-0.8s-0.8,0.1-1.3,0.4c0,0.1,0,0.2,0,0.3v6.4
				c0,0.2-0.1,0.3-0.3,0.3h-0.8c-0.1,0-0.3-0.1-0.3-0.3v-6.3c0-0.6-0.3-0.8-0.7-0.8s-1,0.2-1.4,0.4v6.7c0,0.2-0.1,0.3-0.3,0.3h-0.8
				c-0.2,0-0.3-0.1-0.3-0.3V377c0-0.1,0.1-0.3,0.3-0.3h0.7c0.2,0,0.3,0.1,0.3,0.3v0.3H644.1z"/>
			<path class="st0" d="M659.3,384.5c-0.6,0.5-1.6,0.8-2.6,0.8c-1.5,0-2.9-0.8-3-2.5c-0.1-1.8,1.6-2.8,3.5-2.8h2v-0.6
				c0-1.8-1.2-1.5-3.7-1.5c-0.2,0-0.3-0.1-0.3-0.3v-0.5c0-0.2,0.1-0.3,0.3-0.3c0.7-0.1,1.3-0.1,1.8-0.1c2.2,0,3.2,0.6,3.2,3.3v5
				c0,0.2-0.1,0.3-0.3,0.3h-0.7c-0.1,0-0.3-0.1-0.3-0.3L659.3,384.5L659.3,384.5z M659.2,381.1h-2c-1.5,0-2.3,0.7-2.2,1.7
				c0.1,0.9,0.8,1.3,1.7,1.3s2-0.4,2.5-1V381.1z"/>
			<path class="st0" d="M670.4,385.6c0,2.9-1.9,3.3-4.4,3.3h-0.6c-0.2,0-0.3-0.1-0.3-0.3V388c0-0.2,0.1-0.3,0.3-0.3
				c2.8,0,3.6-0.2,3.6-2.3v-0.7c-0.6,0.5-1.3,0.7-2.1,0.7c-1.9,0-3.4-1.5-3.4-3.2v-2.3c0-1.8,1.5-3.2,3.4-3.2c0.9,0,1.8,0.4,2.2,1
				V377c0-0.1,0.1-0.3,0.3-0.3h0.7c0.2,0,0.3,0.1,0.3,0.3V385.6z M669,379.6c0-1-1-1.9-2.1-1.9s-2,0.9-2,1.9v2.5
				c0,1.1,0.9,1.9,2,1.9s2.1-0.8,2.1-1.9V379.6z"/>
			<path class="st0" d="M675.1,381.3v0.6c0,1.8,1,2.1,3.7,2.1c0.2,0,0.3,0.1,0.3,0.3v0.5c0,0.2-0.1,0.3-0.3,0.3H678
				c-2.5,0-4.4-0.4-4.4-3.3v-2.1c0-1.8,1.5-3.2,3.4-3.2s3.4,1.4,3.4,3.2v0.9c0,0.4-0.3,0.7-0.7,0.7H675.1z M675.1,380.2h4v-0.5
				c0-1.1-0.9-1.9-2-1.9s-2,0.9-2,1.9V380.2z"/>
			<path class="st0" d="M684.6,383.2c0.6,0,1.1,0.5,1.1,1.1s-0.5,1.1-1.1,1.1s-1.1-0.5-1.1-1.1S684,383.2,684.6,383.2z M685.2,381.5
				c0,0.3-0.3,0.6-0.6,0.6s-0.6-0.3-0.6-0.6l-0.3-6.1c0-0.6,0.4-1,0.9-1s1,0.4,0.9,1L685.2,381.5z"/>
		</g>
	</g>
</g>
<g>
	<g>
		<g>
			<path class="st0" d="M1005.5,24.9c0-0.1,0.1-0.3,0.3-0.3h0.8c0.2,0,0.3,0.1,0.3,0.3v9.5h5.2c0.1,0,0.3,0.1,0.3,0.3v0.8
				c0,0.2-0.1,0.3-0.3,0.3h-6.2c-0.2,0-0.4-0.2-0.4-0.4L1005.5,24.9L1005.5,24.9z"/>
			<path class="st0" d="M1019.2,34.6h2.4c0.2,0,0.3,0.1,0.3,0.3v0.6c0,0.2-0.1,0.3-0.3,0.3h-6.2c-0.2,0-0.3-0.1-0.3-0.3v-0.6
				c0-0.2,0.1-0.3,0.3-0.3h2.4v-6h-1.2c-0.1,0-0.3-0.1-0.3-0.3v-0.7c0-0.2,0.1-0.3,0.3-0.3h2.2c0.2,0,0.4,0.2,0.4,0.4L1019.2,34.6
				L1019.2,34.6z M1018.1,23.3c0.6,0,1.2,0.5,1.2,1.2c0,0.6-0.5,1.2-1.2,1.2s-1.2-0.5-1.2-1.2C1016.9,23.8,1017.5,23.3,1018.1,23.3z
				"/>
			<path class="st0" d="M1027.5,32.1c0,2.4,0.8,2.5,3.5,2.5c0.2,0,0.3,0.1,0.3,0.3v0.6c0,0.2-0.1,0.3-0.3,0.3h-0.5
				c-2.5,0-4.4-0.4-4.4-3.3v-4h-1.2c-0.2,0-0.3-0.1-0.3-0.3v-0.7c0-0.1,0.1-0.3,0.3-0.3h1.2v-3.4c0-0.2,0.1-0.3,0.3-0.3h0.8
				c0.2,0,0.3,0.1,0.3,0.3v3.4h2.7c0.2,0,0.3,0.1,0.3,0.3v0.7c0,0.2-0.1,0.3-0.3,0.3h-2.7L1027.5,32.1L1027.5,32.1z"/>
			<path class="st0" d="M1036.5,32.1c0,2.4,0.8,2.5,3.5,2.5c0.2,0,0.3,0.1,0.3,0.3v0.6c0,0.2-0.1,0.3-0.3,0.3h-0.5
				c-2.5,0-4.4-0.4-4.4-3.3v-4h-1.2c-0.2,0-0.3-0.1-0.3-0.3v-0.7c0-0.1,0.1-0.3,0.3-0.3h1.2v-3.4c0-0.2,0.1-0.3,0.3-0.3h0.8
				c0.2,0,0.3,0.1,0.3,0.3v3.4h2.7c0.2,0,0.3,0.1,0.3,0.3v0.7c0,0.2-0.1,0.3-0.3,0.3h-2.7L1036.5,32.1L1036.5,32.1z"/>
			<path class="st0" d="M1047,34.6h2.4c0.2,0,0.3,0.1,0.3,0.3v0.6c0,0.2-0.1,0.3-0.3,0.3h-6.2c-0.2,0-0.3-0.1-0.3-0.3v-0.6
				c0-0.2,0.1-0.3,0.3-0.3h2.4v-9.7h-1.2c-0.1,0-0.3-0.1-0.3-0.3v-0.7c0-0.2,0.1-0.3,0.3-0.3h2.2c0.2,0,0.4,0.2,0.4,0.4L1047,34.6
				L1047,34.6z"/>
			<path class="st0" d="M1054.1,31.9v0.6c0,1.8,1,2.1,3.7,2.1c0.2,0,0.3,0.1,0.3,0.3v0.5c0,0.2-0.1,0.3-0.3,0.3h-0.7
				c-2.5,0-4.4-0.4-4.4-3.3v-2.1c0-1.8,1.5-3.2,3.4-3.2s3.4,1.4,3.4,3.2v0.9c0,0.4-0.3,0.7-0.7,0.7
				C1058.8,31.9,1054.1,31.9,1054.1,31.9z M1054.1,30.8h4v-0.5c0-1.1-0.9-1.9-2-1.9s-2,0.9-2,1.9V30.8z"/>
			<path class="st0" d="M1072.1,24.7c1.5,0,2.7,1.2,2.7,2.7v0.4c0,0.7-0.2,1.4-0.9,1.9c0.8,0.5,1.3,1.3,1.3,2.3v1.2
				c0,1.5-1.2,2.7-2.7,2.7h-3.8c-0.2,0-0.4-0.2-0.4-0.4V25.1c0-0.2,0.2-0.4,0.4-0.4H1072.1z M1069.7,26v3.3h2.4
				c0.8,0,1.4-0.6,1.4-1.4v-0.5c0-0.8-0.7-1.4-1.4-1.4H1069.7z M1069.7,30.5v4h2.8c0.8,0,1.4-0.7,1.4-1.4v-1.2
				c0-0.8-0.7-1.4-1.4-1.4C1072.5,30.5,1069.7,30.5,1069.7,30.5z"/>
			<path class="st0" d="M1082.1,34.6h2.4c0.2,0,0.3,0.1,0.3,0.3v0.6c0,0.2-0.1,0.3-0.3,0.3h-6.2c-0.2,0-0.3-0.1-0.3-0.3v-0.6
				c0-0.2,0.1-0.3,0.3-0.3h2.4v-9.7h-1.2c-0.1,0-0.3-0.1-0.3-0.3v-0.7c0-0.2,0.1-0.3,0.3-0.3h2.2c0.2,0,0.4,0.2,0.4,0.4L1082.1,34.6
				L1082.1,34.6z"/>
			<path class="st0" d="M1093.2,35.1c-0.9,0.5-2,0.9-2.9,0.9c-1.5,0-2.6-0.8-2.6-3.2v-5.2c0-0.2,0.1-0.3,0.3-0.3h0.9
				c0.1,0,0.3,0.1,0.3,0.3v5.5c0,1.2,0.6,1.5,1.4,1.5c0.9,0,1.9-0.4,2.6-0.8v-6.2c0-0.2,0.1-0.3,0.3-0.3h0.8c0.2,0,0.3,0.1,0.3,0.3
				v7.9c0,0.1-0.1,0.3-0.3,0.3h-0.7c-0.2,0-0.3-0.1-0.3-0.3v-0.4H1093.2z"/>
			<path class="st0" d="M1105.3,30.1v5.4c0,0.1-0.1,0.3-0.3,0.3h-0.8c-0.2,0-0.3-0.1-0.3-0.3V25c0-0.1,0.1-0.3,0.3-0.3h0.8
				c0.2,0,0.3,0.1,0.3,0.3v3.8h4.1V25c0-0.1,0.1-0.3,0.3-0.3h0.8c0.2,0,0.3,0.1,0.3,0.3v10.6c0,0.1-0.1,0.3-0.3,0.3h-0.8
				c-0.2,0-0.3-0.1-0.3-0.3v-5.4L1105.3,30.1L1105.3,30.1z"/>
			<path class="st0" d="M1114.1,30.4c0-1.8,1.5-3.2,3.5-3.2c1.9,0,3.4,1.4,3.4,3.2v2.3c0,1.8-1.5,3.3-3.4,3.3c-2,0-3.5-1.5-3.5-3.3
				V30.4z M1119.6,32.8v-2.5c0-1.1-0.9-1.9-2.1-1.9c-1.1,0-2,0.9-2,1.9v2.5c0,1,0.9,1.9,2,1.9C1118.7,34.7,1119.6,33.8,1119.6,32.8z
				"/>
			<path class="st0" d="M1129.5,35.1c-0.9,0.5-2,0.9-2.9,0.9c-1.5,0-2.6-0.8-2.6-3.2v-5.2c0-0.2,0.1-0.3,0.3-0.3h0.9
				c0.1,0,0.3,0.1,0.3,0.3v5.5c0,1.2,0.6,1.5,1.4,1.5c0.9,0,1.9-0.4,2.6-0.8v-6.2c0-0.2,0.1-0.3,0.3-0.3h0.8c0.2,0,0.3,0.1,0.3,0.3
				v7.9c0,0.1-0.1,0.3-0.3,0.3h-0.7c-0.2,0-0.3-0.1-0.3-0.3v-0.4H1129.5z"/>
			<path class="st0" d="M1135.4,29.3c-0.1,0.9,1,1.3,2.3,1.6c2.5,0.6,3.3,1.5,3.2,2.9c-0.1,1.2-1.4,2.1-3.4,2.1
				c-0.9,0-1.9-0.2-3-0.5c-0.2-0.1-0.3-0.2-0.3-0.4l0.1-0.4c0.1-0.2,0.2-0.3,0.5-0.2c1,0.2,1.9,0.4,2.6,0.4c1.1,0,2-0.3,2.1-1.1
				c0.1-0.9-1-1.3-2.3-1.6c-2.5-0.6-3.4-1.4-3.3-2.9c0.1-1.2,1.3-2.1,3.2-2.1c0.9,0,1.8,0.2,2.9,0.5c0.2,0.1,0.3,0.2,0.3,0.4
				l-0.1,0.4c-0.1,0.2-0.2,0.3-0.5,0.2c-1-0.2-1.8-0.4-2.6-0.4C1136.2,28.3,1135.5,28.5,1135.4,29.3z"/>
			<path class="st0" d="M1145.4,31.9v0.6c0,1.8,1,2.1,3.7,2.1c0.2,0,0.3,0.1,0.3,0.3v0.5c0,0.2-0.1,0.3-0.3,0.3h-0.7
				c-2.5,0-4.4-0.4-4.4-3.3v-2.1c0-1.8,1.5-3.2,3.4-3.2s3.4,1.4,3.4,3.2v0.9c0,0.4-0.3,0.7-0.7,0.7
				C1150.1,31.9,1145.4,31.9,1145.4,31.9z M1145.4,30.8h4v-0.5c0-1.1-0.9-1.9-2-1.9s-2,0.9-2,1.9V30.8z"/>
		</g>
	</g>
</g>
<g>
	<g>
		<g>
			<path class="st0" d="M1007.4,147.5c-0.2-0.1-0.3-0.2-0.2-0.4l0.2-0.6c0.1-0.2,0.3-0.2,0.4-0.2c1,0.4,1.9,0.6,2.7,0.6
				c1.2,0,1.9-0.6,1.9-1.6c0.1-1.2-0.7-1.6-2.3-2.2c-2.6-1.1-3.5-2.1-3.3-3.7c0.1-1.6,1.4-2.7,3.3-2.7c0.8,0,1.8,0.2,3,0.7
				c0.2,0.1,0.3,0.2,0.2,0.4l-0.2,0.6c-0.1,0.2-0.3,0.2-0.4,0.2c-1-0.4-1.7-0.6-2.4-0.6c-1.2,0-1.9,0.6-2,1.6
				c-0.1,1.2,1,1.7,2.3,2.2c2.6,1.1,3.5,1.9,3.4,3.7c-0.1,1.6-1.4,2.7-3.3,2.7C1009.7,148.2,1008.5,148,1007.4,147.5z"/>
			<path class="st0" d="M1019.4,144.3c0,2.4,0.8,2.5,3.5,2.5c0.2,0,0.3,0.1,0.3,0.3v0.6c0,0.2-0.1,0.3-0.3,0.3h-0.5
				c-2.5,0-4.4-0.4-4.4-3.3v-4h-1.2c-0.2,0-0.3-0.1-0.3-0.3v-0.7c0-0.1,0.1-0.3,0.3-0.3h1.2V136c0-0.2,0.1-0.3,0.3-0.3h0.8
				c0.2,0,0.3,0.1,0.3,0.3v3.4h2.7c0.2,0,0.3,0.1,0.3,0.3v0.7c0,0.2-0.1,0.3-0.3,0.3h-2.7L1019.4,144.3L1019.4,144.3z"/>
			<path class="st0" d="M1028.6,141.4c0.7-1.5,1.9-1.9,3.2-1.9h0.4c0.2,0,0.3,0.1,0.3,0.3v0.6c0,0.2-0.1,0.3-0.3,0.3h-0.4
				c-1.9,0-2.7,1.2-3.2,2v4h2.3c0.2,0,0.3,0.1,0.3,0.3v0.6c0,0.2-0.1,0.3-0.3,0.3h-4.8c-0.2,0-0.3-0.1-0.3-0.3V147
				c0-0.2,0.1-0.3,0.3-0.3h1.3v-6h-1.3c-0.2,0-0.3-0.1-0.3-0.3v-0.7c0-0.2,0.1-0.3,0.3-0.3h2.2c0.2,0,0.4,0.2,0.4,0.4L1028.6,141.4
				L1028.6,141.4z"/>
			<path class="st0" d="M1040.5,147.4c-0.6,0.5-1.6,0.8-2.6,0.8c-1.5,0-2.9-0.8-3-2.5c-0.1-1.8,1.6-2.8,3.5-2.8h2v-0.6
				c0-1.8-1.2-1.5-3.7-1.5c-0.2,0-0.3-0.1-0.3-0.3V140c0-0.2,0.1-0.3,0.3-0.3c0.7-0.1,1.3-0.1,1.8-0.1c2.2,0,3.2,0.6,3.2,3.3v5
				c0,0.2-0.1,0.3-0.3,0.3h-0.7c-0.1,0-0.3-0.1-0.3-0.3L1040.5,147.4L1040.5,147.4z M1040.5,144h-2c-1.5,0-2.3,0.7-2.2,1.7
				c0.1,0.9,0.8,1.3,1.7,1.3c0.9,0,2-0.4,2.5-1V144z"/>
			<path class="st0" d="M1046.6,140.2c1-0.5,2-0.9,3-0.9c1.5,0,2.6,0.8,2.6,3.2v5.2c0,0.2-0.1,0.3-0.3,0.3h-0.9
				c-0.1,0-0.3-0.1-0.3-0.3v-5.5c0-1.2-0.6-1.5-1.4-1.5s-1.9,0.4-2.6,0.9v6.2c0,0.2-0.1,0.3-0.3,0.3h-0.8c-0.2,0-0.3-0.1-0.3-0.3
				v-7.9c0-0.1,0.1-0.3,0.3-0.3h0.7c0.2,0,0.3,0.1,0.3,0.3L1046.6,140.2L1046.6,140.2z"/>
			<path class="st0" d="M1061.7,148.4c0,2.9-1.9,3.3-4.4,3.3h-0.6c-0.2,0-0.3-0.1-0.3-0.3v-0.5c0-0.2,0.1-0.3,0.3-0.3
				c2.8,0,3.6-0.2,3.6-2.3v-0.7c-0.6,0.5-1.3,0.7-2.1,0.7c-1.9,0-3.4-1.5-3.4-3.2v-2.3c0-1.8,1.5-3.2,3.4-3.2c0.9,0,1.8,0.4,2.2,1
				V140c0-0.1,0.1-0.3,0.3-0.3h0.7c0.2,0,0.3,0.1,0.3,0.3V148.4z M1060.3,142.5c0-1-1-1.9-2.1-1.9s-2,0.9-2,1.9v2.5
				c0,1.1,0.9,1.9,2,1.9s2.1-0.8,2.1-1.9V142.5z"/>
			<path class="st0" d="M1066.4,144.2v0.6c0,1.8,1,2.1,3.7,2.1c0.2,0,0.3,0.1,0.3,0.3v0.5c0,0.2-0.1,0.3-0.3,0.3h-0.7
				c-2.5,0-4.4-0.4-4.4-3.3v-2.1c0-1.8,1.5-3.2,3.4-3.2s3.4,1.4,3.4,3.2v0.9c0,0.4-0.3,0.7-0.7,0.7H1066.4z M1066.4,143h4v-0.5
				c0-1.1-0.9-1.9-2-1.9s-2,0.9-2,1.9V143z"/>
			<path class="st0" d="M1077.4,141.4c0.7-1.5,1.9-1.9,3.2-1.9h0.4c0.2,0,0.3,0.1,0.3,0.3v0.6c0,0.2-0.1,0.3-0.3,0.3h-0.4
				c-1.9,0-2.7,1.2-3.2,2v4h2.3c0.2,0,0.3,0.1,0.3,0.3v0.6c0,0.2-0.1,0.3-0.3,0.3h-4.8c-0.2,0-0.3-0.1-0.3-0.3V147
				c0-0.2,0.1-0.3,0.3-0.3h1.3v-6h-1.3c-0.2,0-0.3-0.1-0.3-0.3v-0.7c0-0.2,0.1-0.3,0.3-0.3h2.2c0.2,0,0.4,0.2,0.4,0.4L1077.4,141.4
				L1077.4,141.4z"/>
			<path class="st0" d="M1085.3,141.5c-0.1,0.9,1,1.3,2.3,1.6c2.5,0.6,3.3,1.5,3.2,2.9c-0.1,1.2-1.4,2.1-3.4,2.1
				c-0.9,0-1.9-0.2-3-0.5c-0.2-0.1-0.3-0.2-0.3-0.4l0.1-0.4c0.1-0.2,0.2-0.3,0.5-0.2c1,0.2,1.9,0.4,2.6,0.4c1.1,0,2-0.3,2.1-1.1
				c0.1-0.9-1-1.3-2.3-1.6c-2.5-0.6-3.4-1.4-3.3-2.9c0.1-1.2,1.3-2.1,3.2-2.1c0.9,0,1.8,0.2,2.9,0.5c0.2,0.1,0.3,0.2,0.3,0.4
				l-0.1,0.4c-0.1,0.2-0.2,0.3-0.5,0.2c-1-0.2-1.8-0.4-2.6-0.4C1086,140.5,1085.3,140.8,1085.3,141.5z"/>
			<path class="st0" d="M1104.2,143.6h-2.5l-1.1,4.1c0,0.2-0.2,0.3-0.3,0.3h-0.8c-0.1,0-0.3-0.1-0.2-0.3l2.8-10.5
				c0.1-0.3,0.2-0.4,0.5-0.4h0.8c0.3,0,0.4,0.1,0.5,0.4l2.8,10.5c0,0.1-0.1,0.3-0.2,0.3h-0.8c-0.2,0-0.3-0.1-0.3-0.3L1104.2,143.6z
				 M1102,142.3h1.9l-0.9-3.8L1102,142.3z"/>
			<path class="st0" d="M1112.2,141.4c0.7-1.5,1.9-1.9,3.2-1.9h0.4c0.2,0,0.3,0.1,0.3,0.3v0.6c0,0.2-0.1,0.3-0.3,0.3h-0.4
				c-1.9,0-2.7,1.2-3.2,2v4h2.3c0.2,0,0.3,0.1,0.3,0.3v0.6c0,0.2-0.1,0.3-0.3,0.3h-4.8c-0.2,0-0.3-0.1-0.3-0.3V147
				c0-0.2,0.1-0.3,0.3-0.3h1.3v-6h-1.3c-0.2,0-0.3-0.1-0.3-0.3v-0.7c0-0.2,0.1-0.3,0.3-0.3h2.2c0.2,0,0.4,0.2,0.4,0.4L1112.2,141.4
				L1112.2,141.4z"/>
			<path class="st0" d="M1120.1,144.2v0.6c0,1.8,1,2.1,3.7,2.1c0.2,0,0.3,0.1,0.3,0.3v0.5c0,0.2-0.1,0.3-0.3,0.3h-0.7
				c-2.5,0-4.4-0.4-4.4-3.3v-2.1c0-1.8,1.5-3.2,3.4-3.2s3.4,1.4,3.4,3.2v0.9c0,0.4-0.3,0.7-0.7,0.7H1120.1z M1120.1,143h4v-0.5
				c0-1.1-0.9-1.9-2-1.9s-2,0.9-2,1.9V143z"/>
			<path class="st0" d="M1134.6,147.5c-0.2-0.1-0.3-0.2-0.2-0.4l0.2-0.6c0.1-0.2,0.3-0.2,0.4-0.2c1,0.4,1.9,0.6,2.7,0.6
				c1.2,0,1.9-0.6,1.9-1.6c0.1-1.2-0.7-1.6-2.3-2.2c-2.6-1.1-3.5-2.1-3.3-3.7c0.1-1.6,1.4-2.7,3.3-2.7c0.8,0,1.8,0.2,3,0.7
				c0.2,0.1,0.3,0.2,0.2,0.4l-0.2,0.6c-0.1,0.2-0.3,0.2-0.4,0.2c-1-0.4-1.7-0.6-2.4-0.6c-1.2,0-1.9,0.6-2,1.6
				c-0.1,1.2,1,1.7,2.3,2.2c2.6,1.1,3.5,1.9,3.4,3.7c-0.1,1.6-1.4,2.7-3.3,2.7C1136.9,148.2,1135.7,148,1134.6,147.5z"/>
			<path class="st0" d="M1146.6,144.3c0,2.4,0.8,2.5,3.5,2.5c0.2,0,0.3,0.1,0.3,0.3v0.6c0,0.2-0.1,0.3-0.3,0.3h-0.5
				c-2.5,0-4.4-0.4-4.4-3.3v-4h-1.2c-0.2,0-0.3-0.1-0.3-0.3v-0.7c0-0.1,0.1-0.3,0.3-0.3h1.2V136c0-0.2,0.1-0.3,0.3-0.3h0.8
				c0.2,0,0.3,0.1,0.3,0.3v3.4h2.7c0.2,0,0.3,0.1,0.3,0.3v0.7c0,0.2-0.1,0.3-0.3,0.3h-2.7L1146.6,144.3L1146.6,144.3z"/>
			<path class="st0" d="M1155.8,141.4c0.7-1.5,1.9-1.9,3.2-1.9h0.4c0.2,0,0.3,0.1,0.3,0.3v0.6c0,0.2-0.1,0.3-0.3,0.3h-0.4
				c-1.9,0-2.7,1.2-3.2,2v4h2.3c0.2,0,0.3,0.1,0.3,0.3v0.6c0,0.2-0.1,0.3-0.3,0.3h-4.8c-0.2,0-0.3-0.1-0.3-0.3V147
				c0-0.2,0.1-0.3,0.3-0.3h1.3v-6h-1.3c-0.2,0-0.3-0.1-0.3-0.3v-0.7c0-0.2,0.1-0.3,0.3-0.3h2.2c0.2,0,0.4,0.2,0.4,0.4L1155.8,141.4
				L1155.8,141.4z"/>
			<path class="st0" d="M1167.7,147.4c-0.6,0.5-1.6,0.8-2.6,0.8c-1.5,0-2.9-0.8-3-2.5c-0.1-1.8,1.6-2.8,3.5-2.8h2v-0.6
				c0-1.8-1.2-1.5-3.7-1.5c-0.2,0-0.3-0.1-0.3-0.3V140c0-0.2,0.1-0.3,0.3-0.3c0.7-0.1,1.3-0.1,1.8-0.1c2.2,0,3.2,0.6,3.2,3.3v5
				c0,0.2-0.1,0.3-0.3,0.3h-0.7c-0.1,0-0.3-0.1-0.3-0.3L1167.7,147.4L1167.7,147.4z M1167.7,144h-2c-1.5,0-2.3,0.7-2.2,1.7
				c0.1,0.9,0.8,1.3,1.7,1.3c0.9,0,2-0.4,2.5-1V144z"/>
			<path class="st0" d="M1173.8,140.2c1-0.5,2-0.9,3-0.9c1.5,0,2.6,0.8,2.6,3.2v5.2c0,0.2-0.1,0.3-0.3,0.3h-0.9
				c-0.1,0-0.3-0.1-0.3-0.3v-5.5c0-1.2-0.6-1.5-1.4-1.5s-1.9,0.4-2.6,0.9v6.2c0,0.2-0.1,0.3-0.3,0.3h-0.8c-0.2,0-0.3-0.1-0.3-0.3
				v-7.9c0-0.1,0.1-0.3,0.3-0.3h0.7c0.2,0,0.3,0.1,0.3,0.3L1173.8,140.2L1173.8,140.2z"/>
			<path class="st0" d="M1188.9,148.4c0,2.9-1.9,3.3-4.4,3.3h-0.6c-0.2,0-0.3-0.1-0.3-0.3v-0.5c0-0.2,0.1-0.3,0.3-0.3
				c2.8,0,3.6-0.2,3.6-2.3v-0.7c-0.6,0.5-1.3,0.7-2.1,0.7c-1.9,0-3.4-1.5-3.4-3.2v-2.3c0-1.8,1.5-3.2,3.4-3.2c0.9,0,1.8,0.4,2.2,1
				V140c0-0.1,0.1-0.3,0.3-0.3h0.7c0.2,0,0.3,0.1,0.3,0.3V148.4z M1187.5,142.5c0-1-1-1.9-2.1-1.9s-2,0.9-2,1.9v2.5
				c0,1.1,0.9,1.9,2,1.9s2.1-0.8,2.1-1.9V142.5z"/>
			<path class="st0" d="M1193.6,144.2v0.6c0,1.8,1,2.1,3.7,2.1c0.2,0,0.3,0.1,0.3,0.3v0.5c0,0.2-0.1,0.3-0.3,0.3h-0.7
				c-2.5,0-4.4-0.4-4.4-3.3v-2.1c0-1.8,1.5-3.2,3.4-3.2s3.4,1.4,3.4,3.2v0.9c0,0.4-0.3,0.7-0.7,0.7H1193.6z M1193.6,143h4v-0.5
				c0-1.1-0.9-1.9-2-1.9s-2,0.9-2,1.9V143z"/>
		</g>
	</g>
</g>
<g>
	<g>
		<g>
			<path class="st0" d="M1012.6,262.1c1.5,0,2.7,1.2,2.7,2.7v0.4c0,0.7-0.2,1.4-0.9,1.9c0.8,0.5,1.3,1.3,1.3,2.3v1.2
				c0,1.5-1.2,2.7-2.7,2.7h-3.8c-0.2,0-0.4-0.2-0.4-0.4v-10.4c0-0.2,0.2-0.4,0.4-0.4L1012.6,262.1L1012.6,262.1z M1010.3,263.4v3.3
				h2.4c0.8,0,1.4-0.6,1.4-1.4v-0.5c0-0.8-0.7-1.4-1.4-1.4H1010.3z M1010.3,267.9v4h2.8c0.8,0,1.4-0.7,1.4-1.4v-1.2
				c0-0.8-0.7-1.4-1.4-1.4H1010.3z"/>
			<path class="st0" d="M1018.6,267.8c0-1.8,1.5-3.2,3.5-3.2c1.9,0,3.4,1.4,3.4,3.2v2.3c0,1.8-1.5,3.3-3.4,3.3c-2,0-3.5-1.5-3.5-3.3
				V267.8z M1024.1,270.3v-2.5c0-1.1-0.9-1.9-2.1-1.9c-1.1,0-2,0.9-2,1.9v2.5c0,1,0.9,1.9,2,1.9
				C1023.2,272.2,1024.1,271.3,1024.1,270.3z"/>
			<path class="st0" d="M1033.9,272.6c-0.9,0.6-1.7,0.8-2.8,0.8c-1.5,0-2.6-0.8-2.6-3.2V265c0-0.2,0.1-0.3,0.3-0.3h0.9
				c0.1,0,0.3,0.1,0.3,0.3v5.5c0,1.2,0.6,1.5,1.4,1.5c1,0,2-0.4,2.6-0.8V265c0-0.2,0.1-0.3,0.3-0.3h0.9c0.2,0,0.3,0.1,0.3,0.3v8.6
				c0,2.9-1.9,3.3-4.4,3.3h-0.6c-0.2,0-0.3-0.1-0.3-0.3v-0.5c0-0.2,0.1-0.3,0.3-0.3c2.8,0,3.6-0.2,3.6-2.3v-0.9H1033.9z"/>
			<path class="st0" d="M1046,273.2c-0.2,0-0.4-0.1-0.4-0.4l-0.9-10.4c0-0.2,0.1-0.3,0.3-0.3h0.7c0.2,0,0.3,0.1,0.3,0.3l0.7,9.2
				l1.3-4.1c0.1-0.2,0.2-0.3,0.4-0.3h0.8c0.2,0,0.3,0.1,0.4,0.3l1.3,4.1l0.7-9.2c0-0.2,0.1-0.3,0.3-0.3h0.7c0.2,0,0.3,0.1,0.3,0.3
				l-0.9,10.4c0,0.2-0.2,0.4-0.4,0.4h-1.2l-1.5-4.2l-1.5,4.2H1046z"/>
			<path class="st0" d="M1059.9,272h2.4c0.2,0,0.3,0.1,0.3,0.3v0.6c0,0.2-0.1,0.3-0.3,0.3h-6.2c-0.2,0-0.3-0.1-0.3-0.3v-0.6
				c0-0.2,0.1-0.3,0.3-0.3h2.4v-6h-1.2c-0.1,0-0.3-0.1-0.3-0.3V265c0-0.2,0.1-0.3,0.3-0.3h2.2c0.2,0,0.4,0.2,0.4,0.4L1059.9,272
				L1059.9,272z M1058.8,260.8c0.6,0,1.2,0.5,1.2,1.2c0,0.6-0.5,1.2-1.2,1.2s-1.2-0.5-1.2-1.2
				C1057.7,261.3,1058.2,260.8,1058.8,260.8z"/>
			<path class="st0" d="M1068.2,269.6c0,2.4,0.8,2.5,3.5,2.5c0.2,0,0.3,0.1,0.3,0.3v0.6c0,0.2-0.1,0.3-0.3,0.3h-0.5
				c-2.5,0-4.4-0.4-4.4-3.3v-4h-1.2c-0.2,0-0.3-0.1-0.3-0.3V265c0-0.1,0.1-0.3,0.3-0.3h1.2v-3.4c0-0.2,0.1-0.3,0.3-0.3h0.8
				c0.2,0,0.3,0.1,0.3,0.3v3.4h2.7c0.2,0,0.3,0.1,0.3,0.3v0.7c0,0.2-0.1,0.3-0.3,0.3h-2.7L1068.2,269.6L1068.2,269.6z"/>
			<path class="st0" d="M1079.7,271.3c0.1-0.2,0.3-0.2,0.5-0.1l0.4,0.3c0.2,0.1,0.1,0.4,0,0.5c-0.8,1.1-1.9,1.4-2.7,1.4
				c-1.9,0-3.4-1.5-3.4-3.3v-2.4c0-1.8,1.5-3.2,3.4-3.2c0.8,0,1.9,0.3,2.7,1.4c0.1,0.1,0.1,0.4,0,0.5l-0.4,0.3
				c-0.2,0.1-0.3,0.1-0.5-0.1c-0.4-0.5-1.1-0.9-1.8-0.9c-1.1,0-2.1,0.9-2.1,1.9v2.4c0,1.1,1,1.9,2.1,1.9
				C1078.6,272.2,1079.2,271.8,1079.7,271.3z"/>
			<path class="st0" d="M1085.1,265.5c1-0.5,2-0.9,2.9-0.9c1.5,0,2.6,0.8,2.6,3.2v5.2c0,0.2-0.1,0.3-0.3,0.3h-0.9
				c-0.1,0-0.3-0.1-0.3-0.3v-5.5c0-1.2-0.6-1.5-1.4-1.5s-1.9,0.4-2.6,0.9v6.2c0,0.2-0.1,0.3-0.3,0.3h-0.8c-0.2,0-0.3-0.1-0.3-0.3
				v-11.6c0-0.1,0.1-0.3,0.3-0.3h0.8c0.2,0,0.3,0.1,0.3,0.3L1085.1,265.5L1085.1,265.5z"/>
		</g>
	</g>
</g>
</svg>
