<?xml version="1.0" encoding="utf-8"?>
<!-- Generator: Adobe Illustrator 25.1.0, SVG Export Plug-In . SVG Version: 6.00 Build 0)  -->
<svg version="1.1" id="Layer_1" xmlns="http://www.w3.org/2000/svg" xmlns:xlink="http://www.w3.org/1999/xlink" x="0px" y="0px"
	 viewBox="0 0 1177.7 356.6" style="enable-background:new 0 0 1177.7 356.6;" xml:space="preserve">
<style type="text/css">
	.st0{fill:#CC4733;}
	.st1{font-family:'PersonifyTrialRegular';}
	.st2{font-size:70px;}
	.st3{fill:none;stroke:#FFFFFF;stroke-miterlimit:10;}
	.st4{fill:none;stroke:#CC4733;stroke-width:8;stroke-miterlimit:10;}
	.st5{fill:#FFFFFF;}
</style>
<g>
	<g>
		<text transform="matrix(1 0 0 1 505.0486 325.9574)" class="st0 st1 st2">04</text>
	</g>
</g>
<g>
	<g>
		<text transform="matrix(1 0 0 1 507.0202 213.0037)" class="st0 st1 st2">03</text>
	</g>
</g>
<g>
	<g>
		<text transform="matrix(1 0 0 1 943.3988 89.1154)" class="st0 st1 st2">05</text>
	</g>
</g>
<g>
	<text transform="matrix(1 0 0 1 941.6105 213.6922)" class="st0 st1 st2">06</text>
</g>
<g>
	<g>
		<path class="st3" d="M4.4,93.3V41.1h18.9v35.4h16v16.8H4.4z"/>
		<path class="st3" d="M45.6,93.3V41.1h18.9v52.2H45.6z"/>
		<path class="st3" d="M108.4,57.8c-2.3-1.6-6.4-3.9-10.6-3.9c-1,0-2.6,0.2-3.6,0.9c-0.7,0.5-0.9,1.1-0.9,1.9c0,1.1,0.2,2.1,3.1,2.7
			l6,1.3c4.6,1,7.4,2.9,8.9,4.5c3.3,3.2,4,7.2,4,10.3c0,4.5-1.2,8.6-4.7,12.3c-3,3.1-8.6,6.6-18.4,6.6c-8,0-13.3-2.3-17.8-4.1
			l-1.7-0.7l5.7-14.7l2,1.6c2,1.5,5.9,3.8,10.6,3.8c2.6,0,3.7-0.6,4.1-0.9c0.9-0.7,1-1.6,1-2.3c0-0.5-0.1-1.3-0.6-1.8
			c-0.6-0.6-1.6-0.9-3.6-1.3l-4.6-0.9c-3-0.5-6.2-1.5-9.1-4.5c-2.7-2.7-3.8-5.9-3.8-9.6c0-4.9,1.6-9,5.1-12.4
			c4-4.1,9.9-6.7,18.1-6.7c4.1,0,9.5,0.7,15.9,4.5L108.4,57.8z"/>
		<path class="st3" d="M129.3,93.3V57.6l-10.6,0.5v-17h39.9v17L148,57.6v35.7H129.3z"/>
		<path class="st3" d="M230.9,86.1c-4.5,4.5-11.7,8.4-21.7,8.4s-17.2-3.8-21.7-8.4c-4.1-4.1-7.3-10.6-7.3-18.9s3.2-14.7,7.3-18.9
			c4.5-4.5,11.7-8.4,21.7-8.4s17.2,3.8,21.7,8.4c4.1,4.1,7.3,10.6,7.3,18.9S234.9,81.9,230.9,86.1z M202.4,59.4c-1.9,2-3,5-3,7.8
			c0,3,1.1,5.9,3,7.7c1.6,1.6,3.9,2.7,6.8,2.7s5.2-1.1,6.8-2.7c1.7-1.7,3-4.5,3-7.7c0-3.2-1.1-6-3-7.8c-1.4-1.4-3.7-2.7-6.8-2.7
			C205.8,56.7,203.7,58.1,202.4,59.4z"/>
		<path class="st3" d="M246.3,93.3V41.1h34.8V56h-15.9v5.3h13.9v13.8h-13.9v18.2H246.3z"/>
		<path class="st3" d="M37.8,167.8c-2.3-1.6-6.4-3.9-10.6-3.9c-1,0-2.6,0.2-3.6,0.9c-0.7,0.5-0.9,1.1-0.9,1.9c0,1.1,0.2,2.1,3.1,2.7
			l6,1.3c4.6,1,7.4,2.9,8.9,4.5c3.3,3.2,4,7.2,4,10.3c0,4.5-1.2,8.6-4.7,12.3c-3,3.1-8.6,6.6-18.4,6.6c-8,0-13.3-2.3-17.8-4.1
			l-1.7-0.7l5.7-14.7l2,1.6c2,1.5,5.9,3.8,10.6,3.8c2.6,0,3.7-0.6,4.1-0.9c0.9-0.7,1-1.6,1-2.3c0-0.5-0.1-1.3-0.6-1.8
			c-0.6-0.6-1.6-0.9-3.6-1.3l-4.6-0.9c-3-0.5-6.2-1.5-9.1-4.5c-2.7-2.7-3.8-5.9-3.8-9.6c0-4.9,1.6-9,5.1-12.4
			c4-4.1,9.9-6.7,18.1-6.7c4.1,0,9.5,0.7,15.9,4.5L37.8,167.8z"/>
		<path class="st3" d="M101,196.1c-4.5,4.5-11.7,8.4-21.7,8.4s-17.2-3.8-21.7-8.4c-4.1-4.1-7.3-10.6-7.3-18.9
			c0-8.3,3.2-14.7,7.3-18.9c4.5-4.5,11.7-8.4,21.7-8.4s17.2,3.8,21.7,8.4c4.1,4.1,7.3,10.6,7.3,18.9
			C108.3,185.5,105.1,191.9,101,196.1z M72.5,169.4c-1.9,2-3,5-3,7.8c0,3,1.1,5.9,3,7.7c1.6,1.6,3.9,2.7,6.8,2.7s5.2-1.1,6.8-2.7
			c1.7-1.7,3-4.5,3-7.7s-1.1-6-3-7.8c-1.4-1.4-3.7-2.7-6.8-2.7C76,166.7,73.8,168.1,72.5,169.4z"/>
		<path class="st3" d="M116.4,203.3v-52.2h18.1l12.1,19.7c2,3.1,3.2,5.2,4.9,9.2h0.5c-0.8-3.3-1.6-8.5-1.6-12.4V151h18.1v52.2h-18.1
			l-13-20.6c-1.2-1.9-2.6-4.6-3.6-6.8h-0.5c0.5,2.8,1.2,7.3,1.2,9.6v17.8L116.4,203.3L116.4,203.3z"/>
		<path class="st3" d="M204.6,172.9h29.3v1.2c0,6.4-0.5,15.1-6.8,21.8c-5.2,5.6-13.5,8.5-22.1,8.5c-11,0-17.6-4.4-21.5-8.6
			c-4.9-5.3-6.7-11.7-6.7-18.5c0-9.5,3.7-15.6,7.2-19.2c4.2-4.4,11.4-8.2,21.9-8.2c5.6,0,10.5,1.1,15.3,3.7c4.5,2.4,7.6,5.4,10,9.6
			l-17.7,6.6c-1.1-1.7-3.2-4-7.2-4c-2.7,0-5,0.9-6.6,2.4c-2.1,2-3.8,5.3-3.8,9.9c0,3.5,1.2,7.1,3.4,9.3c1.5,1.4,3.5,2.3,6.2,2.3
			c2.8,0,6.5-1,7.7-4.5h-8.6L204.6,172.9L204.6,172.9z"/>
		<path class="st3" d="M275.4,167.8c-2.3-1.6-6.4-3.9-10.6-3.9c-1,0-2.6,0.2-3.6,0.9c-0.7,0.5-0.9,1.1-0.9,1.9
			c0,1.1,0.2,2.1,3.1,2.7l6,1.3c4.6,1,7.4,2.9,8.9,4.5c3.3,3.2,4,7.2,4,10.3c0,4.5-1.2,8.6-4.7,12.3c-3,3.1-8.6,6.6-18.4,6.6
			c-8,0-13.3-2.3-17.8-4.1l-1.7-0.7l5.7-14.7l2,1.6c2,1.5,5.9,3.8,10.6,3.8c2.6,0,3.7-0.6,4.1-0.9c0.9-0.7,1-1.6,1-2.3
			c0-0.5-0.1-1.3-0.6-1.8c-0.6-0.6-1.6-0.9-3.6-1.3l-4.6-0.9c-3-0.5-6.2-1.5-9.1-4.5c-2.7-2.7-3.8-5.9-3.8-9.6c0-4.9,1.6-9,5.1-12.4
			c4-4.1,9.9-6.7,18.1-6.7c4.1,0,9.5,0.7,15.9,4.5L275.4,167.8z"/>
	</g>
</g>
<g>
	<text transform="matrix(1 0 0 1 945.6141 327.8433)" class="st0 st1 st2">07</text>
</g>
<line class="st4" x1="-1.1" y1="68.5" x2="315.7" y2="68.5"/>
<line class="st4" x1="-1.1" y1="177.3" x2="315.7" y2="177.3"/>
<g>
	<path class="st5" d="M644.3,189.8v5.4c0,0.1-0.1,0.3-0.3,0.3h-0.8c-0.2,0-0.3-0.1-0.3-0.3v-10.6c0-0.1,0.1-0.3,0.3-0.3h0.8
		c0.2,0,0.3,0.1,0.3,0.3v3.8h4.1v-3.8c0-0.1,0.1-0.3,0.3-0.3h0.8c0.2,0,0.3,0.1,0.3,0.3v10.6c0,0.1-0.1,0.3-0.3,0.3h-0.8
		c-0.2,0-0.3-0.1-0.3-0.3v-5.4H644.3z"/>
	<path class="st5" d="M658.4,194.9c-0.6,0.5-1.6,0.8-2.6,0.8c-1.5,0-2.9-0.8-3-2.5c-0.1-1.8,1.6-2.8,3.5-2.8h2v-0.6
		c0-1.8-1.2-1.5-3.7-1.5c-0.2,0-0.3-0.1-0.3-0.3v-0.5c0-0.2,0.1-0.3,0.3-0.3c0.7-0.1,1.3-0.1,1.8-0.1c2.2,0,3.2,0.6,3.2,3.3v5
		c0,0.2-0.1,0.3-0.3,0.3h-0.7c-0.1,0-0.3-0.1-0.3-0.3V194.9z M658.4,191.5h-2c-1.5,0-2.3,0.7-2.2,1.7c0.1,0.9,0.8,1.3,1.7,1.3
		s2-0.4,2.5-1V191.5z"/>
	<path class="st5" d="M664.5,187.8c1-0.5,2-0.9,3-0.9c1.5,0,2.6,0.8,2.6,3.2v5.2c0,0.2-0.1,0.3-0.3,0.3h-0.9c-0.1,0-0.3-0.1-0.3-0.3
		v-5.5c0-1.2-0.6-1.5-1.4-1.5c-0.8,0-1.9,0.4-2.6,0.9v6.2c0,0.2-0.1,0.3-0.3,0.3h-0.8c-0.2,0-0.3-0.1-0.3-0.3v-7.9
		c0-0.1,0.1-0.3,0.3-0.3h0.7c0.2,0,0.3,0.1,0.3,0.3V187.8z"/>
	<path class="st5" d="M673,190.1c0-1.8,1.5-3.2,3.5-3.2c1.9,0,3.4,1.4,3.4,3.2v2.3c0,1.8-1.5,3.3-3.4,3.3c-2,0-3.5-1.5-3.5-3.3
		V190.1z M678.5,192.5v-2.5c0-1.1-0.9-1.9-2.1-1.9s-2,0.9-2,1.9v2.5c0,1,0.9,1.9,2,1.9S678.5,193.6,678.5,192.5z"/>
	<path class="st5" d="M687,194.3h2.4c0.2,0,0.3,0.1,0.3,0.3v0.6c0,0.2-0.1,0.3-0.3,0.3h-6.2c-0.2,0-0.3-0.1-0.3-0.3v-0.6
		c0-0.2,0.1-0.3,0.3-0.3h2.4v-6h-1.2c-0.1,0-0.3-0.1-0.3-0.3v-0.7c0-0.2,0.1-0.3,0.3-0.3h2.2c0.2,0,0.4,0.2,0.4,0.4V194.3z
		 M685.9,183.1c0.6,0,1.2,0.5,1.2,1.2s-0.5,1.2-1.2,1.2c-0.6,0-1.2-0.5-1.2-1.2S685.2,183.1,685.9,183.1z"/>
	<path class="st5" d="M698.8,185.7c-0.2,0-0.3-0.1-0.3-0.3v-0.7c0-0.2,0.1-0.3,0.3-0.3h5.4c0.2,0,0.3,0.1,0.3,0.3v1.1l-2.4,2.6
		c1.6,0.2,3,1.5,3,3.5c0,2.4-1.8,3.8-3.7,3.8c-1.2,0-2.4-0.5-3.2-1.7c-0.1-0.2-0.1-0.4,0.1-0.6l0.3-0.2c0.2-0.2,0.4-0.1,0.6,0
		c0.6,0.7,1.4,1.1,2.3,1.1c1.4,0,2.4-1.2,2.4-2.4c0-1.5-1.1-2.4-2.4-2.4H701c-0.2,0-0.3,0-0.3-0.2l-0.2-0.9l2.6-2.8H698.8z"/>
</g>
<g>
	<g>
		<path class="st5" d="M644.2,302.9v5.4c0,0.1-0.1,0.3-0.3,0.3H643c-0.2,0-0.3-0.1-0.3-0.3v-10.6c0-0.1,0.1-0.3,0.3-0.3h0.8
			c0.2,0,0.3,0.1,0.3,0.3v3.8h4.1v-3.8c0-0.1,0.1-0.3,0.3-0.3h0.8c0.2,0,0.3,0.1,0.3,0.3v10.6c0,0.1-0.1,0.3-0.3,0.3h-0.8
			c-0.2,0-0.3-0.1-0.3-0.3v-5.4H644.2z"/>
		<path class="st5" d="M658.3,307.9c-0.6,0.5-1.6,0.8-2.6,0.8c-1.5,0-2.9-0.8-3-2.5c-0.1-1.8,1.6-2.8,3.5-2.8h2v-0.6
			c0-1.8-1.2-1.5-3.7-1.5c-0.2,0-0.3-0.1-0.3-0.3v-0.5c0-0.2,0.1-0.3,0.3-0.3c0.7-0.1,1.3-0.1,1.8-0.1c2.2,0,3.2,0.6,3.2,3.3v5
			c0,0.2-0.1,0.3-0.3,0.3h-0.7c-0.1,0-0.3-0.1-0.3-0.3V307.9z M658.3,304.5h-2c-1.5,0-2.3,0.7-2.2,1.7c0.1,0.9,0.8,1.3,1.7,1.3
			c0.9,0,2-0.4,2.5-1V304.5z"/>
		<path class="st5" d="M664.3,300.8c1-0.5,2-0.9,3-0.9c1.5,0,2.6,0.8,2.6,3.2v5.2c0,0.2-0.1,0.3-0.3,0.3h-0.9
			c-0.1,0-0.3-0.1-0.3-0.3v-5.5c0-1.2-0.6-1.5-1.4-1.5c-0.8,0-1.9,0.4-2.6,0.9v6.2c0,0.2-0.1,0.3-0.3,0.3h-0.8
			c-0.2,0-0.3-0.1-0.3-0.3v-7.9c0-0.1,0.1-0.3,0.3-0.3h0.7c0.2,0,0.3,0.1,0.3,0.3V300.8z"/>
		<path class="st5" d="M672.8,303.2c0-1.8,1.5-3.2,3.5-3.2c1.9,0,3.4,1.4,3.4,3.2v2.3c0,1.8-1.5,3.3-3.4,3.3c-2,0-3.5-1.5-3.5-3.3
			V303.2z M678.3,305.6v-2.5c0-1.1-0.9-1.9-2.1-1.9c-1.1,0-2,0.9-2,1.9v2.5c0,1,0.9,1.9,2,1.9C677.4,307.5,678.3,306.6,678.3,305.6z
			"/>
		<path class="st5" d="M686.8,307.3h2.4c0.2,0,0.3,0.1,0.3,0.3v0.6c0,0.2-0.1,0.3-0.3,0.3H683c-0.2,0-0.3-0.1-0.3-0.3v-0.6
			c0-0.2,0.1-0.3,0.3-0.3h2.4v-6h-1.2c-0.1,0-0.3-0.1-0.3-0.3v-0.7c0-0.2,0.1-0.3,0.3-0.3h2.2c0.2,0,0.4,0.2,0.4,0.4V307.3z
			 M685.7,296.1c0.6,0,1.2,0.5,1.2,1.2s-0.5,1.2-1.2,1.2c-0.6,0-1.2-0.5-1.2-1.2S685.1,296.1,685.7,296.1z"/>
		<path class="st5" d="M703.7,297.5c0.2,0,0.4,0.2,0.4,0.4v6.5h1.2c0.2,0,0.3,0.1,0.3,0.3v0.6c0,0.2-0.1,0.3-0.3,0.3h-1.2v1.7h1.2
			c0.2,0,0.3,0.1,0.3,0.3v0.7c0,0.2-0.1,0.3-0.3,0.3h-4.3c-0.2,0-0.3-0.1-0.3-0.3v-0.7c0-0.2,0.1-0.3,0.3-0.3h1.8v-1.7h-4.3
			c-0.2,0-0.4-0.2-0.4-0.4v-1l4.1-6.7c0.1-0.2,0.3-0.3,0.5-0.3L703.7,297.5z M702.7,304.4v-5.5l-3.3,5.5H702.7z"/>
	</g>
</g>
<g>
	<g>
		<path class="st5" d="M1108.1,65.2v5.4c0,0.1-0.1,0.3-0.3,0.3h-0.8c-0.2,0-0.3-0.1-0.3-0.3V60.1c0-0.1,0.1-0.3,0.3-0.3h0.8
			c0.2,0,0.3,0.1,0.3,0.3v3.8h4.1v-3.8c0-0.1,0.1-0.3,0.3-0.3h0.8c0.2,0,0.3,0.1,0.3,0.3v10.6c0,0.1-0.1,0.3-0.3,0.3h-0.8
			c-0.2,0-0.3-0.1-0.3-0.3v-5.4H1108.1z"/>
		<path class="st5" d="M1122.2,70.3c-0.6,0.5-1.6,0.8-2.6,0.8c-1.5,0-2.9-0.8-3-2.5c-0.1-1.8,1.6-2.8,3.5-2.8h2v-0.6
			c0-1.8-1.2-1.5-3.7-1.5c-0.2,0-0.3-0.1-0.3-0.3v-0.5c0-0.2,0.1-0.3,0.3-0.3c0.7-0.1,1.3-0.1,1.8-0.1c2.2,0,3.2,0.6,3.2,3.3v5
			c0,0.2-0.1,0.3-0.3,0.3h-0.7c-0.1,0-0.3-0.1-0.3-0.3V70.3z M1122.2,66.9h-2c-1.5,0-2.3,0.7-2.2,1.7c0.1,0.9,0.8,1.3,1.7,1.3
			c0.9,0,2-0.4,2.5-1V66.9z"/>
		<path class="st5" d="M1128.2,63.2c1-0.5,2-0.9,3-0.9c1.5,0,2.6,0.8,2.6,3.2v5.2c0,0.2-0.1,0.3-0.3,0.3h-0.9
			c-0.1,0-0.3-0.1-0.3-0.3v-5.5c0-1.2-0.6-1.5-1.4-1.5c-0.8,0-1.9,0.4-2.6,0.9v6.2c0,0.2-0.1,0.3-0.3,0.3h-0.8
			c-0.2,0-0.3-0.1-0.3-0.3v-7.9c0-0.1,0.1-0.3,0.3-0.3h0.7c0.2,0,0.3,0.1,0.3,0.3V63.2z"/>
		<path class="st5" d="M1136.7,65.5c0-1.8,1.5-3.2,3.5-3.2c1.9,0,3.4,1.4,3.4,3.2v2.3c0,1.8-1.5,3.3-3.4,3.3c-2,0-3.5-1.5-3.5-3.3
			V65.5z M1142.2,67.9v-2.5c0-1.1-0.9-1.9-2.1-1.9c-1.1,0-2,0.9-2,1.9v2.5c0,1,0.9,1.9,2,1.9C1141.3,69.9,1142.2,69,1142.2,67.9z"/>
		<path class="st5" d="M1150.7,69.7h2.4c0.2,0,0.3,0.1,0.3,0.3v0.6c0,0.2-0.1,0.3-0.3,0.3h-6.2c-0.2,0-0.3-0.1-0.3-0.3V70
			c0-0.2,0.1-0.3,0.3-0.3h2.4v-6h-1.2c-0.1,0-0.3-0.1-0.3-0.3v-0.7c0-0.2,0.1-0.3,0.3-0.3h2.2c0.2,0,0.4,0.2,0.4,0.4V69.7z
			 M1149.6,58.5c0.6,0,1.2,0.5,1.2,1.2c0,0.6-0.5,1.2-1.2,1.2c-0.6,0-1.2-0.5-1.2-1.2C1148.5,59,1149,58.5,1149.6,58.5z"/>
		<path class="st5" d="M1165.2,69.8c1.4,0,2.4-1.2,2.4-2.4c0-1.5-1.1-2.4-2.4-2.4c-0.6,0-1.2,0.2-1.7,0.5c-0.2,0.1-0.4,0.2-0.6,0
			l-0.5-0.3v-5.2c0-0.2,0.1-0.3,0.3-0.3h5.2c0.2,0,0.3,0.1,0.3,0.3v0.7c0,0.2-0.1,0.3-0.3,0.3h-4.1v3c0.6-0.3,1.2-0.4,1.7-0.4
			c1.9,0,3.6,1.4,3.6,3.6c0,2.4-1.8,3.8-3.7,3.8c-1.2,0-2.4-0.5-3.2-1.7c-0.1-0.2-0.1-0.4,0.1-0.6l0.3-0.2c0.2-0.2,0.4-0.1,0.6,0
			C1163.5,69.5,1164.3,69.8,1165.2,69.8z"/>
	</g>
</g>
<g>
	<g>
		<path class="st5" d="M1108.1,190.3v5.4c0,0.1-0.1,0.3-0.3,0.3h-0.8c-0.2,0-0.3-0.1-0.3-0.3v-10.6c0-0.1,0.1-0.3,0.3-0.3h0.8
			c0.2,0,0.3,0.1,0.3,0.3v3.8h4.1v-3.8c0-0.1,0.1-0.3,0.3-0.3h0.8c0.2,0,0.3,0.1,0.3,0.3v10.6c0,0.1-0.1,0.3-0.3,0.3h-0.8
			c-0.2,0-0.3-0.1-0.3-0.3v-5.4H1108.1z"/>
		<path class="st5" d="M1122.2,195.4c-0.6,0.5-1.6,0.8-2.6,0.8c-1.5,0-2.9-0.8-3-2.5c-0.1-1.8,1.6-2.8,3.5-2.8h2v-0.6
			c0-1.8-1.2-1.5-3.7-1.5c-0.2,0-0.3-0.1-0.3-0.3v-0.5c0-0.2,0.1-0.3,0.3-0.3c0.7-0.1,1.3-0.1,1.8-0.1c2.2,0,3.2,0.6,3.2,3.3v5
			c0,0.2-0.1,0.3-0.3,0.3h-0.7c-0.1,0-0.3-0.1-0.3-0.3V195.4z M1122.2,192h-2c-1.5,0-2.3,0.7-2.2,1.7c0.1,0.9,0.8,1.3,1.7,1.3
			c0.9,0,2-0.4,2.5-1V192z"/>
		<path class="st5" d="M1128.2,188.3c1-0.5,2-0.9,3-0.9c1.5,0,2.6,0.8,2.6,3.2v5.2c0,0.2-0.1,0.3-0.3,0.3h-0.9
			c-0.1,0-0.3-0.1-0.3-0.3v-5.5c0-1.2-0.6-1.5-1.4-1.5c-0.8,0-1.9,0.4-2.6,0.9v6.2c0,0.2-0.1,0.3-0.3,0.3h-0.8
			c-0.2,0-0.3-0.1-0.3-0.3v-7.9c0-0.1,0.1-0.3,0.3-0.3h0.7c0.2,0,0.3,0.1,0.3,0.3V188.3z"/>
		<path class="st5" d="M1136.7,190.6c0-1.8,1.5-3.2,3.5-3.2c1.9,0,3.4,1.4,3.4,3.2v2.3c0,1.8-1.5,3.3-3.4,3.3c-2,0-3.5-1.5-3.5-3.3
			V190.6z M1142.2,193v-2.5c0-1.1-0.9-1.9-2.1-1.9c-1.1,0-2,0.9-2,1.9v2.5c0,1,0.9,1.9,2,1.9C1141.3,195,1142.2,194.1,1142.2,193z"
			/>
		<path class="st5" d="M1150.7,194.8h2.4c0.2,0,0.3,0.1,0.3,0.3v0.6c0,0.2-0.1,0.3-0.3,0.3h-6.2c-0.2,0-0.3-0.1-0.3-0.3v-0.6
			c0-0.2,0.1-0.3,0.3-0.3h2.4v-6h-1.2c-0.1,0-0.3-0.1-0.3-0.3v-0.7c0-0.2,0.1-0.3,0.3-0.3h2.2c0.2,0,0.4,0.2,0.4,0.4V194.8z
			 M1149.6,183.6c0.6,0,1.2,0.5,1.2,1.2c0,0.6-0.5,1.2-1.2,1.2c-0.6,0-1.2-0.5-1.2-1.2C1148.5,184.1,1149,183.6,1149.6,183.6z"/>
		<path class="st5" d="M1167.8,184.7c0.2,0,0.3,0.1,0.3,0.3v0.4c0,0.2-0.1,0.3-0.3,0.3c-2.3,0-4.3,1.8-4.5,4.5
			c0.5-0.8,1.5-1.3,2.4-1.3c1.9,0,3.3,1.7,3.3,3.6c0,2-1.5,3.6-3.3,3.6c-1.2,0-2.1-0.5-2.8-1.3c-0.7-0.9-1-2.1-1-3.6
			c0-2,0.5-3.6,1.5-4.8c1-1.1,2.4-1.8,4-1.8H1167.8z M1165.6,195c1.2,0,2-1.1,2-2.4c0-1.3-0.9-2.3-2-2.3c-1.2,0-2,1-2,2.3
			C1163.6,194,1164.4,195,1165.6,195z"/>
	</g>
</g>
<g>
	<g>
		<path class="st5" d="M1108.1,302.3v5.4c0,0.1-0.1,0.3-0.3,0.3h-0.8c-0.2,0-0.3-0.1-0.3-0.3v-10.6c0-0.1,0.1-0.3,0.3-0.3h0.8
			c0.2,0,0.3,0.1,0.3,0.3v3.8h4.1v-3.8c0-0.1,0.1-0.3,0.3-0.3h0.8c0.2,0,0.3,0.1,0.3,0.3v10.6c0,0.1-0.1,0.3-0.3,0.3h-0.8
			c-0.2,0-0.3-0.1-0.3-0.3v-5.4H1108.1z"/>
		<path class="st5" d="M1122.2,307.3c-0.6,0.5-1.6,0.8-2.6,0.8c-1.5,0-2.9-0.8-3-2.5c-0.1-1.8,1.6-2.8,3.5-2.8h2v-0.6
			c0-1.8-1.2-1.5-3.7-1.5c-0.2,0-0.3-0.1-0.3-0.3v-0.5c0-0.2,0.1-0.3,0.3-0.3c0.7-0.1,1.3-0.1,1.8-0.1c2.2,0,3.2,0.6,3.2,3.3v5
			c0,0.2-0.1,0.3-0.3,0.3h-0.7c-0.1,0-0.3-0.1-0.3-0.3V307.3z M1122.2,303.9h-2c-1.5,0-2.3,0.7-2.2,1.7c0.1,0.9,0.8,1.3,1.7,1.3
			c0.9,0,2-0.4,2.5-1V303.9z"/>
		<path class="st5" d="M1128.2,300.2c1-0.5,2-0.9,3-0.9c1.5,0,2.6,0.8,2.6,3.2v5.2c0,0.2-0.1,0.3-0.3,0.3h-0.9
			c-0.1,0-0.3-0.1-0.3-0.3v-5.5c0-1.2-0.6-1.5-1.4-1.5c-0.8,0-1.9,0.4-2.6,0.9v6.2c0,0.2-0.1,0.3-0.3,0.3h-0.8
			c-0.2,0-0.3-0.1-0.3-0.3v-7.9c0-0.1,0.1-0.3,0.3-0.3h0.7c0.2,0,0.3,0.1,0.3,0.3V300.2z"/>
		<path class="st5" d="M1136.7,302.6c0-1.8,1.5-3.2,3.5-3.2c1.9,0,3.4,1.4,3.4,3.2v2.3c0,1.8-1.5,3.3-3.4,3.3c-2,0-3.5-1.5-3.5-3.3
			V302.6z M1142.2,305v-2.5c0-1.1-0.9-1.9-2.1-1.9c-1.1,0-2,0.9-2,1.9v2.5c0,1,0.9,1.9,2,1.9C1141.3,306.9,1142.2,306,1142.2,305z"
			/>
		<path class="st5" d="M1150.7,306.7h2.4c0.2,0,0.3,0.1,0.3,0.3v0.6c0,0.2-0.1,0.3-0.3,0.3h-6.2c-0.2,0-0.3-0.1-0.3-0.3V307
			c0-0.2,0.1-0.3,0.3-0.3h2.4v-6h-1.2c-0.1,0-0.3-0.1-0.3-0.3v-0.7c0-0.2,0.1-0.3,0.3-0.3h2.2c0.2,0,0.4,0.2,0.4,0.4V306.7z
			 M1149.6,295.5c0.6,0,1.2,0.5,1.2,1.2s-0.5,1.2-1.2,1.2c-0.6,0-1.2-0.5-1.2-1.2S1149,295.5,1149.6,295.5z"/>
		<path class="st5" d="M1167.1,298.2h-4.1v0.7c0,0.2-0.1,0.3-0.3,0.3h-0.5c-0.2,0-0.3-0.1-0.3-0.3v-1.7c0-0.2,0.2-0.4,0.4-0.4h5.7
			c0.5,0,0.8,0.4,0.7,0.9l-3,9.9c-0.1,0.3-0.3,0.3-0.5,0.3h-0.7c-0.2,0-0.4-0.2-0.3-0.4L1167.1,298.2z"/>
	</g>
</g>
<g>
	<g>
		<text transform="matrix(1 0 0 1 507.0485 88.8428)" class="st0 st1 st2">02</text>
	</g>
</g>
<g>
	<g>
		<text transform="matrix(1 0 0 1 -0.7574 326.9934)" class="st0 st1 st2">01</text>
	</g>
</g>
<g>
	<path class="st5" d="M138.5,303.8v5.4c0,0.1-0.1,0.3-0.3,0.3h-0.8c-0.2,0-0.3-0.1-0.3-0.3v-10.6c0-0.1,0.1-0.3,0.3-0.3h0.8
		c0.2,0,0.3,0.1,0.3,0.3v3.8h4.1v-3.8c0-0.1,0.1-0.3,0.3-0.3h0.8c0.2,0,0.3,0.1,0.3,0.3v10.6c0,0.1-0.1,0.3-0.3,0.3h-0.8
		c-0.2,0-0.3-0.1-0.3-0.3v-5.4H138.5z"/>
	<path class="st5" d="M152.6,308.9c-0.6,0.5-1.6,0.8-2.6,0.8c-1.5,0-2.9-0.8-3-2.5c-0.1-1.8,1.6-2.8,3.5-2.8h2v-0.6
		c0-1.8-1.2-1.5-3.7-1.5c-0.2,0-0.3-0.1-0.3-0.3v-0.5c0-0.2,0.1-0.3,0.3-0.3c0.7-0.1,1.3-0.1,1.8-0.1c2.2,0,3.2,0.6,3.2,3.3v5
		c0,0.2-0.1,0.3-0.3,0.3h-0.7c-0.1,0-0.3-0.1-0.3-0.3V308.9z M152.6,305.5h-2c-1.5,0-2.3,0.7-2.2,1.7c0.1,0.9,0.8,1.3,1.7,1.3
		c0.9,0,2-0.4,2.5-1V305.5z"/>
	<path class="st5" d="M158.7,301.8c1-0.5,2-0.9,3-0.9c1.5,0,2.6,0.8,2.6,3.2v5.2c0,0.2-0.1,0.3-0.3,0.3h-0.9c-0.1,0-0.3-0.1-0.3-0.3
		v-5.5c0-1.2-0.6-1.5-1.4-1.5c-0.8,0-1.9,0.4-2.6,0.9v6.2c0,0.2-0.1,0.3-0.3,0.3h-0.8c-0.2,0-0.3-0.1-0.3-0.3v-7.9
		c0-0.1,0.1-0.3,0.3-0.3h0.7c0.2,0,0.3,0.1,0.3,0.3V301.8z"/>
	<path class="st5" d="M167.2,304.1c0-1.8,1.5-3.2,3.5-3.2c1.9,0,3.4,1.4,3.4,3.2v2.3c0,1.8-1.5,3.3-3.4,3.3c-2,0-3.5-1.5-3.5-3.3
		V304.1z M172.7,306.5V304c0-1.1-0.9-1.9-2.1-1.9c-1.1,0-2,0.9-2,1.9v2.5c0,1,0.9,1.9,2,1.9C171.8,308.5,172.7,307.6,172.7,306.5z"
		/>
	<path class="st5" d="M181.2,308.3h2.4c0.2,0,0.3,0.1,0.3,0.3v0.6c0,0.2-0.1,0.3-0.3,0.3h-6.2c-0.2,0-0.3-0.1-0.3-0.3v-0.6
		c0-0.2,0.1-0.3,0.3-0.3h2.4v-6h-1.2c-0.1,0-0.3-0.1-0.3-0.3v-0.7c0-0.2,0.1-0.3,0.3-0.3h2.2c0.2,0,0.4,0.2,0.4,0.4V308.3z
		 M180.1,297.1c0.6,0,1.2,0.5,1.2,1.2c0,0.6-0.5,1.2-1.2,1.2s-1.2-0.5-1.2-1.2C179,297.6,179.5,297.1,180.1,297.1z"/>
	<path class="st5" d="M192.8,299.7c-0.1-0.2,0-0.3,0.2-0.4l2.7-1c0.5-0.2,0.9,0.1,0.9,0.6v9.3h2.2c0.2,0,0.3,0.1,0.3,0.3v0.7
		c0,0.2-0.1,0.3-0.3,0.3h-6.1c-0.2,0-0.3-0.1-0.3-0.3v-0.7c0-0.2,0.1-0.3,0.3-0.3h2.5V300l-1.7,0.6c-0.2,0.1-0.3,0-0.4-0.2
		L192.8,299.7z"/>
</g>
<g>
	<g>
		<path class="st5" d="M646.2,65.8v5.4c0,0.1-0.1,0.3-0.3,0.3H645c-0.2,0-0.3-0.1-0.3-0.3V60.6c0-0.1,0.1-0.3,0.3-0.3h0.8
			c0.2,0,0.3,0.1,0.3,0.3v3.8h4.1v-3.8c0-0.1,0.1-0.3,0.3-0.3h0.8c0.2,0,0.3,0.1,0.3,0.3v10.6c0,0.1-0.1,0.3-0.3,0.3h-0.8
			c-0.2,0-0.3-0.1-0.3-0.3v-5.4H646.2z"/>
		<path class="st5" d="M660.3,70.8c-0.6,0.5-1.6,0.8-2.6,0.8c-1.5,0-2.9-0.8-3-2.5c-0.1-1.8,1.6-2.8,3.5-2.8h2v-0.6
			c0-1.8-1.2-1.5-3.7-1.5c-0.2,0-0.3-0.1-0.3-0.3v-0.5c0-0.2,0.1-0.3,0.3-0.3c0.7-0.1,1.3-0.1,1.8-0.1c2.2,0,3.2,0.6,3.2,3.3v5
			c0,0.2-0.1,0.3-0.3,0.3h-0.7c-0.1,0-0.3-0.1-0.3-0.3V70.8z M660.3,67.4h-2c-1.5,0-2.3,0.7-2.2,1.7c0.1,0.9,0.8,1.3,1.7,1.3
			c0.9,0,2-0.4,2.5-1V67.4z"/>
		<path class="st5" d="M666.3,63.7c1-0.5,2-0.9,3-0.9c1.5,0,2.6,0.8,2.6,3.2v5.2c0,0.2-0.1,0.3-0.3,0.3h-0.9c-0.1,0-0.3-0.1-0.3-0.3
			v-5.5c0-1.2-0.6-1.5-1.4-1.5c-0.8,0-1.9,0.4-2.6,0.9v6.2c0,0.2-0.1,0.3-0.3,0.3h-0.8c-0.2,0-0.3-0.1-0.3-0.3v-7.9
			c0-0.1,0.1-0.3,0.3-0.3h0.7c0.2,0,0.3,0.1,0.3,0.3V63.7z"/>
		<path class="st5" d="M674.8,66c0-1.8,1.5-3.2,3.5-3.2c1.9,0,3.4,1.4,3.4,3.2v2.3c0,1.8-1.5,3.3-3.4,3.3c-2,0-3.5-1.5-3.5-3.3V66z
			 M680.3,68.5V66c0-1.1-0.9-1.9-2.1-1.9c-1.1,0-2,0.9-2,1.9v2.5c0,1,0.9,1.9,2,1.9C679.4,70.4,680.3,69.5,680.3,68.5z"/>
		<path class="st5" d="M688.8,70.2h2.4c0.2,0,0.3,0.1,0.3,0.3v0.6c0,0.2-0.1,0.3-0.3,0.3H685c-0.2,0-0.3-0.1-0.3-0.3v-0.6
			c0-0.2,0.1-0.3,0.3-0.3h2.4v-6h-1.2c-0.1,0-0.3-0.1-0.3-0.3v-0.7c0-0.2,0.1-0.3,0.3-0.3h2.2c0.2,0,0.4,0.2,0.4,0.4V70.2z
			 M687.7,59c0.6,0,1.2,0.5,1.2,1.2c0,0.6-0.5,1.2-1.2,1.2c-0.6,0-1.2-0.5-1.2-1.2C686.6,59.5,687.1,59,687.7,59z"/>
		<path class="st5" d="M705.7,69.5c0-0.2,0.1-0.3,0.3-0.3h0.5c0.2,0,0.3,0.1,0.3,0.3v1.7c0,0.1-0.1,0.2-0.2,0.2h-6.1
			c-0.2,0-0.4-0.2-0.4-0.4v-1l3.9-4c1.2-1.3,1.5-1.9,1.5-2.8c0-1.1-1-1.7-1.9-1.7c-1.3,0-1.9,0.7-2.4,1.5c-0.1,0.2-0.3,0.3-0.5,0.1
			l-0.4-0.2c-0.2-0.1-0.2-0.3-0.1-0.5c0.6-1.5,2-2.2,3.4-2.2c1.6,0,3.4,1.1,3.4,3c0,1.3-0.7,2.5-1.7,3.5l-3.6,3.5h4.1V69.5z"/>
	</g>
</g>
</svg>
