<?xml version="1.0" encoding="utf-8"?>
<!-- Generator: Adobe Illustrator 25.1.0, SVG Export Plug-In . SVG Version: 6.00 Build 0)  -->
<svg version="1.1" xmlns="http://www.w3.org/2000/svg" xmlns:xlink="http://www.w3.org/1999/xlink" x="0px" y="0px"
	 viewBox="0 0 1381.9 682.1" style="enable-background:new 0 0 1381.9 682.1;" xml:space="preserve">
<style type="text/css">
	.st0{fill:#2B272A;}
	.st1{font-family:'PersonifyTrialRegular';}
	.st2{font-size:70px;}
	.st3{fill:none;stroke:#2B272A;stroke-miterlimit:10;}
	.st4{fill:none;stroke:#2B272A;stroke-width:8;stroke-miterlimit:10;}
</style>
<g id="Layer_1">
	<g>
		<g>
			<text transform="matrix(1 0 0 1 9.155273e-05 656.6808)" class="st0 st1 st2">04</text>
		</g>
	</g>
	<g>
		<text transform="matrix(1 0 0 1 1.9717 543.7271)" class="st0 st1 st2">03</text>
	</g>
	<g>
		<g>
			<text transform="matrix(1.3228 0 0 1 910.1689 544.4936)" class="st0 st1 st2">11</text>
		</g>
	</g>
	<g>
		<g>
			<text transform="matrix(1 0 0 1 414.3503 419.8388)" class="st0 st1 st2">06</text>
		</g>
	</g>
	<g>
		<text transform="matrix(1 0 0 1 418.0278 306.9504)" class="st0 st1 st2">05</text>
	</g>
	<g>
		<text transform="matrix(1 0 0 1 412.562 544.4156)" class="st0 st1 st2">07</text>
	</g>
	<g>
		<g>
			<path class="st3" d="M5.5,85.2V33h18.9v35.4h16v16.8H5.5z"/>
			<path class="st3" d="M46.7,85.2V33h18.9v52.2H46.7z"/>
			<path class="st3" d="M109.5,49.7c-2.3-1.6-6.4-3.9-10.6-3.9c-1,0-2.6,0.2-3.6,0.9c-0.7,0.5-0.9,1.1-0.9,1.9
				c0,1.1,0.2,2.1,3.1,2.7l6,1.3c4.6,1,7.4,2.9,8.9,4.5c3.3,3.2,4,7.2,4,10.3c0,4.5-1.2,8.6-4.7,12.3c-3,3.1-8.6,6.6-18.4,6.6
				c-8,0-13.3-2.3-17.8-4.1l-1.7-0.7l5.7-14.7l2,1.6c2,1.5,5.9,3.8,10.6,3.8c2.6,0,3.7-0.6,4.1-0.9c0.9-0.7,1-1.6,1-2.3
				c0-0.5-0.1-1.3-0.6-1.8C96,66.6,95,66.3,93,65.9L88.4,65c-3-0.5-6.2-1.5-9.1-4.5c-2.7-2.7-3.8-5.9-3.8-9.6c0-4.9,1.6-9,5.1-12.4
				c4-4.1,9.9-6.7,18.1-6.7c4.1,0,9.5,0.7,15.9,4.5L109.5,49.7z"/>
			<path class="st3" d="M130.4,85.2V49.5L119.8,50V33h39.9v17l-10.6-0.5v35.7H130.4z"/>
			<path class="st3" d="M232,78c-4.5,4.5-11.7,8.4-21.7,8.4s-17.2-3.8-21.7-8.4c-4.1-4.1-7.3-10.6-7.3-18.9s3.2-14.7,7.3-18.9
				c4.5-4.5,11.7-8.4,21.7-8.4s17.2,3.8,21.7,8.4c4.1,4.1,7.3,10.6,7.3,18.9S236,73.8,232,78z M203.5,51.3c-1.9,2-3,5-3,7.8
				c0,3,1.1,5.9,3,7.7c1.6,1.6,3.9,2.7,6.8,2.7s5.2-1.1,6.8-2.7c1.7-1.7,3-4.5,3-7.7s-1.1-6-3-7.8c-1.4-1.4-3.7-2.7-6.8-2.7
				C206.9,48.6,204.8,50,203.5,51.3z"/>
			<path class="st3" d="M247.4,85.2V33h34.8v14.9h-15.9v5.3h13.9V67h-13.9v18.2H247.4z"/>
			<path class="st3" d="M38.9,159.7c-2.3-1.6-6.4-3.9-10.6-3.9c-1,0-2.6,0.2-3.6,0.9c-0.7,0.5-0.9,1.1-0.9,1.9
				c0,1.1,0.2,2.1,3.1,2.7l6,1.3c4.6,1,7.4,2.9,8.9,4.5c3.3,3.2,4,7.2,4,10.3c0,4.5-1.2,8.6-4.7,12.3c-3,3.1-8.6,6.6-18.4,6.6
				c-8,0-13.3-2.3-17.8-4.1l-1.7-0.7l5.7-14.7l2,1.6c2,1.5,5.9,3.8,10.6,3.8c2.6,0,3.7-0.6,4.1-0.9c0.9-0.7,1-1.6,1-2.3
				c0-0.5-0.1-1.3-0.6-1.8c-0.6-0.6-1.6-0.9-3.6-1.3l-4.6-0.9c-3-0.5-6.2-1.5-9.1-4.5c-2.7-2.7-3.8-5.9-3.8-9.6
				c0-4.9,1.6-9,5.1-12.4c4-4.1,9.9-6.7,18.1-6.7c4.1,0,9.5,0.7,15.9,4.5L38.9,159.7z"/>
			<path class="st3" d="M102.1,188c-4.5,4.5-11.7,8.4-21.7,8.4s-17.2-3.8-21.7-8.4c-4.1-4.1-7.3-10.6-7.3-18.9
				c0-8.3,3.2-14.7,7.3-18.9c4.5-4.5,11.7-8.4,21.7-8.4s17.2,3.8,21.7,8.4c4.1,4.1,7.3,10.6,7.3,18.9
				C109.4,177.4,106.2,183.8,102.1,188z M73.6,161.3c-1.9,2-3,5-3,7.8c0,3,1.1,5.9,3,7.7c1.6,1.6,3.9,2.7,6.8,2.7s5.2-1.1,6.8-2.7
				c1.7-1.7,3-4.5,3-7.7s-1.1-6-3-7.8c-1.4-1.4-3.7-2.7-6.8-2.7C77.1,158.6,74.9,160,73.6,161.3z"/>
			<path class="st3" d="M117.5,195.2V143h18.1l12.1,19.7c2,3.1,3.2,5.2,4.9,9.2h0.5c-0.8-3.3-1.6-8.5-1.6-12.4v-16.6h18.1v52.2
				h-18.1l-13-20.6c-1.2-1.9-2.6-4.6-3.6-6.8h-0.5c0.5,2.8,1.2,7.3,1.2,9.6v17.8L117.5,195.2L117.5,195.2z"/>
			<path class="st3" d="M205.7,164.8H235v1.2c0,6.4-0.5,15.1-6.8,21.8c-5.2,5.6-13.5,8.5-22.1,8.5c-11,0-17.6-4.4-21.5-8.6
				c-4.9-5.3-6.7-11.7-6.7-18.5c0-9.5,3.7-15.6,7.2-19.2c4.2-4.4,11.4-8.2,21.9-8.2c5.6,0,10.5,1.1,15.3,3.7c4.5,2.4,7.6,5.4,10,9.6
				l-17.7,6.6c-1.1-1.7-3.2-4-7.2-4c-2.7,0-5,0.9-6.6,2.4c-2.1,2-3.8,5.3-3.8,9.9c0,3.5,1.2,7.1,3.4,9.3c1.5,1.4,3.5,2.3,6.2,2.3
				c2.8,0,6.5-1,7.7-4.5h-8.6L205.7,164.8L205.7,164.8z"/>
			<path class="st3" d="M276.5,159.7c-2.3-1.6-6.4-3.9-10.6-3.9c-1,0-2.6,0.2-3.6,0.9c-0.7,0.5-0.9,1.1-0.9,1.9
				c0,1.1,0.2,2.1,3.1,2.7l6,1.3c4.6,1,7.4,2.9,8.9,4.5c3.3,3.2,4,7.2,4,10.3c0,4.5-1.2,8.6-4.7,12.3c-3,3.1-8.6,6.6-18.4,6.6
				c-8,0-13.3-2.3-17.8-4.1l-1.7-0.7l5.7-14.7l2,1.6c2,1.5,5.9,3.8,10.6,3.8c2.6,0,3.7-0.6,4.1-0.9c0.9-0.7,1-1.6,1-2.3
				c0-0.5-0.1-1.3-0.6-1.8c-0.6-0.6-1.6-0.9-3.6-1.3l-4.6-0.9c-3-0.5-6.2-1.5-9.1-4.5c-2.7-2.7-3.8-5.9-3.8-9.6
				c0-4.9,1.6-9,5.1-12.4c4-4.1,9.9-6.7,18.1-6.7c4.1,0,9.5,0.7,15.9,4.5L276.5,159.7z"/>
		</g>
	</g>
	<g>
		<text transform="matrix(1 0 0 1 909.4681 419.986)" class="st0 st1 st2">10</text>
	</g>
	<g>
		<text transform="matrix(1 0 0 1 416.5656 658.5667)" class="st0 st1 st2">08</text>
	</g>
	<g>
		<text transform="matrix(1 0 0 1 906.7925 307.6561)" class="st0 st1 st2">09</text>
	</g>
	<line class="st4" x1="0" y1="60.4" x2="316.8" y2="60.4"/>
	<line class="st4" x1="0" y1="169.2" x2="316.8" y2="169.2"/>
	<g>
		<path class="st0" d="M144.7,526c0,0.1-0.1,0.3-0.3,0.3h-0.8c-0.2,0-0.3-0.1-0.3-0.3v-8.2l-1.6,2.9c-0.1,0.2-0.3,0.4-0.5,0.4
			c-0.3,0-0.4-0.1-0.5-0.4l-1.6-2.9v8.2c0,0.1-0.1,0.3-0.3,0.3h-0.8c-0.2,0-0.3-0.1-0.3-0.3v-10.5c0-0.2,0.1-0.3,0.3-0.3h1l2.1,4.1
			l2.1-4.1h1c0.2,0,0.3,0.2,0.3,0.3V526z"/>
		<path class="st0" d="M152.1,525h2.4c0.2,0,0.3,0.1,0.3,0.3v0.6c0,0.2-0.1,0.3-0.3,0.3h-6.2c-0.2,0-0.3-0.1-0.3-0.3v-0.6
			c0-0.2,0.1-0.3,0.3-0.3h2.4v-6h-1.2c-0.1,0-0.3-0.1-0.3-0.3V518c0-0.2,0.1-0.3,0.3-0.3h2.2c0.2,0,0.4,0.2,0.4,0.4V525z M151,513.8
			c0.6,0,1.2,0.5,1.2,1.2c0,0.6-0.5,1.2-1.2,1.2s-1.2-0.5-1.2-1.2C149.9,514.3,150.4,513.8,151,513.8z"/>
		<path class="st0" d="M159.4,518.5c1-0.5,2-0.9,3-0.9c1.5,0,2.6,0.8,2.6,3.2v5.2c0,0.2-0.1,0.3-0.3,0.3h-0.9
			c-0.1,0-0.3-0.1-0.3-0.3v-5.5c0-1.2-0.6-1.5-1.4-1.5c-0.8,0-1.9,0.4-2.6,0.9v6.2c0,0.2-0.1,0.3-0.3,0.3h-0.8
			c-0.2,0-0.3-0.1-0.3-0.3V518c0-0.1,0.1-0.3,0.3-0.3h0.7c0.2,0,0.3,0.1,0.3,0.3V518.5z"/>
		<path class="st0" d="M171.9,525h2.4c0.2,0,0.3,0.1,0.3,0.3v0.6c0,0.2-0.1,0.3-0.3,0.3h-6.2c-0.2,0-0.3-0.1-0.3-0.3v-0.6
			c0-0.2,0.1-0.3,0.3-0.3h2.4v-6h-1.2c-0.1,0-0.3-0.1-0.3-0.3V518c0-0.2,0.1-0.3,0.3-0.3h2.2c0.2,0,0.4,0.2,0.4,0.4V525z
			 M170.8,513.8c0.6,0,1.2,0.5,1.2,1.2c0,0.6-0.5,1.2-1.2,1.2s-1.2-0.5-1.2-1.2C169.7,514.3,170.2,513.8,170.8,513.8z"/>
		<path class="st0" d="M178.9,519.8c-0.1,0.9,1,1.3,2.3,1.6c2.5,0.6,3.3,1.5,3.2,2.9c-0.1,1.2-1.4,2.1-3.4,2.1c-0.9,0-1.9-0.2-3-0.5
			c-0.2-0.1-0.3-0.2-0.3-0.4l0.1-0.4c0.1-0.2,0.2-0.3,0.5-0.2c1,0.2,1.9,0.4,2.6,0.4c1.1,0,2-0.3,2.1-1.1c0.1-0.9-1-1.3-2.3-1.6
			c-2.5-0.6-3.4-1.4-3.3-2.9c0.1-1.2,1.3-2.1,3.2-2.1c0.9,0,1.8,0.2,2.9,0.5c0.2,0.1,0.3,0.2,0.3,0.4l-0.1,0.4
			c-0.1,0.2-0.2,0.3-0.5,0.2c-1-0.2-1.8-0.4-2.6-0.4C179.6,518.7,178.9,519,178.9,519.8z"/>
		<path class="st0" d="M190,522.6c0,2.4,0.8,2.5,3.5,2.5c0.2,0,0.3,0.1,0.3,0.3v0.6c0,0.2-0.1,0.3-0.3,0.3H193
			c-2.5,0-4.4-0.4-4.4-3.3v-4h-1.2c-0.2,0-0.3-0.1-0.3-0.3V518c0-0.1,0.1-0.3,0.3-0.3h1.2v-3.4c0-0.2,0.1-0.3,0.3-0.3h0.8
			c0.2,0,0.3,0.1,0.3,0.3v3.4h2.7c0.2,0,0.3,0.1,0.3,0.3v0.7c0,0.2-0.1,0.3-0.3,0.3H190V522.6z"/>
		<path class="st0" d="M199.2,519.7c0.7-1.5,1.9-1.9,3.2-1.9h0.4c0.2,0,0.3,0.1,0.3,0.3v0.6c0,0.2-0.1,0.3-0.3,0.3h-0.4
			c-1.9,0-2.7,1.2-3.2,2v4h2.3c0.2,0,0.3,0.1,0.3,0.3v0.6c0,0.2-0.1,0.3-0.3,0.3h-4.8c-0.2,0-0.3-0.1-0.3-0.3v-0.6
			c0-0.2,0.1-0.3,0.3-0.3h1.3v-6h-1.3c-0.2,0-0.3-0.1-0.3-0.3V518c0-0.2,0.1-0.3,0.3-0.3h2.2c0.2,0,0.4,0.2,0.4,0.4V519.7z"/>
		<path class="st0" d="M211.2,525.6c-0.9,0.6-1.7,0.8-2.8,0.8c-1.5,0-2.6-0.8-2.6-3.2v-5.2c0-0.2,0.1-0.3,0.3-0.3h0.9
			c0.1,0,0.3,0.1,0.3,0.3v5.5c0,1.2,0.6,1.5,1.4,1.5c1,0,2-0.4,2.6-0.8v-6.2c0-0.2,0.1-0.3,0.3-0.3h0.9c0.2,0,0.3,0.1,0.3,0.3v8.6
			c0,2.9-1.9,3.3-4.4,3.3h-0.6c-0.2,0-0.3-0.1-0.3-0.3v-0.5c0-0.2,0.1-0.3,0.3-0.3c2.8,0,3.6-0.2,3.6-2.3V525.6z"/>
		<path class="st0" d="M221.8,520.8c0-1.8,1.5-3.2,3.5-3.2c1.9,0,3.4,1.4,3.4,3.2v2.3c0,1.8-1.5,3.3-3.4,3.3c-2,0-3.5-1.5-3.5-3.3
			V520.8z M227.3,523.3v-2.5c0-1.1-0.9-1.9-2.1-1.9c-1.1,0-2,0.9-2,1.9v2.5c0,1,0.9,1.9,2,1.9C226.3,525.2,227.3,524.3,227.3,523.3z
			"/>
		<path class="st0" d="M237.3,517.8c0.1,0,0.3,0.1,0.3,0.3v0.7c0,0.2-0.1,0.3-0.3,0.3h-2.7v6h2.7c0.1,0,0.3,0.1,0.3,0.3v0.6
			c0,0.2-0.1,0.3-0.3,0.3h-5.4c-0.2,0-0.3-0.1-0.3-0.3v-0.6c0-0.2,0.1-0.3,0.3-0.3h1.3v-6h-1.3c-0.1,0-0.3-0.1-0.3-0.3V518
			c0-0.2,0.1-0.3,0.3-0.3h1.3v-0.4c0-2.9,1.9-3.3,4.4-3.3h0.5c0.2,0,0.3,0.1,0.3,0.3v0.6c0,0.2-0.1,0.3-0.3,0.3
			c-2.6,0-3.5,0-3.5,2.1v0.4H237.3z"/>
		<path class="st0" d="M251.5,521.9H249l-1.1,4.1c0,0.2-0.2,0.3-0.3,0.3h-0.8c-0.1,0-0.3-0.1-0.2-0.3l2.8-10.5
			c0.1-0.3,0.2-0.4,0.5-0.4h0.8c0.3,0,0.4,0.1,0.5,0.4l2.8,10.5c0,0.1-0.1,0.3-0.2,0.3h-0.8c-0.2,0-0.3-0.1-0.3-0.3L251.5,521.9z
			 M249.3,520.6h1.9l-0.9-3.8L249.3,520.6z"/>
		<path class="st0" d="M260.8,525h2.4c0.2,0,0.3,0.1,0.3,0.3v0.6c0,0.2-0.1,0.3-0.3,0.3h-6.2c-0.2,0-0.3-0.1-0.3-0.3v-0.6
			c0-0.2,0.1-0.3,0.3-0.3h2.4v-9.7h-1.2c-0.1,0-0.3-0.1-0.3-0.3v-0.7c0-0.2,0.1-0.3,0.3-0.3h2.2c0.2,0,0.4,0.2,0.4,0.4V525z"/>
		<path class="st0" d="M270.5,525h2.4c0.2,0,0.3,0.1,0.3,0.3v0.6c0,0.2-0.1,0.3-0.3,0.3h-6.2c-0.2,0-0.3-0.1-0.3-0.3v-0.6
			c0-0.2,0.1-0.3,0.3-0.3h2.4v-6h-1.2c-0.1,0-0.3-0.1-0.3-0.3V518c0-0.2,0.1-0.3,0.3-0.3h2.2c0.2,0,0.4,0.2,0.4,0.4V525z
			 M269.4,513.8c0.6,0,1.2,0.5,1.2,1.2c0,0.6-0.5,1.2-1.2,1.2s-1.2-0.5-1.2-1.2C268.2,514.3,268.7,513.8,269.4,513.8z"/>
		<path class="st0" d="M277.5,522.4v0.6c0,1.8,1,2.1,3.7,2.1c0.2,0,0.3,0.1,0.3,0.3v0.5c0,0.2-0.1,0.3-0.3,0.3h-0.7
			c-2.5,0-4.4-0.4-4.4-3.3v-2.1c0-1.8,1.5-3.2,3.4-3.2s3.4,1.4,3.4,3.2v0.9c0,0.4-0.3,0.7-0.7,0.7H277.5z M277.5,521.2h4v-0.5
			c0-1.1-0.9-1.9-2-1.9s-2,0.9-2,1.9V521.2z"/>
		<path class="st0" d="M287.3,518.5c1-0.5,2-0.9,3-0.9c1.5,0,2.6,0.8,2.6,3.2v5.2c0,0.2-0.1,0.3-0.3,0.3h-0.9
			c-0.1,0-0.3-0.1-0.3-0.3v-5.5c0-1.2-0.6-1.5-1.4-1.5c-0.8,0-1.9,0.4-2.6,0.9v6.2c0,0.2-0.1,0.3-0.3,0.3h-0.8
			c-0.2,0-0.3-0.1-0.3-0.3V518c0-0.1,0.1-0.3,0.3-0.3h0.7c0.2,0,0.3,0.1,0.3,0.3V518.5z"/>
		<path class="st0" d="M301.1,525.6c-0.6,0.5-1.6,0.8-2.6,0.8c-1.5,0-2.9-0.8-3-2.5c-0.1-1.8,1.6-2.8,3.5-2.8h2v-0.6
			c0-1.8-1.2-1.5-3.7-1.5c-0.2,0-0.3-0.1-0.3-0.3v-0.5c0-0.2,0.1-0.3,0.3-0.3c0.7-0.1,1.3-0.1,1.8-0.1c2.2,0,3.2,0.6,3.2,3.3v5
			c0,0.2-0.1,0.3-0.3,0.3h-0.7c-0.1,0-0.3-0.1-0.3-0.3V525.6z M301.1,522.2h-2c-1.5,0-2.3,0.7-2.2,1.7c0.1,0.9,0.8,1.3,1.7,1.3
			s2-0.4,2.5-1V522.2z"/>
		<path class="st0" d="M308.2,522.6c0,2.4,0.8,2.5,3.5,2.5c0.2,0,0.3,0.1,0.3,0.3v0.6c0,0.2-0.1,0.3-0.3,0.3h-0.5
			c-2.5,0-4.4-0.4-4.4-3.3v-4h-1.2c-0.2,0-0.3-0.1-0.3-0.3V518c0-0.1,0.1-0.3,0.3-0.3h1.2v-3.4c0-0.2,0.1-0.3,0.3-0.3h0.8
			c0.2,0,0.3,0.1,0.3,0.3v3.4h2.7c0.2,0,0.3,0.1,0.3,0.3v0.7c0,0.2-0.1,0.3-0.3,0.3h-2.7V522.6z"/>
		<path class="st0" d="M318.7,525h2.4c0.2,0,0.3,0.1,0.3,0.3v0.6c0,0.2-0.1,0.3-0.3,0.3h-6.2c-0.2,0-0.3-0.1-0.3-0.3v-0.6
			c0-0.2,0.1-0.3,0.3-0.3h2.4v-6H316c-0.1,0-0.3-0.1-0.3-0.3V518c0-0.2,0.1-0.3,0.3-0.3h2.2c0.2,0,0.4,0.2,0.4,0.4V525z
			 M317.6,513.8c0.6,0,1.2,0.5,1.2,1.2c0,0.6-0.5,1.2-1.2,1.2s-1.2-0.5-1.2-1.2C316.4,514.3,316.9,513.8,317.6,513.8z"/>
		<path class="st0" d="M324.3,520.8c0-1.8,1.5-3.2,3.5-3.2c1.9,0,3.4,1.4,3.4,3.2v2.3c0,1.8-1.5,3.3-3.4,3.3c-2,0-3.5-1.5-3.5-3.3
			V520.8z M329.8,523.3v-2.5c0-1.1-0.9-1.9-2.1-1.9c-1.1,0-2,0.9-2,1.9v2.5c0,1,0.9,1.9,2,1.9C328.9,525.2,329.8,524.3,329.8,523.3z
			"/>
		<path class="st0" d="M335.9,518.5c1-0.5,2-0.9,3-0.9c1.5,0,2.6,0.8,2.6,3.2v5.2c0,0.2-0.1,0.3-0.3,0.3h-0.9
			c-0.1,0-0.3-0.1-0.3-0.3v-5.5c0-1.2-0.6-1.5-1.4-1.5c-0.8,0-1.9,0.4-2.6,0.9v6.2c0,0.2-0.1,0.3-0.3,0.3h-0.8
			c-0.2,0-0.3-0.1-0.3-0.3V518c0-0.1,0.1-0.3,0.3-0.3h0.7c0.2,0,0.3,0.1,0.3,0.3V518.5z"/>
	</g>
	<g>
		<g>
			<path class="st0" d="M139.1,633.6v5.4c0,0.1-0.1,0.3-0.3,0.3H138c-0.2,0-0.3-0.1-0.3-0.3v-10.6c0-0.1,0.1-0.3,0.3-0.3h0.8
				c0.2,0,0.3,0.1,0.3,0.3v3.8h4.1v-3.8c0-0.1,0.1-0.3,0.3-0.3h0.8c0.2,0,0.3,0.1,0.3,0.3V639c0,0.1-0.1,0.3-0.3,0.3h-0.8
				c-0.2,0-0.3-0.1-0.3-0.3v-5.4H139.1z"/>
			<path class="st0" d="M153.4,638.6c-0.9,0.5-2,0.9-2.9,0.9c-1.5,0-2.6-0.8-2.6-3.2v-5.2c0-0.2,0.1-0.3,0.3-0.3h0.9
				c0.1,0,0.3,0.1,0.3,0.3v5.5c0,1.2,0.6,1.5,1.4,1.5c0.9,0,1.9-0.4,2.6-0.8v-6.2c0-0.2,0.1-0.3,0.3-0.3h0.8c0.2,0,0.3,0.1,0.3,0.3
				v7.9c0,0.1-0.1,0.3-0.3,0.3h-0.7c-0.2,0-0.3-0.1-0.3-0.3V638.6z"/>
			<path class="st0" d="M159.6,631.5c1-0.5,2-0.9,3-0.9c1.5,0,2.6,0.8,2.6,3.2v5.2c0,0.2-0.1,0.3-0.3,0.3H164
				c-0.1,0-0.3-0.1-0.3-0.3v-5.5c0-1.2-0.6-1.5-1.4-1.5c-0.8,0-1.9,0.4-2.6,0.9v6.2c0,0.2-0.1,0.3-0.3,0.3h-0.8
				c-0.2,0-0.3-0.1-0.3-0.3v-7.9c0-0.1,0.1-0.3,0.3-0.3h0.7c0.2,0,0.3,0.1,0.3,0.3V631.5z"/>
			<path class="st0" d="M169.7,631.5c1-0.5,2-0.9,3-0.9c1.5,0,2.6,0.8,2.6,3.2v5.2c0,0.2-0.1,0.3-0.3,0.3h-0.9
				c-0.1,0-0.3-0.1-0.3-0.3v-5.5c0-1.2-0.6-1.5-1.4-1.5c-0.8,0-1.9,0.4-2.6,0.9v6.2c0,0.2-0.1,0.3-0.3,0.3h-0.8
				c-0.2,0-0.3-0.1-0.3-0.3v-7.9c0-0.1,0.1-0.3,0.3-0.3h0.7c0.2,0,0.3,0.1,0.3,0.3V631.5z"/>
			<path class="st0" d="M183.6,638.6c-0.9,0.6-1.7,0.8-2.8,0.8c-1.5,0-2.6-0.8-2.6-3.2v-5.2c0-0.2,0.1-0.3,0.3-0.3h0.9
				c0.1,0,0.3,0.1,0.3,0.3v5.5c0,1.2,0.6,1.5,1.4,1.5c1,0,2-0.4,2.6-0.8v-6.2c0-0.2,0.1-0.3,0.3-0.3h0.9c0.2,0,0.3,0.1,0.3,0.3v8.6
				c0,2.9-1.9,3.3-4.4,3.3H180c-0.2,0-0.3-0.1-0.3-0.3v-0.5c0-0.2,0.1-0.3,0.3-0.3c2.8,0,3.6-0.2,3.6-2.3V638.6z"/>
			<path class="st0" d="M189.8,627.1c0.2,0,0.3,0.1,0.3,0.3v4.1c0.5-0.5,1.2-0.8,2.1-0.8c1.9,0,3.4,1.4,3.4,3.2v2.3
				c0,1.8-1.5,3.3-3.4,3.3c-0.9,0-1.8-0.4-2.2-1v0.6c0,0.1-0.1,0.2-0.3,0.2H189c-0.2,0-0.3-0.1-0.3-0.3v-11.6c0-0.1,0.1-0.3,0.3-0.3
				H189.8z M194.2,634c0-1.2-0.9-2.1-2.1-2.1s-2.1,0.9-2.1,2.1v2.2c0,1.2,0.9,2.1,2.1,2.1s2.1-0.9,2.1-2.1V634z"/>
			<path class="st0" d="M199.8,635.4v0.6c0,1.8,1,2.1,3.7,2.1c0.2,0,0.3,0.1,0.3,0.3v0.5c0,0.2-0.1,0.3-0.3,0.3h-0.7
				c-2.5,0-4.4-0.4-4.4-3.3v-2.1c0-1.8,1.5-3.2,3.4-3.2s3.4,1.4,3.4,3.2v0.9c0,0.4-0.3,0.7-0.7,0.7H199.8z M199.8,634.3h4v-0.5
				c0-1.1-0.9-1.9-2-1.9s-2,0.9-2,1.9V634.3z"/>
			<path class="st0" d="M209.4,635.4v0.6c0,1.8,1,2.1,3.7,2.1c0.2,0,0.3,0.1,0.3,0.3v0.5c0,0.2-0.1,0.3-0.3,0.3h-0.7
				c-2.5,0-4.4-0.4-4.4-3.3v-2.1c0-1.8,1.5-3.2,3.4-3.2s3.4,1.4,3.4,3.2v0.9c0,0.4-0.3,0.7-0.7,0.7H209.4z M209.4,634.3h4v-0.5
				c0-1.1-0.9-1.9-2-1.9s-2,0.9-2,1.9V634.3z"/>
		</g>
	</g>
	<g>
		<g>
			<path class="st0" d="M579,281v5.1c0,1.1,1.1,1.9,2.3,1.9c0.7,0,1.5-0.4,1.9-0.9c0.2-0.2,0.4-0.2,0.5,0l0.4,0.3
				c0.2,0.1,0.2,0.4,0.1,0.5c-0.8,1.1-2,1.4-2.9,1.4c-2,0-3.6-1.5-3.6-3.3v-5c0-1.8,1.6-3.2,3.6-3.2c0.9,0,2.1,0.3,2.9,1.4
				c0.1,0.1,0.1,0.4-0.1,0.5l-0.4,0.3c-0.2,0.1-0.4,0.1-0.5,0c-0.5-0.5-1.2-0.9-1.9-0.9C580.1,279,579,279.9,579,281z"/>
			<path class="st0" d="M588.7,281.2c1-0.5,2-0.9,2.9-0.9c1.5,0,2.6,0.8,2.6,3.2v5.2c0,0.2-0.1,0.3-0.3,0.3H593
				c-0.1,0-0.3-0.1-0.3-0.3v-5.5c0-1.2-0.6-1.5-1.4-1.5c-0.8,0-1.9,0.4-2.6,0.9v6.2c0,0.2-0.1,0.3-0.3,0.3h-0.8
				c-0.2,0-0.3-0.1-0.3-0.3v-11.6c0-0.1,0.1-0.3,0.3-0.3h0.8c0.2,0,0.3,0.1,0.3,0.3V281.2z"/>
			<path class="st0" d="M599.7,282.4c0.7-1.5,1.9-1.9,3.2-1.9h0.4c0.2,0,0.3,0.1,0.3,0.3v0.6c0,0.2-0.1,0.3-0.3,0.3h-0.4
				c-1.9,0-2.7,1.2-3.2,2v4h2.3c0.2,0,0.3,0.1,0.3,0.3v0.6c0,0.2-0.1,0.3-0.3,0.3h-4.8c-0.2,0-0.3-0.1-0.3-0.3v-0.6
				c0-0.2,0.1-0.3,0.3-0.3h1.3v-6h-1.3c-0.2,0-0.3-0.1-0.3-0.3v-0.7c0-0.2,0.1-0.3,0.3-0.3h2.2c0.2,0,0.4,0.2,0.4,0.4V282.4z"/>
			<path class="st0" d="M606.3,283.6c0-1.8,1.5-3.2,3.5-3.2c1.9,0,3.4,1.4,3.4,3.2v2.3c0,1.8-1.5,3.3-3.4,3.3c-2,0-3.5-1.5-3.5-3.3
				V283.6z M611.8,286v-2.5c0-1.1-0.9-1.9-2.1-1.9c-1.1,0-2,0.9-2,1.9v2.5c0,1,0.9,1.9,2,1.9C610.8,288,611.8,287.1,611.8,286z"/>
			<path class="st0" d="M617.8,281.3c1-0.5,2-0.9,3-0.9c1.5,0,2.6,0.8,2.6,3.2v5.2c0,0.2-0.1,0.3-0.3,0.3h-0.9
				c-0.1,0-0.3-0.1-0.3-0.3v-5.5c0-1.2-0.6-1.5-1.4-1.5c-0.8,0-1.9,0.4-2.6,0.9v6.2c0,0.2-0.1,0.3-0.3,0.3h-0.8
				c-0.2,0-0.3-0.1-0.3-0.3v-7.9c0-0.1,0.1-0.3,0.3-0.3h0.7c0.2,0,0.3,0.1,0.3,0.3V281.3z"/>
			<path class="st0" d="M626.3,283.6c0-1.8,1.5-3.2,3.5-3.2c1.9,0,3.4,1.4,3.4,3.2v2.3c0,1.8-1.5,3.3-3.4,3.3c-2,0-3.5-1.5-3.5-3.3
				V283.6z M631.8,286v-2.5c0-1.1-0.9-1.9-2.1-1.9c-1.1,0-2,0.9-2,1.9v2.5c0,1,0.9,1.9,2,1.9C630.9,288,631.8,287.1,631.8,286z"/>
			<path class="st0" d="M637.6,282.6c-0.1,0.9,1,1.3,2.3,1.6c2.5,0.6,3.3,1.5,3.2,2.9c-0.1,1.2-1.4,2.1-3.4,2.1
				c-0.9,0-1.9-0.2-3-0.5c-0.2-0.1-0.3-0.2-0.3-0.4l0.1-0.4c0.1-0.2,0.2-0.3,0.5-0.2c1,0.2,1.9,0.4,2.6,0.4c1.1,0,2-0.3,2.1-1.1
				c0.1-0.9-1-1.3-2.3-1.6c-2.5-0.6-3.4-1.4-3.3-2.9c0.1-1.2,1.3-2.1,3.2-2.1c0.9,0,1.8,0.2,2.9,0.5c0.2,0.1,0.3,0.2,0.3,0.4
				l-0.1,0.4c-0.1,0.2-0.2,0.3-0.5,0.2c-1-0.2-1.8-0.4-2.6-0.4C638.4,281.5,637.7,281.8,637.6,282.6z"/>
			<path class="st0" d="M652.2,278.3c0-0.2,0.2-0.4,0.4-0.4h6.2c0.1,0,0.3,0.1,0.3,0.3v0.8c0,0.2-0.1,0.3-0.3,0.3h-5.2v2.8h2.9
				c0.1,0,0.3,0.1,0.3,0.3v0.7c0,0.2-0.1,0.3-0.3,0.3h-2.9v5.4c0,0.1-0.1,0.3-0.3,0.3h-0.8c-0.2,0-0.3-0.1-0.3-0.3V278.3z"/>
			<path class="st0" d="M663.2,285.2v0.6c0,1.8,1,2.1,3.7,2.1c0.2,0,0.3,0.1,0.3,0.3v0.5c0,0.2-0.1,0.3-0.3,0.3h-0.7
				c-2.5,0-4.4-0.4-4.4-3.3v-2.1c0-1.8,1.5-3.2,3.4-3.2s3.4,1.4,3.4,3.2v0.9c0,0.4-0.3,0.7-0.7,0.7H663.2z M663.2,284h4v-0.5
				c0-1.1-0.9-1.9-2-1.9s-2,0.9-2,1.9V284z"/>
			<path class="st0" d="M676.7,288.4c-0.6,0.5-1.6,0.8-2.6,0.8c-1.5,0-2.9-0.8-3-2.5c-0.1-1.8,1.6-2.8,3.5-2.8h2v-0.6
				c0-1.8-1.2-1.5-3.7-1.5c-0.2,0-0.3-0.1-0.3-0.3v-0.5c0-0.2,0.1-0.3,0.3-0.3c0.7-0.1,1.3-0.1,1.8-0.1c2.2,0,3.2,0.6,3.2,3.3v5
				c0,0.2-0.1,0.3-0.3,0.3H677c-0.1,0-0.3-0.1-0.3-0.3V288.4z M676.7,285h-2c-1.5,0-2.3,0.7-2.2,1.7c0.1,0.9,0.8,1.3,1.7,1.3
				c0.9,0,2-0.4,2.5-1V285z"/>
			<path class="st0" d="M682.5,282.6c-0.1,0.9,1,1.3,2.3,1.6c2.5,0.6,3.3,1.5,3.2,2.9c-0.1,1.2-1.4,2.1-3.4,2.1
				c-0.9,0-1.9-0.2-3-0.5c-0.2-0.1-0.3-0.2-0.3-0.4l0.1-0.4c0.1-0.2,0.2-0.3,0.5-0.2c1,0.2,1.9,0.4,2.6,0.4c1.1,0,2-0.3,2.1-1.1
				c0.1-0.9-1-1.3-2.3-1.6c-2.5-0.6-3.4-1.4-3.3-2.9c0.1-1.2,1.3-2.1,3.2-2.1c0.9,0,1.8,0.2,2.9,0.5c0.2,0.1,0.3,0.2,0.3,0.4
				l-0.1,0.4c-0.1,0.2-0.2,0.3-0.5,0.2c-1-0.2-1.8-0.4-2.6-0.4C683.3,281.5,682.6,281.8,682.5,282.6z"/>
			<path class="st0" d="M693.6,285.3c0,2.4,0.8,2.5,3.5,2.5c0.2,0,0.3,0.1,0.3,0.3v0.6c0,0.2-0.1,0.3-0.3,0.3h-0.5
				c-2.5,0-4.4-0.4-4.4-3.3v-4H691c-0.2,0-0.3-0.1-0.3-0.3v-0.7c0-0.1,0.1-0.3,0.3-0.3h1.2v-3.4c0-0.2,0.1-0.3,0.3-0.3h0.8
				c0.2,0,0.3,0.1,0.3,0.3v3.4h2.7c0.2,0,0.3,0.1,0.3,0.3v0.7c0,0.2-0.1,0.3-0.3,0.3h-2.7V285.3z"/>
			<path class="st0" d="M701.4,282.6c-0.1,0.9,1,1.3,2.3,1.6c2.5,0.6,3.3,1.5,3.2,2.9c-0.1,1.2-1.4,2.1-3.4,2.1
				c-0.9,0-1.9-0.2-3-0.5c-0.2-0.1-0.3-0.2-0.3-0.4l0.1-0.4c0.1-0.2,0.2-0.3,0.5-0.2c1,0.2,1.9,0.4,2.6,0.4c1.1,0,2-0.3,2.1-1.1
				c0.1-0.9-1-1.3-2.3-1.6c-2.5-0.6-3.4-1.4-3.3-2.9c0.1-1.2,1.3-2.1,3.2-2.1c0.9,0,1.8,0.2,2.9,0.5c0.2,0.1,0.3,0.2,0.3,0.4
				l-0.1,0.4c-0.1,0.2-0.2,0.3-0.5,0.2c-1-0.2-1.8-0.4-2.6-0.4C702.2,281.5,701.5,281.8,701.4,282.6z"/>
			<path class="st0" d="M715.7,283.6c0-1.8,1.5-3.2,3.5-3.2c1.9,0,3.4,1.4,3.4,3.2v2.3c0,1.8-1.5,3.3-3.4,3.3c-2,0-3.5-1.5-3.5-3.3
				V283.6z M721.2,286v-2.5c0-1.1-0.9-1.9-2.1-1.9c-1.1,0-2,0.9-2,1.9v2.5c0,1,0.9,1.9,2,1.9C720.3,288,721.2,287.1,721.2,286z"/>
			<path class="st0" d="M727.2,281.3c1-0.5,2-0.9,3-0.9c1.5,0,2.6,0.8,2.6,3.2v5.2c0,0.2-0.1,0.3-0.3,0.3h-0.9
				c-0.1,0-0.3-0.1-0.3-0.3v-5.5c0-1.2-0.6-1.5-1.4-1.5c-0.8,0-1.9,0.4-2.6,0.9v6.2c0,0.2-0.1,0.3-0.3,0.3h-0.8
				c-0.2,0-0.3-0.1-0.3-0.3v-7.9c0-0.1,0.1-0.3,0.3-0.3h0.7c0.2,0,0.3,0.1,0.3,0.3V281.3z"/>
			<path class="st0" d="M743.2,283.3v5.4c0,0.1-0.1,0.3-0.3,0.3h-0.8c-0.2,0-0.3-0.1-0.3-0.3v-10.6c0-0.1,0.1-0.3,0.3-0.3h0.8
				c0.2,0,0.3,0.1,0.3,0.3v3.8h4.1v-3.8c0-0.1,0.1-0.3,0.3-0.3h0.8c0.2,0,0.3,0.1,0.3,0.3v10.6c0,0.1-0.1,0.3-0.3,0.3h-0.8
				c-0.2,0-0.3-0.1-0.3-0.3v-5.4H743.2z"/>
			<path class="st0" d="M756.1,287.8h2.4c0.2,0,0.3,0.1,0.3,0.3v0.6c0,0.2-0.1,0.3-0.3,0.3h-6.2c-0.2,0-0.3-0.1-0.3-0.3v-0.6
				c0-0.2,0.1-0.3,0.3-0.3h2.4v-6h-1.2c-0.1,0-0.3-0.1-0.3-0.3v-0.7c0-0.2,0.1-0.3,0.3-0.3h2.2c0.2,0,0.4,0.2,0.4,0.4V287.8z
				 M755,276.6c0.6,0,1.2,0.5,1.2,1.2c0,0.6-0.5,1.2-1.2,1.2c-0.6,0-1.2-0.5-1.2-1.2C753.8,277.1,754.3,276.6,755,276.6z"/>
			<path class="st0" d="M763,282.6c-0.1,0.9,1,1.3,2.3,1.6c2.5,0.6,3.3,1.5,3.2,2.9c-0.1,1.2-1.4,2.1-3.4,2.1c-0.9,0-1.9-0.2-3-0.5
				c-0.2-0.1-0.3-0.2-0.3-0.4l0.1-0.4c0.1-0.2,0.2-0.3,0.5-0.2c1,0.2,1.9,0.4,2.6,0.4c1.1,0,2-0.3,2.1-1.1c0.1-0.9-1-1.3-2.3-1.6
				c-2.5-0.6-3.4-1.4-3.3-2.9c0.1-1.2,1.3-2.1,3.2-2.1c0.9,0,1.8,0.2,2.9,0.5c0.2,0.1,0.3,0.2,0.3,0.4l-0.1,0.4
				c-0.1,0.2-0.2,0.3-0.5,0.2c-1-0.2-1.8-0.4-2.6-0.4C763.8,281.5,763.1,281.8,763,282.6z"/>
			<path class="st0" d="M779,281v5.1c0,1.1,1.1,1.9,2.2,1.9c0.7,0,1.5-0.4,1.9-0.9c0.2-0.2,0.4-0.2,0.5,0l0.4,0.3
				c0.2,0.1,0.2,0.4,0.1,0.5c-0.8,1.1-2,1.4-2.9,1.4c-2,0-3.6-1.5-3.6-3.3v-5c0-1.8,1.6-3.2,3.6-3.2c0.9,0,2.1,0.3,2.9,1.4
				c0.1,0.1,0.1,0.4-0.1,0.5l-0.4,0.3c-0.2,0.1-0.4,0.1-0.5,0c-0.5-0.5-1.2-0.9-1.9-0.9C780.1,279,779,279.9,779,281z"/>
			<path class="st0" d="M788.7,281.2c1-0.5,2-0.9,2.9-0.9c1.5,0,2.6,0.8,2.6,3.2v5.2c0,0.2-0.1,0.3-0.3,0.3H793
				c-0.1,0-0.3-0.1-0.3-0.3v-5.5c0-1.2-0.6-1.5-1.4-1.5c-0.8,0-1.9,0.4-2.6,0.9v6.2c0,0.2-0.1,0.3-0.3,0.3h-0.8
				c-0.2,0-0.3-0.1-0.3-0.3v-11.6c0-0.1,0.1-0.3,0.3-0.3h0.8c0.2,0,0.3,0.1,0.3,0.3V281.2z"/>
			<path class="st0" d="M801,287.8h2.4c0.2,0,0.3,0.1,0.3,0.3v0.6c0,0.2-0.1,0.3-0.3,0.3h-6.2c-0.2,0-0.3-0.1-0.3-0.3v-0.6
				c0-0.2,0.1-0.3,0.3-0.3h2.4v-6h-1.2c-0.1,0-0.3-0.1-0.3-0.3v-0.7c0-0.2,0.1-0.3,0.3-0.3h2.2c0.2,0,0.4,0.2,0.4,0.4V287.8z
				 M799.9,276.6c0.6,0,1.2,0.5,1.2,1.2c0,0.6-0.5,1.2-1.2,1.2c-0.6,0-1.2-0.5-1.2-1.2C798.7,277.1,799.2,276.6,799.9,276.6z"/>
			<path class="st0" d="M810.7,287.8h2.4c0.2,0,0.3,0.1,0.3,0.3v0.6c0,0.2-0.1,0.3-0.3,0.3h-6.2c-0.2,0-0.3-0.1-0.3-0.3v-0.6
				c0-0.2,0.1-0.3,0.3-0.3h2.4v-9.7H808c-0.1,0-0.3-0.1-0.3-0.3v-0.7c0-0.2,0.1-0.3,0.3-0.3h2.2c0.2,0,0.4,0.2,0.4,0.4V287.8z"/>
			<path class="st0" d="M822.7,276.9c0.2,0,0.3,0.1,0.3,0.3v11.6c0,0.1-0.1,0.3-0.3,0.3H822c-0.1,0-0.3-0.1-0.3-0.2v-0.6
				c-0.5,0.7-1.3,1-2.2,1c-1.9,0-3.4-1.5-3.4-3.3v-2.3c0-1.8,1.5-3.2,3.4-3.2c0.8,0,1.5,0.3,2.1,0.8v-4.1c0-0.1,0.1-0.3,0.3-0.3
				H822.7z M817.5,285.9c0,1.2,0.9,2.1,2.1,2.1s2.1-0.9,2.1-2.1v-2.2c0-1.2-0.9-2.1-2.1-2.1s-2.1,0.9-2.1,2.1V285.9z"/>
			<path class="st0" d="M829,282.4c0.7-1.5,1.9-1.9,3.2-1.9h0.4c0.2,0,0.3,0.1,0.3,0.3v0.6c0,0.2-0.1,0.3-0.3,0.3h-0.4
				c-1.9,0-2.7,1.2-3.2,2v4h2.3c0.2,0,0.3,0.1,0.3,0.3v0.6c0,0.2-0.1,0.3-0.3,0.3h-4.8c-0.2,0-0.3-0.1-0.3-0.3v-0.6
				c0-0.2,0.1-0.3,0.3-0.3h1.3v-6h-1.3c-0.2,0-0.3-0.1-0.3-0.3v-0.7c0-0.2,0.1-0.3,0.3-0.3h2.2c0.2,0,0.4,0.2,0.4,0.4V282.4z"/>
			<path class="st0" d="M837,285.2v0.6c0,1.8,1,2.1,3.7,2.1c0.2,0,0.3,0.1,0.3,0.3v0.5c0,0.2-0.1,0.3-0.3,0.3H840
				c-2.5,0-4.4-0.4-4.4-3.3v-2.1c0-1.8,1.5-3.2,3.4-3.2s3.4,1.4,3.4,3.2v0.9c0,0.4-0.3,0.7-0.7,0.7H837z M837,284h4v-0.5
				c0-1.1-0.9-1.9-2-1.9s-2,0.9-2,1.9V284z"/>
			<path class="st0" d="M846.8,281.3c1-0.5,2-0.9,3-0.9c1.5,0,2.6,0.8,2.6,3.2v5.2c0,0.2-0.1,0.3-0.3,0.3h-0.9
				c-0.1,0-0.3-0.1-0.3-0.3v-5.5c0-1.2-0.6-1.5-1.4-1.5c-0.8,0-1.9,0.4-2.6,0.9v6.2c0,0.2-0.1,0.3-0.3,0.3h-0.8
				c-0.2,0-0.3-0.1-0.3-0.3v-7.9c0-0.1,0.1-0.3,0.3-0.3h0.7c0.2,0,0.3,0.1,0.3,0.3V281.3z"/>
		</g>
	</g>
	<g>
		<g>
			<path class="st0" d="M582,397.3h-2.5l-1.1,4.1c0,0.2-0.2,0.3-0.3,0.3h-0.8c-0.1,0-0.3-0.1-0.2-0.3l2.8-10.5
				c0.1-0.3,0.2-0.4,0.5-0.4h0.8c0.3,0,0.4,0.1,0.5,0.4l2.8,10.5c0,0.1-0.1,0.3-0.2,0.3h-0.8c-0.2,0-0.3-0.1-0.3-0.3L582,397.3z
				 M579.8,396h1.9l-0.9-3.8L579.8,396z"/>
			<path class="st0" d="M588.8,393.7c0.6-0.4,1.3-0.6,2-0.6c0.5,0,1,0.2,1.2,0.6c0.6-0.4,1.4-0.7,2.1-0.7c0.9,0,1.6,0.5,1.6,1.9v6.4
				c0,0.2-0.1,0.3-0.3,0.3h-0.9c-0.2,0-0.3-0.1-0.3-0.3v-6.3c0-0.6-0.3-0.8-0.7-0.8c-0.4,0-0.8,0.1-1.3,0.4c0,0.1,0,0.2,0,0.3v6.4
				c0,0.2-0.1,0.3-0.3,0.3h-0.8c-0.1,0-0.3-0.1-0.3-0.3v-6.3c0-0.6-0.3-0.8-0.7-0.8s-1,0.2-1.4,0.4v6.7c0,0.2-0.1,0.3-0.3,0.3h-0.8
				c-0.2,0-0.3-0.1-0.3-0.3v-7.9c0-0.1,0.1-0.3,0.3-0.3h0.7c0.2,0,0.3,0.1,0.3,0.3V393.7z"/>
			<path class="st0" d="M600,397.8v0.6c0,1.8,1,2.1,3.7,2.1c0.2,0,0.3,0.1,0.3,0.3v0.5c0,0.2-0.1,0.3-0.3,0.3H603
				c-2.5,0-4.4-0.4-4.4-3.3v-2.1c0-1.8,1.5-3.2,3.4-3.2s3.4,1.4,3.4,3.2v0.9c0,0.4-0.3,0.7-0.7,0.7H600z M600,396.6h4v-0.5
				c0-1.1-0.9-1.9-2-1.9s-2,0.9-2,1.9V396.6z"/>
			<path class="st0" d="M611,395.1c0.7-1.5,1.9-1.9,3.2-1.9h0.4c0.2,0,0.3,0.1,0.3,0.3v0.6c0,0.2-0.1,0.3-0.3,0.3h-0.4
				c-1.9,0-2.7,1.2-3.2,2v4h2.3c0.2,0,0.3,0.1,0.3,0.3v0.6c0,0.2-0.1,0.3-0.3,0.3h-4.8c-0.2,0-0.3-0.1-0.3-0.3v-0.6
				c0-0.2,0.1-0.3,0.3-0.3h1.3v-6h-1.3c-0.2,0-0.3-0.1-0.3-0.3v-0.7c0-0.2,0.1-0.3,0.3-0.3h2.2c0.2,0,0.4,0.2,0.4,0.4V395.1z"/>
			<path class="st0" d="M621.6,400.4h2.4c0.2,0,0.3,0.1,0.3,0.3v0.6c0,0.2-0.1,0.3-0.3,0.3h-6.2c-0.2,0-0.3-0.1-0.3-0.3v-0.6
				c0-0.2,0.1-0.3,0.3-0.3h2.4v-6H619c-0.1,0-0.3-0.1-0.3-0.3v-0.7c0-0.2,0.1-0.3,0.3-0.3h2.2c0.2,0,0.4,0.2,0.4,0.4V400.4z
				 M620.5,389.2c0.6,0,1.2,0.5,1.2,1.2c0,0.6-0.5,1.2-1.2,1.2c-0.6,0-1.2-0.5-1.2-1.2C619.4,389.7,619.9,389.2,620.5,389.2z"/>
			<path class="st0" d="M632.3,399.7c0.1-0.2,0.3-0.2,0.5-0.1l0.4,0.3c0.2,0.1,0.1,0.4,0,0.5c-0.8,1.1-1.9,1.4-2.7,1.4
				c-1.9,0-3.4-1.5-3.4-3.3v-2.4c0-1.8,1.5-3.2,3.4-3.2c0.8,0,1.9,0.3,2.7,1.4c0.1,0.1,0.1,0.4,0,0.5l-0.4,0.3
				c-0.2,0.1-0.3,0.1-0.5-0.1c-0.4-0.5-1.1-0.9-1.8-0.9c-1.1,0-2.1,0.9-2.1,1.9v2.4c0,1.1,1,1.9,2.1,1.9
				C631.2,400.6,631.9,400.2,632.3,399.7z"/>
			<path class="st0" d="M641.3,401c-0.6,0.5-1.6,0.8-2.6,0.8c-1.5,0-2.9-0.8-3-2.5c-0.1-1.8,1.6-2.8,3.5-2.8h2v-0.6
				c0-1.8-1.2-1.5-3.7-1.5c-0.2,0-0.3-0.1-0.3-0.3v-0.5c0-0.2,0.1-0.3,0.3-0.3c0.7-0.1,1.3-0.1,1.8-0.1c2.2,0,3.2,0.6,3.2,3.3v5
				c0,0.2-0.1,0.3-0.3,0.3h-0.7c-0.1,0-0.3-0.1-0.3-0.3V401z M641.3,397.6h-2c-1.5,0-2.3,0.7-2.2,1.7c0.1,0.9,0.8,1.3,1.7,1.3
				c0.9,0,2-0.4,2.5-1V397.6z"/>
			<path class="st0" d="M647.4,393.9c1-0.5,2-0.9,3-0.9c1.5,0,2.6,0.8,2.6,3.2v5.2c0,0.2-0.1,0.3-0.3,0.3h-0.9
				c-0.1,0-0.3-0.1-0.3-0.3v-5.5c0-1.2-0.6-1.5-1.4-1.5c-0.8,0-1.9,0.4-2.6,0.9v6.2c0,0.2-0.1,0.3-0.3,0.3h-0.8
				c-0.2,0-0.3-0.1-0.3-0.3v-7.9c0-0.1,0.1-0.3,0.3-0.3h0.7c0.2,0,0.3,0.1,0.3,0.3V393.9z"/>
			<path class="st0" d="M661.7,398.6v-5c0-1.8,1.6-3.2,3.6-3.2c0.9,0,2.1,0.3,2.9,1.4c0.1,0.1,0.1,0.4-0.1,0.5l-0.4,0.3
				c-0.2,0.1-0.4,0.1-0.5,0c-0.5-0.5-1.2-0.9-1.9-0.9c-1.2,0-2.2,0.9-2.2,1.9v5.1c0,1.1,1.1,1.9,2.2,1.9c1.2,0,2.3-0.9,2.3-1.9v-1.9
				h-2.2c-0.1,0-0.3-0.1-0.3-0.3v-0.7c0-0.2,0.1-0.3,0.3-0.3h2.8c0.5,0,0.9,0.4,0.9,0.9v2.3c0,1.8-1.7,3.3-3.7,3.3
				C663.4,401.9,661.7,400.4,661.7,398.6z"/>
			<path class="st0" d="M677.7,400.9c-0.9,0.5-2,0.9-2.9,0.9c-1.5,0-2.6-0.8-2.6-3.2v-5.2c0-0.2,0.1-0.3,0.3-0.3h0.9
				c0.1,0,0.3,0.1,0.3,0.3v5.5c0,1.2,0.6,1.5,1.4,1.5c0.9,0,1.9-0.4,2.6-0.8v-6.2c0-0.2,0.1-0.3,0.3-0.3h0.8c0.2,0,0.3,0.1,0.3,0.3
				v7.9c0,0.1-0.1,0.3-0.3,0.3H678c-0.2,0-0.3-0.1-0.3-0.3V400.9z"/>
			<path class="st0" d="M686.4,400.4h2.4c0.2,0,0.3,0.1,0.3,0.3v0.6c0,0.2-0.1,0.3-0.3,0.3h-6.2c-0.2,0-0.3-0.1-0.3-0.3v-0.6
				c0-0.2,0.1-0.3,0.3-0.3h2.4v-6h-1.2c-0.1,0-0.3-0.1-0.3-0.3v-0.7c0-0.2,0.1-0.3,0.3-0.3h2.2c0.2,0,0.4,0.2,0.4,0.4V400.4z
				 M685.3,389.2c0.6,0,1.2,0.5,1.2,1.2c0,0.6-0.5,1.2-1.2,1.2c-0.6,0-1.2-0.5-1.2-1.2C684.1,389.7,684.6,389.2,685.3,389.2z"/>
			<path class="st0" d="M696.1,400.4h2.4c0.2,0,0.3,0.1,0.3,0.3v0.6c0,0.2-0.1,0.3-0.3,0.3h-6.2c-0.2,0-0.3-0.1-0.3-0.3v-0.6
				c0-0.2,0.1-0.3,0.3-0.3h2.4v-9.7h-1.2c-0.1,0-0.3-0.1-0.3-0.3v-0.7c0-0.2,0.1-0.3,0.3-0.3h2.2c0.2,0,0.4,0.2,0.4,0.4V400.4z"/>
			<path class="st0" d="M704.3,398c0,2.4,0.8,2.5,3.5,2.5c0.2,0,0.3,0.1,0.3,0.3v0.6c0,0.2-0.1,0.3-0.3,0.3h-0.5
				c-2.5,0-4.4-0.4-4.4-3.3v-4h-1.2c-0.2,0-0.3-0.1-0.3-0.3v-0.7c0-0.1,0.1-0.3,0.3-0.3h1.2v-3.4c0-0.2,0.1-0.3,0.3-0.3h0.8
				c0.2,0,0.3,0.1,0.3,0.3v3.4h2.7c0.2,0,0.3,0.1,0.3,0.3v0.7c0,0.2-0.1,0.3-0.3,0.3h-2.7V398z"/>
		</g>
	</g>
	<g>
		<g>
			<path class="st0" d="M580.1,516.9h-2.4c-0.1,0-0.3-0.1-0.3-0.3v-0.8c0-0.2,0.1-0.3,0.3-0.3h6.4c0.1,0,0.3,0.1,0.3,0.3v0.8
				c0,0.2-0.1,0.3-0.3,0.3h-2.5v9.5c0,0.1-0.1,0.3-0.3,0.3h-0.8c-0.2,0-0.3-0.1-0.3-0.3V516.9z"/>
			<path class="st0" d="M589.1,519c1-0.5,2-0.9,2.9-0.9c1.5,0,2.6,0.8,2.6,3.2v5.2c0,0.2-0.1,0.3-0.3,0.3h-0.9
				c-0.1,0-0.3-0.1-0.3-0.3V521c0-1.2-0.6-1.5-1.4-1.5c-0.8,0-1.9,0.4-2.6,0.9v6.2c0,0.2-0.1,0.3-0.3,0.3H588
				c-0.2,0-0.3-0.1-0.3-0.3v-11.6c0-0.1,0.1-0.3,0.3-0.3h0.8c0.2,0,0.3,0.1,0.3,0.3V519z"/>
			<path class="st0" d="M598.8,522.9v0.6c0,1.8,1,2.1,3.7,2.1c0.2,0,0.3,0.1,0.3,0.3v0.5c0,0.2-0.1,0.3-0.3,0.3h-0.7
				c-2.5,0-4.4-0.4-4.4-3.3v-2.1c0-1.8,1.5-3.2,3.4-3.2c1.9,0,3.4,1.4,3.4,3.2v0.9c0,0.4-0.3,0.7-0.7,0.7H598.8z M598.8,521.7h4
				v-0.5c0-1.1-0.9-1.9-2-1.9s-2,0.9-2,1.9V521.7z"/>
			<path class="st0" d="M615.5,516.9h-2.4c-0.1,0-0.3-0.1-0.3-0.3v-0.8c0-0.2,0.1-0.3,0.3-0.3h6.4c0.1,0,0.3,0.1,0.3,0.3v0.8
				c0,0.2-0.1,0.3-0.3,0.3H617v8.5h2.5c0.1,0,0.3,0.1,0.3,0.3v0.8c0,0.2-0.1,0.3-0.3,0.3h-6.4c-0.1,0-0.3-0.1-0.3-0.3v-0.8
				c0-0.2,0.1-0.3,0.3-0.3h2.4V516.9z"/>
			<path class="st0" d="M624.5,519c1-0.5,2-0.9,3-0.9c1.5,0,2.6,0.8,2.6,3.2v5.2c0,0.2-0.1,0.3-0.3,0.3h-0.9c-0.1,0-0.3-0.1-0.3-0.3
				V521c0-1.2-0.6-1.5-1.4-1.5c-0.8,0-1.9,0.4-2.6,0.9v6.2c0,0.2-0.1,0.3-0.3,0.3h-0.8c-0.2,0-0.3-0.1-0.3-0.3v-7.9
				c0-0.1,0.1-0.3,0.3-0.3h0.7c0.2,0,0.3,0.1,0.3,0.3V519z"/>
			<path class="st0" d="M635.6,523.1c0,2.4,0.8,2.5,3.5,2.5c0.2,0,0.3,0.1,0.3,0.3v0.6c0,0.2-0.1,0.3-0.3,0.3h-0.5
				c-2.5,0-4.4-0.4-4.4-3.3v-4H633c-0.2,0-0.3-0.1-0.3-0.3v-0.7c0-0.1,0.1-0.3,0.3-0.3h1.2v-3.4c0-0.2,0.1-0.3,0.3-0.3h0.8
				c0.2,0,0.3,0.1,0.3,0.3v3.4h2.7c0.2,0,0.3,0.1,0.3,0.3v0.7c0,0.2-0.1,0.3-0.3,0.3h-2.7V523.1z"/>
			<path class="st0" d="M643.5,522.9v0.6c0,1.8,1,2.1,3.7,2.1c0.2,0,0.3,0.1,0.3,0.3v0.5c0,0.2-0.1,0.3-0.3,0.3h-0.7
				c-2.5,0-4.4-0.4-4.4-3.3v-2.1c0-1.8,1.5-3.2,3.4-3.2s3.4,1.4,3.4,3.2v0.9c0,0.4-0.3,0.7-0.7,0.7H643.5z M643.5,521.7h4v-0.5
				c0-1.1-0.9-1.9-2-1.9s-2,0.9-2,1.9V521.7z"/>
			<path class="st0" d="M654.4,520.2c0.7-1.5,1.9-1.9,3.2-1.9h0.4c0.2,0,0.3,0.1,0.3,0.3v0.6c0,0.2-0.1,0.3-0.3,0.3h-0.4
				c-1.9,0-2.7,1.2-3.2,2v4h2.3c0.2,0,0.3,0.1,0.3,0.3v0.6c0,0.2-0.1,0.3-0.3,0.3h-4.8c-0.2,0-0.3-0.1-0.3-0.3v-0.6
				c0-0.2,0.1-0.3,0.3-0.3h1.3v-6h-1.3c-0.2,0-0.3-0.1-0.3-0.3v-0.7c0-0.2,0.1-0.3,0.3-0.3h2.2c0.2,0,0.4,0.2,0.4,0.4V520.2z"/>
			<path class="st0" d="M662.6,519c1-0.5,2-0.9,3-0.9c1.5,0,2.6,0.8,2.6,3.2v5.2c0,0.2-0.1,0.3-0.3,0.3H667c-0.1,0-0.3-0.1-0.3-0.3
				V521c0-1.2-0.6-1.5-1.4-1.5c-0.8,0-1.9,0.4-2.6,0.9v6.2c0,0.2-0.1,0.3-0.3,0.3h-0.8c-0.2,0-0.3-0.1-0.3-0.3v-7.9
				c0-0.1,0.1-0.3,0.3-0.3h0.7c0.2,0,0.3,0.1,0.3,0.3V519z"/>
			<path class="st0" d="M672.5,522.9v0.6c0,1.8,1,2.1,3.7,2.1c0.2,0,0.3,0.1,0.3,0.3v0.5c0,0.2-0.1,0.3-0.3,0.3h-0.7
				c-2.5,0-4.4-0.4-4.4-3.3v-2.1c0-1.8,1.5-3.2,3.4-3.2s3.4,1.4,3.4,3.2v0.9c0,0.4-0.3,0.7-0.7,0.7H672.5z M672.5,521.7h4v-0.5
				c0-1.1-0.9-1.9-2-1.9s-2,0.9-2,1.9V521.7z"/>
			<path class="st0" d="M683.3,523.1c0,2.4,0.8,2.5,3.5,2.5c0.2,0,0.3,0.1,0.3,0.3v0.6c0,0.2-0.1,0.3-0.3,0.3h-0.5
				c-2.5,0-4.4-0.4-4.4-3.3v-4h-1.2c-0.2,0-0.3-0.1-0.3-0.3v-0.7c0-0.1,0.1-0.3,0.3-0.3h1.2v-3.4c0-0.2,0.1-0.3,0.3-0.3h0.8
				c0.2,0,0.3,0.1,0.3,0.3v3.4h2.7c0.2,0,0.3,0.1,0.3,0.3v0.7c0,0.2-0.1,0.3-0.3,0.3h-2.7V523.1z"/>
			<path class="st0" d="M695.5,521.3c0-1.8,1.5-3.2,3.5-3.2c1.9,0,3.4,1.4,3.4,3.2v2.3c0,1.8-1.5,3.3-3.4,3.3c-2,0-3.5-1.5-3.5-3.3
				V521.3z M701,523.8v-2.5c0-1.1-0.9-1.9-2.1-1.9s-2,0.9-2,1.9v2.5c0,1,0.9,1.9,2,1.9S701,524.8,701,523.8z"/>
			<path class="st0" d="M711.1,518.3c0.1,0,0.3,0.1,0.3,0.3v0.7c0,0.2-0.1,0.3-0.3,0.3h-2.7v6h2.7c0.1,0,0.3,0.1,0.3,0.3v0.6
				c0,0.2-0.1,0.3-0.3,0.3h-5.4c-0.2,0-0.3-0.1-0.3-0.3v-0.6c0-0.2,0.1-0.3,0.3-0.3h1.3v-6h-1.3c-0.1,0-0.3-0.1-0.3-0.3v-0.7
				c0-0.2,0.1-0.3,0.3-0.3h1.3v-0.4c0-2.9,1.9-3.3,4.4-3.3h0.5c0.2,0,0.3,0.1,0.3,0.3v0.6c0,0.2-0.1,0.3-0.3,0.3
				c-2.6,0-3.5,0-3.5,2.1v0.4H711.1z"/>
			<path class="st0" d="M720.9,515.9c0-0.1,0.1-0.3,0.3-0.3h0.8c0.2,0,0.3,0.1,0.3,0.3v9.5h5.2c0.1,0,0.3,0.1,0.3,0.3v0.8
				c0,0.2-0.1,0.3-0.3,0.3h-6.2c-0.2,0-0.4-0.2-0.4-0.4V515.9z"/>
			<path class="st0" d="M730.6,521.3c0-1.8,1.5-3.2,3.5-3.2c1.9,0,3.4,1.4,3.4,3.2v2.3c0,1.8-1.5,3.3-3.4,3.3c-2,0-3.5-1.5-3.5-3.3
				V521.3z M736.1,523.8v-2.5c0-1.1-0.9-1.9-2.1-1.9c-1.1,0-2,0.9-2,1.9v2.5c0,1,0.9,1.9,2,1.9C735.1,525.7,736.1,524.8,736.1,523.8
				z"/>
			<path class="st0" d="M745.7,518.5c0.1-0.2,0.2-0.3,0.4-0.3h0.8c0.2,0,0.3,0.1,0.2,0.3l-2.8,7.7c-0.1,0.3-0.4,0.5-0.7,0.5
				s-0.6-0.2-0.7-0.5l-2.8-7.7c-0.1-0.2,0.1-0.3,0.2-0.3h0.8c0.2,0,0.3,0.1,0.4,0.3l1.6,5c0,0,0.4,1.3,0.5,1.7
				c0.1-0.4,0.5-1.7,0.5-1.7L745.7,518.5z"/>
			<path class="st0" d="M751.2,522.9v0.6c0,1.8,1,2.1,3.7,2.1c0.2,0,0.3,0.1,0.3,0.3v0.5c0,0.2-0.1,0.3-0.3,0.3h-0.7
				c-2.5,0-4.4-0.4-4.4-3.3v-2.1c0-1.8,1.5-3.2,3.4-3.2s3.4,1.4,3.4,3.2v0.9c0,0.4-0.3,0.7-0.7,0.7H751.2z M751.2,521.7h4v-0.5
				c0-1.1-0.9-1.9-2-1.9s-2,0.9-2,1.9V521.7z"/>
		</g>
	</g>
	<g>
		<g>
			<path class="st0" d="M584.2,627.6c0.1,0,0.3,0.1,0.3,0.3v0.8c0,0.2-0.1,0.3-0.3,0.3H579v2.8h2.9c0.1,0,0.3,0.1,0.3,0.3v0.7
				c0,0.2-0.1,0.3-0.3,0.3H579v4.4h5.2c0.1,0,0.3,0.1,0.3,0.3v0.8c0,0.2-0.1,0.3-0.3,0.3H578c-0.2,0-0.4-0.2-0.4-0.4V628
				c0-0.2,0.2-0.4,0.4-0.4H584.2z"/>
			<path class="st0" d="M592.5,630.5c0.1-0.2,0.2-0.3,0.4-0.3h0.8c0.2,0,0.3,0.1,0.2,0.3l-2.8,7.7c-0.1,0.3-0.4,0.5-0.7,0.5
				c-0.4,0-0.6-0.2-0.7-0.5l-2.8-7.7c-0.1-0.2,0.1-0.3,0.2-0.3h0.8c0.2,0,0.3,0.1,0.4,0.3l1.6,5c0,0,0.4,1.3,0.5,1.7
				c0.1-0.4,0.5-1.7,0.5-1.7L592.5,630.5z"/>
			<path class="st0" d="M598,634.8v0.6c0,1.8,1,2.1,3.7,2.1c0.2,0,0.3,0.1,0.3,0.3v0.5c0,0.2-0.1,0.3-0.3,0.3h-0.7
				c-2.5,0-4.4-0.4-4.4-3.3v-2.1c0-1.8,1.5-3.2,3.4-3.2s3.4,1.4,3.4,3.2v0.9c0,0.4-0.3,0.7-0.7,0.7H598z M598,633.7h4v-0.5
				c0-1.1-0.9-1.9-2-1.9s-2,0.9-2,1.9V633.7z"/>
			<path class="st0" d="M608.9,632.1c0.7-1.5,1.9-1.9,3.2-1.9h0.4c0.2,0,0.3,0.1,0.3,0.3v0.6c0,0.2-0.1,0.3-0.3,0.3h-0.4
				c-1.9,0-2.7,1.2-3.2,2v4h2.3c0.2,0,0.3,0.1,0.3,0.3v0.6c0,0.2-0.1,0.3-0.3,0.3h-4.8c-0.2,0-0.3-0.1-0.3-0.3v-0.6
				c0-0.2,0.1-0.3,0.3-0.3h1.3v-6h-1.3c-0.2,0-0.3-0.1-0.3-0.3v-0.7c0-0.2,0.1-0.3,0.3-0.3h2.2c0.2,0,0.4,0.2,0.4,0.4V632.1z"/>
			<path class="st0" d="M620.9,638c-0.9,0.6-1.7,0.8-2.8,0.8c-1.5,0-2.6-0.8-2.6-3.2v-5.2c0-0.2,0.1-0.3,0.3-0.3h0.9
				c0.1,0,0.3,0.1,0.3,0.3v5.5c0,1.2,0.6,1.5,1.4,1.5c1,0,2-0.4,2.6-0.8v-6.2c0-0.2,0.1-0.3,0.3-0.3h0.9c0.2,0,0.3,0.1,0.3,0.3v8.6
				c0,2.9-1.9,3.3-4.4,3.3h-0.6c-0.2,0-0.3-0.1-0.3-0.3v-0.5c0-0.2,0.1-0.3,0.3-0.3c2.8,0,3.6-0.2,3.6-2.3V638z"/>
			<path class="st0" d="M625.7,633.3c0-1.8,1.5-3.2,3.5-3.2c1.9,0,3.4,1.4,3.4,3.2v2.3c0,1.8-1.5,3.3-3.4,3.3c-2,0-3.5-1.5-3.5-3.3
				V633.3z M631.2,635.7v-2.5c0-1.1-0.9-1.9-2.1-1.9c-1.1,0-2,0.9-2,1.9v2.5c0,1,0.9,1.9,2,1.9C630.3,637.6,631.2,636.7,631.2,635.7
				z"/>
			<path class="st0" d="M637.3,630.9c1-0.5,2-0.9,3-0.9c1.5,0,2.6,0.8,2.6,3.2v5.2c0,0.2-0.1,0.3-0.3,0.3h-0.9
				c-0.1,0-0.3-0.1-0.3-0.3v-5.5c0-1.2-0.6-1.5-1.4-1.5c-0.8,0-1.9,0.4-2.6,0.9v6.2c0,0.2-0.1,0.3-0.3,0.3h-0.8
				c-0.2,0-0.3-0.1-0.3-0.3v-7.9c0-0.1,0.1-0.3,0.3-0.3h0.7c0.2,0,0.3,0.1,0.3,0.3V630.9z"/>
			<path class="st0" d="M647.1,634.8v0.6c0,1.8,1,2.1,3.7,2.1c0.2,0,0.3,0.1,0.3,0.3v0.5c0,0.2-0.1,0.3-0.3,0.3h-0.7
				c-2.5,0-4.4-0.4-4.4-3.3v-2.1c0-1.8,1.5-3.2,3.4-3.2s3.4,1.4,3.4,3.2v0.9c0,0.4-0.3,0.7-0.7,0.7H647.1z M647.1,633.7h4v-0.5
				c0-1.1-0.9-1.9-2-1.9s-2,0.9-2,1.9V633.7z"/>
			<path class="st0" d="M665.8,634.3h-2.5l-1.1,4.1c0,0.2-0.2,0.3-0.3,0.3h-0.8c-0.1,0-0.3-0.1-0.2-0.3l2.8-10.5
				c0.1-0.3,0.2-0.4,0.5-0.4h0.8c0.3,0,0.4,0.1,0.5,0.4l2.8,10.5c0,0.1-0.1,0.3-0.2,0.3h-0.8c-0.2,0-0.3-0.1-0.3-0.3L665.8,634.3z
				 M663.6,633h1.9l-0.9-3.8L663.6,633z"/>
			<path class="st0" d="M676,636.7c0.1-0.2,0.3-0.2,0.5-0.1l0.4,0.3c0.2,0.1,0.1,0.4,0,0.5c-0.8,1.1-1.9,1.4-2.7,1.4
				c-1.9,0-3.4-1.5-3.4-3.3v-2.4c0-1.8,1.5-3.2,3.4-3.2c0.8,0,1.9,0.3,2.7,1.4c0.1,0.1,0.1,0.4,0,0.5l-0.4,0.3
				c-0.2,0.1-0.3,0.1-0.5-0.1c-0.4-0.5-1.1-0.9-1.8-0.9c-1.1,0-2.1,0.9-2.1,1.9v2.4c0,1.1,1,1.9,2.1,1.9
				C674.9,637.6,675.6,637.3,676,636.7z"/>
			<path class="st0" d="M682.4,635c0,2.4,0.8,2.5,3.5,2.5c0.2,0,0.3,0.1,0.3,0.3v0.6c0,0.2-0.1,0.3-0.3,0.3h-0.5
				c-2.5,0-4.4-0.4-4.4-3.3v-4h-1.2c-0.2,0-0.3-0.1-0.3-0.3v-0.7c0-0.1,0.1-0.3,0.3-0.3h1.2v-3.4c0-0.2,0.1-0.3,0.3-0.3h0.8
				c0.2,0,0.3,0.1,0.3,0.3v3.4h2.7c0.2,0,0.3,0.1,0.3,0.3v0.7c0,0.2-0.1,0.3-0.3,0.3h-2.7V635z"/>
			<path class="st0" d="M690.1,632.2c-0.1,0.9,1,1.3,2.3,1.6c2.5,0.6,3.3,1.5,3.2,2.9c-0.1,1.2-1.4,2.1-3.4,2.1
				c-0.9,0-1.9-0.2-3-0.5c-0.2-0.1-0.3-0.2-0.3-0.4l0.1-0.4c0.1-0.2,0.2-0.3,0.5-0.2c1,0.2,1.9,0.4,2.6,0.4c1.1,0,2-0.3,2.1-1.1
				c0.1-0.9-1-1.3-2.3-1.6c-2.5-0.6-3.4-1.4-3.3-2.9c0.1-1.2,1.3-2.1,3.2-2.1c0.9,0,1.8,0.2,2.9,0.5c0.2,0.1,0.3,0.2,0.3,0.4
				l-0.1,0.4c-0.1,0.2-0.2,0.3-0.5,0.2c-1-0.2-1.8-0.4-2.6-0.4C690.9,631.2,690.2,631.5,690.1,632.2z"/>
			<path class="st0" d="M706.1,630.6v5.1c0,1.1,1.1,1.9,2.3,1.9c0.7,0,1.5-0.4,1.9-0.9c0.2-0.2,0.4-0.2,0.5,0l0.4,0.3
				c0.2,0.1,0.2,0.4,0.1,0.5c-0.8,1.1-2,1.4-2.9,1.4c-2,0-3.6-1.5-3.6-3.3v-5c0-1.8,1.6-3.2,3.6-3.2c0.9,0,2.1,0.3,2.9,1.4
				c0.1,0.1,0.1,0.4-0.1,0.5l-0.4,0.3c-0.2,0.1-0.4,0.1-0.5,0c-0.5-0.5-1.2-0.9-1.9-0.9C707.2,628.7,706.1,629.6,706.1,630.6z"/>
			<path class="st0" d="M716.8,632.1c0.7-1.5,1.9-1.9,3.2-1.9h0.4c0.2,0,0.3,0.1,0.3,0.3v0.6c0,0.2-0.1,0.3-0.3,0.3h-0.4
				c-1.9,0-2.7,1.2-3.2,2v4h2.3c0.2,0,0.3,0.1,0.3,0.3v0.6c0,0.2-0.1,0.3-0.3,0.3h-4.8c-0.2,0-0.3-0.1-0.3-0.3v-0.6
				c0-0.2,0.1-0.3,0.3-0.3h1.3v-6h-1.3c-0.2,0-0.3-0.1-0.3-0.3v-0.7c0-0.2,0.1-0.3,0.3-0.3h2.2c0.2,0,0.4,0.2,0.4,0.4V632.1z"/>
			<path class="st0" d="M728.7,638c-0.6,0.5-1.6,0.8-2.6,0.8c-1.5,0-2.9-0.8-3-2.5c-0.1-1.8,1.6-2.8,3.5-2.8h2v-0.6
				c0-1.8-1.2-1.5-3.7-1.5c-0.2,0-0.3-0.1-0.3-0.3v-0.5c0-0.2,0.1-0.3,0.3-0.3c0.7-0.1,1.3-0.1,1.8-0.1c2.2,0,3.2,0.6,3.2,3.3v5
				c0,0.2-0.1,0.3-0.3,0.3H729c-0.1,0-0.3-0.1-0.3-0.3V638z M728.7,634.6h-2c-1.5,0-2.3,0.7-2.2,1.7c0.1,0.9,0.8,1.3,1.7,1.3
				c0.9,0,2-0.4,2.5-1V634.6z"/>
			<path class="st0" d="M733.6,638.7c-0.2,0-0.4-0.2-0.4-0.4v-0.7l5-6.2h-4.5c-0.1,0-0.3-0.1-0.3-0.3v-0.7c0-0.2,0.1-0.3,0.3-0.3
				h5.8c0.2,0,0.4,0.2,0.4,0.4v0.7l-5,6.2h4.5c0.1,0,0.3,0.1,0.3,0.3v0.6c0,0.2-0.1,0.3-0.3,0.3H733.6z"/>
			<path class="st0" d="M748.4,638c-0.9,0.6-1.7,0.8-2.8,0.8c-1.5,0-2.6-0.8-2.6-3.2v-5.2c0-0.2,0.1-0.3,0.3-0.3h0.9
				c0.1,0,0.3,0.1,0.3,0.3v5.5c0,1.2,0.6,1.5,1.4,1.5c1,0,2-0.4,2.6-0.8v-6.2c0-0.2,0.1-0.3,0.3-0.3h0.9c0.2,0,0.3,0.1,0.3,0.3v8.6
				c0,2.9-1.9,3.3-4.4,3.3h-0.6c-0.2,0-0.3-0.1-0.3-0.3v-0.5c0-0.2,0.1-0.3,0.3-0.3c2.8,0,3.6-0.2,3.6-2.3V638z"/>
			<path class="st0" d="M766.2,638.4c0,0.2-0.1,0.3-0.3,0.3h-1l-4.2-8.1v7.8c0,0.1-0.1,0.3-0.3,0.3h-0.8c-0.2,0-0.3-0.1-0.3-0.3
				v-10.5c0-0.2,0.1-0.3,0.3-0.3h1l4.2,8.1v-7.8c0-0.1,0.1-0.3,0.3-0.3h0.8c0.2,0,0.3,0.1,0.3,0.3V638.4z"/>
			<path class="st0" d="M769.5,633.3c0-1.8,1.5-3.2,3.5-3.2c1.9,0,3.4,1.4,3.4,3.2v2.3c0,1.8-1.5,3.3-3.4,3.3c-2,0-3.5-1.5-3.5-3.3
				V633.3z M775.1,635.7v-2.5c0-1.1-0.9-1.9-2.1-1.9s-2,0.9-2,1.9v2.5c0,1,0.9,1.9,2,1.9S775.1,636.7,775.1,635.7z"/>
			<path class="st0" d="M783.3,635.7L783.3,635.7l-1.1,3h-0.6c-0.2,0-0.3-0.1-0.4-0.3l-1.6-7.9c0-0.2,0.1-0.3,0.3-0.3h0.8
				c0.2,0,0.3,0.1,0.4,0.3l0.9,6.1l0.8-2.5c0-0.1,0.1-0.2,0.2-0.2h0.7c0.1,0,0.2,0.1,0.2,0.2l0.8,2.5l0.9-6.1c0-0.2,0.2-0.3,0.4-0.3
				h0.8c0.2,0,0.3,0.1,0.3,0.3l-1.6,7.9c0,0.2-0.2,0.3-0.4,0.3h-0.6L783.3,635.7z"/>
			<path class="st0" d="M795.3,638c-0.6,0.5-1.6,0.8-2.6,0.8c-1.5,0-2.9-0.8-3-2.5c-0.1-1.8,1.6-2.8,3.5-2.8h2v-0.6
				c0-1.8-1.2-1.5-3.7-1.5c-0.2,0-0.3-0.1-0.3-0.3v-0.5c0-0.2,0.1-0.3,0.3-0.3c0.7-0.1,1.3-0.1,1.8-0.1c2.2,0,3.2,0.6,3.2,3.3v5
				c0,0.2-0.1,0.3-0.3,0.3h-0.7c-0.1,0-0.3-0.1-0.3-0.3V638z M795.3,634.6h-2c-1.5,0-2.3,0.7-2.2,1.7c0.1,0.9,0.8,1.3,1.7,1.3
				c0.9,0,2-0.4,2.5-1V634.6z"/>
			<path class="st0" d="M806.1,626.5c0.2,0,0.3,0.1,0.3,0.3v11.6c0,0.1-0.1,0.3-0.3,0.3h-0.7c-0.1,0-0.3-0.1-0.3-0.2v-0.6
				c-0.5,0.7-1.3,1-2.2,1c-1.9,0-3.4-1.5-3.4-3.3v-2.3c0-1.8,1.5-3.2,3.4-3.2c0.8,0,1.5,0.3,2.1,0.8v-4.1c0-0.1,0.1-0.3,0.3-0.3
				H806.1z M800.9,635.6c0,1.2,0.9,2.1,2.1,2.1s2.1-0.9,2.1-2.1v-2.2c0-1.2-0.9-2.1-2.1-2.1s-2.1,0.9-2.1,2.1V635.6z"/>
			<path class="st0" d="M815,638c-0.6,0.5-1.6,0.8-2.6,0.8c-1.5,0-2.9-0.8-3-2.5c-0.1-1.8,1.6-2.8,3.5-2.8h2v-0.6
				c0-1.8-1.2-1.5-3.7-1.5c-0.2,0-0.3-0.1-0.3-0.3v-0.5c0-0.2,0.1-0.3,0.3-0.3c0.7-0.1,1.3-0.1,1.8-0.1c2.2,0,3.2,0.6,3.2,3.3v5
				c0,0.2-0.1,0.3-0.3,0.3h-0.7c-0.1,0-0.3-0.1-0.3-0.3V638z M815,634.6h-2c-1.5,0-2.3,0.7-2.2,1.7c0.1,0.9,0.8,1.3,1.7,1.3
				c0.9,0,2-0.4,2.5-1V634.6z"/>
			<path class="st0" d="M824.9,638c-0.9,0.6-1.7,0.8-2.8,0.8c-1.5,0-2.6-0.8-2.6-3.2v-5.2c0-0.2,0.1-0.3,0.3-0.3h0.9
				c0.1,0,0.3,0.1,0.3,0.3v5.5c0,1.2,0.6,1.5,1.4,1.5c1,0,2-0.4,2.6-0.8v-6.2c0-0.2,0.1-0.3,0.3-0.3h0.9c0.2,0,0.3,0.1,0.3,0.3v8.6
				c0,2.9-1.9,3.3-4.4,3.3h-0.6c-0.2,0-0.3-0.1-0.3-0.3v-0.5c0-0.2,0.1-0.3,0.3-0.3c2.8,0,3.6-0.2,3.6-2.3V638z"/>
			<path class="st0" d="M831,632.2c-0.1,0.9,1,1.3,2.3,1.6c2.5,0.6,3.3,1.5,3.2,2.9c-0.1,1.2-1.4,2.1-3.4,2.1c-0.9,0-1.9-0.2-3-0.5
				c-0.2-0.1-0.3-0.2-0.3-0.4l0.1-0.4c0.1-0.2,0.2-0.3,0.5-0.2c1,0.2,1.9,0.4,2.6,0.4c1.1,0,2-0.3,2.1-1.1c0.1-0.9-1-1.3-2.2-1.6
				c-2.5-0.6-3.4-1.4-3.3-2.9c0.1-1.2,1.3-2.1,3.2-2.1c0.9,0,1.8,0.2,2.9,0.5c0.2,0.1,0.3,0.2,0.3,0.4l-0.1,0.4
				c-0.1,0.2-0.2,0.3-0.5,0.2c-1-0.2-1.8-0.4-2.6-0.4C831.7,631.2,831,631.5,831,632.2z"/>
		</g>
	</g>
	<g>
		<g>
			<path class="st0" d="M1079.6,279.8h-2.4c-0.1,0-0.3-0.1-0.3-0.3v-0.8c0-0.2,0.1-0.3,0.3-0.3h6.4c0.1,0,0.3,0.1,0.3,0.3v0.8
				c0,0.2-0.1,0.3-0.3,0.3h-2.5v9.5c0,0.1-0.1,0.3-0.3,0.3h-0.8c-0.2,0-0.3-0.1-0.3-0.3V279.8z"/>
			<path class="st0" d="M1088.6,281.9c1-0.5,2-0.9,2.9-0.9c1.5,0,2.6,0.8,2.6,3.2v5.2c0,0.2-0.1,0.3-0.3,0.3h-0.9
				c-0.1,0-0.3-0.1-0.3-0.3v-5.5c0-1.2-0.6-1.5-1.4-1.5c-0.8,0-1.9,0.4-2.6,0.9v6.2c0,0.2-0.1,0.3-0.3,0.3h-0.8
				c-0.2,0-0.3-0.1-0.3-0.3v-11.6c0-0.1,0.1-0.3,0.3-0.3h0.8c0.2,0,0.3,0.1,0.3,0.3V281.9z"/>
			<path class="st0" d="M1100.9,288.4h2.4c0.2,0,0.3,0.1,0.3,0.3v0.6c0,0.2-0.1,0.3-0.3,0.3h-6.2c-0.2,0-0.3-0.1-0.3-0.3v-0.6
				c0-0.2,0.1-0.3,0.3-0.3h2.4v-6h-1.2c-0.1,0-0.3-0.1-0.3-0.3v-0.7c0-0.2,0.1-0.3,0.3-0.3h2.2c0.2,0,0.4,0.2,0.4,0.4V288.4z
				 M1099.8,277.2c0.6,0,1.2,0.5,1.2,1.2c0,0.6-0.5,1.2-1.2,1.2c-0.6,0-1.2-0.5-1.2-1.2C1098.7,277.7,1099.2,277.2,1099.8,277.2z"/>
			<path class="st0" d="M1107.9,283.2c-0.1,0.9,1,1.3,2.3,1.6c2.5,0.6,3.3,1.5,3.2,2.9c-0.1,1.2-1.4,2.1-3.4,2.1
				c-0.9,0-1.9-0.2-3-0.5c-0.2-0.1-0.3-0.2-0.3-0.4l0.1-0.4c0.1-0.2,0.2-0.3,0.5-0.2c1,0.2,1.9,0.4,2.6,0.4c1.1,0,2-0.3,2.1-1.1
				c0.1-0.9-1-1.3-2.3-1.6c-2.5-0.6-3.4-1.4-3.3-2.9c0.1-1.2,1.3-2.1,3.2-2.1c0.9,0,1.8,0.2,2.9,0.5c0.2,0.1,0.3,0.2,0.3,0.4
				l-0.1,0.4c-0.1,0.2-0.2,0.3-0.5,0.2c-1-0.2-1.8-0.4-2.6-0.4C1108.7,282.1,1108,282.4,1107.9,283.2z"/>
			<path class="st0" d="M1125.7,278.5c2,0,3.6,1.5,3.6,3.3v4.6c0,1.8-1.6,3.3-3.6,3.3h-2.9c-0.2,0-0.4-0.2-0.4-0.4v-10.4
				c0-0.2,0.2-0.4,0.4-0.4H1125.7z M1125.7,288.3c1.2,0,2.3-0.9,2.3-1.9v-4.6c0-1.1-1.1-1.9-2.3-1.9h-1.8v8.5H1125.7z"/>
			<path class="st0" d="M1132.2,284.2c0-1.8,1.5-3.2,3.5-3.2c1.9,0,3.4,1.4,3.4,3.2v2.3c0,1.8-1.5,3.3-3.4,3.3c-2,0-3.5-1.5-3.5-3.3
				V284.2z M1137.7,286.7v-2.5c0-1.1-0.9-1.9-2.1-1.9s-2,0.9-2,1.9v2.5c0,1,0.9,1.9,2,1.9S1137.7,287.7,1137.7,286.7z"/>
			<path class="st0" d="M1142.1,284.2c0-1.8,1.5-3.2,3.5-3.2c1.9,0,3.4,1.4,3.4,3.2v2.3c0,1.8-1.5,3.3-3.4,3.3c-2,0-3.5-1.5-3.5-3.3
				V284.2z M1147.7,286.7v-2.5c0-1.1-0.9-1.9-2.1-1.9c-1.1,0-2,0.9-2,1.9v2.5c0,1,0.9,1.9,2,1.9
				C1146.7,288.6,1147.7,287.7,1147.7,286.7z"/>
			<path class="st0" d="M1153.7,281.7c0.6-0.4,1.3-0.6,2-0.6c0.5,0,1,0.2,1.2,0.6c0.6-0.4,1.4-0.7,2.1-0.7c0.9,0,1.6,0.5,1.6,1.9
				v6.4c0,0.2-0.1,0.3-0.3,0.3h-0.9c-0.2,0-0.3-0.1-0.3-0.3v-6.3c0-0.6-0.3-0.8-0.7-0.8c-0.4,0-0.8,0.1-1.3,0.4c0,0.1,0,0.2,0,0.3
				v6.4c0,0.2-0.1,0.3-0.3,0.3h-0.8c-0.1,0-0.3-0.1-0.3-0.3v-6.3c0-0.6-0.3-0.8-0.7-0.8s-1,0.2-1.4,0.4v6.7c0,0.2-0.1,0.3-0.3,0.3
				h-0.8c-0.2,0-0.3-0.1-0.3-0.3v-7.9c0-0.1,0.1-0.3,0.3-0.3h0.7c0.2,0,0.3,0.1,0.3,0.3V281.7z"/>
			<path class="st0" d="M1164.9,283.2c-0.1,0.9,1,1.3,2.3,1.6c2.5,0.6,3.3,1.5,3.2,2.9c-0.1,1.2-1.4,2.1-3.4,2.1
				c-0.9,0-1.9-0.2-3-0.5c-0.2-0.1-0.3-0.2-0.3-0.4l0.1-0.4c0.1-0.2,0.2-0.3,0.5-0.2c1,0.2,1.9,0.4,2.6,0.4c1.1,0,2-0.3,2.1-1.1
				c0.1-0.9-1-1.3-2.3-1.6c-2.5-0.6-3.4-1.4-3.3-2.9c0.1-1.2,1.3-2.1,3.2-2.1c0.9,0,1.8,0.2,2.9,0.5c0.2,0.1,0.3,0.2,0.3,0.4
				l-0.1,0.4c-0.1,0.2-0.2,0.3-0.5,0.2c-1-0.2-1.8-0.4-2.6-0.4C1165.6,282.1,1164.9,282.4,1164.9,283.2z"/>
			<path class="st0" d="M1179.8,277.5c0.2,0,0.3,0.1,0.3,0.3v11.6c0,0.1-0.1,0.3-0.3,0.3h-0.7c-0.1,0-0.3-0.1-0.3-0.2v-0.6
				c-0.5,0.7-1.3,1-2.2,1c-1.9,0-3.4-1.5-3.4-3.3v-2.3c0-1.8,1.5-3.2,3.4-3.2c0.8,0,1.5,0.3,2.1,0.8v-4.1c0-0.1,0.1-0.3,0.3-0.3
				H1179.8z M1174.5,286.5c0,1.2,0.9,2.1,2.1,2.1s2.1-0.9,2.1-2.1v-2.2c0-1.2-0.9-2.1-2.1-2.1s-2.1,0.9-2.1,2.1V286.5z"/>
			<path class="st0" d="M1188.7,289c-0.6,0.5-1.6,0.8-2.6,0.8c-1.5,0-2.9-0.8-3-2.5c-0.1-1.8,1.6-2.8,3.5-2.8h2v-0.6
				c0-1.8-1.2-1.5-3.7-1.5c-0.2,0-0.3-0.1-0.3-0.3v-0.5c0-0.2,0.1-0.3,0.3-0.3c0.7-0.1,1.3-0.1,1.8-0.1c2.2,0,3.2,0.6,3.2,3.3v5
				c0,0.2-0.1,0.3-0.3,0.3h-0.7c-0.1,0-0.3-0.1-0.3-0.3V289z M1188.7,285.6h-2c-1.5,0-2.3,0.7-2.2,1.7c0.1,0.9,0.8,1.3,1.7,1.3
				c0.9,0,2-0.4,2.5-1V285.6z"/>
			<path class="st0" d="M1198.5,289c-0.9,0.6-1.7,0.8-2.8,0.8c-1.5,0-2.6-0.8-2.6-3.2v-5.2c0-0.2,0.1-0.3,0.3-0.3h0.9
				c0.1,0,0.3,0.1,0.3,0.3v5.5c0,1.2,0.6,1.5,1.4,1.5c1,0,2-0.4,2.6-0.8v-6.2c0-0.2,0.1-0.3,0.3-0.3h0.9c0.2,0,0.3,0.1,0.3,0.3v8.6
				c0,2.9-1.9,3.3-4.4,3.3h-0.6c-0.2,0-0.3-0.1-0.3-0.3v-0.5c0-0.2,0.1-0.3,0.3-0.3c2.8,0,3.6-0.2,3.6-2.3V289z"/>
		</g>
	</g>
	<g>
		<g>
			<path class="st0" d="M1078.5,397v5.4c0,0.1-0.1,0.3-0.3,0.3h-0.8c-0.2,0-0.3-0.1-0.3-0.3v-10.6c0-0.1,0.1-0.3,0.3-0.3h0.8
				c0.2,0,0.3,0.1,0.3,0.3v3.8h4.1v-3.8c0-0.1,0.1-0.3,0.3-0.3h0.8c0.2,0,0.3,0.1,0.3,0.3v10.6c0,0.1-0.1,0.3-0.3,0.3h-0.8
				c-0.2,0-0.3-0.1-0.3-0.3V397H1078.5z"/>
			<path class="st0" d="M1087.3,397.2c0-1.8,1.5-3.2,3.5-3.2c1.9,0,3.4,1.4,3.4,3.2v2.3c0,1.8-1.5,3.3-3.4,3.3c-2,0-3.5-1.5-3.5-3.3
				V397.2z M1092.8,399.7v-2.5c0-1.1-0.9-1.9-2.1-1.9c-1.1,0-2,0.9-2,1.9v2.5c0,1,0.9,1.9,2,1.9
				C1091.9,401.6,1092.8,400.7,1092.8,399.7z"/>
			<path class="st0" d="M1101.1,399.6L1101.1,399.6l-1.1,3h-0.6c-0.2,0-0.3-0.1-0.4-0.3l-1.6-7.9c0-0.2,0.1-0.3,0.3-0.3h0.8
				c0.2,0,0.3,0.1,0.4,0.3l0.9,6.1l0.8-2.5c0-0.1,0.1-0.2,0.2-0.2h0.7c0.1,0,0.2,0.1,0.2,0.2l0.8,2.5l0.9-6.1c0-0.2,0.2-0.3,0.4-0.3
				h0.8c0.2,0,0.3,0.1,0.3,0.3l-1.6,7.9c0,0.2-0.2,0.3-0.4,0.3h-0.6L1101.1,399.6z"/>
			<path class="st0" d="M1120.7,402.4c0,0.1-0.1,0.3-0.3,0.3h-0.8c-0.2,0-0.3-0.1-0.3-0.3v-8.2l-1.6,2.9c-0.1,0.2-0.3,0.4-0.5,0.4
				s-0.4-0.1-0.5-0.4l-1.6-2.9v8.2c0,0.1-0.1,0.3-0.3,0.3h-0.8c-0.2,0-0.3-0.1-0.3-0.3v-10.5c0-0.2,0.1-0.3,0.3-0.3h1l2.1,4.1
				l2.1-4.1h1c0.2,0,0.3,0.2,0.3,0.3V402.4z"/>
			<path class="st0" d="M1129.3,402c-0.6,0.5-1.6,0.8-2.6,0.8c-1.5,0-2.9-0.8-3-2.5c-0.1-1.8,1.6-2.8,3.5-2.8h2v-0.6
				c0-1.8-1.2-1.5-3.7-1.5c-0.2,0-0.3-0.1-0.3-0.3v-0.5c0-0.2,0.1-0.3,0.3-0.3c0.7-0.1,1.3-0.1,1.8-0.1c2.2,0,3.2,0.6,3.2,3.3v5
				c0,0.2-0.1,0.3-0.3,0.3h-0.7c-0.1,0-0.3-0.1-0.3-0.3V402z M1129.3,398.6h-2c-1.5,0-2.3,0.7-2.2,1.7c0.1,0.9,0.8,1.3,1.7,1.3
				c0.9,0,2-0.4,2.5-1V398.6z"/>
			<path class="st0" d="M1135.4,394.9c1-0.5,2-0.9,3-0.9c1.5,0,2.6,0.8,2.6,3.2v5.2c0,0.2-0.1,0.3-0.3,0.3h-0.9
				c-0.1,0-0.3-0.1-0.3-0.3v-5.5c0-1.2-0.6-1.5-1.4-1.5c-0.8,0-1.9,0.4-2.6,0.9v6.2c0,0.2-0.1,0.3-0.3,0.3h-0.8
				c-0.2,0-0.3-0.1-0.3-0.3v-7.9c0-0.1,0.1-0.3,0.3-0.3h0.7c0.2,0,0.3,0.1,0.3,0.3V394.9z"/>
			<path class="st0" d="M1149.3,402c-0.9,0.6-1.7,0.8-2.8,0.8c-1.5,0-2.6-0.8-2.6-3.2v-5.2c0-0.2,0.1-0.3,0.3-0.3h0.9
				c0.1,0,0.3,0.1,0.3,0.3v5.5c0,1.2,0.6,1.5,1.4,1.5c1,0,2-0.4,2.6-0.8v-6.2c0-0.2,0.1-0.3,0.3-0.3h0.9c0.2,0,0.3,0.1,0.3,0.3v8.6
				c0,2.9-1.9,3.3-4.4,3.3h-0.6c-0.2,0-0.3-0.1-0.3-0.3v-0.5c0-0.2,0.1-0.3,0.3-0.3c2.8,0,3.6-0.2,3.6-2.3V402z"/>
			<path class="st0" d="M1159.9,401.7l5-8.8h-4.4c-0.1,0-0.3-0.1-0.3-0.3v-0.8c0-0.2,0.1-0.3,0.3-0.3h5.9c0.2,0,0.4,0.2,0.4,0.4v0.5
				l-5,8.9h4.4c0.1,0,0.3,0.1,0.3,0.3v0.8c0,0.2-0.1,0.3-0.3,0.3h-5.9c-0.2,0-0.4-0.2-0.4-0.4V401.7z"/>
			<path class="st0" d="M1171.2,398.8v0.6c0,1.8,1,2.1,3.7,2.1c0.2,0,0.3,0.1,0.3,0.3v0.5c0,0.2-0.1,0.3-0.3,0.3h-0.7
				c-2.5,0-4.4-0.4-4.4-3.3v-2.1c0-1.8,1.5-3.2,3.4-3.2s3.4,1.4,3.4,3.2v0.9c0,0.4-0.3,0.7-0.7,0.7H1171.2z M1171.2,397.6h4v-0.5
				c0-1.1-0.9-1.9-2-1.9s-2,0.9-2,1.9V397.6z"/>
			<path class="st0" d="M1182.2,396.1c0.7-1.5,1.9-1.9,3.2-1.9h0.4c0.2,0,0.3,0.1,0.3,0.3v0.6c0,0.2-0.1,0.3-0.3,0.3h-0.4
				c-1.9,0-2.7,1.2-3.2,2v4h2.3c0.2,0,0.3,0.1,0.3,0.3v0.6c0,0.2-0.1,0.3-0.3,0.3h-4.8c-0.2,0-0.3-0.1-0.3-0.3v-0.6
				c0-0.2,0.1-0.3,0.3-0.3h1.3v-6h-1.3c-0.2,0-0.3-0.1-0.3-0.3v-0.7c0-0.2,0.1-0.3,0.3-0.3h2.2c0.2,0,0.4,0.2,0.4,0.4V396.1z"/>
			<path class="st0" d="M1188.8,397.2c0-1.8,1.5-3.2,3.5-3.2c1.9,0,3.4,1.4,3.4,3.2v2.3c0,1.8-1.5,3.3-3.4,3.3c-2,0-3.5-1.5-3.5-3.3
				V397.2z M1194.3,399.7v-2.5c0-1.1-0.9-1.9-2.1-1.9s-2,0.9-2,1.9v2.5c0,1,0.9,1.9,2,1.9S1194.3,400.7,1194.3,399.7z"/>
			<path class="st0" d="M1200,396.2c-0.1,0.9,1,1.3,2.3,1.6c2.5,0.6,3.3,1.5,3.2,2.9c-0.1,1.2-1.4,2.1-3.4,2.1c-0.9,0-1.9-0.2-3-0.5
				c-0.2-0.1-0.3-0.2-0.3-0.4l0.1-0.4c0.1-0.2,0.2-0.3,0.5-0.2c1,0.2,1.9,0.4,2.6,0.4c1.1,0,2-0.3,2.1-1.1c0.1-0.9-1-1.3-2.2-1.6
				c-2.5-0.6-3.4-1.4-3.3-2.9c0.1-1.2,1.3-2.1,3.2-2.1c0.9,0,1.8,0.2,2.9,0.5c0.2,0.1,0.3,0.2,0.3,0.4l-0.1,0.4
				c-0.1,0.2-0.2,0.3-0.5,0.2c-1-0.2-1.8-0.4-2.6-0.4C1200.8,395.1,1200.1,395.4,1200,396.2z"/>
		</g>
	</g>
	<g>
		<g>
			<path class="st0" d="M1084,526.4c0,0.2-0.1,0.3-0.3,0.3h-1l-4.2-8.1v7.8c0,0.1-0.1,0.3-0.3,0.3h-0.8c-0.2,0-0.3-0.1-0.3-0.3V516
				c0-0.2,0.1-0.3,0.3-0.3h1l4.2,8.1v-7.8c0-0.1,0.1-0.3,0.3-0.3h0.8c0.2,0,0.3,0.1,0.3,0.3V526.4z"/>
			<path class="st0" d="M1087.4,521.3c0-1.8,1.5-3.2,3.5-3.2c1.9,0,3.4,1.4,3.4,3.2v2.3c0,1.8-1.5,3.3-3.4,3.3c-2,0-3.5-1.5-3.5-3.3
				V521.3z M1092.9,523.8v-2.5c0-1.1-0.9-1.9-2.1-1.9c-1.1,0-2,0.9-2,1.9v2.5c0,1,0.9,1.9,2,1.9
				C1091.9,525.7,1092.9,524.8,1092.9,523.8z"/>
			<path class="st0" d="M1099.9,523.1c0,2.4,0.8,2.5,3.5,2.5c0.2,0,0.3,0.1,0.3,0.3v0.6c0,0.2-0.1,0.3-0.3,0.3h-0.5
				c-2.5,0-4.4-0.4-4.4-3.3v-4h-1.2c-0.2,0-0.3-0.1-0.3-0.3v-0.7c0-0.1,0.1-0.3,0.3-0.3h1.2v-3.4c0-0.2,0.1-0.3,0.3-0.3h0.8
				c0.2,0,0.3,0.1,0.3,0.3v3.4h2.7c0.2,0,0.3,0.1,0.3,0.3v0.7c0,0.2-0.1,0.3-0.3,0.3h-2.7V523.1z"/>
			<path class="st0" d="M1116.2,525.5h2.4c0.2,0,0.3,0.1,0.3,0.3v0.6c0,0.2-0.1,0.3-0.3,0.3h-6.2c-0.2,0-0.3-0.1-0.3-0.3v-0.6
				c0-0.2,0.1-0.3,0.3-0.3h2.4v-6h-1.2c-0.1,0-0.3-0.1-0.3-0.3v-0.7c0-0.2,0.1-0.3,0.3-0.3h2.2c0.2,0,0.4,0.2,0.4,0.4V525.5z
				 M1115.1,514.3c0.6,0,1.2,0.5,1.2,1.2c0,0.6-0.5,1.2-1.2,1.2c-0.6,0-1.2-0.5-1.2-1.2C1113.9,514.8,1114.5,514.3,1115.1,514.3z"/>
			<path class="st0" d="M1123.4,519c1-0.5,2-0.9,3-0.9c1.5,0,2.6,0.8,2.6,3.2v5.2c0,0.2-0.1,0.3-0.3,0.3h-0.9
				c-0.1,0-0.3-0.1-0.3-0.3V521c0-1.2-0.6-1.5-1.4-1.5c-0.8,0-1.9,0.4-2.6,0.9v6.2c0,0.2-0.1,0.3-0.3,0.3h-0.8
				c-0.2,0-0.3-0.1-0.3-0.3v-7.9c0-0.1,0.1-0.3,0.3-0.3h0.7c0.2,0,0.3,0.1,0.3,0.3V519z"/>
			<path class="st0" d="M1138,515.9c0-0.1,0.1-0.3,0.3-0.3h0.8c0.2,0,0.3,0.1,0.3,0.3v9.5h5.2c0.1,0,0.3,0.1,0.3,0.3v0.8
				c0,0.2-0.1,0.3-0.3,0.3h-6.2c-0.2,0-0.4-0.2-0.4-0.4V515.9z"/>
			<path class="st0" d="M1147.7,521.3c0-1.8,1.5-3.2,3.5-3.2c1.9,0,3.4,1.4,3.4,3.2v2.3c0,1.8-1.5,3.3-3.4,3.3c-2,0-3.5-1.5-3.5-3.3
				V521.3z M1153.2,523.8v-2.5c0-1.1-0.9-1.9-2.1-1.9c-1.1,0-2,0.9-2,1.9v2.5c0,1,0.9,1.9,2,1.9
				C1152.3,525.7,1153.2,524.8,1153.2,523.8z"/>
			<path class="st0" d="M1162.8,518.5c0.1-0.2,0.2-0.3,0.4-0.3h0.8c0.2,0,0.3,0.1,0.2,0.3l-2.8,7.7c-0.1,0.3-0.4,0.5-0.7,0.5
				s-0.6-0.2-0.7-0.5l-2.8-7.7c-0.1-0.2,0.1-0.3,0.2-0.3h0.8c0.2,0,0.3,0.1,0.4,0.3l1.6,5c0,0,0.4,1.3,0.5,1.7
				c0.1-0.4,0.5-1.7,0.5-1.7L1162.8,518.5z"/>
			<path class="st0" d="M1168.3,522.9v0.6c0,1.8,1,2.1,3.7,2.1c0.2,0,0.3,0.1,0.3,0.3v0.5c0,0.2-0.1,0.3-0.3,0.3h-0.7
				c-2.5,0-4.4-0.4-4.4-3.3v-2.1c0-1.8,1.5-3.2,3.4-3.2s3.4,1.4,3.4,3.2v0.9c0,0.4-0.3,0.7-0.7,0.7H1168.3z M1168.3,521.7h4v-0.5
				c0-1.1-0.9-1.9-2-1.9s-2,0.9-2,1.9V521.7z"/>
			<path class="st0" d="M1183.8,526.7c-0.2,0-0.4-0.1-0.4-0.4l-0.9-10.4c0-0.2,0.1-0.3,0.3-0.3h0.7c0.2,0,0.3,0.1,0.3,0.3l0.7,9.2
				l1.3-4.1c0.1-0.2,0.2-0.3,0.4-0.3h0.8c0.2,0,0.3,0.1,0.4,0.3l1.3,4.1l0.7-9.2c0-0.2,0.1-0.3,0.3-0.3h0.7c0.2,0,0.3,0.1,0.3,0.3
				l-0.9,10.4c0,0.2-0.2,0.4-0.4,0.4h-1.2l-1.5-4.2l-1.5,4.2H1183.8z"/>
			<path class="st0" d="M1195,522.9v0.6c0,1.8,1,2.1,3.7,2.1c0.2,0,0.3,0.1,0.3,0.3v0.5c0,0.2-0.1,0.3-0.3,0.3h-0.7
				c-2.5,0-4.4-0.4-4.4-3.3v-2.1c0-1.8,1.5-3.2,3.4-3.2s3.4,1.4,3.4,3.2v0.9c0,0.4-0.3,0.7-0.7,0.7H1195z M1195,521.7h4v-0.5
				c0-1.1-0.9-1.9-2-1.9s-2,0.9-2,1.9V521.7z"/>
			<path class="st0" d="M1206,520.2c0.7-1.5,1.9-1.9,3.2-1.9h0.4c0.2,0,0.3,0.1,0.3,0.3v0.6c0,0.2-0.1,0.3-0.3,0.3h-0.4
				c-1.9,0-2.7,1.2-3.2,2v4h2.3c0.2,0,0.3,0.1,0.3,0.3v0.6c0,0.2-0.1,0.3-0.3,0.3h-4.8c-0.2,0-0.3-0.1-0.3-0.3v-0.6
				c0-0.2,0.1-0.3,0.3-0.3h1.3v-6h-1.3c-0.2,0-0.3-0.1-0.3-0.3v-0.7c0-0.2,0.1-0.3,0.3-0.3h2.2c0.2,0,0.4,0.2,0.4,0.4V520.2z"/>
			<path class="st0" d="M1212.9,515.9c0-0.1,0.1-0.3,0.3-0.3h0.9c0.1,0,0.3,0.1,0.3,0.3v4.7c0,0.1-0.1,0.3-0.3,0.3h-0.9
				c-0.2,0-0.3-0.1-0.3-0.3V515.9z"/>
			<path class="st0" d="M1219,522.9v0.6c0,1.8,1,2.1,3.7,2.1c0.2,0,0.3,0.1,0.3,0.3v0.5c0,0.2-0.1,0.3-0.3,0.3h-0.7
				c-2.5,0-4.4-0.4-4.4-3.3v-2.1c0-1.8,1.5-3.2,3.4-3.2s3.4,1.4,3.4,3.2v0.9c0,0.4-0.3,0.7-0.7,0.7H1219z M1219,521.7h4v-0.5
				c0-1.1-0.9-1.9-2-1.9s-2,0.9-2,1.9V521.7z"/>
			<path class="st0" d="M1237,516.9h-3.7c-0.2,0-0.3-0.1-0.3-0.3v-0.7c0-0.1,0.1-0.3,0.3-0.3h6.4c0.1,0,0.3,0.1,0.3,0.3v0.7
				c0,0.2-0.1,0.3-0.3,0.3h-1.3v6.6c0,2.9-1.9,3.3-4.4,3.3h-0.6c-0.2,0-0.3-0.1-0.3-0.3v-0.7c0-0.2,0.1-0.3,0.3-0.3
				c2.9-0.1,3.6-0.1,3.6-2.4V516.9z"/>
			<path class="st0" d="M1248.6,526c-0.9,0.5-2,0.9-2.9,0.9c-1.5,0-2.6-0.8-2.6-3.2v-5.2c0-0.2,0.1-0.3,0.3-0.3h0.9
				c0.1,0,0.3,0.1,0.3,0.3v5.5c0,1.2,0.6,1.5,1.4,1.5c0.9,0,1.9-0.4,2.6-0.8v-6.2c0-0.2,0.1-0.3,0.3-0.3h0.8c0.2,0,0.3,0.1,0.3,0.3
				v7.9c0,0.1-0.1,0.3-0.3,0.3h-0.7c-0.2,0-0.3-0.1-0.3-0.3V526z"/>
			<path class="st0" d="M1254.5,520.3c-0.1,0.9,1,1.3,2.3,1.6c2.5,0.6,3.3,1.5,3.2,2.9c-0.1,1.2-1.4,2.1-3.4,2.1
				c-0.9,0-1.9-0.2-3-0.5c-0.2-0.1-0.3-0.2-0.3-0.4l0.1-0.4c0.1-0.2,0.2-0.3,0.5-0.2c1,0.2,1.9,0.4,2.6,0.4c1.1,0,2-0.3,2.1-1.1
				c0.1-0.9-1-1.3-2.2-1.6c-2.5-0.6-3.4-1.4-3.3-2.9c0.1-1.2,1.3-2.1,3.2-2.1c0.9,0,1.8,0.2,2.9,0.5c0.2,0.1,0.3,0.2,0.3,0.4
				l-0.1,0.4c-0.1,0.2-0.2,0.3-0.5,0.2c-1-0.2-1.8-0.4-2.6-0.4C1255.3,519.2,1254.6,519.5,1254.5,520.3z"/>
			<path class="st0" d="M1265.7,523.1c0,2.4,0.8,2.5,3.5,2.5c0.2,0,0.3,0.1,0.3,0.3v0.6c0,0.2-0.1,0.3-0.3,0.3h-0.5
				c-2.5,0-4.4-0.4-4.4-3.3v-4h-1.2c-0.2,0-0.3-0.1-0.3-0.3v-0.7c0-0.1,0.1-0.3,0.3-0.3h1.2v-3.4c0-0.2,0.1-0.3,0.3-0.3h0.8
				c0.2,0,0.3,0.1,0.3,0.3v3.4h2.7c0.2,0,0.3,0.1,0.3,0.3v0.7c0,0.2-0.1,0.3-0.3,0.3h-2.7V523.1z"/>
			<path class="st0" d="M1279.6,521.1v5.4c0,0.1-0.1,0.3-0.3,0.3h-0.8c-0.2,0-0.3-0.1-0.3-0.3v-10.6c0-0.1,0.1-0.3,0.3-0.3h0.8
				c0.2,0,0.3,0.1,0.3,0.3v3.8h4.1v-3.8c0-0.1,0.1-0.3,0.3-0.3h0.8c0.2,0,0.3,0.1,0.3,0.3v10.6c0,0.1-0.1,0.3-0.3,0.3h-0.8
				c-0.2,0-0.3-0.1-0.3-0.3v-5.4H1279.6z"/>
			<path class="st0" d="M1292.4,525.5h2.4c0.2,0,0.3,0.1,0.3,0.3v0.6c0,0.2-0.1,0.3-0.3,0.3h-6.2c-0.2,0-0.3-0.1-0.3-0.3v-0.6
				c0-0.2,0.1-0.3,0.3-0.3h2.4v-6h-1.2c-0.1,0-0.3-0.1-0.3-0.3v-0.7c0-0.2,0.1-0.3,0.3-0.3h2.2c0.2,0,0.4,0.2,0.4,0.4V525.5z
				 M1291.3,514.3c0.6,0,1.2,0.5,1.2,1.2c0,0.6-0.5,1.2-1.2,1.2c-0.6,0-1.2-0.5-1.2-1.2C1290.2,514.8,1290.7,514.3,1291.3,514.3z"/>
			<path class="st0" d="M1304.7,527.2c0,2.9-1.9,3.3-4.4,3.3h-0.6c-0.2,0-0.3-0.1-0.3-0.3v-0.5c0-0.2,0.1-0.3,0.3-0.3
				c2.8,0,3.6-0.2,3.6-2.3v-0.7c-0.6,0.5-1.3,0.7-2.1,0.7c-1.9,0-3.4-1.5-3.4-3.2v-2.3c0-1.8,1.5-3.2,3.4-3.2c0.9,0,1.8,0.4,2.2,1
				v-0.6c0-0.1,0.1-0.3,0.3-0.3h0.7c0.2,0,0.3,0.1,0.3,0.3V527.2z M1303.3,521.2c0-1-1-1.9-2.1-1.9c-1.1,0-2,0.9-2,1.9v2.5
				c0,1.1,0.9,1.9,2,1.9c1.1,0,2.1-0.8,2.1-1.9V521.2z"/>
			<path class="st0" d="M1309.7,519c1-0.5,2-0.9,2.9-0.9c1.5,0,2.6,0.8,2.6,3.2v5.2c0,0.2-0.1,0.3-0.3,0.3h-0.9
				c-0.1,0-0.3-0.1-0.3-0.3V521c0-1.2-0.6-1.5-1.4-1.5c-0.8,0-1.9,0.4-2.6,0.9v6.2c0,0.2-0.1,0.3-0.3,0.3h-0.8
				c-0.2,0-0.3-0.1-0.3-0.3v-11.6c0-0.1,0.1-0.3,0.3-0.3h0.8c0.2,0,0.3,0.1,0.3,0.3V519z"/>
		</g>
	</g>
	<g>
		<g>
			<path class="st0" d="M1079.6,629.1h-2.4c-0.1,0-0.3-0.1-0.3-0.3V628c0-0.2,0.1-0.3,0.3-0.3h6.4c0.1,0,0.3,0.1,0.3,0.3v0.8
				c0,0.2-0.1,0.3-0.3,0.3h-2.5v8.5h2.5c0.1,0,0.3,0.1,0.3,0.3v0.8c0,0.2-0.1,0.3-0.3,0.3h-6.4c-0.1,0-0.3-0.1-0.3-0.3v-0.8
				c0-0.2,0.1-0.3,0.3-0.3h2.4V629.1z"/>
			<path class="st0" d="M1092.6,630.4c0.1,0,0.3,0.1,0.3,0.3v0.7c0,0.2-0.1,0.3-0.3,0.3h-2.7v6h2.7c0.1,0,0.3,0.1,0.3,0.3v0.6
				c0,0.2-0.1,0.3-0.3,0.3h-5.4c-0.2,0-0.3-0.1-0.3-0.3v-0.6c0-0.2,0.1-0.3,0.3-0.3h1.3v-6h-1.3c-0.1,0-0.3-0.1-0.3-0.3v-0.7
				c0-0.2,0.1-0.3,0.3-0.3h1.3V630c0-2.9,1.9-3.3,4.4-3.3h0.5c0.2,0,0.3,0.1,0.3,0.3v0.6c0,0.2-0.1,0.3-0.3,0.3
				c-2.6,0-3.5,0-3.5,2.1v0.4H1092.6z"/>
			<path class="st0" d="M1105.1,632.8l-3-4.4c-0.1-0.1-0.1-0.3,0-0.3l0.7-0.5c0.1-0.1,0.3-0.1,0.4,0.1l2.6,3.9l2.6-3.9
				c0.1-0.1,0.3-0.1,0.4-0.1l0.7,0.5c0.1,0.1,0.1,0.2,0,0.3l-3,4.4v5.8c0,0.1-0.1,0.3-0.3,0.3h-0.8c-0.2,0-0.3-0.1-0.3-0.3V632.8z"
				/>
			<path class="st0" d="M1112.5,633.5c0-1.8,1.5-3.2,3.5-3.2c1.9,0,3.4,1.4,3.4,3.2v2.3c0,1.8-1.5,3.3-3.4,3.3c-2,0-3.5-1.5-3.5-3.3
				V633.5z M1118,635.9v-2.5c0-1.1-0.9-1.9-2.1-1.9c-1.1,0-2,0.9-2,1.9v2.5c0,1,0.9,1.9,2,1.9C1117.1,637.8,1118,636.9,1118,635.9z"
				/>
			<path class="st0" d="M1127.9,638.1c-0.9,0.5-2,0.9-2.9,0.9c-1.5,0-2.6-0.8-2.6-3.2v-5.2c0-0.2,0.1-0.3,0.3-0.3h0.9
				c0.1,0,0.3,0.1,0.3,0.3v5.5c0,1.2,0.6,1.5,1.4,1.5c0.9,0,1.9-0.4,2.6-0.8v-6.2c0-0.2,0.1-0.3,0.3-0.3h0.8c0.2,0,0.3,0.1,0.3,0.3
				v7.9c0,0.1-0.1,0.3-0.3,0.3h-0.7c-0.2,0-0.3-0.1-0.3-0.3V638.1z"/>
			<path class="st0" d="M1132.9,628c0-0.1,0.1-0.3,0.3-0.3h0.9c0.1,0,0.3,0.1,0.3,0.3v4.7c0,0.1-0.1,0.3-0.3,0.3h-0.9
				c-0.2,0-0.3-0.1-0.3-0.3V628z"/>
			<path class="st0" d="M1140.3,632.3c0.7-1.5,1.9-1.9,3.2-1.9h0.4c0.2,0,0.3,0.1,0.3,0.3v0.6c0,0.2-0.1,0.3-0.3,0.3h-0.4
				c-1.9,0-2.7,1.2-3.2,2v4h2.3c0.2,0,0.3,0.1,0.3,0.3v0.6c0,0.2-0.1,0.3-0.3,0.3h-4.8c-0.2,0-0.3-0.1-0.3-0.3v-0.6
				c0-0.2,0.1-0.3,0.3-0.3h1.3v-6h-1.3c-0.2,0-0.3-0.1-0.3-0.3v-0.7c0-0.2,0.1-0.3,0.3-0.3h2.2c0.2,0,0.4,0.2,0.4,0.4V632.3z"/>
			<path class="st0" d="M1148.3,635v0.6c0,1.8,1,2.1,3.7,2.1c0.2,0,0.3,0.1,0.3,0.3v0.5c0,0.2-0.1,0.3-0.3,0.3h-0.7
				c-2.5,0-4.4-0.4-4.4-3.3v-2.1c0-1.8,1.5-3.2,3.4-3.2s3.4,1.4,3.4,3.2v0.9c0,0.4-0.3,0.7-0.7,0.7H1148.3z M1148.3,633.8h4v-0.5
				c0-1.1-0.9-1.9-2-1.9s-2,0.9-2,1.9V633.8z"/>
			<path class="st0" d="M1162.4,635.8v-5c0-1.8,1.6-3.2,3.6-3.2c0.9,0,2.1,0.3,2.9,1.4c0.1,0.1,0.1,0.4-0.1,0.5l-0.4,0.3
				c-0.2,0.1-0.4,0.1-0.5,0c-0.5-0.5-1.2-0.9-1.9-0.9c-1.2,0-2.3,0.9-2.3,1.9v5.1c0,1.1,1.1,1.9,2.3,1.9s2.3-0.9,2.3-1.9V634h-2.2
				c-0.1,0-0.3-0.1-0.3-0.3V633c0-0.2,0.1-0.3,0.3-0.3h2.8c0.5,0,0.9,0.4,0.9,0.9v2.3c0,1.8-1.7,3.3-3.7,3.3
				C1164,639.1,1162.4,637.6,1162.4,635.8z"/>
			<path class="st0" d="M1172.8,633.5c0-1.8,1.5-3.2,3.5-3.2c1.9,0,3.4,1.4,3.4,3.2v2.3c0,1.8-1.5,3.3-3.4,3.3c-2,0-3.5-1.5-3.5-3.3
				V633.5z M1178.4,635.9v-2.5c0-1.1-0.9-1.9-2.1-1.9c-1.1,0-2,0.9-2,1.9v2.5c0,1,0.9,1.9,2,1.9
				C1177.4,637.8,1178.4,636.9,1178.4,635.9z"/>
			<path class="st0" d="M1186.9,637.6h2.4c0.2,0,0.3,0.1,0.3,0.3v0.6c0,0.2-0.1,0.3-0.3,0.3h-6.2c-0.2,0-0.3-0.1-0.3-0.3v-0.6
				c0-0.2,0.1-0.3,0.3-0.3h2.4v-6h-1.2c-0.1,0-0.3-0.1-0.3-0.3v-0.7c0-0.2,0.1-0.3,0.3-0.3h2.2c0.2,0,0.4,0.2,0.4,0.4V637.6z
				 M1185.8,626.4c0.6,0,1.2,0.5,1.2,1.2c0,0.6-0.5,1.2-1.2,1.2c-0.6,0-1.2-0.5-1.2-1.2C1184.6,626.9,1185.1,626.4,1185.8,626.4z"/>
			<path class="st0" d="M1194.1,631.1c1-0.5,2-0.9,3-0.9c1.5,0,2.6,0.8,2.6,3.2v5.2c0,0.2-0.1,0.3-0.3,0.3h-0.9
				c-0.1,0-0.3-0.1-0.3-0.3v-5.5c0-1.2-0.6-1.5-1.4-1.5c-0.8,0-1.9,0.4-2.6,0.9v6.2c0,0.2-0.1,0.3-0.3,0.3h-0.8
				c-0.2,0-0.3-0.1-0.3-0.3v-7.9c0-0.1,0.1-0.3,0.3-0.3h0.7c0.2,0,0.3,0.1,0.3,0.3V631.1z"/>
			<path class="st0" d="M1209.3,639.3c0,2.9-1.9,3.3-4.4,3.3h-0.6c-0.2,0-0.3-0.1-0.3-0.3v-0.5c0-0.2,0.1-0.3,0.3-0.3
				c2.8,0,3.6-0.2,3.6-2.3v-0.7c-0.6,0.5-1.3,0.7-2.1,0.7c-1.9,0-3.4-1.5-3.4-3.2v-2.3c0-1.8,1.5-3.2,3.4-3.2c0.9,0,1.8,0.4,2.2,1
				v-0.6c0-0.1,0.1-0.3,0.3-0.3h0.7c0.2,0,0.3,0.1,0.3,0.3V639.3z M1207.9,633.3c0-1-1-1.9-2.1-1.9c-1.1,0-2,0.9-2,1.9v2.5
				c0,1.1,0.9,1.9,2,1.9c1.1,0,2.1-0.8,2.1-1.9V633.3z"/>
			<path class="st0" d="M1221,635.2c0,2.4,0.8,2.5,3.5,2.5c0.2,0,0.3,0.1,0.3,0.3v0.6c0,0.2-0.1,0.3-0.3,0.3h-0.5
				c-2.5,0-4.4-0.4-4.4-3.3v-4h-1.2c-0.2,0-0.3-0.1-0.3-0.3v-0.7c0-0.1,0.1-0.3,0.3-0.3h1.2V627c0-0.2,0.1-0.3,0.3-0.3h0.8
				c0.2,0,0.3,0.1,0.3,0.3v3.4h2.7c0.2,0,0.3,0.1,0.3,0.3v0.7c0,0.2-0.1,0.3-0.3,0.3h-2.7V635.2z"/>
			<path class="st0" d="M1227.4,633.5c0-1.8,1.5-3.2,3.5-3.2c1.9,0,3.4,1.4,3.4,3.2v2.3c0,1.8-1.5,3.3-3.4,3.3c-2,0-3.5-1.5-3.5-3.3
				V633.5z M1232.9,635.9v-2.5c0-1.1-0.9-1.9-2.1-1.9c-1.1,0-2,0.9-2,1.9v2.5c0,1,0.9,1.9,2,1.9
				C1232,637.8,1232.9,636.9,1232.9,635.9z"/>
			<path class="st0" d="M1247.2,627.8c1.5,0,2.7,1.2,2.7,2.7v0.4c0,0.7-0.2,1.4-0.9,1.9c0.8,0.5,1.3,1.3,1.3,2.2v1.2
				c0,1.5-1.2,2.7-2.7,2.7h-3.8c-0.2,0-0.4-0.2-0.4-0.4v-10.4c0-0.2,0.2-0.4,0.4-0.4H1247.2z M1244.8,629.1v3.3h2.4
				c0.8,0,1.4-0.6,1.4-1.4v-0.5c0-0.8-0.7-1.4-1.4-1.4H1244.8z M1244.8,633.6v4h2.8c0.8,0,1.4-0.7,1.4-1.4V635
				c0-0.8-0.7-1.4-1.4-1.4H1244.8z"/>
			<path class="st0" d="M1255.9,632.3c0.7-1.5,1.9-1.9,3.2-1.9h0.4c0.2,0,0.3,0.1,0.3,0.3v0.6c0,0.2-0.1,0.3-0.3,0.3h-0.4
				c-1.9,0-2.7,1.2-3.2,2v4h2.3c0.2,0,0.3,0.1,0.3,0.3v0.6c0,0.2-0.1,0.3-0.3,0.3h-4.8c-0.2,0-0.3-0.1-0.3-0.3v-0.6
				c0-0.2,0.1-0.3,0.3-0.3h1.3v-6h-1.3c-0.2,0-0.3-0.1-0.3-0.3v-0.7c0-0.2,0.1-0.3,0.3-0.3h2.2c0.2,0,0.4,0.2,0.4,0.4V632.3z"/>
			<path class="st0" d="M1263.8,635v0.6c0,1.8,1,2.1,3.7,2.1c0.2,0,0.3,0.1,0.3,0.3v0.5c0,0.2-0.1,0.3-0.3,0.3h-0.7
				c-2.5,0-4.4-0.4-4.4-3.3v-2.1c0-1.8,1.5-3.2,3.4-3.2s3.4,1.4,3.4,3.2v0.9c0,0.4-0.3,0.7-0.7,0.7H1263.8z M1263.8,633.8h4v-0.5
				c0-1.1-0.9-1.9-2-1.9s-2,0.9-2,1.9V633.8z"/>
			<path class="st0" d="M1277.3,638.2c-0.6,0.5-1.6,0.8-2.6,0.8c-1.5,0-2.9-0.8-3-2.5c-0.1-1.8,1.6-2.8,3.5-2.8h2v-0.6
				c0-1.8-1.2-1.5-3.7-1.5c-0.2,0-0.3-0.1-0.3-0.3v-0.5c0-0.2,0.1-0.3,0.3-0.3c0.7-0.1,1.3-0.1,1.8-0.1c2.2,0,3.2,0.6,3.2,3.3v5
				c0,0.2-0.1,0.3-0.3,0.3h-0.7c-0.1,0-0.3-0.1-0.3-0.3V638.2z M1277.3,634.8h-2c-1.5,0-2.3,0.7-2.2,1.7c0.1,0.9,0.8,1.3,1.7,1.3
				c0.9,0,2-0.4,2.5-1V634.8z"/>
			<path class="st0" d="M1285,634.4l-1.5,1.4v2.8c0,0.2-0.1,0.3-0.3,0.3h-0.8c-0.2,0-0.3-0.1-0.3-0.3V627c0-0.2,0.1-0.3,0.3-0.3h0.8
				c0.1,0,0.3,0.1,0.3,0.3v7l3.8-3.7c0.1-0.1,0.2-0.1,0.3,0l0.6,0.6c0.1,0.1,0.1,0.2,0,0.3l-2.2,2.3l2.9,5c0.1,0.2,0,0.5-0.3,0.5
				h-0.7c-0.3,0-0.4-0.1-0.5-0.3L1285,634.4z"/>
			<path class="st0" d="M1300.3,632.8l-3-4.4c-0.1-0.1-0.1-0.3,0-0.3l0.7-0.5c0.1-0.1,0.3-0.1,0.4,0.1l2.6,3.9l2.6-3.9
				c0.1-0.1,0.3-0.1,0.4-0.1l0.7,0.5c0.1,0.1,0.1,0.2,0,0.3l-3,4.4v5.8c0,0.1-0.1,0.3-0.3,0.3h-0.8c-0.2,0-0.3-0.1-0.3-0.3V632.8z"
				/>
			<path class="st0" d="M1307.7,633.5c0-1.8,1.5-3.2,3.5-3.2c1.9,0,3.4,1.4,3.4,3.2v2.3c0,1.8-1.5,3.3-3.4,3.3c-2,0-3.5-1.5-3.5-3.3
				V633.5z M1313.2,635.9v-2.5c0-1.1-0.9-1.9-2.1-1.9c-1.1,0-2,0.9-2,1.9v2.5c0,1,0.9,1.9,2,1.9
				C1312.3,637.8,1313.2,636.9,1313.2,635.9z"/>
			<path class="st0" d="M1323.1,638.1c-0.9,0.5-2,0.9-2.9,0.9c-1.5,0-2.6-0.8-2.6-3.2v-5.2c0-0.2,0.1-0.3,0.3-0.3h0.9
				c0.1,0,0.3,0.1,0.3,0.3v5.5c0,1.2,0.6,1.5,1.4,1.5c0.9,0,1.9-0.4,2.6-0.8v-6.2c0-0.2,0.1-0.3,0.3-0.3h0.8c0.2,0,0.3,0.1,0.3,0.3
				v7.9c0,0.1-0.1,0.3-0.3,0.3h-0.7c-0.2,0-0.3-0.1-0.3-0.3V638.1z"/>
			<path class="st0" d="M1330.5,632.3c0.7-1.5,1.9-1.9,3.2-1.9h0.4c0.2,0,0.3,0.1,0.3,0.3v0.6c0,0.2-0.1,0.3-0.3,0.3h-0.4
				c-1.9,0-2.7,1.2-3.2,2v4h2.3c0.2,0,0.3,0.1,0.3,0.3v0.6c0,0.2-0.1,0.3-0.3,0.3h-4.8c-0.2,0-0.3-0.1-0.3-0.3v-0.6
				c0-0.2,0.1-0.3,0.3-0.3h1.3v-6h-1.3c-0.2,0-0.3-0.1-0.3-0.3v-0.7c0-0.2,0.1-0.3,0.3-0.3h2.2c0.2,0,0.4,0.2,0.4,0.4V632.3z"/>
			<path class="st0" d="M1338.4,632.4c-0.1,0.9,1,1.3,2.3,1.6c2.5,0.6,3.3,1.5,3.2,2.9c-0.1,1.2-1.4,2.1-3.4,2.1
				c-0.9,0-1.9-0.2-3-0.5c-0.2-0.1-0.3-0.2-0.3-0.4l0.1-0.4c0.1-0.2,0.2-0.3,0.5-0.2c1,0.2,1.9,0.4,2.6,0.4c1.1,0,2-0.3,2.1-1.1
				c0.1-0.9-1-1.3-2.2-1.6c-2.5-0.6-3.4-1.4-3.3-2.9c0.1-1.2,1.3-2.1,3.2-2.1c0.9,0,1.8,0.2,2.9,0.5c0.2,0.1,0.3,0.2,0.3,0.4
				l-0.1,0.4c-0.1,0.2-0.2,0.3-0.5,0.2c-1-0.2-1.8-0.4-2.6-0.4C1339.2,631.4,1338.5,631.6,1338.4,632.4z"/>
			<path class="st0" d="M1348.3,635v0.6c0,1.8,1,2.1,3.7,2.1c0.2,0,0.3,0.1,0.3,0.3v0.5c0,0.2-0.1,0.3-0.3,0.3h-0.7
				c-2.5,0-4.4-0.4-4.4-3.3v-2.1c0-1.8,1.5-3.2,3.4-3.2s3.4,1.4,3.4,3.2v0.9c0,0.4-0.3,0.7-0.7,0.7H1348.3z M1348.3,633.8h4v-0.5
				c0-1.1-0.9-1.9-2-1.9s-2,0.9-2,1.9V633.8z"/>
			<path class="st0" d="M1360.6,637.6h2.4c0.2,0,0.3,0.1,0.3,0.3v0.6c0,0.2-0.1,0.3-0.3,0.3h-6.2c-0.2,0-0.3-0.1-0.3-0.3v-0.6
				c0-0.2,0.1-0.3,0.3-0.3h2.4v-9.7h-1.2c-0.1,0-0.3-0.1-0.3-0.3V627c0-0.2,0.1-0.3,0.3-0.3h2.2c0.2,0,0.4,0.2,0.4,0.4V637.6z"/>
			<path class="st0" d="M1371.8,630.4c0.1,0,0.3,0.1,0.3,0.3v0.7c0,0.2-0.1,0.3-0.3,0.3h-2.7v6h2.7c0.1,0,0.3,0.1,0.3,0.3v0.6
				c0,0.2-0.1,0.3-0.3,0.3h-5.4c-0.2,0-0.3-0.1-0.3-0.3v-0.6c0-0.2,0.1-0.3,0.3-0.3h1.3v-6h-1.3c-0.1,0-0.3-0.1-0.3-0.3v-0.7
				c0-0.2,0.1-0.3,0.3-0.3h1.3V630c0-2.9,1.9-3.3,4.4-3.3h0.5c0.2,0,0.3,0.1,0.3,0.3v0.6c0,0.2-0.1,0.3-0.3,0.3
				c-2.6,0-3.5,0-3.5,2.1v0.4H1371.8z"/>
		</g>
	</g>
	<g>
		<g>
			<text transform="matrix(1 0 0 1 2 419.5662)" class="st0 st1 st2">02</text>
		</g>
	</g>
	<g>
		<text transform="matrix(1 0 0 1 1.9716 306.6125)" class="st0 st1 st2">01</text>
	</g>
	<g>
		<path class="st0" d="M144.2,284.8h-2.5l-1.1,4.1c0,0.2-0.2,0.3-0.3,0.3h-0.8c-0.1,0-0.3-0.1-0.2-0.3l2.8-10.5
			c0.1-0.3,0.2-0.4,0.5-0.4h0.8c0.3,0,0.4,0.1,0.5,0.4l2.8,10.5c0,0.1-0.1,0.3-0.2,0.3h-0.8c-0.2,0-0.3-0.1-0.3-0.3L144.2,284.8z
			 M142,283.5h1.9l-0.9-3.8L142,283.5z"/>
		<path class="st0" d="M155.3,286.1v-5c0-1.8,1.6-3.2,3.6-3.2c0.9,0,2.1,0.3,2.9,1.4c0.1,0.1,0.1,0.4-0.1,0.5l-0.4,0.3
			c-0.2,0.1-0.4,0.1-0.5,0c-0.5-0.5-1.2-0.9-1.9-0.9c-1.2,0-2.3,0.9-2.3,1.9v5.1c0,1.1,1.1,1.9,2.3,1.9s2.3-0.9,2.3-1.9v-1.9H159
			c-0.1,0-0.3-0.1-0.3-0.3v-0.7c0-0.2,0.1-0.3,0.3-0.3h2.8c0.5,0,0.9,0.4,0.9,0.9v2.3c0,1.8-1.7,3.3-3.7,3.3
			S155.3,287.9,155.3,286.1z"/>
		<path class="st0" d="M165.8,283.7c0-1.8,1.5-3.2,3.5-3.2c1.9,0,3.4,1.4,3.4,3.2v2.3c0,1.8-1.5,3.3-3.4,3.3c-2,0-3.5-1.5-3.5-3.3
			V283.7z M171.3,286.1v-2.5c0-1.1-0.9-1.9-2.1-1.9c-1.1,0-2,0.9-2,1.9v2.5c0,1,0.9,1.9,2,1.9C170.3,288.1,171.3,287.2,171.3,286.1z
			"/>
		<path class="st0" d="M182.1,277c0.2,0,0.3,0.1,0.3,0.3v11.6c0,0.1-0.1,0.3-0.3,0.3h-0.7c-0.1,0-0.3-0.1-0.3-0.2v-0.6
			c-0.5,0.7-1.3,1-2.2,1c-1.9,0-3.4-1.5-3.4-3.3v-2.3c0-1.8,1.5-3.2,3.4-3.2c0.8,0,1.5,0.3,2.1,0.8v-4.1c0-0.1,0.1-0.3,0.3-0.3
			H182.1z M176.9,286c0,1.2,0.9,2.1,2.1,2.1s2.1-0.9,2.1-2.1v-2.2c0-1.2-0.9-2.1-2.1-2.1s-2.1,0.9-2.1,2.1V286z"/>
		<path class="st0" d="M193.2,281.1v5.1c0,1.1,1.1,1.9,2.3,1.9c0.7,0,1.5-0.4,1.9-0.9c0.2-0.2,0.4-0.2,0.5,0l0.4,0.3
			c0.2,0.1,0.2,0.4,0.1,0.5c-0.8,1.1-2,1.4-2.9,1.4c-2,0-3.6-1.5-3.6-3.3v-5c0-1.8,1.6-3.2,3.6-3.2c0.9,0,2.1,0.3,2.9,1.4
			c0.1,0.1,0.1,0.4-0.1,0.5l-0.4,0.3c-0.2,0.1-0.4,0.1-0.5,0c-0.5-0.5-1.2-0.9-1.9-0.9C194.2,279.1,193.2,280,193.2,281.1z"/>
		<path class="st0" d="M206.5,288.5c-0.6,0.5-1.6,0.8-2.6,0.8c-1.5,0-2.9-0.8-3-2.5c-0.1-1.8,1.6-2.8,3.5-2.8h2v-0.6
			c0-1.8-1.2-1.5-3.7-1.5c-0.2,0-0.3-0.1-0.3-0.3V281c0-0.2,0.1-0.3,0.3-0.3c0.7-0.1,1.3-0.1,1.8-0.1c2.2,0,3.2,0.6,3.2,3.3v5
			c0,0.2-0.1,0.3-0.3,0.3h-0.7c-0.1,0-0.3-0.1-0.3-0.3V288.5z M206.4,285.1h-2c-1.5,0-2.3,0.7-2.2,1.7c0.1,0.9,0.8,1.3,1.7,1.3
			c0.9,0,2-0.4,2.5-1V285.1z"/>
		<path class="st0" d="M215,287.9h2.4c0.2,0,0.3,0.1,0.3,0.3v0.6c0,0.2-0.1,0.3-0.3,0.3h-6.2c-0.2,0-0.3-0.1-0.3-0.3v-0.6
			c0-0.2,0.1-0.3,0.3-0.3h2.4v-9.7h-1.2c-0.1,0-0.3-0.1-0.3-0.3v-0.7c0-0.2,0.1-0.3,0.3-0.3h2.2c0.2,0,0.4,0.2,0.4,0.4V287.9z"/>
		<path class="st0" d="M224.7,287.9h2.4c0.2,0,0.3,0.1,0.3,0.3v0.6c0,0.2-0.1,0.3-0.3,0.3h-6.2c-0.2,0-0.3-0.1-0.3-0.3v-0.6
			c0-0.2,0.1-0.3,0.3-0.3h2.4v-9.7h-1.2c-0.1,0-0.3-0.1-0.3-0.3v-0.7c0-0.2,0.1-0.3,0.3-0.3h2.2c0.2,0,0.4,0.2,0.4,0.4V287.9z"/>
		<path class="st0" d="M231.7,285.3v0.6c0,1.8,1,2.1,3.7,2.1c0.2,0,0.3,0.1,0.3,0.3v0.5c0,0.2-0.1,0.3-0.3,0.3h-0.7
			c-2.5,0-4.4-0.4-4.4-3.3v-2.1c0-1.8,1.5-3.2,3.4-3.2s3.4,1.4,3.4,3.2v0.9c0,0.4-0.3,0.7-0.7,0.7H231.7z M231.7,284.1h4v-0.5
			c0-1.1-0.9-1.9-2-1.9s-2,0.9-2,1.9V284.1z"/>
		<path class="st0" d="M246.3,277c0.2,0,0.3,0.1,0.3,0.3v11.6c0,0.1-0.1,0.3-0.3,0.3h-0.7c-0.1,0-0.3-0.1-0.3-0.2v-0.6
			c-0.5,0.7-1.3,1-2.2,1c-1.9,0-3.4-1.5-3.4-3.3v-2.3c0-1.8,1.5-3.2,3.4-3.2c0.8,0,1.5,0.3,2.1,0.8v-4.1c0-0.1,0.1-0.3,0.3-0.3
			H246.3z M241,286c0,1.2,0.9,2.1,2.1,2.1s2.1-0.9,2.1-2.1v-2.2c0-1.2-0.9-2.1-2.1-2.1s-2.1,0.9-2.1,2.1V286z"/>
		<path class="st0" d="M257.4,283.4v5.4c0,0.1-0.1,0.3-0.3,0.3h-0.8c-0.2,0-0.3-0.1-0.3-0.3v-10.6c0-0.1,0.1-0.3,0.3-0.3h0.8
			c0.2,0,0.3,0.1,0.3,0.3v3.8h4.1v-3.8c0-0.1,0.1-0.3,0.3-0.3h0.8c0.2,0,0.3,0.1,0.3,0.3v10.6c0,0.1-0.1,0.3-0.3,0.3h-0.8
			c-0.2,0-0.3-0.1-0.3-0.3v-5.4H257.4z"/>
		<path class="st0" d="M271.6,288.4c-0.9,0.5-2,0.9-2.9,0.9c-1.5,0-2.6-0.8-2.6-3.2v-5.2c0-0.2,0.1-0.3,0.3-0.3h0.9
			c0.1,0,0.3,0.1,0.3,0.3v5.5c0,1.2,0.6,1.5,1.4,1.5c0.9,0,1.9-0.4,2.6-0.8v-6.2c0-0.2,0.1-0.3,0.3-0.3h0.8c0.2,0,0.3,0.1,0.3,0.3
			v7.9c0,0.1-0.1,0.3-0.3,0.3h-0.7c-0.2,0-0.3-0.1-0.3-0.3V288.4z"/>
		<path class="st0" d="M277.7,277c0.2,0,0.3,0.1,0.3,0.3v4.1c0.5-0.5,1.2-0.8,2.1-0.8c1.9,0,3.4,1.4,3.4,3.2v2.3
			c0,1.8-1.5,3.3-3.4,3.3c-0.9,0-1.8-0.4-2.2-1v0.6c0,0.1-0.1,0.2-0.3,0.2h-0.7c-0.2,0-0.3-0.1-0.3-0.3v-11.6c0-0.1,0.1-0.3,0.3-0.3
			H277.7z M282.1,283.8c0-1.2-0.9-2.1-2.1-2.1s-2.1,0.9-2.1,2.1v2.2c0,1.2,0.9,2.1,2.1,2.1s2.1-0.9,2.1-2.1V283.8z"/>
		<path class="st0" d="M289,282.5c0.7-1.5,1.9-1.9,3.2-1.9h0.4c0.2,0,0.3,0.1,0.3,0.3v0.6c0,0.2-0.1,0.3-0.3,0.3h-0.4
			c-1.9,0-2.7,1.2-3.2,2v4h2.3c0.2,0,0.3,0.1,0.3,0.3v0.6c0,0.2-0.1,0.3-0.3,0.3h-4.8c-0.2,0-0.3-0.1-0.3-0.3v-0.6
			c0-0.2,0.1-0.3,0.3-0.3h1.3v-6h-1.3c-0.2,0-0.3-0.1-0.3-0.3v-0.7c0-0.2,0.1-0.3,0.3-0.3h2.2c0.2,0,0.4,0.2,0.4,0.4V282.5z"/>
		<path class="st0" d="M299.6,287.9h2.4c0.2,0,0.3,0.1,0.3,0.3v0.6c0,0.2-0.1,0.3-0.3,0.3h-6.2c-0.2,0-0.3-0.1-0.3-0.3v-0.6
			c0-0.2,0.1-0.3,0.3-0.3h2.4v-6H297c-0.1,0-0.3-0.1-0.3-0.3v-0.7c0-0.2,0.1-0.3,0.3-0.3h2.2c0.2,0,0.4,0.2,0.4,0.4V287.9z
			 M298.5,276.7c0.6,0,1.2,0.5,1.2,1.2c0,0.6-0.5,1.2-1.2,1.2s-1.2-0.5-1.2-1.2C297.4,277.2,297.9,276.7,298.5,276.7z"/>
		<path class="st0" d="M306.6,282.7c-0.1,0.9,1,1.3,2.3,1.6c2.5,0.6,3.3,1.5,3.2,2.9c-0.1,1.2-1.4,2.1-3.4,2.1c-0.9,0-1.9-0.2-3-0.5
			c-0.2-0.1-0.3-0.2-0.3-0.4l0.1-0.4c0.1-0.2,0.2-0.3,0.5-0.2c1,0.2,1.9,0.4,2.6,0.4c1.1,0,2-0.3,2.1-1.1c0.1-0.9-1-1.3-2.3-1.6
			c-2.5-0.6-3.4-1.4-3.3-2.9c0.1-1.2,1.3-2.1,3.2-2.1c0.9,0,1.8,0.2,2.9,0.5c0.2,0.1,0.3,0.2,0.3,0.4l-0.1,0.4
			c-0.1,0.2-0.2,0.3-0.5,0.2c-1-0.2-1.8-0.4-2.6-0.4C307.4,281.6,306.7,281.9,306.6,282.7z"/>
	</g>
	<g>
		<g>
			<path class="st0" d="M146.6,401.9c0,0.1-0.1,0.3-0.3,0.3h-0.8c-0.2,0-0.3-0.1-0.3-0.3v-8.2l-1.6,2.9c-0.1,0.2-0.3,0.4-0.5,0.4
				c-0.3,0-0.4-0.1-0.5-0.4l-1.6-2.9v8.2c0,0.1-0.1,0.3-0.3,0.3H140c-0.2,0-0.3-0.1-0.3-0.3v-10.5c0-0.2,0.1-0.3,0.3-0.3h1l2.1,4.1
				l2.1-4.1h1c0.2,0,0.3,0.2,0.3,0.3V401.9z"/>
			<path class="st0" d="M155.2,401.5c-0.6,0.5-1.6,0.8-2.6,0.8c-1.5,0-2.9-0.8-3-2.5c-0.1-1.8,1.6-2.8,3.5-2.8h2v-0.6
				c0-1.8-1.2-1.5-3.7-1.5c-0.2,0-0.3-0.1-0.3-0.3V394c0-0.2,0.1-0.3,0.3-0.3c0.7-0.1,1.3-0.1,1.8-0.1c2.2,0,3.2,0.6,3.2,3.3v5
				c0,0.2-0.1,0.3-0.3,0.3h-0.7c-0.1,0-0.3-0.1-0.3-0.3V401.5z M155.2,398.1h-2c-1.5,0-2.3,0.7-2.2,1.7c0.1,0.9,0.8,1.3,1.7,1.3
				c0.9,0,2-0.4,2.5-1V398.1z"/>
			<path class="st0" d="M163.4,394.9h-3.5c-0.2,0-0.3-0.1-0.3-0.3V394c0-0.1,0.1-0.3,0.3-0.3h6c0.1,0,0.3,0.1,0.3,0.3v0.7
				c0,0.2-0.1,0.3-0.3,0.3h-1.1v7.7c0,2.9-1.9,3.3-4.4,3.3h-0.6c-0.2,0-0.3-0.1-0.3-0.3V405c0-0.2,0.1-0.3,0.3-0.3
				c2.8,0,3.6-0.2,3.6-2.3L163.4,394.9z M164,389.7c0.6,0,1.2,0.5,1.2,1.2c0,0.6-0.5,1.2-1.2,1.2c-0.6,0-1.2-0.5-1.2-1.2
				C162.8,390.2,163.3,389.7,164,389.7z"/>
			<path class="st0" d="M169.1,396.8c0-1.8,1.5-3.2,3.5-3.2c1.9,0,3.4,1.4,3.4,3.2v2.3c0,1.8-1.5,3.3-3.4,3.3c-2,0-3.5-1.5-3.5-3.3
				V396.8z M174.6,399.2v-2.5c0-1.1-0.9-1.9-2.1-1.9c-1.1,0-2,0.9-2,1.9v2.5c0,1,0.9,1.9,2,1.9C173.7,401.1,174.6,400.2,174.6,399.2
				z"/>
			<path class="st0" d="M181.8,395.6c0.7-1.5,1.9-1.9,3.2-1.9h0.4c0.2,0,0.3,0.1,0.3,0.3v0.6c0,0.2-0.1,0.3-0.3,0.3h-0.4
				c-1.9,0-2.7,1.2-3.2,2v4h2.3c0.2,0,0.3,0.1,0.3,0.3v0.6c0,0.2-0.1,0.3-0.3,0.3h-4.8c-0.2,0-0.3-0.1-0.3-0.3v-0.6
				c0-0.2,0.1-0.3,0.3-0.3h1.3v-6h-1.3c-0.2,0-0.3-0.1-0.3-0.3V394c0-0.2,0.1-0.3,0.3-0.3h2.2c0.2,0,0.4,0.2,0.4,0.4V395.6z"/>
			<path class="st0" d="M194.5,391.3c0-0.1,0.1-0.3,0.3-0.3h0.8c0.2,0,0.3,0.1,0.3,0.3v9.5h5.2c0.1,0,0.3,0.1,0.3,0.3v0.8
				c0,0.2-0.1,0.3-0.3,0.3h-6.2c-0.2,0-0.4-0.2-0.4-0.4V391.3z"/>
			<path class="st0" d="M205.6,398.3v0.6c0,1.8,1,2.1,3.7,2.1c0.2,0,0.3,0.1,0.3,0.3v0.5c0,0.2-0.1,0.3-0.3,0.3h-0.7
				c-2.5,0-4.4-0.4-4.4-3.3v-2.1c0-1.8,1.5-3.2,3.4-3.2s3.4,1.4,3.4,3.2v0.9c0,0.4-0.3,0.7-0.7,0.7H205.6z M205.6,397.1h4v-0.5
				c0-1.1-0.9-1.9-2-1.9s-2,0.9-2,1.9V397.1z"/>
			<path class="st0" d="M219.1,401.5c-0.6,0.5-1.6,0.8-2.6,0.8c-1.5,0-2.9-0.8-3-2.5c-0.1-1.8,1.6-2.8,3.5-2.8h2v-0.6
				c0-1.8-1.2-1.5-3.7-1.5c-0.2,0-0.3-0.1-0.3-0.3V394c0-0.2,0.1-0.3,0.3-0.3c0.7-0.1,1.3-0.1,1.8-0.1c2.2,0,3.2,0.6,3.2,3.3v5
				c0,0.2-0.1,0.3-0.3,0.3h-0.7c-0.1,0-0.3-0.1-0.3-0.3V401.5z M219,398.1h-2c-1.5,0-2.3,0.7-2.2,1.7c0.1,0.9,0.8,1.3,1.7,1.3
				s2-0.4,2.5-1V398.1z"/>
			<path class="st0" d="M230.2,402.6c0,2.9-1.9,3.3-4.4,3.3h-0.6c-0.2,0-0.3-0.1-0.3-0.3V405c0-0.2,0.1-0.3,0.3-0.3
				c2.8,0,3.6-0.2,3.6-2.3v-0.7c-0.6,0.5-1.3,0.7-2.1,0.7c-1.9,0-3.4-1.5-3.4-3.2v-2.3c0-1.8,1.5-3.2,3.4-3.2c0.9,0,1.8,0.4,2.2,1
				V394c0-0.1,0.1-0.3,0.3-0.3h0.7c0.2,0,0.3,0.1,0.3,0.3V402.6z M228.8,396.6c0-1-1-1.9-2.1-1.9c-1.1,0-2,0.9-2,1.9v2.5
				c0,1.1,0.9,1.9,2,1.9c1.1,0,2.1-0.8,2.1-1.9V396.6z"/>
			<path class="st0" d="M238.9,401.5c-0.9,0.5-2,0.9-2.9,0.9c-1.5,0-2.6-0.8-2.6-3.2V394c0-0.2,0.1-0.3,0.3-0.3h0.9
				c0.1,0,0.3,0.1,0.3,0.3v5.5c0,1.2,0.6,1.5,1.4,1.5c0.9,0,1.9-0.4,2.6-0.8V394c0-0.2,0.1-0.3,0.3-0.3h0.8c0.2,0,0.3,0.1,0.3,0.3
				v7.9c0,0.1-0.1,0.3-0.3,0.3h-0.7c-0.2,0-0.3-0.1-0.3-0.3V401.5z"/>
			<path class="st0" d="M245,398.3v0.6c0,1.8,1,2.1,3.7,2.1c0.2,0,0.3,0.1,0.3,0.3v0.5c0,0.2-0.1,0.3-0.3,0.3h-0.7
				c-2.5,0-4.4-0.4-4.4-3.3v-2.1c0-1.8,1.5-3.2,3.4-3.2s3.4,1.4,3.4,3.2v0.9c0,0.4-0.3,0.7-0.7,0.7H245z M245,397.1h4v-0.5
				c0-1.1-0.9-1.9-2-1.9s-2,0.9-2,1.9V397.1z"/>
			<path class="st0" d="M260.6,394.1v5.1c0,1.1,1.1,1.9,2.3,1.9c0.7,0,1.5-0.4,1.9-0.9c0.2-0.2,0.4-0.2,0.5,0l0.4,0.3
				c0.2,0.1,0.2,0.4,0.1,0.5c-0.8,1.1-2,1.4-2.9,1.4c-2,0-3.6-1.5-3.6-3.3v-5c0-1.8,1.6-3.2,3.6-3.2c0.9,0,2.1,0.3,2.9,1.4
				c0.1,0.1,0.1,0.4-0.1,0.5l-0.4,0.3c-0.2,0.1-0.4,0.1-0.5,0c-0.5-0.5-1.2-0.9-1.9-0.9C261.7,392.2,260.6,393,260.6,394.1z"/>
			<path class="st0" d="M270.3,394.4c1-0.5,2-0.9,2.9-0.9c1.5,0,2.6,0.8,2.6,3.2v5.2c0,0.2-0.1,0.3-0.3,0.3h-0.9
				c-0.1,0-0.3-0.1-0.3-0.3v-5.5c0-1.2-0.6-1.5-1.4-1.5c-0.8,0-1.9,0.4-2.6,0.9v6.2c0,0.2-0.1,0.3-0.3,0.3h-0.8
				c-0.2,0-0.3-0.1-0.3-0.3v-11.6c0-0.1,0.1-0.3,0.3-0.3h0.8c0.2,0,0.3,0.1,0.3,0.3V394.4z"/>
			<path class="st0" d="M279.9,398.3v0.6c0,1.8,1,2.1,3.7,2.1c0.2,0,0.3,0.1,0.3,0.3v0.5c0,0.2-0.1,0.3-0.3,0.3h-0.7
				c-2.5,0-4.4-0.4-4.4-3.3v-2.1c0-1.8,1.5-3.2,3.4-3.2s3.4,1.4,3.4,3.2v0.9c0,0.4-0.3,0.7-0.7,0.7H279.9z M279.9,397.1h4v-0.5
				c0-1.1-0.9-1.9-2-1.9s-2,0.9-2,1.9V397.1z"/>
			<path class="st0" d="M289.7,394.2c0.6-0.4,1.3-0.6,2-0.6c0.5,0,1,0.2,1.2,0.6c0.6-0.4,1.4-0.7,2.1-0.7c0.9,0,1.6,0.5,1.6,1.9v6.4
				c0,0.2-0.1,0.3-0.3,0.3h-0.9c-0.2,0-0.3-0.1-0.3-0.3v-6.3c0-0.6-0.3-0.8-0.7-0.8c-0.4,0-0.8,0.1-1.3,0.4c0,0.1,0,0.2,0,0.3v6.4
				c0,0.2-0.1,0.3-0.3,0.3h-0.8c-0.1,0-0.3-0.1-0.3-0.3v-6.3c0-0.6-0.3-0.8-0.7-0.8s-1,0.2-1.4,0.4v6.7c0,0.2-0.1,0.3-0.3,0.3h-0.8
				c-0.2,0-0.3-0.1-0.3-0.3V394c0-0.1,0.1-0.3,0.3-0.3h0.7c0.2,0,0.3,0.1,0.3,0.3V394.2z"/>
			<path class="st0" d="M303.6,400.9h2.4c0.2,0,0.3,0.1,0.3,0.3v0.6c0,0.2-0.1,0.3-0.3,0.3h-6.2c-0.2,0-0.3-0.1-0.3-0.3v-0.6
				c0-0.2,0.1-0.3,0.3-0.3h2.4v-6H301c-0.1,0-0.3-0.1-0.3-0.3V394c0-0.2,0.1-0.3,0.3-0.3h2.2c0.2,0,0.4,0.2,0.4,0.4V400.9z
				 M302.5,389.7c0.6,0,1.2,0.5,1.2,1.2c0,0.6-0.5,1.2-1.2,1.2s-1.2-0.5-1.2-1.2C301.3,390.2,301.9,389.7,302.5,389.7z"/>
			<path class="st0" d="M314.3,400.2c0.1-0.2,0.3-0.2,0.5-0.1l0.4,0.3c0.2,0.1,0.1,0.4,0,0.5c-0.8,1.1-1.9,1.4-2.7,1.4
				c-1.9,0-3.4-1.5-3.4-3.3v-2.4c0-1.8,1.5-3.2,3.4-3.2c0.8,0,1.9,0.3,2.7,1.4c0.1,0.1,0.1,0.4,0,0.5l-0.4,0.3
				c-0.2,0.1-0.3,0.1-0.5-0.1c-0.4-0.5-1.1-0.9-1.8-0.9c-1.1,0-2.1,0.9-2.1,1.9v2.4c0,1.1,1,1.9,2.1,1.9
				C313.2,401.1,313.9,400.7,314.3,400.2z"/>
			<path class="st0" d="M323.3,401.5c-0.6,0.5-1.6,0.8-2.6,0.8c-1.5,0-2.9-0.8-3-2.5c-0.1-1.8,1.6-2.8,3.5-2.8h2v-0.6
				c0-1.8-1.2-1.5-3.7-1.5c-0.2,0-0.3-0.1-0.3-0.3V394c0-0.2,0.1-0.3,0.3-0.3c0.7-0.1,1.3-0.1,1.8-0.1c2.2,0,3.2,0.6,3.2,3.3v5
				c0,0.2-0.1,0.3-0.3,0.3h-0.7c-0.1,0-0.3-0.1-0.3-0.3V401.5z M323.3,398.1h-2c-1.5,0-2.3,0.7-2.2,1.7c0.1,0.9,0.8,1.3,1.7,1.3
				c0.9,0,2-0.4,2.5-1V398.1z"/>
			<path class="st0" d="M331.8,400.9h2.4c0.2,0,0.3,0.1,0.3,0.3v0.6c0,0.2-0.1,0.3-0.3,0.3H328c-0.2,0-0.3-0.1-0.3-0.3v-0.6
				c0-0.2,0.1-0.3,0.3-0.3h2.4v-9.7h-1.2c-0.1,0-0.3-0.1-0.3-0.3v-0.7c0-0.2,0.1-0.3,0.3-0.3h2.2c0.2,0,0.4,0.2,0.4,0.4V400.9z"/>
			<path class="st0" d="M338.8,395.7c-0.1,0.9,1,1.3,2.3,1.6c2.5,0.6,3.3,1.5,3.2,2.9c-0.1,1.2-1.4,2.1-3.4,2.1
				c-0.9,0-1.9-0.2-3-0.5c-0.2-0.1-0.3-0.2-0.3-0.4l0.1-0.4c0.1-0.2,0.2-0.3,0.5-0.2c1,0.2,1.9,0.4,2.6,0.4c1.1,0,2-0.3,2.1-1.1
				c0.1-0.9-1-1.3-2.3-1.6c-2.5-0.6-3.4-1.4-3.3-2.9c0.1-1.2,1.3-2.1,3.2-2.1c0.9,0,1.8,0.2,2.9,0.5c0.2,0.1,0.3,0.2,0.3,0.4
				l-0.1,0.4c-0.1,0.2-0.2,0.3-0.5,0.2c-1-0.2-1.8-0.4-2.6-0.4C339.5,394.7,338.9,394.9,338.8,395.7z"/>
		</g>
	</g>
	<g>
		<g>
			<text transform="matrix(1 0 0 1 909.4102 658.5668)" class="st0 st1 st2">12</text>
		</g>
	</g>
</g>
<g id="Layer_2">
</g>
</svg>
