<?xml version="1.0" encoding="utf-8"?>
<!-- Generator: Adobe Illustrator 25.0.1, SVG Export Plug-In . SVG Version: 6.00 Build 0)  -->
<svg version="1.1" id="Layer_1" xmlns="http://www.w3.org/2000/svg" xmlns:xlink="http://www.w3.org/1999/xlink" x="0px" y="0px"
	 viewBox="0 0 1348.3 338.7" style="enable-background:new 0 0 1348.3 338.7;" xml:space="preserve">
<style type="text/css">
	.st0{fill:none;stroke:#D38A80;stroke-width:6;stroke-miterlimit:10;}
	.st1{fill:#D38A80;}
	.st2{font-family:'PersonifyTrialRegular';}
	.st3{font-size:78.2325px;}
</style>
<line class="st0" x1="0" y1="201" x2="190.1" y2="201"/>
<text transform="matrix(1 0 0 1 0 193.1536)" class="st1 st2 st3">02</text>
<line class="st0" x1="1.9" y1="75.6" x2="192" y2="75.6"/>
<text transform="matrix(1 0 0 1 3.6777 67.8079)" class="st1 st2 st3">01</text>
<line class="st0" x1="0" y1="326.3" x2="190.1" y2="326.3"/>
<text transform="matrix(1 0 0 1 0 318.4993)" class="st1 st2 st3">03</text>
<line class="st0" x1="1158.2" y1="76.5" x2="1348.3" y2="76.5"/>
<text transform="matrix(1 0 0 1 1158.1949 68.7196)" class="st1 st2 st3">10</text>
<line class="st0" x1="772.7" y1="326.2" x2="962.8" y2="326.2"/>
<text transform="matrix(1 0 0 1 772.7008 318.3426)" class="st1 st2 st3">09</text>
<line class="st0" x1="385.4" y1="201" x2="575.5" y2="201"/>
<text transform="matrix(1 0 0 1 385.3501 193.1536)" class="st1 st2 st3">05</text>
<line class="st0" x1="387.2" y1="75.6" x2="577.3" y2="75.6"/>
<text transform="matrix(1 0 0 1 389.0278 67.8079)" class="st1 st2 st3">04</text>
<line class="st0" x1="385.4" y1="326.3" x2="575.5" y2="326.3"/>
<text transform="matrix(1 0 0 1 385.3506 318.4993)" class="st1 st2 st3">06</text>
<line class="st0" x1="772.7" y1="75.8" x2="962.8" y2="75.8"/>
<text transform="matrix(1 0 0 1 772.7008 67.9847)" class="st1 st2 st3">07</text>
<line class="st0" x1="772.7" y1="209" x2="962.8" y2="209"/>
<text transform="matrix(1 0 0 1 772.7008 201.1536)" class="st1 st2 st3">08</text>
<g>
	<path d="M12-197.2H13v7.2h3.5v0.9H12V-197.2z"/>
	<path d="M18.7-197.2v8.1h-1.1v-8.1H18.7z"/>
	<path d="M20.4-190.3c0.5,0.3,1.2,0.5,1.9,0.5c1.1,0,1.7-0.6,1.7-1.4c0-0.8-0.4-1.2-1.5-1.6c-1.3-0.5-2.1-1.2-2.1-2.3
		c0-1.2,1-2.2,2.6-2.2c0.8,0,1.4,0.2,1.8,0.4l-0.3,0.9c-0.3-0.1-0.8-0.4-1.5-0.4c-1.1,0-1.5,0.7-1.5,1.2c0,0.8,0.5,1.1,1.6,1.6
		c1.4,0.5,2.1,1.2,2.1,2.4c0,1.2-0.9,2.3-2.8,2.3c-0.8,0-1.6-0.2-2.1-0.5L20.4-190.3z"/>
	<path d="M28-196.3h-2.5v-0.9h6v0.9H29v7.2H28V-196.3z"/>
	<path d="M41.9-193.1c0,2.7-1.7,4.2-3.8,4.2c-2.2,0-3.6-1.7-3.6-4.1c0-2.5,1.5-4.2,3.8-4.2C40.6-197.3,41.9-195.5,41.9-193.1z
		 M35.6-193.1c0,1.8,0.9,3.3,2.6,3.3c1.7,0,2.6-1.5,2.6-3.3c0-1.7-0.8-3.3-2.6-3.3C36.5-196.4,35.6-194.9,35.6-193.1z"/>
	<path d="M43.2-197.2h4.4v0.9h-3.3v2.7h3.1v0.9h-3.1v3.7h-1.1V-197.2z"/>
	<path d="M51.5-190.3c0.5,0.3,1.2,0.5,1.9,0.5c1.1,0,1.7-0.6,1.7-1.4c0-0.8-0.4-1.2-1.5-1.6c-1.3-0.5-2.1-1.2-2.1-2.3
		c0-1.2,1-2.2,2.6-2.2c0.8,0,1.4,0.2,1.8,0.4l-0.3,0.9c-0.3-0.1-0.8-0.4-1.5-0.4c-1.1,0-1.5,0.7-1.5,1.2c0,0.8,0.5,1.1,1.6,1.6
		c1.4,0.5,2.1,1.2,2.1,2.4c0,1.2-0.9,2.3-2.8,2.3c-0.8,0-1.6-0.2-2.1-0.5L51.5-190.3z"/>
	<path d="M64.4-193.1c0,2.7-1.7,4.2-3.8,4.2c-2.2,0-3.6-1.7-3.6-4.1c0-2.5,1.5-4.2,3.8-4.2C63.1-197.3,64.4-195.5,64.4-193.1z
		 M58.2-193.1c0,1.8,0.9,3.3,2.6,3.3c1.7,0,2.6-1.5,2.6-3.3c0-1.7-0.8-3.3-2.6-3.3C59.1-196.4,58.2-194.9,58.2-193.1z"/>
	<path d="M65.8-189.1v-8.1H67l2.6,4.1c0.6,1,1.1,1.8,1.5,2.6l0,0c-0.1-1.1-0.1-2.1-0.1-3.3v-3.4h1v8.1h-1.1l-2.6-4.1
		c-0.6-0.9-1.1-1.8-1.5-2.7l0,0c0.1,1,0.1,2,0.1,3.3v3.5H65.8z"/>
	<path d="M79.9-189.4c-0.5,0.2-1.4,0.4-2.5,0.4c-1.2,0-2.2-0.3-3-1.1c-0.7-0.7-1.1-1.8-1.1-3c0-2.4,1.7-4.2,4.4-4.2
		c0.9,0,1.7,0.2,2,0.4l-0.3,0.9c-0.4-0.2-1-0.3-1.8-0.3c-2,0-3.2,1.2-3.2,3.2c0,2.1,1.2,3.3,3.1,3.3c0.7,0,1.2-0.1,1.4-0.2v-2.4
		h-1.6v-0.8h2.7V-189.4z"/>
	<path d="M81.3-190.3c0.5,0.3,1.2,0.5,1.9,0.5c1.1,0,1.7-0.6,1.7-1.4c0-0.8-0.4-1.2-1.5-1.6c-1.3-0.5-2.1-1.2-2.1-2.3
		c0-1.2,1-2.2,2.6-2.2c0.8,0,1.4,0.2,1.8,0.4l-0.3,0.9c-0.3-0.1-0.8-0.4-1.5-0.4c-1.1,0-1.5,0.7-1.5,1.2c0,0.8,0.5,1.1,1.6,1.6
		c1.4,0.5,2.1,1.2,2.1,2.4c0,1.2-0.9,2.3-2.8,2.3c-0.8,0-1.6-0.2-2.1-0.5L81.3-190.3z"/>
</g>
</svg>
